<svg width="20" height="17" viewBox="0 0 20 17" fill="none" xmlns="http://www.w3.org/2000/svg">
<path d="M5.07069 16.7072C4.1317 16.7072 3.30207 16.5387 2.58368 16.1999C1.8653 15.8629 1.30152 15.3782 0.896135 14.7496C0.490746 14.1211 0.287109 13.3638 0.287109 12.4796C0.287109 12.2089 0.505831 11.9911 0.773576 11.9911H2.06139C2.33102 11.9911 2.54786 12.2108 2.54786 12.4796C2.54786 13.2142 2.77412 13.7632 3.22665 14.1305C3.67917 14.4978 4.29386 14.6815 5.07069 14.6815C5.84753 14.6815 6.44713 14.5243 6.83743 14.21C7.22585 13.8958 7.42006 13.4944 7.42006 13.004C7.42006 12.667 7.3239 12.3925 7.13346 12.1824C6.94302 11.9722 6.66396 11.8018 6.29817 11.6674C5.93238 11.533 5.48928 11.408 4.96699 11.2925L4.56726 11.2054C3.73197 11.0199 3.01547 10.7832 2.41776 10.4974C1.82004 10.2115 1.36186 9.83661 1.04321 9.37087C0.724552 8.90513 0.564282 8.29929 0.564282 7.55335C0.564282 6.8074 0.741522 6.17127 1.09412 5.64116C1.44859 5.11104 1.94637 4.70399 2.59122 4.41811C3.23419 4.13223 3.99217 3.99023 4.8614 3.99023C5.73063 3.99023 6.50558 4.13791 7.18437 4.43515C7.86316 4.73239 8.39676 5.17541 8.78518 5.76232C9.1736 6.35113 9.36781 7.0876 9.36781 7.97176V8.00583C9.36781 8.27657 9.14909 8.49429 8.88135 8.49429H7.59353C7.3239 8.49429 7.10706 8.27468 7.10706 8.00583V7.97176C7.10706 7.50601 7.01656 7.13115 6.83743 6.84527C6.65831 6.55939 6.39999 6.35113 6.06248 6.21671C5.72686 6.08228 5.32524 6.01602 4.8614 6.01602C4.16564 6.01602 3.65278 6.14665 3.32092 6.40982C2.99096 6.67109 2.82503 7.02891 2.82503 7.4833C2.82503 7.78622 2.90422 8.04181 3.06072 8.25196C3.21722 8.46211 3.45291 8.63629 3.76591 8.77639C4.07891 8.91649 4.47864 9.03766 4.96699 9.14368L5.36672 9.23077C6.23595 9.41631 6.99393 9.65675 7.6369 9.94642C8.27986 10.238 8.78141 10.6223 9.14155 11.0994C9.50168 11.5765 9.68081 12.188 9.68081 12.934C9.68081 13.6799 9.49226 14.335 9.11515 14.8992C8.73805 15.4634 8.20444 15.9064 7.51434 16.2264C6.82423 16.5463 6.00969 16.7072 5.07069 16.7072Z" fill="white"/>
<path d="M19.1371 11.113C18.0982 13.2449 14.5892 13.9359 13.16 11.9631C13.0562 11.7965 12.781 11.8798 12.7866 12.0767V14.1252C12.7866 14.4755 12.9488 14.6497 13.2731 14.6497H18.0793C18.1924 14.6497 18.2829 14.7405 18.2829 14.8541V16.3668C18.2829 16.4804 18.1924 16.5713 18.0793 16.5713C17.0045 16.3631 11.8476 17.0749 11.116 16.0393C10.7672 15.6834 10.5938 15.2101 10.5938 14.6156V4.61917C10.5938 4.50558 10.6843 4.4147 10.7974 4.4147H12.5472C12.8847 4.39766 12.7112 5.07923 12.7508 5.25909C12.7508 5.37269 12.8413 5.46356 12.9544 5.46356C14.114 4.09852 15.9845 3.73123 17.7003 4.68543C19.8159 5.8176 20.1741 9.13081 19.1352 11.1149L19.1371 11.113ZM16.8066 10.5451C17.2987 10.0983 17.5174 9.35232 17.4854 8.55336C17.6645 6.31174 14.8796 5.3405 13.422 6.72826C12.9375 7.1675 12.7187 7.92291 12.7527 8.72943C12.583 10.9502 15.3472 11.9555 16.8066 10.547V10.5451Z" fill="white"/>
<path d="M7.23293 2.76141H6.27886C6.11482 2.76141 5.96397 2.65728 5.92061 2.49825C5.80559 2.0893 5.43037 1.78828 4.98727 1.78828C4.54417 1.78828 4.16895 2.0893 4.05393 2.49825C4.01057 2.65728 3.85784 2.76141 3.69568 2.76141H2.74161C2.51157 2.76141 2.33056 2.55505 2.36827 2.32785C2.57568 1.06316 3.67117 0.0957031 4.98727 0.0957031C6.30337 0.0957031 7.40075 1.06316 7.60627 2.32785C7.64398 2.55505 7.46297 2.76141 7.23293 2.76141Z" fill="white"/>
</svg>
