<svg width="16" height="9" viewBox="0 0 16 9" fill="none" xmlns="http://www.w3.org/2000/svg">
<mask id="path-1-inside-1_3209_11720" fill="white">
<path d="M8.58398 7.78408C8.58398 8.56166 9.42451 9.0498 10.0996 8.66397L15.3408 5.66787C16.021 5.27906 16.021 4.29784 15.3408 3.90908L10.0996 0.913967C9.42454 0.528148 8.58406 1.01536 8.58398 1.79287L8.58398 2.95205L0.363281 2.95205L0.363281 6.82315L8.58398 6.82315L8.58398 7.78408Z"/>
</mask>
<path d="M8.58398 7.78408C8.58398 8.56166 9.42451 9.0498 10.0996 8.66397L15.3408 5.66787C16.021 5.27906 16.021 4.29784 15.3408 3.90908L10.0996 0.913967C9.42454 0.528148 8.58406 1.01536 8.58398 1.79287L8.58398 2.95205L0.363281 2.95205L0.363281 6.82315L8.58398 6.82315L8.58398 7.78408Z" fill="#CC4924"/>
<path d="M8.58398 7.78408L8.07765 7.78408L8.58398 7.78408ZM10.0996 8.66397L10.3509 9.10354L10.3509 9.10357L10.0996 8.66397ZM15.3408 5.66787L15.5921 6.10744L15.5921 6.10745L15.3408 5.66787ZM15.3408 3.90908L15.592 3.46947L15.5921 3.46948L15.3408 3.90908ZM10.0996 0.913967L9.84839 1.35358L9.84837 1.35357L10.0996 0.913967ZM8.58398 1.79287L8.07765 1.79287L8.07765 1.79282L8.58398 1.79287ZM8.58398 2.95205L9.09031 2.95205L9.09031 3.45838L8.58398 3.45838L8.58398 2.95205ZM0.363281 2.95205L-0.14305 2.95205L-0.14305 2.44572L0.363281 2.44572L0.363281 2.95205ZM0.363281 6.82315L0.363281 7.32948L-0.143049 7.32948L-0.143049 6.82315L0.363281 6.82315ZM8.58398 6.82315L8.58398 6.31682L9.09031 6.31682L9.09031 6.82315L8.58398 6.82315ZM8.58398 7.78408L9.09031 7.78408C9.09031 8.17322 9.51112 8.41711 9.84837 8.22437L10.0996 8.66397L10.3509 9.10357C9.3379 9.6825 8.07765 8.9501 8.07765 7.78408L8.58398 7.78408ZM10.0996 8.66397L9.84833 8.22439L15.0895 5.2283L15.3408 5.66787L15.5921 6.10745L10.3509 9.10354L10.0996 8.66397ZM15.3408 5.66787L15.0895 5.2283C15.4297 5.03385 15.4296 4.54301 15.0896 4.34868L15.3408 3.90908L15.5921 3.46948C16.6124 4.05266 16.6122 5.52428 15.5921 6.10744L15.3408 5.66787ZM15.3408 3.90908L15.0896 4.3487L9.84839 1.35358L10.0996 0.913967L10.3508 0.474354L15.592 3.46947L15.3408 3.90908ZM10.0996 0.913967L9.84837 1.35357C9.51049 1.16046 9.09035 1.40456 9.09031 1.79293L8.58398 1.79287L8.07765 1.79282C8.07777 0.626155 9.33859 -0.104167 10.3509 0.474368L10.0996 0.913967ZM8.58398 1.79287L9.09031 1.79287L9.09031 2.95205L8.58398 2.95205L8.07765 2.95205L8.07765 1.79287L8.58398 1.79287ZM8.58398 2.95205L8.58398 3.45838L0.363281 3.45838L0.363281 2.95205L0.363281 2.44572L8.58398 2.44572L8.58398 2.95205ZM0.363281 2.95205L0.869611 2.95205L0.869612 6.82315L0.363281 6.82315L-0.143049 6.82315L-0.14305 2.95205L0.363281 2.95205ZM0.363281 6.82315L0.363281 6.31682L8.58398 6.31682L8.58398 6.82315L8.58398 7.32948L0.363281 7.32948L0.363281 6.82315ZM8.58398 6.82315L9.09031 6.82315L9.09031 7.78408L8.58398 7.78408L8.07765 7.78408L8.07765 6.82315L8.58398 6.82315Z" fill="url(#paint0_linear_3209_11720)" mask="url(#path-1-inside-1_3209_11720)"/>
<defs>
<linearGradient id="paint0_linear_3209_11720" x1="7.24301" y1="4.78891" x2="15.8509" y2="4.7889" gradientUnits="userSpaceOnUse">
<stop stop-color="#CC4924"/>
<stop offset="1" stop-color="white"/>
</linearGradient>
</defs>
</svg>
