<svg width="21" height="20" viewBox="0 0 21 20" fill="none" xmlns="http://www.w3.org/2000/svg">
<path d="M12.5639 2.36328H8.60646C8.11948 2.36328 7.8147 2.89081 8.05843 3.31264L9.44312 5.71159H11.7272L13.1121 3.31264C13.3561 2.89081 13.0513 2.36328 12.5639 2.36328Z" fill="#FEBB50"/>
<path d="M12.0114 6.82617H9.16073C6.34066 7.69517 4.32227 10.0246 4.32227 12.7624C4.32227 12.8748 4.32564 12.9866 4.3324 13.0976C4.49191 15.7328 6.77576 17.7399 9.4158 17.7399H11.7561C14.3959 17.7399 16.6798 15.7328 16.8395 13.0976C16.8463 12.9866 16.8497 12.8748 16.8497 12.7624C16.8497 10.0246 14.831 7.69541 12.0114 6.82617Z" fill="url(#paint0_linear_3209_11665)"/>
<path d="M13.1894 6.27285C13.1894 6.47001 13.11 6.64979 12.9804 6.77914C12.8508 6.90873 12.6684 6.98813 12.4712 6.98813H8.72089C8.32368 6.98813 8.00586 6.66741 8.00586 6.27285C8.00586 6.0757 8.08525 5.89326 8.21484 5.76367C8.34419 5.63408 8.52397 5.55469 8.72089 5.55469H12.4712C12.8685 5.55469 13.1894 5.87564 13.1894 6.27285Z" fill="#C17E48"/>
<defs>
<linearGradient id="paint0_linear_3209_11665" x1="10.586" y1="6.82617" x2="10.586" y2="17.7399" gradientUnits="userSpaceOnUse">
<stop stop-color="#FEBB50"/>
<stop offset="1" stop-color="#DE9014"/>
</linearGradient>
</defs>
</svg>
