<svg width="392" height="167" viewBox="0 0 392 167" fill="none" xmlns="http://www.w3.org/2000/svg">
    <g filter="url(#filter0_f_5_14)">
        <mask id="mask0_5_14" style="mask-type:luminance" maskUnits="userSpaceOnUse" x="0" y="-20"
            width="392" height="187">
            <path d="M392 -20H0V166.942H392V-20Z" fill="white" />
        </mask>
        <g mask="url(#mask0_5_14)">
            <path
                d="M354.165 -208.158C335.886 -251.346 305.398 -288.024 266.998 -313.95C228.626 -339.876 182.236 -355.042 132.492 -355.042C99.3195 -355.042 67.6253 -348.31 38.8153 -336.131C-4.36212 -317.86 -41.0554 -287.384 -67.0206 -249.028C-92.9535 -210.673 -108.13 -164.273 -108.101 -114.549C-108.101 -81.3912 -101.366 -49.7101 -89.1818 -20.9371C-70.9032 22.2509 -40.4435 58.9325 -2.0433 84.8547C36.3283 110.78 82.7192 125.947 132.492 125.947C165.635 125.947 197.329 119.215 226.143 107.035C269.349 88.7643 306.042 58.2887 331.979 19.9331C357.915 -18.4226 373.088 -64.7941 373.063 -114.546C373.063 -147.704 366.328 -179.385 354.169 -208.158H354.165ZM272.981 -114.546C272.981 -95.1016 269.041 -76.666 261.942 -59.8758C251.296 -34.7048 233.464 -13.2253 211.024 1.91599C188.584 17.0572 161.642 25.8851 132.495 25.8851C113.014 25.8851 94.5996 21.9755 77.8024 14.8502C52.6209 4.20523 31.1288 -13.6187 15.9527 -36.0498C0.805138 -58.4808 -7.99782 -85.3831 -8.02287 -114.546C-8.02287 -133.99 -4.083 -152.426 3.01662 -169.216C13.666 -194.387 31.5225 -215.867 53.9342 -231.008C76.3746 -246.149 103.317 -254.977 132.492 -254.977C151.944 -254.977 170.359 -251.067 187.156 -243.942C212.334 -233.297 233.826 -215.477 249.002 -193.046C264.15 -170.615 272.952 -143.712 272.981 -114.546Z"
                fill="url(#paint0_linear_5_14)" />
        </g>
    </g>
    <defs>
        <filter id="filter0_f_5_14" x="-15" y="-35" width="403.063" height="175.947"
            filterUnits="userSpaceOnUse" color-interpolation-filters="sRGB">
            <feFlood flood-opacity="0" result="BackgroundImageFix" />
            <feBlend mode="normal" in="SourceGraphic" in2="BackgroundImageFix" result="shape" />
            <feGaussianBlur stdDeviation="7.5" result="effect1_foregroundBlur_5_14" />
        </filter>
        <linearGradient id="paint0_linear_5_14" x1="508.024" y1="-152.78" x2="99.4018" y2="-111.146"
            gradientUnits="userSpaceOnUse">
            <stop offset="0.22" stop-color="#712200" />
            <stop offset="1" stop-color="#D64B05" />
        </linearGradient>
    </defs>
</svg>
