<svg width="21" height="21" viewBox="0 0 21 21" fill="none" xmlns="http://www.w3.org/2000/svg">
<path d="M2.02531 5.85352H19.4699C19.5672 5.85352 19.6437 5.92997 19.6437 6.02727V15.4098C19.6437 15.5071 19.5672 15.5836 19.4699 15.5836H2.02531C1.92801 15.5836 1.85156 15.5071 1.85156 15.4098V6.02727C1.85156 5.92997 1.92801 5.85352 2.02531 5.85352Z" fill="#87C443"/>
<path d="M2.88672 6.89648H18.5938V14.5415H2.88672V6.89648Z" fill="#3D8033"/>
<path d="M17.9128 9.14166V12.2935C17.9128 12.4012 17.819 12.4812 17.7113 12.4638C17.4367 12.4256 17.1275 12.4951 16.8217 12.707C16.5715 13.0198 16.4915 13.3534 16.5332 13.6453C16.5471 13.7495 16.4672 13.8434 16.363 13.8434H5.14556C5.03784 13.8434 4.95791 13.7495 4.97529 13.6453C5.01699 13.3534 4.93706 13.0198 4.68686 12.707C4.37758 12.4951 4.07178 12.4256 3.79725 12.4638C3.693 12.4777 3.5957 12.3978 3.5957 12.2935V9.14166C3.5957 9.03393 3.68953 8.95401 3.79725 8.97138C4.07178 9.00961 4.38106 8.94011 4.68686 8.72813C4.93706 8.41538 5.01699 8.08178 4.97529 7.78987C4.96139 7.68562 5.04131 7.5918 5.14556 7.5918H16.3595C16.4637 7.5918 16.5471 7.68562 16.5298 7.78987C16.4881 8.08178 16.568 8.41538 16.8182 8.72813C17.1275 8.94011 17.4333 9.00961 17.7078 8.97138C17.819 8.95748 17.9128 9.03741 17.9128 9.14166Z" fill="#87C443"/>
<path d="M10.7449 13.3258C12.1843 13.3258 13.3512 12.159 13.3512 10.7196C13.3512 9.28015 12.1843 8.11328 10.7449 8.11328C9.30554 8.11328 8.13867 9.28015 8.13867 10.7196C8.13867 12.159 9.30554 13.3258 10.7449 13.3258Z" fill="#3D8033"/>
<path d="M15.6383 11.5891C16.1181 11.5891 16.507 11.2001 16.507 10.7203C16.507 10.2405 16.1181 9.85156 15.6383 9.85156C15.1585 9.85156 14.7695 10.2405 14.7695 10.7203C14.7695 11.2001 15.1585 11.5891 15.6383 11.5891Z" fill="#3D8033"/>
<path d="M5.87462 11.5891C6.35442 11.5891 6.74337 11.2001 6.74337 10.7203C6.74337 10.2405 6.35442 9.85156 5.87462 9.85156C5.39481 9.85156 5.00586 10.2405 5.00586 10.7203C5.00586 11.2001 5.39481 11.5891 5.87462 11.5891Z" fill="#3D8033"/>
</svg>
