<svg width="86" height="105" viewBox="0 0 86 105" fill="none" xmlns="http://www.w3.org/2000/svg">
<path d="M42.7181 104.394C66.2805 104.394 85.3816 85.5215 85.3816 62.241C85.3816 38.9605 66.2805 20.0879 42.7181 20.0879C19.1558 20.0879 0.0546875 38.9605 0.0546875 62.241C0.0546875 85.5215 19.1558 104.394 42.7181 104.394Z" fill="#F5CEB3"/>
<path d="M16.7083 87.9397C2.34462 73.7478 2.34462 50.7286 16.7083 36.5367L42.721 0.519531L68.7338 36.5367C83.0975 50.7286 83.0975 73.7478 68.7338 87.9397C54.37 102.132 31.072 102.132 16.7083 87.9397Z" fill="black"/>
<path d="M63.0639 81.7713C74.0357 70.9307 74.0357 53.3546 63.0639 42.514C52.092 31.6734 34.303 31.6733 23.3312 42.5139C12.3593 53.3545 12.3594 70.9307 23.3312 81.7713C34.3031 92.6119 52.092 92.6119 63.0639 81.7713Z" fill="white"/>
<path d="M35.0414 76.2024C33.4322 76.2024 32.0105 75.9171 30.7794 75.3433C29.5483 74.7726 28.5822 73.952 27.8874 72.8877C27.1927 71.8234 26.8438 70.5412 26.8438 69.0441C26.8438 68.5857 27.2186 68.2171 27.6774 68.2171H29.8843C30.3464 68.2171 30.718 68.5889 30.718 69.0441C30.718 70.2879 31.1058 71.2176 31.8812 71.8395C32.6567 72.4614 33.7101 72.7723 35.0414 72.7723C36.3727 72.7723 37.4002 72.5062 38.0691 71.9741C38.7347 71.442 39.0675 70.7624 39.0675 69.9321C39.0675 69.3615 38.9027 68.8967 38.5764 68.5408C38.25 68.185 37.7718 67.8965 37.1449 67.6689C36.5181 67.4413 35.7587 67.2297 34.8637 67.0342L34.1787 66.8867C32.7472 66.5726 31.5193 66.1718 30.495 65.6878C29.4707 65.2037 28.6856 64.569 28.1395 63.7804C27.5934 62.9918 27.3187 61.966 27.3187 60.703C27.3187 59.44 27.6225 58.3628 28.2267 57.4653C28.8342 56.5677 29.6872 55.8785 30.7923 55.3944C31.8942 54.9103 33.1931 54.6699 34.6827 54.6699C36.1723 54.6699 37.5004 54.92 38.6636 55.4233C39.8269 55.9265 40.7413 56.6767 41.4069 57.6704C42.0726 58.6674 42.4054 59.9144 42.4054 61.4114V61.4691C42.4054 61.9275 42.0306 62.2962 41.5717 62.2962H39.3648C38.9027 62.2962 38.5311 61.9243 38.5311 61.4691V61.4114C38.5311 60.6228 38.376 59.9881 38.0691 59.5041C37.7621 59.02 37.3194 58.6674 36.741 58.4398C36.1659 58.2122 35.4776 58.1 34.6827 58.1C33.4904 58.1 32.6115 58.3212 32.0428 58.7668C31.4773 59.2091 31.193 59.815 31.193 60.5844C31.193 61.0973 31.3287 61.53 31.5969 61.8859C31.8651 62.2417 32.269 62.5366 32.8054 62.7738C33.3418 63.0111 34.0268 63.2162 34.8637 63.3957L35.5487 63.5432C37.0383 63.8574 38.3373 64.2645 39.4391 64.7549C40.541 65.2486 41.4005 65.8994 42.0176 66.7072C42.6348 67.515 42.9418 68.5504 42.9418 69.8135C42.9418 71.0765 42.6186 72.1857 41.9724 73.141C41.3262 74.0962 40.4117 74.8464 39.2291 75.3881C38.0464 75.9299 36.6506 76.2024 35.0414 76.2024Z" fill="black"/>
<path d="M59.1564 66.7292C57.3759 70.3388 51.3626 71.5089 48.9133 68.1686C48.7356 67.8865 48.2639 68.0275 48.2736 68.3609V71.8294C48.2736 72.4225 48.5514 72.7174 49.1072 72.7174H57.3436C57.5375 72.7174 57.6926 72.8713 57.6926 73.0636V75.6249C57.6926 75.8173 57.5375 75.9712 57.3436 75.9712C55.5018 75.6185 46.6644 76.8239 45.4107 75.0704C44.8129 74.4677 44.5156 73.6663 44.5156 72.6597V55.7338C44.5156 55.5415 44.6707 55.3876 44.8646 55.3876H47.8632C48.4416 55.3587 48.1443 56.5128 48.2122 56.8173C48.2122 57.0096 48.3673 57.1635 48.5611 57.1635C50.5483 54.8522 53.7537 54.2303 56.6942 55.846C60.3196 57.763 60.9335 63.3729 59.1531 66.7324L59.1564 66.7292ZM55.1626 65.7675C56.0059 65.011 56.3807 63.748 56.3258 62.3952C56.6328 58.5997 51.8602 56.9551 49.3625 59.3049C48.5321 60.0486 48.1572 61.3277 48.2154 62.6933C47.9246 66.4535 52.6616 68.1557 55.1626 65.7707V65.7675Z" fill="#CE4927"/>
<path d="M38.7475 52.5897H37.1125C36.8314 52.5897 36.5729 52.4134 36.4985 52.1442C36.3014 51.4517 35.6584 50.942 34.8991 50.942C34.1397 50.942 33.4967 51.4517 33.2996 52.1442C33.2253 52.4134 32.9636 52.5897 32.6857 52.5897H31.0507C30.6565 52.5897 30.3463 52.2403 30.4109 51.8557C30.7663 49.7143 32.6437 48.0762 34.8991 48.0762C37.1545 48.0762 39.0351 49.7143 39.3873 51.8557C39.4519 52.2403 39.1417 52.5897 38.7475 52.5897Z" fill="#CE4927"/>
</svg>
