<svg width="32" height="32" viewBox="0 0 32 32" fill="none" xmlns="http://www.w3.org/2000/svg">
<g clip-path="url(#clip0_2_3372)">
<path d="M29.5821 20.9083L25.2313 16.5575C24.0734 15.4003 22.5334 14.7627 20.8949 14.7627C19.2563 14.7627 17.7163 15.4003 16.5591 16.5575C14.1682 18.9484 14.1682 22.8387 16.5591 25.229L20.9099 29.5798C22.0672 30.7371 23.6072 31.3746 25.2457 31.3746C26.8848 31.3746 28.4243 30.7371 29.5821 29.5798C31.9724 27.1889 31.9724 23.2993 29.5821 20.9083ZM27.0123 27.0106C26.0383 27.9846 24.4538 27.9846 23.4798 27.0106L19.1283 22.6598C18.1544 21.6859 18.1544 20.1013 19.1283 19.1273C20.1023 18.1534 21.6874 18.1534 22.6614 19.1273L27.0123 23.4775C27.9863 24.4515 27.9863 26.0367 27.0123 27.0106Z" fill="#CC4924"/>
<path d="M15.4427 6.77063L11.0919 2.41981C9.93412 1.26256 8.39469 0.625 6.75556 0.625C5.11706 0.625 3.577 1.26256 2.41981 2.41981C1.26262 3.57706 0.625 5.117 0.625 6.75556C0.625 8.39412 1.26256 9.93412 2.41981 11.0913L6.77063 15.4421C7.92844 16.5993 9.46781 17.2369 11.107 17.2369C12.7456 17.2369 14.2856 16.5993 15.4427 15.4421C16.5999 14.2843 17.2376 12.7449 17.2376 11.1064C17.2375 9.46781 16.5999 7.92781 15.4427 6.77063ZM12.8729 12.8723C11.899 13.8463 10.3144 13.8463 9.34044 12.8723L4.98962 8.52213C4.01506 7.54819 4.01506 5.963 4.98962 4.989C5.96356 4.01506 7.54813 4.01506 8.52213 4.989L12.8736 9.33981C13.8475 10.3137 13.8475 11.8983 12.8729 12.8723Z" fill="#CC4924"/>
<path d="M17.2375 11.1068C17.2375 12.7454 16.6 14.2847 15.4427 15.4425C14.2855 16.5997 12.7455 17.2374 11.107 17.2374C10.999 17.2374 10.8917 17.2349 10.785 17.2285L9.08126 15.5247C7.96045 14.4039 7.55258 12.8363 7.85814 11.3904L9.34039 12.8727C10.3143 13.8466 11.8989 13.8466 12.8729 12.8727C13.8475 11.8987 13.8475 10.3142 12.8735 9.34016L11.3894 7.85604C11.695 7.79141 12.0094 7.75879 12.3295 7.75879C13.5375 7.75879 14.6727 8.22823 15.525 9.08041L17.2288 10.7842C17.235 10.8915 17.2375 10.9989 17.2375 11.1068Z" fill="#8B2F21"/>
<path d="M24.2429 19.6708C24.2429 19.9903 24.2103 20.3053 24.1456 20.6109L22.6615 19.1274C21.6875 18.1534 20.1023 18.1534 19.1283 19.1274C18.1544 20.1013 18.1544 21.6859 19.1283 22.6599L20.6125 24.144C20.3069 24.2086 19.9919 24.2413 19.6725 24.2413C18.4644 24.2413 17.3292 23.7718 16.477 22.9196L14.775 21.2177C14.6865 19.5415 15.2815 17.8352 16.5591 16.5575C17.7163 15.4003 19.2564 14.7627 20.8949 14.7627C21.0028 14.7627 21.1101 14.7652 21.2168 14.7715L22.9206 16.4753C23.7735 17.3281 24.2429 18.4628 24.2429 19.6708Z" fill="#8B2F21"/>
<path d="M19.6724 21.7309C19.1345 21.7309 18.6301 21.5227 18.2519 21.1445L10.8559 13.7489C10.0727 12.9657 10.0727 11.6914 10.8559 10.9082L10.909 10.8551C11.2873 10.4768 11.7918 10.2686 12.3295 10.2686C12.8674 10.2686 13.3718 10.4768 13.7499 10.855L21.146 18.2506C21.5241 18.6287 21.7324 19.1332 21.7324 19.6709C21.7324 20.2087 21.5241 20.7131 21.146 21.0912L21.0926 21.1446C20.7146 21.5227 20.2102 21.7309 19.6724 21.7309Z" fill="#CC4924"/>
<path d="M27.1448 4.8559C26.9007 4.61184 26.5051 4.61184 26.2608 4.8559L22.9909 8.12565C22.7468 8.36971 22.7468 8.76546 22.9909 9.00952C23.1129 9.13159 23.2729 9.19259 23.4328 9.19259C23.5928 9.19259 23.7527 9.13152 23.8748 9.00952L27.1447 5.73977C27.3889 5.49571 27.3889 5.09996 27.1448 4.8559Z" fill="#FDCB50"/>
<path d="M29.8213 11.1006C29.749 10.7632 29.4168 10.5483 29.0793 10.6204L25.8093 11.3206C25.4718 11.3929 25.2568 11.7251 25.329 12.0627C25.3919 12.3561 25.6511 12.5569 25.9396 12.5569C25.9829 12.5569 26.0269 12.5524 26.0711 12.5429L29.341 11.8427C29.6784 11.7704 29.8935 11.4382 29.8213 11.1006Z" fill="#FDCB50"/>
<path d="M20.9003 2.18003C20.563 2.10766 20.2306 2.32272 20.1583 2.66028L19.4579 5.93003C19.3857 6.26753 19.6006 6.59978 19.9382 6.67209C19.9823 6.68153 20.0263 6.68609 20.0697 6.68609C20.3581 6.68609 20.6174 6.48528 20.6803 6.19184L21.3806 2.92209C21.4528 2.58453 21.2379 2.25228 20.9003 2.18003Z" fill="#FDCB50"/>
<path d="M8.12693 22.9896L4.857 26.2594C4.61293 26.5035 4.61293 26.8993 4.857 27.1433C4.97906 27.2654 5.139 27.3264 5.29893 27.3264C5.45887 27.3264 5.61881 27.2653 5.74087 27.1433L9.01081 23.8736C9.25487 23.6295 9.25487 23.2338 9.01081 22.9897C8.76681 22.7456 8.37112 22.7456 8.12693 22.9896Z" fill="#FDCB50"/>
<path d="M6.67288 19.9366C6.60057 19.5991 6.26825 19.3841 5.93088 19.4564L2.66094 20.1566C2.32344 20.2289 2.10838 20.5611 2.18063 20.8987C2.2435 21.192 2.50269 21.3929 2.79119 21.3929C2.8345 21.3929 2.87857 21.3884 2.92269 21.3789L6.19263 20.6787C6.53007 20.6064 6.74513 20.2742 6.67288 19.9366Z" fill="#FDCB50"/>
<path d="M12.0637 25.3275C11.7263 25.2552 11.3939 25.4702 11.3216 25.8077L10.6213 29.0775C10.5491 29.415 10.764 29.7472 11.1016 29.8195C11.1457 29.829 11.1897 29.8335 11.2331 29.8335C11.5214 29.8335 11.7807 29.6327 11.8436 29.3393L12.5439 26.0695C12.6161 25.732 12.4012 25.3998 12.0637 25.3275Z" fill="#FDCB50"/>
<path d="M30.0239 20.4669L25.673 16.1162C24.3975 14.8408 22.7006 14.1384 20.895 14.1384C20.0255 14.1384 19.1859 14.2986 18.3934 14.6145L17.3864 13.6076C17.7024 12.8152 17.8626 11.9757 17.8627 11.1062C17.8627 9.30062 17.1602 7.60387 15.8848 6.3285L11.5337 1.97781C10.2582 0.702375 8.56137 0 6.75588 0C4.95013 0 3.25331 0.702375 1.97787 1.97781C0.702438 3.25325 0 4.95 0 6.75556C6.25e-05 8.56106 0.7025 10.2578 1.97794 11.5331L6.32881 15.8837C7.60419 17.1592 9.301 17.8616 11.1066 17.8616C11.9763 17.8616 12.8159 17.7014 13.6083 17.3854L14.6184 18.3954C13.6309 20.8847 14.2098 23.7643 16.1169 25.6716L20.4679 30.0222C21.7435 31.2976 23.4403 32 25.246 32C27.0516 32 28.7484 31.2976 30.0239 30.0221C31.2982 28.7479 32 27.0511 32 25.2446C32 23.438 31.2982 21.7412 30.0239 20.4669ZM26.5705 23.9201C26.9235 24.2731 27.1179 24.7434 27.1179 25.2445C27.1179 25.7456 26.9236 26.2159 26.5704 26.5689C25.8402 27.2994 24.6518 27.2993 23.9214 26.5689L19.7074 22.3552C20.399 22.3463 21.0467 22.0746 21.5343 21.587L21.5879 21.5334C22.0758 21.0455 22.3475 20.3978 22.3565 19.7064L26.5705 23.9201ZM21.1074 19.6712C21.1074 20.042 20.9642 20.3894 20.7043 20.6493L20.6507 20.7029C20.3907 20.9629 20.0433 21.1061 19.6724 21.1061C19.3015 21.1061 18.954 20.9629 18.6939 20.7027L11.2978 13.3072C10.7583 12.7677 10.7583 11.8899 11.2976 11.3506L11.3509 11.2972C11.6111 11.0371 11.9586 10.8938 12.3294 10.8938C12.7004 10.8938 13.0479 11.0371 13.3079 11.2972L20.704 18.6928C20.9642 18.9529 21.1074 19.3004 21.1074 19.6712ZM5.43131 8.07987C5.07825 7.72687 4.88381 7.2565 4.88381 6.75544C4.88381 6.25437 5.07819 5.78406 5.43131 5.431C6.16175 4.70063 7.35 4.70075 8.08031 5.431L12.2942 9.64469C11.6027 9.65363 10.955 9.92544 10.4672 10.4131L10.4139 10.4665C9.90956 10.9708 9.58894 11.5659 9.51425 12.1626L5.43131 8.07987ZM11.1067 16.6116C9.63494 16.6116 8.25206 16.0392 7.21275 14.9999L2.86188 10.6493C1.8225 9.60994 1.25006 8.22713 1.25 6.7555C1.25 5.28387 1.82238 3.901 2.86181 2.86169C3.90112 1.82237 5.28406 1.25 6.75588 1.25C8.22756 1.25 9.6105 1.82237 10.6499 2.86169L15.0009 7.21238C16.0403 8.25169 16.6126 9.6345 16.6126 11.1061C16.6126 11.6276 16.542 12.1354 16.4027 12.6239L14.1384 10.3598C14.0031 9.80619 13.7206 9.30313 13.3152 8.89775L8.96425 4.54706C7.74656 3.32944 5.76525 3.32937 4.54744 4.54706C3.95831 5.13619 3.63387 5.92044 3.63387 6.75537C3.63387 7.59031 3.95831 8.37463 4.54744 8.96369L8.89837 13.3144C9.304 13.72 9.80681 14.0021 10.3604 14.1374L12.6248 16.4016C12.1361 16.5411 11.6283 16.6116 11.1067 16.6116ZM29.1399 29.1383C28.1006 30.1776 26.7176 30.75 25.246 30.75C23.7743 30.75 22.3913 30.1776 21.3519 29.1383L17.001 24.7876C15.5783 23.365 15.0619 21.278 15.6018 19.3786L17.8634 21.64C17.9987 22.1936 18.2811 22.6966 18.6866 23.1022L23.0376 27.4529C23.6464 28.0617 24.4462 28.3661 25.2459 28.3661C26.0457 28.3661 26.8455 28.0617 27.4544 27.4529C28.0435 26.8638 28.3679 26.0795 28.3679 25.2446C28.368 24.4096 28.0436 23.6254 27.4544 23.0362L23.1034 18.6855C22.6979 18.2799 22.1951 17.9977 21.6414 17.8624L19.3771 15.5983C19.8657 15.4589 20.3736 15.3884 20.895 15.3884C22.3668 15.3884 23.7498 15.9608 24.7891 17.0001L29.14 21.3508C30.1782 22.389 30.75 23.7719 30.75 25.2446C30.75 26.7172 30.1783 28.1001 29.1399 29.1383Z" fill="white"/>
</g>
<defs>
<clipPath id="clip0_2_3372">
<rect width="32" height="32" fill="white"/>
</clipPath>
</defs>
</svg>
