<svg width="32" height="32" viewBox="0 0 32 32" fill="none" xmlns="http://www.w3.org/2000/svg">
<path d="M31.498 10.4963C31.498 13.7934 28.8252 16.4662 25.5281 16.4662H6.47195C3.17483 16.4662 0.502014 13.7934 0.502014 10.4963C0.502014 7.19918 3.17483 4.52637 6.47195 4.52637H25.5281C28.8252 4.52637 31.498 7.19918 31.498 10.4963Z" fill="#FDCB50"/>
<path d="M25.5401 23.2083L24.6805 24.0679L26.5508 25.9382C26.7462 26.1336 26.7462 26.4504 26.5508 26.6458L25.8701 27.3264C25.6748 27.5218 25.358 27.5218 25.1626 27.3264L23.2887 25.4526L22.4304 26.3109C22.1316 26.6097 21.6198 26.4264 21.5786 26.0058L21.2422 22.5617C21.2115 22.2477 21.4756 21.9841 21.7895 22.0152L25.2358 22.3567C25.656 22.3983 25.8388 22.9097 25.5401 23.2083Z" fill="white"/>
<path d="M25.5281 4.02637H6.47195C2.90451 4.02637 0.0020752 6.92881 0.0020752 10.4962C0.0020752 14.0637 2.90451 16.9661 6.47195 16.9661H25.5281C29.0955 16.9661 31.9979 14.0637 31.9979 10.4962C31.9979 6.92881 29.0954 4.02637 25.5281 4.02637ZM25.5281 15.9662H6.47195C3.45576 15.9662 1.00195 13.5124 1.00195 10.4962C1.00195 7.48006 3.45576 5.02624 6.47195 5.02624H25.5281C28.5443 5.02624 30.9981 7.48006 30.9981 10.4962C30.9981 13.5124 28.5443 15.9662 25.5281 15.9662Z" fill="#CC4924"/>
<path d="M7.11345 7.88184C5.67151 7.88184 4.49832 9.05477 4.49832 10.4967C4.49832 11.9386 5.67151 13.1118 7.11345 13.1118C8.55538 13.1118 9.72857 11.9386 9.72857 10.4967C9.72857 9.05477 8.55545 7.88184 7.11345 7.88184ZM7.11345 12.112C6.2227 12.112 5.4982 11.3875 5.4982 10.4967C5.4982 9.60621 6.2227 8.88171 7.11345 8.88171C8.0042 8.88171 8.7287 9.60621 8.7287 10.4967C8.72876 11.3875 8.0042 12.112 7.11345 12.112Z" fill="#CC4924"/>
<path d="M14.1465 9.4383C14.1465 8.57955 13.4479 7.88086 12.5891 7.88086H11.1452C10.8691 7.88086 10.6453 8.10473 10.6453 8.3808V12.611C10.6453 12.887 10.8691 13.1109 11.1452 13.1109C11.4213 13.1109 11.6451 12.887 11.6451 12.611V10.9957H12.28L13.1994 12.8346C13.3241 13.0842 13.6261 13.1802 13.8702 13.0582C14.1173 12.9347 14.2173 12.6345 14.0938 12.3874L13.3065 10.8125C13.8031 10.5519 14.1465 10.0371 14.1465 9.4383ZM11.6451 8.8808H12.5891C12.8965 8.8808 13.1467 9.13098 13.1467 9.43836C13.1467 9.74573 12.8965 9.99592 12.5891 9.99592H11.6451V8.8808Z" fill="#CC4924"/>
<path d="M27.5017 9.4383C27.5017 8.57955 26.8031 7.88086 25.944 7.88086H24.5002C24.2241 7.88086 24.0002 8.10473 24.0002 8.3808V12.611C24.0002 12.887 24.2241 13.1109 24.5002 13.1109C24.7762 13.1109 25.0001 12.887 25.0001 12.611V10.9957H25.635L26.5545 12.8346C26.6793 13.0842 26.9813 13.1802 27.2253 13.0582C27.4724 12.9347 27.5725 12.6345 27.449 12.3874L26.6615 10.8125C27.1583 10.5519 27.5017 10.0371 27.5017 9.4383ZM25.0001 8.8808H25.944C26.2516 8.8808 26.5018 9.13098 26.5018 9.43836C26.5018 9.74573 26.2517 9.99592 25.944 9.99592H25.0001V8.8808Z" fill="#CC4924"/>
<path d="M16.5966 7.88184H15.8264C15.5504 7.88184 15.3265 8.10571 15.3265 8.38177V12.612C15.3265 12.888 15.5504 13.1119 15.8264 13.1119H16.5966C18.0386 13.1119 19.2118 11.9387 19.2118 10.4968C19.2118 9.05484 18.0386 7.88184 16.5966 7.88184ZM16.5966 12.112H16.3264V8.88165H16.5966C17.4874 8.88165 18.2119 9.60615 18.2119 10.4966C18.2119 11.3875 17.4874 12.112 16.5966 12.112Z" fill="#CC4924"/>
<path d="M22.5978 8.88171C22.8738 8.88171 23.0977 8.65784 23.0977 8.38177C23.0977 8.10571 22.8738 7.88184 22.5978 7.88184H20.6141C20.3381 7.88184 20.1142 8.10571 20.1142 8.38177V12.612C20.1142 12.888 20.3381 13.1119 20.6141 13.1119H22.5978C22.8738 13.1119 23.0977 12.888 23.0977 12.612C23.0977 12.3359 22.8738 12.112 22.5978 12.112H21.1141V10.9967H22.5978C22.8738 10.9967 23.0977 10.7728 23.0977 10.4968C23.0977 10.2207 22.8738 9.99684 22.5978 9.99684H21.1141V8.88177H22.5978V8.88171Z" fill="#CC4924"/>
<path d="M25.3875 24.0683L25.8935 23.562C26.1698 23.286 26.2597 22.8861 26.1283 22.5185C25.997 22.1506 25.6738 21.898 25.285 21.8594L21.8391 21.5181C21.2155 21.4532 20.6831 21.9812 20.7448 22.6105L21.0812 26.0546C21.1629 26.8944 22.1853 27.2626 22.7839 26.6646L23.2887 26.1598L24.8093 27.6806C25.2 28.0708 25.8348 28.0697 26.2237 27.6804L26.9045 26.9995C27.2945 26.6097 27.2945 25.975 26.9045 25.5852L25.3875 24.0683ZM25.5159 26.9735L23.6421 25.0995C23.4473 24.9046 23.1308 24.9039 22.9352 25.0995L22.0762 25.9575L21.7403 22.5132L25.1893 22.852C25.1893 22.852 25.1886 22.853 25.1866 22.8549V22.8552L24.3272 23.7149C24.1318 23.9102 24.1318 24.2265 24.3272 24.4219L26.1975 26.2927L25.5159 26.9735Z" fill="#8B2F21"/>
<path d="M19.9096 19.9775C19.7148 19.7822 19.398 19.7822 19.2027 19.9775C19.0074 20.1726 19.0074 20.4892 19.2027 20.6845L19.7627 21.2447C19.9575 21.44 20.2743 21.44 20.4696 21.2447C20.6649 21.0497 20.6649 20.7331 20.4696 20.5378L19.9096 19.9775Z" fill="#8B2F21"/>
<path d="M22.6105 20.0655V19.2734C22.6105 18.9973 22.3866 18.7734 22.1106 18.7734C21.8345 18.7734 21.6106 18.9973 21.6106 19.2734V20.0655C21.6106 20.3416 21.8345 20.5654 22.1106 20.5654C22.3866 20.5654 22.6105 20.3416 22.6105 20.0655Z" fill="#8B2F21"/>
<path d="M19.2901 22.3857H18.498C18.222 22.3857 17.9981 22.6096 17.9981 22.8857C17.9981 23.1617 18.222 23.3856 18.498 23.3856H19.2901C19.5662 23.3856 19.7901 23.1617 19.7901 22.8857C19.7901 22.6096 19.5662 22.3857 19.2901 22.3857Z" fill="#8B2F21"/>
</svg>
