<svg width="17" height="9" viewBox="0 0 17 9" fill="none" xmlns="http://www.w3.org/2000/svg">
<mask id="path-1-inside-1_3209_11717" fill="white">
<path d="M7.61426 7.78426C7.61426 8.5617 6.77465 9.04961 6.09961 8.66414L0.857422 5.66804C0.177622 5.27916 0.177481 4.29802 0.857422 3.90925L6.09961 0.914138C6.77463 0.528481 7.61411 1.01564 7.61426 1.79304L7.61426 2.95222L16.418 2.95222L16.418 6.82332L7.61426 6.82332L7.61426 7.78426Z"/>
</mask>
<path d="M7.61426 7.78426C7.61426 8.5617 6.77465 9.04961 6.09961 8.66414L0.857422 5.66804C0.177622 5.27916 0.177481 4.29802 0.857422 3.90925L6.09961 0.914138C6.77463 0.528481 7.61411 1.01564 7.61426 1.79304L7.61426 2.95222L16.418 2.95222L16.418 6.82332L7.61426 6.82332L7.61426 7.78426Z" fill="#CC4924"/>
<path d="M7.61426 7.78426L8.12059 7.78426L7.61426 7.78426ZM6.09961 8.66414L5.84836 9.10374L5.84853 9.10383L6.09961 8.66414ZM0.857422 5.66804L0.606002 6.10754L0.606177 6.10764L0.857422 5.66804ZM0.857422 3.90925L0.606239 3.46962L0.606102 3.4697L0.857422 3.90925ZM6.09961 0.914138L5.84843 0.474502L5.84843 0.474505L6.09961 0.914138ZM7.61426 1.79304L8.12059 1.79304L8.12059 1.79295L7.61426 1.79304ZM7.61426 2.95222L7.10793 2.95222L7.10793 3.45855L7.61426 3.45855L7.61426 2.95222ZM16.418 2.95222L16.9243 2.95222L16.9243 2.44589L16.418 2.44589L16.418 2.95222ZM16.418 6.82332L16.418 7.32965L16.9243 7.32965L16.9243 6.82332L16.418 6.82332ZM7.61426 6.82332L7.61426 6.31699L7.10793 6.31699L7.10793 6.82332L7.61426 6.82332ZM7.61426 7.78426L7.10793 7.78426C7.10793 8.17346 6.68777 8.41693 6.35069 8.22445L6.09961 8.66414L5.84853 9.10383C6.86152 9.68228 8.12059 8.94994 8.12059 7.78426L7.61426 7.78426ZM6.09961 8.66414L6.35085 8.22454L1.10867 5.22845L0.857422 5.66804L0.606177 6.10764L5.84836 9.10374L6.09961 8.66414ZM0.857422 5.66804L1.10884 5.22855C0.768773 5.03401 0.768964 4.54308 1.10874 4.34881L0.857422 3.90925L0.606102 3.4697C-0.414001 4.05296 -0.41353 5.52431 0.606002 6.10754L0.857422 5.66804ZM0.857422 3.90925L1.10861 4.34889L6.35079 1.35377L6.09961 0.914138L5.84843 0.474505L0.606239 3.46962L0.857422 3.90925ZM6.09961 0.914138L6.35079 1.35377C6.68826 1.16097 7.10786 1.40441 7.10793 1.79314L7.61426 1.79304L8.12059 1.79295C8.12037 0.626864 6.86099 -0.104005 5.84843 0.474502L6.09961 0.914138ZM7.61426 1.79304L7.10793 1.79304L7.10793 2.95222L7.61426 2.95222L8.12059 2.95222L8.12059 1.79304L7.61426 1.79304ZM7.61426 2.95222L7.61426 3.45855L16.418 3.45856L16.418 2.95222L16.418 2.44589L7.61426 2.44589L7.61426 2.95222ZM16.418 2.95222L15.9116 2.95222L15.9116 6.82332L16.418 6.82332L16.9243 6.82332L16.9243 2.95222L16.418 2.95222ZM16.418 6.82332L16.418 6.31699L7.61426 6.31699L7.61426 6.82332L7.61426 7.32965L16.418 7.32965L16.418 6.82332ZM7.61426 6.82332L7.10793 6.82332L7.10793 7.78426L7.61426 7.78426L8.12059 7.78426L8.12059 6.82332L7.61426 6.82332Z" fill="url(#paint0_linear_3209_11717)" mask="url(#path-1-inside-1_3209_11717)"/>
<defs>
<linearGradient id="paint0_linear_3209_11717" x1="8.95581" y1="4.78903" x2="0.34752" y2="4.78903" gradientUnits="userSpaceOnUse">
<stop stop-color="#CC4924"/>
<stop offset="1" stop-color="white"/>
</linearGradient>
</defs>
</svg>
