<svg width="329" height="325" viewBox="0 0 329 325" fill="none" xmlns="http://www.w3.org/2000/svg">
<path d="M164.598 324.954C255.274 324.954 328.781 252.326 328.781 162.736C328.781 73.1451 255.274 0.517578 164.598 0.517578C73.9229 0.517578 0.416016 73.1451 0.416016 162.736C0.416016 252.326 73.9229 324.954 164.598 324.954Z" fill="url(#paint0_linear_95_8)"/>
<path d="M164.597 323.315C254.361 323.315 327.129 251.418 327.129 162.727C327.129 74.0371 254.361 2.1394 164.597 2.1394C74.8327 2.1394 2.06458 74.0371 2.06458 162.727C2.06458 251.418 74.8327 323.315 164.597 323.315Z" fill="white"/>
<path d="M164.596 320.194C252.612 320.194 323.962 249.697 323.962 162.735C323.962 75.7726 252.612 5.27548 164.596 5.27548C76.5811 5.27548 5.23051 75.7726 5.23051 162.735C5.23051 249.697 76.5811 320.194 164.596 320.194Z" fill="url(#paint1_linear_95_8)"/>
<path d="M164.599 316.02C250.282 316.02 319.743 247.39 319.743 162.731C319.743 78.0726 250.282 9.44296 164.599 9.44296C78.9148 9.44296 9.45428 78.0726 9.45428 162.731C9.45428 247.39 78.9148 316.02 164.599 316.02Z" fill="#FDF5EF"/>
<defs>
<linearGradient id="paint0_linear_95_8" x1="164.598" y1="0.517578" x2="164.598" y2="324.954" gradientUnits="userSpaceOnUse">
<stop stop-color="#CC4924"/>
<stop offset="1" stop-color="white"/>
</linearGradient>
<linearGradient id="paint1_linear_95_8" x1="164.596" y1="320.194" x2="164.596" y2="5.27548" gradientUnits="userSpaceOnUse">
<stop stop-color="#CC4924"/>
<stop offset="1" stop-color="#F5CEB3"/>
</linearGradient>
</defs>
</svg>
