<svg width="30" height="31" viewBox="0 0 30 31" fill="none" xmlns="http://www.w3.org/2000/svg">
<g clip-path="url(#clip0_2_3325)">
<path d="M12.7647 2.55913L10.7018 1.12207C4.60671 2.93431 0 8.61507 0 15.5003C0 19.5068 1.56 23.2738 4.39347 26.1068C7.22647 28.9403 10.9935 30.5003 15 30.5003L15.5686 18.3827L15 9.28942L12.7647 2.55913Z" fill="#F5CEB3"/>
<path d="M19.1841 1.08789L15.2647 6.58789L15.0147 9.44672L15 30.4997C19.0064 30.4997 22.7735 28.9397 25.6065 26.1061C28.44 23.2732 30 19.5061 30 15.4997C30 8.57983 25.3436 2.8656 19.1841 1.08789Z" fill="#CC4924"/>
<path d="M13.6693 4.10599L13.6177 4.11216C8.01777 4.78516 3.52942 9.54628 3.52942 15.5C3.52942 21.84 8.66089 26.9706 15 26.9706L15.5687 15.696L15 4.10352L13.6693 4.10599Z" fill="white"/>
<path d="M23.1111 7.38864L23.111 7.38853C21.2913 5.56876 18.8866 4.40329 16.3398 4.10659L16.2881 4.10059L15 4.10306V26.9701C18.0633 26.9701 20.9438 25.777 23.1111 23.6104C27.5935 19.1266 27.5942 11.8731 23.1111 7.38864Z" fill="white"/>
<path d="M24.6659 14.6176H17.4953C17.464 14.5294 17.4285 14.4431 17.3884 14.3594L22.4587 9.28906C23.7256 10.8054 24.4897 12.6501 24.6659 14.6176Z" fill="#CC4924"/>
<path d="M12.5047 16.3828C12.536 16.471 12.5715 16.5573 12.6116 16.641L7.54128 21.7113C6.2744 20.195 5.51034 18.3503 5.33411 16.3828H12.5047Z" fill="#CC4924"/>
<path d="M13.8594 17.8887C13.9431 17.9288 14.0294 17.9643 14.1177 17.9956V25.1661C12.1502 24.9899 10.3054 24.2258 8.78912 22.959L13.8594 17.8887Z" fill="#F5CEB3"/>
<path d="M15.8824 17.9956C15.9706 17.9643 16.0569 17.9287 16.1406 17.8887L21.2109 22.959C19.6945 24.2258 17.8498 24.9899 15.8824 25.1661V17.9956Z" fill="#CC4924"/>
<path d="M21.2102 8.04221L16.1405 13.1119C16.0568 13.0718 15.9705 13.0363 15.8823 13.005V5.8668L16.186 5.86621C18.0293 6.09098 19.7824 6.85462 21.2102 8.04221Z" fill="#F5CEB3"/>
<path d="M13.7778 5.87076L14.1176 5.87012V13.005C14.0294 13.0363 13.9431 13.0718 13.8594 13.1119L8.78983 8.04229C10.2089 6.86253 11.9491 6.10053 13.7778 5.87076Z" fill="#CC4924"/>
<path d="M7.54122 9.28906L12.6116 14.3594C12.5715 14.4431 12.536 14.5294 12.5047 14.6176H5.33411C5.51034 12.6501 6.27446 10.8053 7.54122 9.28906Z" fill="#F5CEB3"/>
<path d="M22.4587 21.7113L17.3884 16.641C17.4285 16.5573 17.464 16.471 17.4953 16.3828H24.6659C24.4897 18.3503 23.7255 20.1951 22.4587 21.7113Z" fill="#F5CEB3"/>
<path d="M10.7018 1.12176L15 9.41865L16.2941 3.58824L15 0.5C13.5229 0.5 12.0788 0.711765 10.7018 1.12176Z" fill="#FFD500"/>
<path d="M19.1841 1.08824C17.8412 0.700588 16.4365 0.5 15 0.5V9.41865L19.1841 1.08824Z" fill="#FFBC00"/>
<path d="M14.1176 15.4995C14.1176 15.9868 14.5127 16.3819 15 16.3819L15.5686 15.4995L15 14.6172C14.5127 14.6172 14.1176 15.0122 14.1176 15.4995Z" fill="#59739E"/>
<path d="M15 14.6172V16.3819C15.4873 16.3819 15.8824 15.9868 15.8824 15.4995C15.8824 15.0122 15.4873 14.6172 15 14.6172Z" fill="#3D558F"/>
</g>
<defs>
<clipPath id="clip0_2_3325">
<rect width="30" height="30" fill="white" transform="translate(0 0.5)"/>
</clipPath>
</defs>
</svg>
