<svg width="210" height="210" viewBox="0 0 210 210" fill="none" xmlns="http://www.w3.org/2000/svg">
<path d="M151.774 284.942C224.36 284.942 283.202 226.803 283.202 155.086C283.202 83.3688 224.36 25.2305 151.774 25.2305C79.1881 25.2305 20.3457 83.3688 20.3457 155.086C20.3457 226.803 79.1881 284.942 151.774 284.942Z" fill="url(#paint0_linear_2_3179)"/>
<path d="M151.773 283.63C223.629 283.63 281.88 226.076 281.88 155.08C281.88 84.0834 223.629 26.5293 151.773 26.5293C79.917 26.5293 21.666 84.0834 21.666 155.08C21.666 226.076 79.917 283.63 151.773 283.63Z" fill="white"/>
<path d="M151.772 281.132C222.228 281.132 279.344 224.699 279.344 155.085C279.344 85.4719 222.228 29.0391 151.772 29.0391C81.3154 29.0391 24.1992 85.4719 24.1992 155.085C24.1992 224.699 81.3154 281.132 151.772 281.132Z" fill="url(#paint1_linear_2_3179)"/>
<path d="M151.773 277.79C220.363 277.79 275.967 222.852 275.967 155.082C275.967 87.313 220.363 32.375 151.773 32.375C83.1833 32.375 27.5801 87.313 27.5801 155.082C27.5801 222.852 83.1833 277.79 151.773 277.79Z" fill="#FAE8DA"/>
<path d="M272.838 157.525C272.838 136.236 267.233 115.322 256.586 96.8863C245.94 78.4505 230.627 63.1427 212.188 52.502L151.582 157.525H272.838Z" fill="#FDF5EF"/>
<path d="M212.618 52.5109C194.181 41.8663 173.266 36.2635 151.977 36.2657C130.688 36.2679 109.775 41.8751 91.34 52.5236L151.99 157.521L212.618 52.5109Z" fill="url(#paint2_linear_2_3179)"/>
<path d="M90.9518 52.5111C72.5149 63.1557 57.2055 78.4667 46.5629 96.9048C35.9202 115.343 30.3196 136.258 30.324 157.547L151.58 157.522L90.9518 52.5111Z" fill="#FDF5EF"/>
<path d="M30.3263 157.524C30.3263 178.813 35.9314 199.727 46.5779 218.163C57.2244 236.598 72.537 251.906 90.9762 262.547L151.582 157.524L30.3263 157.524Z" fill="url(#paint3_linear_2_3179)"/>
<path d="M90.9546 262.532C109.391 273.177 130.306 278.78 151.595 278.777C172.884 278.775 193.798 273.168 212.232 262.519L151.582 157.522L90.9546 262.532Z" fill="#FDF5EF"/>
<path d="M212.21 262.532C230.647 251.887 245.957 236.576 256.599 218.138C267.242 199.7 272.843 178.785 272.838 157.496L151.582 157.521L212.21 262.532Z" fill="url(#paint4_linear_2_3179)"/>
<path d="M151.341 156.572C151.222 156.572 151.096 156.55 150.984 156.506C150.575 156.344 150.322 155.932 150.366 155.498L150.404 155.182C150.404 155.182 150.411 155.116 150.419 155.101C150.508 154.667 150.887 154.307 151.326 154.285C151.468 154.278 151.609 154.292 151.736 154.336C151.996 154.373 152.234 154.52 152.391 154.741C152.636 155.094 152.629 155.564 152.353 155.895L152.13 156.182C151.944 156.432 151.646 156.572 151.341 156.572Z" fill="#231F20"/>
<path d="M151.474 156.396C151.08 156.396 150.708 156.161 150.559 155.771L150.536 155.705C150.321 155.241 150.499 154.682 150.953 154.432C151.43 154.175 152.017 154.337 152.278 154.807L152.293 154.837C152.293 154.837 152.323 154.888 152.33 154.918C152.33 154.925 152.36 154.984 152.36 154.991L152.39 155.065C152.583 155.565 152.33 156.124 151.824 156.322C151.705 156.366 151.586 156.388 151.474 156.388V156.396Z" fill="#231F20"/>
<path d="M151.503 156.321C151.324 156.321 151.153 156.269 150.989 156.166C150.967 156.151 150.9 156.107 150.878 156.093C150.454 155.762 150.357 155.144 150.692 154.718C151.027 154.298 151.629 154.21 152.054 154.534L152.076 154.548C152.485 154.857 152.604 155.431 152.329 155.865C152.135 156.151 151.83 156.321 151.51 156.321H151.503Z" fill="#231F20"/>
<path d="M151.389 156.241C151.188 156.241 150.979 156.175 150.808 156.043L150.778 156.021C150.347 155.69 150.272 155.087 150.6 154.66C150.935 154.234 151.545 154.16 151.977 154.484C152.408 154.815 152.497 155.433 152.17 155.859C151.977 156.109 151.686 156.241 151.389 156.241Z" fill="#231F20"/>
<path d="M151.555 156.283C151.495 156.283 151.428 156.283 151.369 156.268H151.331C150.803 156.158 150.453 155.643 150.557 155.121C150.662 154.592 151.175 154.253 151.711 154.356C152.239 154.459 152.611 154.974 152.507 155.503C152.418 155.967 152.016 156.29 151.562 156.29L151.555 156.283Z" fill="#231F20"/>
<path d="M151.449 156.273C151.412 156.273 151.375 156.273 151.337 156.273C151.337 156.273 151.256 156.266 151.248 156.266C150.712 156.2 150.325 155.715 150.392 155.185C150.459 154.656 150.95 154.273 151.486 154.339H151.538C152.074 154.413 152.469 154.898 152.409 155.428C152.35 155.92 151.94 156.281 151.449 156.281V156.273Z" fill="#231F20"/>
<path d="M151.362 156.339C150.96 156.339 150.588 156.096 150.439 155.699C150.253 155.199 150.513 154.64 151.027 154.456H151.057C151.525 154.214 152.113 154.383 152.366 154.846C152.627 155.316 152.456 155.897 151.979 156.155C151.965 156.162 151.92 156.184 151.905 156.191C151.875 156.206 151.808 156.236 151.779 156.243L151.697 156.272C151.585 156.309 151.473 156.331 151.362 156.331V156.339Z" fill="#231F20"/>
<path opacity="0.2" d="M151.585 36.3809C84.6131 36.3809 30.3164 89.3185 30.3164 154.614C30.3164 219.909 84.6056 272.847 151.585 272.847C218.564 272.847 272.846 219.909 272.846 154.614C272.846 89.3185 218.556 36.3809 151.585 36.3809ZM149.82 260.823C87.8749 260.823 37.6592 211.864 37.6592 151.477C37.6592 91.0901 87.8749 42.1241 149.82 42.1241C211.765 42.1241 261.973 91.0828 261.973 151.477C261.973 211.872 211.757 260.823 149.82 260.823Z" fill="#702862"/>
<path d="M206.856 122.227C206.42 121.472 206.207 120.735 206.218 120.018C206.232 119.307 206.442 118.646 206.846 118.034C207.254 117.429 207.822 116.916 208.549 116.496C209.291 116.068 210.024 115.834 210.749 115.794C211.481 115.75 212.16 115.903 212.787 116.253C213.421 116.598 213.956 117.148 214.392 117.903C214.828 118.659 215.038 119.392 215.024 120.102C215.013 120.82 214.805 121.484 214.401 122.096C214.004 122.704 213.438 123.22 212.704 123.644C211.977 124.064 211.247 124.296 210.515 124.34C209.787 124.391 209.104 124.24 208.466 123.888C207.832 123.543 207.296 122.989 206.856 122.227ZM208.073 121.551C208.377 122.078 208.746 122.438 209.181 122.63C209.615 122.823 210.071 122.883 210.547 122.812C211.026 122.747 211.485 122.589 211.921 122.337C212.254 122.145 212.546 121.916 212.799 121.65C213.056 121.39 213.252 121.097 213.386 120.77C213.525 120.45 213.581 120.108 213.556 119.744C213.537 119.376 213.414 118.994 213.186 118.599C212.886 118.08 212.517 117.72 212.078 117.521C211.644 117.328 211.187 117.264 210.707 117.329C210.227 117.394 209.762 117.556 209.311 117.816C208.868 118.072 208.498 118.392 208.202 118.775C207.906 119.158 207.733 119.586 207.682 120.059C207.643 120.534 207.773 121.032 208.073 121.551ZM209.888 127.287L214.242 124.773L213.75 123.921L214.873 123.273L215.365 124.125L215.884 123.825C216.3 123.585 216.676 123.451 217.011 123.424C217.353 123.393 217.665 123.476 217.945 123.675C218.23 123.88 218.496 124.197 218.744 124.627L219.212 125.437L218.09 126.085L217.706 125.42C217.598 125.233 217.483 125.105 217.36 125.038C217.238 124.97 217.1 124.947 216.948 124.971C216.806 124.997 216.649 125.061 216.475 125.161L216.091 125.383L216.895 126.775L215.772 127.423L214.968 126.031L210.614 128.545L209.888 127.287ZM212.156 131.215L216.51 128.701L216.018 127.848L217.14 127.2L217.632 128.053L218.152 127.753C218.568 127.513 218.943 127.379 219.278 127.352C219.621 127.32 219.932 127.404 220.213 127.602C220.497 127.807 220.764 128.125 221.012 128.554L221.48 129.365L220.357 130.013L219.973 129.348C219.865 129.161 219.75 129.033 219.628 128.965C219.506 128.897 219.368 128.875 219.215 128.898C219.074 128.925 218.916 128.988 218.743 129.088L218.358 129.31L219.162 130.703L218.04 131.351L217.236 129.958L212.882 132.472L212.156 131.215Z" fill="black"/>
<path d="M116.816 74V62.582H113.758V60.206C114.359 60.1913 114.902 60.14 115.386 60.052C115.87 59.9493 116.302 59.7733 116.684 59.524C117.065 59.26 117.395 58.8933 117.674 58.424H119.962V74H116.816ZM129.282 74.176C128.138 74.176 127.17 73.9707 126.378 73.56C125.586 73.1493 124.941 72.5847 124.442 71.866C123.943 71.1327 123.584 70.2893 123.364 69.336C123.144 68.368 123.034 67.3413 123.034 66.256C123.034 65.1413 123.144 64.1 123.364 63.132C123.599 62.164 123.965 61.3133 124.464 60.58C124.977 59.8467 125.63 59.2747 126.422 58.864C127.229 58.4533 128.197 58.248 129.326 58.248C130.499 58.248 131.482 58.4607 132.274 58.886C133.081 59.3113 133.726 59.9053 134.21 60.668C134.709 61.416 135.061 62.2667 135.266 63.22C135.486 64.1733 135.596 65.1707 135.596 66.212C135.596 67.2827 135.486 68.2947 135.266 69.248C135.046 70.2013 134.694 71.052 134.21 71.8C133.726 72.5333 133.081 73.1127 132.274 73.538C131.467 73.9633 130.47 74.176 129.282 74.176ZM129.282 71.272C130.001 71.272 130.565 71.1107 130.976 70.788C131.401 70.4507 131.717 70.018 131.922 69.49C132.142 68.962 132.281 68.412 132.34 67.84C132.413 67.2533 132.45 66.7107 132.45 66.212C132.45 65.7427 132.413 65.222 132.34 64.65C132.281 64.0633 132.149 63.5133 131.944 63C131.739 62.472 131.431 62.0393 131.02 61.702C130.609 61.3647 130.052 61.196 129.348 61.196C128.644 61.196 128.079 61.3647 127.654 61.702C127.229 62.0247 126.906 62.45 126.686 62.978C126.481 63.506 126.341 64.056 126.268 64.628C126.195 65.2 126.158 65.728 126.158 66.212C126.158 66.696 126.187 67.2313 126.246 67.818C126.319 68.4047 126.459 68.962 126.664 69.49C126.869 70.018 127.177 70.4507 127.588 70.788C128.013 71.1107 128.578 71.272 129.282 71.272ZM150.3 74.176C149.215 74.176 148.203 74.0073 147.264 73.67C146.34 73.3327 145.563 72.7973 144.932 72.064C144.316 71.3307 143.928 70.3847 143.766 69.226H146.978C147.11 69.7247 147.352 70.128 147.704 70.436C148.056 70.7293 148.474 70.942 148.958 71.074C149.457 71.206 149.978 71.272 150.52 71.272C150.931 71.272 151.334 71.2207 151.73 71.118C152.126 71.0153 152.449 70.8393 152.698 70.59C152.962 70.3407 153.094 70.0033 153.094 69.578C153.094 69.2553 153.021 68.9913 152.874 68.786C152.742 68.5807 152.544 68.4193 152.28 68.302C152.031 68.17 151.723 68.0527 151.356 67.95C151.048 67.862 150.726 67.7887 150.388 67.73C150.066 67.6713 149.743 67.598 149.42 67.51C149.112 67.422 148.812 67.3193 148.518 67.202C147.961 67.0553 147.426 66.8793 146.912 66.674C146.399 66.454 145.944 66.1827 145.548 65.86C145.152 65.5227 144.837 65.1047 144.602 64.606C144.382 64.1073 144.272 63.506 144.272 62.802C144.272 62.0393 144.397 61.394 144.646 60.866C144.91 60.338 145.255 59.9053 145.68 59.568C146.12 59.216 146.604 58.9447 147.132 58.754C147.675 58.5633 148.218 58.4313 148.76 58.358C149.303 58.2847 149.816 58.248 150.3 58.248C151.312 58.248 152.222 58.424 153.028 58.776C153.835 59.128 154.495 59.656 155.008 60.36C155.522 61.064 155.815 61.9513 155.888 63.022H152.83C152.772 62.582 152.61 62.2227 152.346 61.944C152.082 61.6653 151.745 61.46 151.334 61.328C150.938 61.196 150.491 61.13 149.992 61.13C149.67 61.13 149.354 61.1593 149.046 61.218C148.738 61.2767 148.46 61.372 148.21 61.504C147.976 61.6213 147.785 61.7827 147.638 61.988C147.506 62.1933 147.44 62.4427 147.44 62.736C147.44 63.0293 147.521 63.286 147.682 63.506C147.844 63.7113 148.078 63.8947 148.386 64.056C148.709 64.2027 149.083 64.342 149.508 64.474C149.948 64.6207 150.41 64.738 150.894 64.826C151.378 64.914 151.84 65.0313 152.28 65.178C152.838 65.3247 153.358 65.5007 153.842 65.706C154.326 65.8967 154.752 66.146 155.118 66.454C155.485 66.7473 155.771 67.1287 155.976 67.598C156.182 68.0527 156.284 68.6173 156.284 69.292C156.284 70.1867 156.116 70.9493 155.778 71.58C155.456 72.196 155.008 72.6947 154.436 73.076C153.879 73.4573 153.241 73.736 152.522 73.912C151.804 74.088 151.063 74.176 150.3 74.176ZM156.742 74L162.814 58.424H166.334L172.34 74H168.952L167.984 71.338H161.098L160.13 74H156.742ZM162.11 68.5H166.994L164.574 61.768L162.11 68.5ZM174.01 74V58.424H180.28C181.058 58.424 181.798 58.5047 182.502 58.666C183.221 58.8127 183.866 59.0693 184.438 59.436C185.01 59.8027 185.458 60.316 185.78 60.976C186.118 61.6213 186.286 62.45 186.286 63.462C186.286 64.21 186.162 64.8847 185.912 65.486C185.663 66.0873 185.296 66.6007 184.812 67.026C184.328 67.4513 183.749 67.7813 183.074 68.016L186.528 74H182.986L179.95 68.522H177.156V74H174.01ZM177.156 65.728H180.06C180.515 65.728 180.926 65.6913 181.292 65.618C181.674 65.53 181.996 65.398 182.26 65.222C182.539 65.046 182.752 64.8113 182.898 64.518C183.06 64.2247 183.14 63.8653 183.14 63.44C183.155 62.8973 183.038 62.4793 182.788 62.186C182.554 61.878 182.216 61.6653 181.776 61.548C181.351 61.416 180.845 61.35 180.258 61.35H177.156V65.728Z" fill="#F6F6F6"/>
<path d="M126.992 88.096C126.112 88.096 125.372 87.916 124.772 87.556C124.172 87.188 123.72 86.68 123.416 86.032C123.112 85.384 122.96 84.632 122.96 83.776C122.96 82.92 123.116 82.164 123.428 81.508C123.74 80.852 124.196 80.34 124.796 79.972C125.396 79.596 126.128 79.408 126.992 79.408C127.632 79.408 128.196 79.516 128.684 79.732C129.172 79.948 129.568 80.256 129.872 80.656C130.184 81.048 130.384 81.532 130.472 82.108H129.02C128.908 81.7 128.68 81.38 128.336 81.148C127.992 80.916 127.544 80.8 126.992 80.8C126.392 80.8 125.908 80.94 125.54 81.22C125.172 81.5 124.904 81.86 124.736 82.3C124.576 82.74 124.496 83.212 124.496 83.716C124.496 84.236 124.58 84.724 124.748 85.18C124.924 85.636 125.2 86.004 125.576 86.284C125.952 86.564 126.436 86.704 127.028 86.704C127.396 86.704 127.716 86.652 127.988 86.548C128.268 86.444 128.5 86.296 128.684 86.104C128.876 85.904 129.008 85.672 129.08 85.408H130.604C130.508 85.976 130.292 86.46 129.956 86.86C129.628 87.26 129.208 87.568 128.696 87.784C128.192 87.992 127.624 88.096 126.992 88.096ZM133.736 88.084C133.44 88.084 133.16 88.044 132.896 87.964C132.632 87.884 132.396 87.768 132.188 87.616C131.98 87.456 131.812 87.26 131.684 87.028C131.564 86.788 131.504 86.508 131.504 86.188C131.504 85.78 131.584 85.448 131.744 85.192C131.904 84.928 132.12 84.728 132.392 84.592C132.672 84.456 132.988 84.364 133.34 84.316C133.692 84.26 134.06 84.232 134.444 84.232H135.68C135.68 83.952 135.636 83.712 135.548 83.512C135.46 83.304 135.32 83.14 135.128 83.02C134.944 82.9 134.704 82.84 134.408 82.84C134.216 82.84 134.036 82.864 133.868 82.912C133.708 82.952 133.568 83.02 133.448 83.116C133.336 83.204 133.256 83.32 133.208 83.464H131.708C131.764 83.136 131.876 82.856 132.044 82.624C132.22 82.384 132.432 82.188 132.68 82.036C132.936 81.884 133.216 81.772 133.52 81.7C133.824 81.62 134.132 81.58 134.444 81.58C135.364 81.58 136.032 81.844 136.448 82.372C136.872 82.9 137.084 83.64 137.084 84.592V88H135.788L135.752 87.184C135.568 87.456 135.348 87.656 135.092 87.784C134.836 87.912 134.588 87.992 134.348 88.024C134.108 88.064 133.904 88.084 133.736 88.084ZM134.024 86.896C134.344 86.896 134.628 86.836 134.876 86.716C135.124 86.596 135.32 86.428 135.464 86.212C135.616 85.996 135.692 85.748 135.692 85.468V85.264H134.54C134.348 85.264 134.156 85.272 133.964 85.288C133.78 85.296 133.612 85.328 133.46 85.384C133.308 85.432 133.184 85.508 133.088 85.612C133 85.716 132.956 85.864 132.956 86.056C132.956 86.248 133.004 86.404 133.1 86.524C133.204 86.644 133.336 86.736 133.496 86.8C133.664 86.864 133.84 86.896 134.024 86.896ZM140.905 88.084C140.601 88.084 140.297 88.052 139.993 87.988C139.697 87.924 139.417 87.82 139.153 87.676C138.889 87.524 138.669 87.32 138.493 87.064C138.317 86.808 138.201 86.488 138.145 86.104H139.621C139.685 86.28 139.785 86.424 139.921 86.536C140.065 86.64 140.229 86.72 140.413 86.776C140.605 86.824 140.793 86.848 140.977 86.848C141.089 86.848 141.209 86.84 141.337 86.824C141.473 86.808 141.597 86.776 141.709 86.728C141.829 86.68 141.925 86.612 141.997 86.524C142.069 86.428 142.105 86.304 142.105 86.152C142.105 86.008 142.065 85.896 141.985 85.816C141.905 85.728 141.797 85.66 141.661 85.612C141.525 85.556 141.361 85.512 141.169 85.48C140.825 85.408 140.457 85.332 140.065 85.252C139.673 85.164 139.333 85.028 139.045 84.844C138.925 84.772 138.821 84.688 138.733 84.592C138.645 84.496 138.569 84.392 138.505 84.28C138.449 84.16 138.405 84.032 138.373 83.896C138.349 83.76 138.337 83.612 138.337 83.452C138.337 83.116 138.405 82.832 138.541 82.6C138.685 82.36 138.873 82.168 139.105 82.024C139.345 81.872 139.617 81.76 139.921 81.688C140.225 81.616 140.537 81.58 140.857 81.58C141.289 81.58 141.681 81.648 142.033 81.784C142.385 81.92 142.677 82.128 142.909 82.408C143.149 82.688 143.293 83.044 143.341 83.476H141.949C141.909 83.276 141.785 83.116 141.577 82.996C141.377 82.876 141.121 82.816 140.809 82.816C140.697 82.816 140.581 82.828 140.461 82.852C140.341 82.868 140.225 82.9 140.113 82.948C140.009 82.988 139.921 83.052 139.849 83.14C139.785 83.228 139.753 83.336 139.753 83.464C139.753 83.584 139.781 83.688 139.837 83.776C139.901 83.864 139.993 83.94 140.113 84.004C140.241 84.06 140.389 84.108 140.557 84.148C140.829 84.204 141.113 84.26 141.409 84.316C141.705 84.372 141.961 84.428 142.177 84.484C142.433 84.556 142.665 84.66 142.873 84.796C143.081 84.924 143.241 85.096 143.353 85.312C143.473 85.52 143.533 85.788 143.533 86.116C143.533 86.5 143.453 86.82 143.293 87.076C143.141 87.332 142.937 87.532 142.681 87.676C142.425 87.82 142.141 87.924 141.829 87.988C141.517 88.052 141.209 88.084 140.905 88.084ZM144.61 88V79.516H146.074V82.492C146.242 82.276 146.438 82.1 146.662 81.964C146.886 81.828 147.122 81.732 147.37 81.676C147.618 81.612 147.854 81.58 148.078 81.58C148.678 81.58 149.15 81.712 149.494 81.976C149.838 82.24 150.078 82.592 150.214 83.032C150.358 83.472 150.43 83.968 150.43 84.52V88H148.966V84.772C148.966 84.556 148.95 84.336 148.918 84.112C148.886 83.888 148.822 83.688 148.726 83.512C148.638 83.328 148.502 83.18 148.318 83.068C148.142 82.956 147.906 82.9 147.61 82.9C147.33 82.9 147.09 82.96 146.89 83.08C146.69 83.192 146.53 83.348 146.41 83.548C146.298 83.748 146.214 83.968 146.158 84.208C146.102 84.448 146.074 84.688 146.074 84.928V88H144.61ZM155.202 88.084C154.97 88.084 154.738 88.06 154.506 88.012C154.274 87.964 154.05 87.88 153.834 87.76C153.626 87.64 153.434 87.48 153.258 87.28L153.222 88H151.806V79.516H153.27V82.468C153.502 82.172 153.798 81.952 154.158 81.808C154.526 81.656 154.906 81.58 155.298 81.58C155.922 81.58 156.434 81.724 156.834 82.012C157.242 82.292 157.542 82.676 157.734 83.164C157.934 83.652 158.034 84.204 158.034 84.82C158.034 85.436 157.93 85.992 157.722 86.488C157.522 86.976 157.214 87.364 156.798 87.652C156.382 87.94 155.85 88.084 155.202 88.084ZM154.962 86.788C155.37 86.788 155.69 86.696 155.922 86.512C156.162 86.32 156.334 86.072 156.438 85.768C156.542 85.464 156.594 85.144 156.594 84.808C156.594 84.464 156.538 84.148 156.426 83.86C156.322 83.572 156.15 83.34 155.91 83.164C155.67 82.988 155.35 82.9 154.95 82.9C154.582 82.9 154.27 82.996 154.014 83.188C153.766 83.372 153.578 83.616 153.45 83.92C153.322 84.216 153.258 84.524 153.258 84.844C153.258 85.18 153.314 85.496 153.426 85.792C153.546 86.088 153.73 86.328 153.978 86.512C154.234 86.696 154.562 86.788 154.962 86.788ZM161.228 88.084C160.932 88.084 160.652 88.044 160.388 87.964C160.124 87.884 159.888 87.768 159.68 87.616C159.472 87.456 159.304 87.26 159.176 87.028C159.056 86.788 158.996 86.508 158.996 86.188C158.996 85.78 159.076 85.448 159.236 85.192C159.396 84.928 159.612 84.728 159.884 84.592C160.164 84.456 160.48 84.364 160.832 84.316C161.184 84.26 161.552 84.232 161.936 84.232H163.172C163.172 83.952 163.128 83.712 163.04 83.512C162.952 83.304 162.812 83.14 162.62 83.02C162.436 82.9 162.196 82.84 161.9 82.84C161.708 82.84 161.528 82.864 161.36 82.912C161.2 82.952 161.06 83.02 160.94 83.116C160.828 83.204 160.748 83.32 160.7 83.464H159.2C159.256 83.136 159.368 82.856 159.536 82.624C159.712 82.384 159.924 82.188 160.172 82.036C160.428 81.884 160.708 81.772 161.012 81.7C161.316 81.62 161.624 81.58 161.936 81.58C162.856 81.58 163.524 81.844 163.94 82.372C164.364 82.9 164.576 83.64 164.576 84.592V88H163.28L163.244 87.184C163.06 87.456 162.84 87.656 162.584 87.784C162.328 87.912 162.08 87.992 161.84 88.024C161.6 88.064 161.396 88.084 161.228 88.084ZM161.516 86.896C161.836 86.896 162.12 86.836 162.368 86.716C162.616 86.596 162.812 86.428 162.956 86.212C163.108 85.996 163.184 85.748 163.184 85.468V85.264H162.032C161.84 85.264 161.648 85.272 161.456 85.288C161.272 85.296 161.104 85.328 160.952 85.384C160.8 85.432 160.676 85.508 160.58 85.612C160.492 85.716 160.448 85.864 160.448 86.056C160.448 86.248 160.496 86.404 160.592 86.524C160.696 86.644 160.828 86.736 160.988 86.8C161.156 86.864 161.332 86.896 161.516 86.896ZM168.758 88.084C168.102 88.084 167.55 87.952 167.102 87.688C166.654 87.416 166.314 87.036 166.082 86.548C165.85 86.06 165.734 85.496 165.734 84.856C165.734 84.216 165.854 83.652 166.094 83.164C166.334 82.668 166.686 82.28 167.15 82C167.614 81.72 168.178 81.58 168.842 81.58C169.33 81.58 169.762 81.664 170.138 81.832C170.522 82 170.83 82.248 171.062 82.576C171.302 82.896 171.454 83.296 171.518 83.776H170.078C169.982 83.472 169.822 83.252 169.598 83.116C169.382 82.972 169.122 82.9 168.818 82.9C168.41 82.9 168.086 83 167.846 83.2C167.614 83.392 167.446 83.636 167.342 83.932C167.238 84.228 167.186 84.536 167.186 84.856C167.186 85.192 167.242 85.508 167.354 85.804C167.466 86.092 167.638 86.324 167.87 86.5C168.11 86.676 168.418 86.764 168.794 86.764C169.098 86.764 169.37 86.696 169.61 86.56C169.858 86.424 170.018 86.204 170.09 85.9H171.578C171.522 86.388 171.358 86.796 171.086 87.124C170.822 87.444 170.486 87.684 170.078 87.844C169.67 88.004 169.23 88.084 168.758 88.084ZM172.677 88V79.516H174.141V84.208H175.053L176.721 81.676H178.365L176.313 84.688L178.533 88H176.829L175.137 85.492H174.141V88H172.677Z" fill="#F6F6F6"/>
<path d="M88.347 217.864C88.7136 218.499 88.9784 219.133 89.1413 219.768C89.2916 220.409 89.3262 221.041 89.2453 221.664C89.1571 222.273 88.9432 222.871 88.6038 223.457C88.2571 224.029 87.7638 224.568 87.1238 225.073L85.5728 222.387C85.7829 222.164 85.9435 221.885 86.0548 221.55C86.1661 221.214 86.2036 220.854 86.1674 220.469C86.1237 220.07 85.9883 219.674 85.7609 219.281C85.4823 218.798 85.165 218.439 84.8092 218.204C84.4408 217.977 84.0528 217.862 83.6453 217.86C83.2377 217.858 82.8244 217.978 82.4053 218.22C81.7702 218.587 81.3794 219.084 81.2331 219.71C81.0666 220.331 81.1924 221.004 81.6104 221.728C81.8524 222.147 82.156 222.497 82.5211 222.777C82.8661 223.052 83.261 223.281 83.7057 223.465L85.0477 225.789L77.1693 230.007L72.0433 221.129L74.5392 219.688L78.1802 225.994L81.0118 224.563C80.5251 224.336 80.0879 224.004 79.7003 223.567C79.2926 223.125 78.9522 222.653 78.6789 222.15C78.1983 221.259 77.9598 220.406 77.9634 219.591C77.9671 218.776 78.1948 218.026 78.6465 217.342C79.0909 216.645 79.7387 216.051 80.5897 215.56C81.6185 214.966 82.6269 214.688 83.6149 214.728C84.5956 214.754 85.4938 215.048 86.3095 215.611C87.1178 216.16 87.797 216.911 88.347 217.864ZM78.0789 200.079C78.6216 201.019 78.9815 201.98 79.1587 202.961C79.3286 203.93 79.2536 204.871 78.9339 205.784C78.6068 206.684 77.9818 207.493 77.0591 208.213L75.4531 205.431C75.8189 205.067 76.0472 204.656 76.138 204.197C76.216 203.746 76.1912 203.277 76.0635 202.792C75.9285 202.294 75.7253 201.81 75.454 201.34C75.2486 200.985 75.0025 200.661 74.7156 200.369C74.4287 200.078 74.1149 199.886 73.7743 199.795C73.4264 199.691 73.0683 199.746 72.6999 199.958C72.4205 200.12 72.2285 200.315 72.124 200.545C72.0122 200.762 71.9715 201.014 72.0019 201.301C72.0122 201.583 72.0646 201.909 72.159 202.277C72.2368 202.588 72.3346 202.904 72.4525 203.226C72.563 203.534 72.6609 203.851 72.746 204.174C72.8238 204.485 72.8852 204.796 72.9302 205.109C73.0819 205.665 73.1971 206.217 73.276 206.764C73.3421 207.319 73.3345 207.848 73.253 208.352C73.1589 208.864 72.9546 209.346 72.64 209.799C72.3182 210.238 71.8524 210.634 71.2427 210.986C70.5822 211.368 69.961 211.582 69.3791 211.63C68.7898 211.666 68.2428 211.584 67.738 211.384C67.2132 211.179 66.7362 210.895 66.3071 210.533C65.8706 210.159 65.485 209.755 65.1501 209.322C64.8153 208.888 64.5269 208.462 64.2849 208.043C63.7789 207.166 63.4766 206.291 63.3781 205.416C63.2796 204.542 63.4069 203.706 63.7599 202.91C64.1129 202.113 64.7347 201.415 65.6253 200.817L67.1543 203.465C66.8025 203.736 66.572 204.055 66.4627 204.423C66.3533 204.791 66.3442 205.186 66.4352 205.607C66.5189 206.016 66.6854 206.437 66.9347 206.869C67.0961 207.148 67.2791 207.406 67.4839 207.644C67.6888 207.881 67.9106 208.075 68.1496 208.225C68.3686 208.369 68.6036 208.454 68.8548 208.478C69.0986 208.49 69.3475 208.422 69.6016 208.276C69.8556 208.129 70.0376 207.931 70.1474 207.681C70.2446 207.439 70.286 207.144 70.2717 206.796C70.2374 206.444 70.1711 206.05 70.0727 205.616C69.9797 205.161 69.8504 204.703 69.6846 204.239C69.5188 203.776 69.3894 203.318 69.2964 202.863C69.1448 202.307 69.0368 201.768 68.9727 201.246C68.8958 200.732 68.8991 200.239 68.9825 199.767C69.0532 199.303 69.2404 198.865 69.5442 198.452C69.8353 198.047 70.273 197.676 70.8572 197.339C71.632 196.891 72.3769 196.656 73.0917 196.633C73.7865 196.604 74.442 196.742 75.0583 197.047C75.6672 197.339 76.2275 197.752 76.7393 198.287C77.251 198.821 77.6976 199.418 78.0789 200.079ZM74.7058 194.589L58.1806 197.118L56.4206 194.07L66.9068 181.08L68.6008 184.014L66.7794 186.184L70.2224 192.147L73.0118 191.654L74.7058 194.589ZM67.2587 192.69L64.8167 188.46L60.1966 193.922L67.2587 192.69ZM66.0715 179.633L52.5823 187.421L49.4473 181.991C49.0586 181.318 48.7581 180.637 48.5459 179.946C48.3135 179.25 48.2132 178.563 48.2447 177.885C48.2762 177.206 48.4971 176.562 48.9074 175.952C49.2976 175.338 49.9309 174.777 50.8073 174.271C51.4551 173.897 52.1017 173.668 52.7471 173.583C53.3926 173.498 54.0205 173.559 54.6308 173.766C55.2412 173.972 55.8166 174.309 56.3572 174.776L59.8125 168.793L61.5835 171.86L58.3574 177.228L59.7544 179.648L64.4985 176.909L66.0715 179.633ZM57.3347 181.045L55.8827 178.53C55.6554 178.136 55.4183 177.799 55.1715 177.518C54.9046 177.232 54.6289 177.018 54.3445 176.878C54.0528 176.724 53.7432 176.658 53.4158 176.677C53.0811 176.684 52.7296 176.794 52.3613 177.007C51.884 177.265 51.5806 177.576 51.4513 177.938C51.3019 178.296 51.2864 178.694 51.4047 179.134C51.5031 179.568 51.6989 180.039 51.9923 180.548L53.5433 183.234L57.3347 181.045Z" fill="#F6F6F6"/>
<path d="M99.3983 209.164C99.8383 209.926 100.052 210.657 100.041 211.356C100.022 212.06 99.808 212.705 99.3989 213.292C98.9897 213.88 98.4144 214.387 97.6731 214.815C96.9318 215.243 96.1991 215.486 95.475 215.544C94.7509 215.602 94.0794 215.463 93.4607 215.127C92.8351 214.796 92.3063 214.256 91.8743 213.508C91.5543 212.953 91.3658 212.411 91.3089 211.88C91.252 211.35 91.3207 210.853 91.5151 210.389C91.6986 209.923 92.0177 209.508 92.4726 209.144L93.1986 210.401C92.9012 210.702 92.7381 211.06 92.7092 211.474C92.6803 211.888 92.8038 212.334 93.0798 212.812C93.3798 213.331 93.7431 213.68 94.1695 213.859C94.596 214.038 95.0418 214.09 95.5069 214.015C95.9679 213.934 96.4167 213.767 96.8531 213.515C97.3035 213.255 97.6841 212.938 97.995 212.565C98.3019 212.184 98.4826 211.761 98.5371 211.296C98.5916 210.83 98.4708 210.341 98.1748 209.828C97.9908 209.51 97.7858 209.259 97.5597 209.075C97.3297 208.885 97.0855 208.758 96.8272 208.694C96.558 208.628 96.2911 208.63 96.0265 208.699L95.2645 207.379C95.8044 207.179 96.3315 207.124 96.8459 207.215C97.3563 207.299 97.8331 207.508 98.2761 207.844C98.7083 208.176 99.0823 208.616 99.3983 209.164ZM96.0163 203.33C96.1643 203.586 96.2697 203.849 96.3324 204.117C96.3951 204.386 96.4127 204.648 96.385 204.904C96.3505 205.164 96.2647 205.408 96.1278 205.635C95.98 205.859 95.7675 206.051 95.4903 206.211C95.137 206.415 94.8095 206.511 94.5078 206.501C94.1991 206.494 93.9179 206.407 93.6642 206.24C93.4064 206.065 93.1687 205.838 92.9511 205.557C92.7266 205.28 92.5184 204.975 92.3264 204.643L91.7084 203.572C91.4659 203.712 91.2801 203.87 91.1509 204.046C91.0147 204.227 90.9427 204.43 90.9348 204.656C90.9228 204.876 90.9909 205.113 91.1389 205.37C91.2349 205.536 91.3457 205.68 91.4712 205.801C91.5859 205.92 91.7148 206.007 91.8579 206.063C91.9901 206.116 92.1306 206.127 92.2793 206.097L93.0293 207.396C92.7172 207.512 92.4187 207.555 92.1338 207.525C91.838 207.493 91.5622 207.407 91.3066 207.268C91.047 207.123 90.81 206.936 90.5956 206.709C90.3743 206.486 90.1857 206.239 90.0297 205.969C89.5697 205.172 89.4643 204.461 89.7136 203.837C89.9588 203.206 90.4937 202.652 91.3182 202.176L94.2696 200.472L94.9176 201.595L94.2289 202.034C94.5565 202.057 94.8397 202.148 95.0785 202.305C95.3174 202.463 95.5106 202.638 95.6584 202.83C95.813 203.018 95.9323 203.184 96.0163 203.33ZM94.8435 203.674C94.6835 203.397 94.4895 203.181 94.2616 203.026C94.0337 202.872 93.7902 202.786 93.5311 202.769C93.2681 202.746 93.0153 202.804 92.7728 202.944L92.5961 203.046L93.1721 204.043C93.2681 204.21 93.3711 204.372 93.4809 204.53C93.5798 204.686 93.6916 204.815 93.8161 204.919C93.9336 205.026 94.0614 205.096 94.1995 205.127C94.3336 205.151 94.4837 205.115 94.65 205.019C94.8163 204.923 94.9274 204.804 94.9833 204.661C95.0352 204.51 95.0489 204.35 95.0243 204.18C94.9958 204.002 94.9355 203.834 94.8435 203.674ZM92.4315 197.121C92.5835 197.384 92.7077 197.663 92.8043 197.958C92.8969 198.247 92.9468 198.541 92.9541 198.842C92.9545 199.146 92.8878 199.439 92.7541 199.719C92.6204 200 92.4013 200.26 92.0967 200.501L91.3587 199.223C91.4792 199.079 91.5539 198.921 91.5829 198.747C91.6009 198.57 91.5882 198.388 91.5447 198.201C91.4903 198.01 91.4171 197.836 91.3251 197.676C91.2691 197.579 91.2021 197.479 91.1243 197.376C91.0424 197.267 90.9527 197.175 90.8551 197.102C90.7536 197.022 90.6467 196.973 90.5345 196.955C90.4153 196.941 90.2899 196.971 90.1583 197.047C90.0336 197.119 89.9566 197.21 89.9273 197.319C89.8911 197.433 89.8862 197.56 89.9126 197.702C89.9321 197.848 89.976 198.012 90.0443 198.194C90.154 198.528 90.2722 198.885 90.3989 199.264C90.5187 199.648 90.5709 200.01 90.5555 200.351C90.5532 200.491 90.5324 200.623 90.4933 200.748C90.4542 200.872 90.4021 200.99 90.3371 201.101C90.2612 201.21 90.1723 201.312 90.0705 201.407C89.9648 201.496 89.8426 201.581 89.704 201.661C89.413 201.829 89.1331 201.912 88.8642 201.91C88.5843 201.905 88.3241 201.838 88.0833 201.709C87.8317 201.578 87.5987 201.398 87.3844 201.171C87.17 200.943 86.9828 200.691 86.8228 200.414C86.6068 200.04 86.4697 199.667 86.4115 199.294C86.3533 198.921 86.3874 198.564 86.5139 198.223C86.6364 197.875 86.8727 197.572 87.2228 197.315L87.9188 198.52C87.7656 198.655 87.689 198.842 87.6891 199.083C87.6852 199.316 87.7612 199.568 87.9172 199.838C87.9732 199.935 88.0416 200.029 88.1224 200.121C88.1963 200.217 88.282 200.301 88.3796 200.374C88.4662 200.445 88.5656 200.489 88.6778 200.507C88.786 200.519 88.8956 200.492 89.0064 200.428C89.1103 200.368 89.1864 200.292 89.2346 200.199C89.2788 200.1 89.2987 199.982 89.2941 199.846C89.2786 199.708 89.2461 199.555 89.1968 199.39C89.1093 199.126 89.0158 198.852 88.9163 198.568C88.8168 198.284 88.7373 198.034 88.6778 197.819C88.6121 197.561 88.5862 197.308 88.6 197.06C88.6068 196.816 88.6758 196.592 88.8068 196.387C88.927 196.179 89.1291 195.993 89.4131 195.829C89.7457 195.637 90.0628 195.546 90.3645 195.556C90.6622 195.56 90.9374 195.637 91.1901 195.787C91.4428 195.936 91.6749 196.13 91.8863 196.368C92.0977 196.607 92.2795 196.857 92.4315 197.121ZM90.5063 193.954L83.1589 198.196L82.4269 196.928L85.0042 195.44C84.7331 195.403 84.4827 195.321 84.2529 195.195C84.0232 195.069 83.822 194.913 83.6495 194.726C83.4701 194.543 83.3244 194.355 83.2124 194.161C82.9124 193.641 82.7907 193.166 82.8473 192.736C82.904 192.306 83.0888 191.923 83.4018 191.585C83.7109 191.24 84.1044 190.93 84.5825 190.654L87.5963 188.914L88.3283 190.182L85.5327 191.796C85.3457 191.904 85.1631 192.027 84.9852 192.167C84.8072 192.307 84.666 192.462 84.5615 192.633C84.4462 192.802 84.386 192.993 84.381 193.209C84.372 193.417 84.4415 193.65 84.5895 193.906C84.7295 194.148 84.9015 194.326 85.1054 194.439C85.3024 194.557 85.5175 194.617 85.7507 194.621C85.9799 194.618 86.2124 194.581 86.4483 194.509C86.6841 194.438 86.906 194.342 87.1138 194.222L89.7743 192.686L90.5063 193.954ZM85.2834 184.74C85.3994 184.941 85.4946 185.154 85.569 185.378C85.6434 185.603 85.6827 185.839 85.6868 186.086C85.6868 186.327 85.6443 186.573 85.5591 186.825L86.2006 186.496L86.9086 187.723L79.5612 191.965L78.8292 190.697L81.3858 189.221C81.0134 189.168 80.6749 189.022 80.3702 188.782C80.0545 188.539 79.7987 188.248 79.6027 187.909C79.2907 187.368 79.1594 186.853 79.2088 186.362C79.2473 185.869 79.4299 185.417 79.7565 185.007C80.0791 184.59 80.5072 184.227 81.0406 183.919C81.5741 183.611 82.1076 183.423 82.6412 183.355C83.1638 183.284 83.6538 183.357 84.1112 183.574C84.5686 183.79 84.9594 184.178 85.2834 184.74ZM84.281 185.596C84.077 185.242 83.8373 185.011 83.562 184.902C83.2757 184.79 82.9749 184.765 82.6596 184.827C82.3444 184.889 82.0412 185.004 81.7503 185.172C81.4523 185.344 81.2067 185.551 81.0133 185.792C80.8158 186.026 80.7009 186.291 80.6685 186.587C80.6361 186.882 80.7199 187.204 80.9199 187.55C81.1039 187.869 81.343 188.091 81.6373 188.217C81.9206 188.339 82.2259 188.38 82.5532 188.339C82.8736 188.302 83.1723 188.203 83.4494 188.043C83.7404 187.875 83.9861 187.669 84.1864 187.424C84.3828 187.172 84.4986 186.892 84.534 186.586C84.5653 186.272 84.481 185.942 84.281 185.596ZM82.2702 179.521C82.4182 179.777 82.5236 180.04 82.5863 180.308C82.649 180.577 82.6666 180.839 82.6389 181.095C82.6044 181.356 82.5186 181.599 82.3817 181.826C82.2339 182.05 82.0214 182.242 81.7442 182.402C81.3909 182.606 81.0634 182.702 80.7617 182.692C80.453 182.685 80.1718 182.598 79.9181 182.431C79.6603 182.256 79.4226 182.029 79.205 181.748C78.9805 181.471 78.7723 181.166 78.5803 180.834L77.9623 179.763C77.7198 179.903 77.534 180.061 77.4048 180.238C77.2686 180.418 77.1966 180.621 77.1887 180.847C77.1768 181.067 77.2448 181.304 77.3928 181.561C77.4888 181.727 77.5996 181.871 77.7251 181.992C77.8398 182.111 77.9687 182.198 78.1118 182.254C78.244 182.307 78.3845 182.318 78.5332 182.288L79.2832 183.587C78.9711 183.703 78.6726 183.746 78.3877 183.716C78.0919 183.684 77.8161 183.598 77.5605 183.459C77.3009 183.314 77.0639 183.127 76.8495 182.9C76.6282 182.677 76.4396 182.43 76.2836 182.16C75.8236 181.363 75.7182 180.652 75.9675 180.028C76.2127 179.397 76.7476 178.843 77.5721 178.367L80.5235 176.663L81.1715 177.786L80.4828 178.225C80.8104 178.248 81.0936 178.339 81.3324 178.496C81.5713 178.654 81.7646 178.829 81.9123 179.021C82.0669 179.209 82.1862 179.375 82.2702 179.521ZM81.0974 179.865C80.9374 179.588 80.7434 179.372 80.5155 179.218C80.2876 179.063 80.0441 178.977 79.785 178.96C79.522 178.937 79.2692 178.995 79.0267 179.135L78.85 179.237L79.426 180.235C79.522 180.401 79.625 180.563 79.7348 180.721C79.8337 180.877 79.9455 181.006 80.07 181.11C80.1875 181.217 80.3153 181.287 80.4534 181.318C80.5875 181.342 80.7376 181.306 80.9039 181.21C81.0702 181.114 81.1813 180.995 81.2372 180.852C81.2891 180.702 81.3028 180.541 81.2782 180.371C81.2497 180.193 81.1894 180.025 81.0974 179.865ZM78.5054 173C78.8334 173.568 78.9951 174.112 78.9904 174.632C78.9789 175.156 78.8198 175.64 78.5132 176.085C78.2065 176.53 77.7761 176.913 77.2218 177.233C76.6676 177.553 76.1191 177.731 75.5765 177.767C75.027 177.807 74.515 177.696 74.0405 177.434C73.566 177.173 73.1627 176.754 72.8307 176.179C72.5867 175.756 72.4435 175.34 72.401 174.931C72.3545 174.514 72.4152 174.123 72.5833 173.759C72.7404 173.391 73.0108 173.059 73.3945 172.764L74.1145 174.011C73.8993 174.246 73.7887 174.494 73.783 174.756C73.7662 175.015 73.8339 175.277 73.9859 175.54C74.1899 175.893 74.4385 176.124 74.7317 176.232C75.014 176.337 75.3093 176.36 75.6176 176.302C75.926 176.244 76.2187 176.135 76.4958 175.975C76.7868 175.807 77.0325 175.601 77.2328 175.356C77.4262 175.115 77.5412 174.85 77.5776 174.561C77.61 174.265 77.5322 173.954 77.3442 173.629C77.1922 173.365 76.9973 173.164 76.7595 173.024C76.5178 172.877 76.2472 172.849 75.948 172.938L75.204 171.65C75.6546 171.454 76.0899 171.392 76.51 171.464C76.9191 171.532 77.295 171.703 77.6375 171.977C77.9801 172.25 78.2694 172.591 78.5054 173ZM76.4731 169.648L69.1257 173.89L68.3937 172.622L72.4571 170.276L72.0011 169.486L68.9743 169.308L68.1523 167.884L71.7868 168.155L73.5451 164.576L74.3971 166.052L73.0711 168.771L73.5691 169.634L75.7411 168.38L76.4731 169.648Z" fill="#F6F6F6"/>
<path d="M238.312 163.48L240.56 164.778L241.51 170.305C241.584 170.704 241.662 171.155 241.744 171.659C241.831 172.184 241.947 172.7 242.094 173.208C242.234 173.729 242.429 174.198 242.68 174.613C242.924 175.042 243.243 175.37 243.636 175.597C244.183 175.913 244.726 175.998 245.267 175.853C245.801 175.721 246.255 175.331 246.629 174.683C246.981 174.073 247.119 173.51 247.045 172.993C246.977 172.496 246.758 172.082 246.391 171.751L247.909 169.122C248.766 169.719 249.355 170.414 249.676 171.209C250.001 172.024 250.105 172.871 249.986 173.751C249.868 174.631 249.581 175.465 249.127 176.252C248.635 177.103 248.029 177.786 247.308 178.302C246.587 178.817 245.805 179.102 244.96 179.156C244.129 179.218 243.268 178.992 242.379 178.479C241.617 178.039 241.009 177.493 240.556 176.842C240.107 176.21 239.759 175.493 239.512 174.689C239.277 173.893 239.098 173.045 238.975 172.144L238.473 169.009L235.36 174.401L232.845 172.949L238.312 163.48ZM228.606 179.94C229.178 178.949 229.839 178.213 230.591 177.733C231.343 177.252 232.154 176.976 233.026 176.903C233.91 176.838 234.82 176.948 235.756 177.235C236.704 177.528 237.649 177.946 238.588 178.489C239.554 179.046 240.401 179.662 241.129 180.337C241.85 181.024 242.403 181.767 242.789 182.565C243.167 183.376 243.336 184.228 243.296 185.119C243.248 186.023 242.942 186.964 242.378 187.942C241.791 188.958 241.115 189.703 240.351 190.176C239.579 190.662 238.742 190.924 237.84 190.961C236.943 191.019 236.03 190.899 235.102 190.6C234.166 190.314 233.247 189.91 232.346 189.39C231.418 188.854 230.597 188.253 229.881 187.586C229.166 186.919 228.605 186.189 228.199 185.395C227.806 184.61 227.627 183.761 227.662 182.85C227.697 181.939 228.012 180.968 228.606 179.94ZM231.12 181.392C230.761 182.014 230.619 182.584 230.693 183.101C230.772 183.638 230.989 184.127 231.344 184.569C231.691 185.023 232.098 185.419 232.564 185.756C233.035 186.113 233.487 186.416 233.919 186.665C234.325 186.9 234.794 187.128 235.326 187.351C235.864 187.593 236.406 187.754 236.953 187.833C237.513 187.919 238.042 187.869 238.539 187.682C239.037 187.495 239.462 187.096 239.814 186.487C240.166 185.877 240.302 185.304 240.222 184.767C240.156 184.237 239.949 183.745 239.601 183.29C239.247 182.849 238.84 182.453 238.381 182.103C237.923 181.754 237.484 181.458 237.065 181.216C236.645 180.974 236.167 180.732 235.63 180.489C235.085 180.26 234.533 180.102 233.973 180.015C233.413 179.929 232.884 179.98 232.387 180.167C231.895 180.374 231.472 180.782 231.12 181.392ZM218.096 198.142C218.639 197.202 219.291 196.41 220.053 195.766C220.807 195.134 221.659 194.729 222.609 194.549C223.552 194.383 224.566 194.519 225.65 194.959L224.044 197.74C223.546 197.605 223.076 197.613 222.633 197.764C222.203 197.922 221.81 198.178 221.454 198.531C221.09 198.897 220.773 199.315 220.501 199.785C220.296 200.14 220.139 200.515 220.03 200.91C219.921 201.304 219.912 201.671 220.003 202.012C220.087 202.365 220.313 202.648 220.681 202.861C220.961 203.022 221.226 203.091 221.477 203.066C221.721 203.055 221.96 202.964 222.193 202.794C222.432 202.644 222.688 202.436 222.96 202.17C223.19 201.947 223.415 201.704 223.635 201.441C223.847 201.191 224.072 200.948 224.309 200.713C224.539 200.49 224.779 200.281 225.027 200.086C225.433 199.677 225.853 199.301 226.287 198.959C226.734 198.624 227.197 198.366 227.674 198.185C228.164 198.011 228.684 197.946 229.233 197.993C229.775 198.051 230.351 198.257 230.96 198.609C231.621 198.99 232.118 199.421 232.45 199.901C232.775 200.393 232.978 200.908 233.057 201.445C233.142 202.002 233.135 202.557 233.036 203.11C232.93 203.675 232.773 204.211 232.565 204.717C232.357 205.224 232.132 205.687 231.89 206.106C231.384 206.983 230.777 207.682 230.069 208.205C229.361 208.727 228.574 209.035 227.707 209.127C226.841 209.22 225.926 209.03 224.962 208.558L226.491 205.91C226.901 206.079 227.293 206.119 227.667 206.03C228.04 205.941 228.386 205.751 228.706 205.462C229.018 205.185 229.299 204.83 229.548 204.398C229.71 204.119 229.842 203.831 229.945 203.535C230.048 203.239 230.105 202.95 230.116 202.668C230.131 202.406 230.087 202.16 229.982 201.931C229.871 201.714 229.688 201.532 229.434 201.385C229.18 201.239 228.917 201.18 228.646 201.21C228.387 201.247 228.111 201.358 227.817 201.545C227.529 201.751 227.221 202.005 226.894 202.307C226.547 202.615 226.215 202.956 225.897 203.332C225.578 203.707 225.246 204.048 224.899 204.356C224.493 204.765 224.08 205.128 223.661 205.445C223.253 205.768 222.825 206.012 222.375 206.176C221.937 206.347 221.464 206.404 220.955 206.347C220.459 206.297 219.918 206.104 219.334 205.766C218.559 205.319 217.983 204.792 217.606 204.184C217.233 203.597 217.025 202.96 216.981 202.274C216.929 201.601 217.007 200.909 217.214 200.198C217.421 199.488 217.715 198.803 218.096 198.142ZM215.028 203.809L225.481 216.855L223.721 219.903L207.229 217.317L208.923 214.383L211.712 214.875L215.155 208.912L213.334 206.743L215.028 203.809ZM217.107 211.207L214.665 215.437L221.705 216.707L217.107 211.207ZM206.394 218.764L219.883 226.552L216.748 231.982C216.359 232.655 215.919 233.256 215.427 233.785C214.941 234.334 214.396 234.764 213.793 235.076C213.189 235.389 212.521 235.519 211.788 235.469C211.06 235.438 210.258 235.17 209.382 234.664C208.734 234.29 208.212 233.845 207.816 233.328C207.42 232.811 207.159 232.237 207.032 231.605C206.906 230.974 206.91 230.307 207.044 229.605L200.135 229.604L201.906 226.537L208.168 226.647L209.565 224.227L204.821 221.488L206.394 218.764ZM211.985 225.624L210.533 228.139C210.305 228.533 210.132 228.907 210.012 229.261C209.897 229.635 209.85 229.981 209.871 230.297C209.884 230.627 209.981 230.928 210.161 231.202C210.335 231.488 210.606 231.738 210.974 231.95C211.437 232.234 211.857 232.342 212.236 232.273C212.62 232.223 212.973 232.038 213.294 231.715C213.621 231.413 213.932 231.008 214.225 230.5L215.776 227.813L211.985 225.624Z" fill="#F6F6F6"/>
<path d="M218.635 169.369C219.075 168.607 219.6 168.056 220.212 167.716C220.831 167.381 221.497 167.243 222.21 167.304C222.923 167.365 223.65 167.609 224.392 168.037C225.133 168.465 225.71 168.978 226.122 169.576C226.534 170.175 226.749 170.825 226.768 171.529C226.794 172.237 226.591 172.965 226.159 173.713C225.839 174.267 225.463 174.702 225.032 175.016C224.601 175.331 224.136 175.52 223.638 175.583C223.142 175.657 222.623 175.588 222.08 175.377L222.806 174.119C223.216 174.226 223.607 174.189 223.98 174.007C224.353 173.825 224.677 173.495 224.953 173.017C225.253 172.497 225.374 172.008 225.315 171.549C225.257 171.091 225.079 170.679 224.782 170.313C224.481 169.955 224.112 169.649 223.676 169.397C223.225 169.137 222.761 168.966 222.282 168.884C221.799 168.808 221.342 168.863 220.912 169.049C220.481 169.234 220.118 169.583 219.822 170.096C219.638 170.415 219.523 170.718 219.477 171.005C219.427 171.3 219.439 171.575 219.514 171.83C219.591 172.096 219.726 172.327 219.918 172.521L219.156 173.841C218.713 173.474 218.401 173.045 218.223 172.554C218.041 172.07 217.984 171.552 218.053 171.001C218.125 170.46 218.319 169.916 218.635 169.369ZM215.273 175.215C215.421 174.958 215.596 174.736 215.797 174.547C215.999 174.359 216.217 174.212 216.453 174.108C216.695 174.008 216.949 173.96 217.214 173.966C217.482 173.982 217.754 174.07 218.031 174.23C218.385 174.434 218.632 174.669 218.774 174.936C218.923 175.206 218.988 175.493 218.97 175.797C218.947 176.107 218.869 176.427 218.735 176.756C218.607 177.089 218.447 177.421 218.255 177.754L217.637 178.824C217.88 178.964 218.11 179.046 218.327 179.07C218.551 179.098 218.763 179.058 218.963 178.952C219.159 178.853 219.331 178.675 219.479 178.419C219.575 178.252 219.644 178.085 219.686 177.915C219.732 177.756 219.743 177.601 219.72 177.449C219.7 177.308 219.639 177.181 219.538 177.067L220.288 175.768C220.544 175.981 220.731 176.218 220.848 176.479C220.968 176.752 221.031 177.033 221.039 177.324C221.043 177.622 221 177.92 220.91 178.22C220.827 178.523 220.708 178.81 220.552 179.08C220.092 179.877 219.529 180.323 218.864 180.419C218.195 180.523 217.448 180.336 216.624 179.86L213.672 178.156L214.32 177.034L215.045 177.411C214.901 177.115 214.838 176.825 214.855 176.539C214.872 176.253 214.927 175.999 215.019 175.775C215.105 175.547 215.189 175.36 215.273 175.215ZM216.158 176.058C215.998 176.335 215.908 176.611 215.888 176.886C215.868 177.161 215.915 177.414 216.031 177.647C216.142 177.887 216.318 178.077 216.561 178.217L216.738 178.319L217.314 177.321C217.41 177.155 217.499 176.984 217.581 176.81C217.666 176.647 217.722 176.485 217.75 176.326C217.784 176.17 217.78 176.025 217.738 175.89C217.692 175.761 217.586 175.649 217.42 175.553C217.253 175.457 217.094 175.421 216.942 175.444C216.786 175.474 216.641 175.542 216.505 175.649C216.366 175.762 216.25 175.899 216.158 176.058ZM211.688 181.424C211.84 181.161 212.02 180.913 212.228 180.682C212.431 180.458 212.661 180.267 212.918 180.111C213.181 179.958 213.468 179.869 213.778 179.845C214.088 179.821 214.423 179.88 214.783 180.024L214.045 181.302C213.861 181.269 213.686 181.284 213.521 181.346C213.359 181.418 213.208 181.52 213.067 181.652C212.93 181.794 212.815 181.945 212.723 182.104C212.667 182.201 212.614 182.309 212.564 182.428C212.51 182.554 212.475 182.677 212.461 182.798C212.442 182.926 212.453 183.043 212.493 183.15C212.541 183.26 212.63 183.353 212.762 183.429C212.886 183.501 213.003 183.522 213.113 183.493C213.229 183.468 213.342 183.408 213.451 183.315C213.568 183.225 213.688 183.105 213.812 182.954C214.046 182.693 214.296 182.412 214.561 182.112C214.833 181.817 215.121 181.59 215.424 181.433C215.547 181.365 215.672 181.317 215.799 181.289C215.926 181.261 216.054 181.247 216.183 181.247C216.315 181.259 216.448 181.285 216.581 181.325C216.711 181.372 216.845 181.436 216.984 181.516C217.275 181.684 217.487 181.885 217.62 182.119C217.756 182.363 217.828 182.622 217.837 182.895C217.848 183.179 217.809 183.47 217.72 183.77C217.63 184.069 217.505 184.357 217.345 184.634C217.129 185.008 216.874 185.314 216.58 185.551C216.287 185.788 215.961 185.936 215.602 185.997C215.24 186.065 214.859 186.012 214.461 185.837L215.157 184.632C215.35 184.697 215.551 184.67 215.759 184.55C215.963 184.437 216.143 184.245 216.299 183.975C216.355 183.878 216.402 183.771 216.442 183.655C216.488 183.543 216.518 183.427 216.532 183.306C216.55 183.196 216.538 183.088 216.498 182.981C216.454 182.882 216.376 182.8 216.266 182.736C216.162 182.676 216.058 182.648 215.953 182.653C215.845 182.664 215.733 182.706 215.618 182.778C215.505 182.861 215.39 182.965 215.271 183.09C215.087 183.298 214.896 183.516 214.7 183.744C214.503 183.973 214.327 184.166 214.17 184.325C213.98 184.511 213.774 184.66 213.552 184.772C213.337 184.888 213.108 184.941 212.865 184.93C212.625 184.93 212.363 184.848 212.079 184.684C211.746 184.492 211.509 184.262 211.367 183.996C211.222 183.736 211.151 183.46 211.154 183.166C211.157 182.872 211.209 182.574 211.31 182.272C211.41 181.97 211.536 181.687 211.688 181.424ZM209.909 184.674L217.256 188.916L216.524 190.184L213.947 188.696C214.05 188.95 214.104 189.207 214.11 189.469C214.116 189.731 214.081 189.984 214.006 190.227C213.937 190.473 213.847 190.694 213.735 190.888C213.435 191.407 213.084 191.75 212.684 191.916C212.283 192.082 211.858 192.114 211.409 192.012C210.956 191.916 210.491 191.731 210.013 191.455L206.999 189.715L207.731 188.447L210.526 190.061C210.713 190.169 210.912 190.265 211.122 190.349C211.332 190.434 211.537 190.478 211.738 190.483C211.941 190.499 212.137 190.455 212.326 190.352C212.511 190.255 212.678 190.079 212.826 189.822C212.966 189.58 213.034 189.342 213.03 189.109C213.033 188.88 212.978 188.663 212.864 188.459C212.747 188.262 212.599 188.08 212.419 187.911C212.239 187.743 212.045 187.598 211.837 187.478L209.177 185.942L209.909 184.674ZM204.54 193.805C204.656 193.604 204.793 193.415 204.951 193.238C205.108 193.061 205.293 192.909 205.505 192.782C205.713 192.662 205.947 192.576 206.209 192.523L205.603 192.132L206.311 190.906L213.658 195.148L212.926 196.416L210.37 194.94C210.51 195.289 210.553 195.655 210.498 196.039C210.445 196.433 210.321 196.8 210.125 197.14C209.813 197.68 209.432 198.052 208.983 198.254C208.536 198.467 208.054 198.535 207.535 198.458C207.013 198.387 206.485 198.197 205.951 197.889C205.418 197.581 204.988 197.213 204.663 196.785C204.34 196.368 204.158 195.907 204.117 195.403C204.075 194.899 204.216 194.366 204.54 193.805ZM205.783 194.245C205.579 194.598 205.498 194.921 205.542 195.214C205.588 195.518 205.717 195.791 205.928 196.033C206.139 196.275 206.39 196.48 206.681 196.648C206.979 196.82 207.281 196.93 207.586 196.977C207.888 197.031 208.175 196.998 208.447 196.878C208.72 196.758 208.956 196.525 209.156 196.179C209.34 195.86 209.413 195.542 209.374 195.224C209.339 194.917 209.222 194.632 209.023 194.369C208.83 194.111 208.595 193.901 208.318 193.741C208.027 193.573 207.726 193.464 207.413 193.413C207.097 193.369 206.797 193.408 206.514 193.531C206.226 193.66 205.983 193.898 205.783 194.245ZM201.527 199.024C201.675 198.767 201.85 198.545 202.051 198.356C202.252 198.168 202.471 198.021 202.707 197.917C202.949 197.817 203.203 197.769 203.468 197.775C203.736 197.791 204.008 197.879 204.285 198.039C204.639 198.243 204.886 198.478 205.028 198.745C205.176 199.015 205.242 199.302 205.223 199.606C205.201 199.916 205.123 200.236 204.988 200.565C204.861 200.898 204.701 201.23 204.509 201.563L203.891 202.633C204.134 202.773 204.364 202.855 204.581 202.879C204.805 202.907 205.017 202.867 205.217 202.761C205.413 202.662 205.585 202.484 205.733 202.228C205.829 202.061 205.898 201.893 205.94 201.724C205.986 201.565 205.997 201.41 205.974 201.258C205.953 201.117 205.893 200.99 205.792 200.876L206.542 199.577C206.798 199.79 206.985 200.027 207.102 200.288C207.222 200.561 207.285 200.842 207.293 201.133C207.297 201.431 207.254 201.729 207.164 202.029C207.081 202.332 206.962 202.619 206.806 202.889C206.346 203.686 205.783 204.132 205.118 204.228C204.449 204.331 203.702 204.145 202.877 203.669L199.926 201.965L200.574 200.843L201.299 201.22C201.155 200.924 201.092 200.634 201.109 200.348C201.126 200.062 201.181 199.807 201.273 199.584C201.359 199.356 201.443 199.169 201.527 199.024ZM202.412 199.867C202.252 200.144 202.162 200.42 202.142 200.695C202.122 200.97 202.169 201.223 202.284 201.456C202.396 201.696 202.572 201.886 202.815 202.026L202.991 202.128L203.567 201.13C203.663 200.964 203.753 200.793 203.835 200.619C203.92 200.456 203.976 200.294 204.004 200.135C204.038 199.979 204.034 199.834 203.992 199.698C203.946 199.57 203.84 199.458 203.674 199.362C203.507 199.266 203.348 199.23 203.196 199.253C203.04 199.283 202.895 199.351 202.759 199.458C202.62 199.571 202.504 199.708 202.412 199.867ZM197.762 205.545C198.09 204.976 198.481 204.564 198.933 204.308C199.393 204.056 199.892 203.952 200.431 203.995C200.969 204.038 201.516 204.22 202.07 204.54C202.624 204.86 203.053 205.246 203.355 205.697C203.665 206.153 203.825 206.652 203.835 207.194C203.846 207.736 203.685 208.294 203.353 208.869C203.109 209.292 202.82 209.624 202.487 209.866C202.149 210.114 201.781 210.257 201.38 210.294C200.983 210.342 200.561 210.273 200.113 210.089L200.833 208.842C201.145 208.911 201.415 208.882 201.645 208.756C201.878 208.641 202.07 208.452 202.222 208.189C202.426 207.835 202.501 207.505 202.448 207.197C202.398 206.9 202.27 206.632 202.066 206.394C201.862 206.156 201.621 205.957 201.344 205.797C201.053 205.629 200.751 205.52 200.439 205.469C200.134 205.422 199.847 205.455 199.578 205.568C199.306 205.687 199.076 205.91 198.888 206.236C198.736 206.499 198.658 206.769 198.656 207.044C198.65 207.327 198.761 207.576 198.988 207.79L198.244 209.079C197.849 208.786 197.578 208.44 197.43 208.041C197.285 207.652 197.245 207.241 197.31 206.808C197.376 206.374 197.526 205.953 197.762 205.545ZM195.876 208.981L203.223 213.223L202.491 214.49L198.428 212.144L197.972 212.934L199.33 215.645L198.508 217.069L196.926 213.785L192.948 214.052L193.8 212.576L196.818 212.365L197.316 211.502L195.144 210.248L195.876 208.981Z" fill="#F6F6F6"/>
<path d="M66.7664 133.607C66.3924 134.255 65.9569 134.834 65.4598 135.343C64.9627 135.852 64.406 136.258 63.7898 136.563C63.1735 136.868 62.5161 137.039 61.8173 137.076C61.1059 137.105 60.3662 136.949 59.5982 136.607L61.1602 133.902C61.5671 134.018 61.9646 134.019 62.3526 133.904C62.7353 133.77 63.0837 133.547 63.398 133.238C63.7196 132.915 64.0014 132.545 64.2434 132.125C64.4048 131.846 64.537 131.558 64.6402 131.262C64.7507 130.953 64.8048 130.654 64.8025 130.365C64.8075 130.063 64.7387 129.786 64.5961 129.535C64.4535 129.283 64.217 129.062 63.8868 128.871C63.582 128.695 63.2949 128.606 63.0257 128.603C62.7565 128.6 62.5033 128.657 62.2663 128.774C62.0293 128.891 61.8084 129.068 61.6036 129.306C61.4061 129.53 61.223 129.789 61.0544 130.081L60.1524 131.643L57.828 130.301L58.433 129.253C58.6236 128.923 58.7642 128.606 58.8547 128.303C58.9325 127.992 58.9592 127.711 58.9349 127.46C58.9051 127.189 58.8244 126.948 58.6925 126.736C58.5479 126.517 58.3486 126.334 58.0946 126.187C57.7136 125.967 57.3674 125.878 57.0561 125.918C56.7322 125.951 56.4351 126.085 56.1648 126.318C55.8945 126.552 55.6493 126.859 55.4293 127.24C55.224 127.595 55.0868 127.965 55.0178 128.349C54.9434 128.712 54.9492 129.054 55.0351 129.375C55.121 129.695 55.2917 129.972 55.5471 130.204L54.0181 132.852C53.3762 132.38 52.8983 131.858 52.5843 131.288C52.2576 130.709 52.0675 130.1 52.0139 129.46C51.9604 128.819 52.0251 128.179 52.208 127.539C52.3856 126.88 52.6504 126.245 53.0024 125.635C53.3397 125.051 53.7259 124.529 54.1609 124.069C54.596 123.609 55.0805 123.253 55.6147 123.003C56.1434 122.732 56.7161 122.606 57.3328 122.623C57.9494 122.64 58.588 122.84 59.2485 123.221C59.6549 123.456 59.9956 123.745 60.2706 124.091C60.5529 124.423 60.7605 124.797 60.8932 125.212C61.0206 125.607 61.0779 126.022 61.0651 126.454C61.4908 126.04 61.9541 125.765 62.455 125.631C62.9558 125.497 63.4662 125.478 63.9861 125.575C64.5133 125.659 65.0245 125.844 65.5199 126.13C66.3328 126.6 66.9244 127.145 67.2945 127.765C67.6593 128.365 67.8575 129.004 67.889 129.683C67.9079 130.354 67.8148 131.029 67.6099 131.707C67.3922 132.377 67.1111 133.01 66.7664 133.607ZM73.8286 121.419C73.2566 122.41 72.5947 123.146 71.8431 123.626C71.0914 124.107 70.2798 124.384 69.408 124.456C68.5236 124.521 67.6136 124.411 66.678 124.125C65.7297 123.831 64.7856 123.413 63.8456 122.87C62.8803 122.313 62.0335 121.697 61.3052 121.023C60.5842 120.335 60.0308 119.593 59.6451 118.794C59.2667 117.983 59.0976 117.132 59.138 116.24C59.1857 115.336 59.4918 114.395 60.0565 113.417C60.6432 112.401 61.3187 111.657 62.083 111.183C62.8547 110.697 63.6918 110.436 64.5943 110.398C65.4914 110.34 66.4041 110.46 67.3324 110.759C68.268 111.045 69.1867 111.449 70.0885 111.969C71.0158 112.505 71.8372 113.106 72.5528 113.773C73.2684 114.44 73.8291 115.171 74.2349 115.964C74.628 116.75 74.807 117.598 74.772 118.509C74.7371 119.421 74.4226 120.391 73.8286 121.419ZM71.3136 119.967C71.673 119.345 71.8156 118.775 71.7415 118.258C71.662 117.721 71.445 117.232 71.0904 116.79C70.7431 116.336 70.3365 115.94 69.8704 115.603C69.399 115.246 68.9474 114.943 68.5155 114.694C68.1091 114.459 67.6398 114.231 67.1078 114.008C66.5704 113.766 66.0281 113.605 65.4809 113.526C64.9209 113.44 64.3922 113.49 63.8948 113.677C63.3973 113.864 62.9725 114.263 62.6205 114.872C62.2685 115.482 62.1323 116.055 62.2118 116.592C62.2785 117.122 62.4855 117.614 62.8328 118.069C63.1874 118.51 63.594 118.906 64.0527 119.256C64.5114 119.605 64.9504 119.901 65.3695 120.143C65.7887 120.385 66.267 120.627 66.8044 120.87C67.3491 121.1 67.9014 121.258 68.4614 121.344C69.0213 121.43 69.55 121.379 70.0475 121.193C70.5396 120.985 70.9616 120.577 71.3136 119.967ZM78.8589 112.355L70.4296 95.8026L72.0136 93.059L80.4649 109.573L78.8589 112.355ZM84.8112 102.353C84.4372 103.001 83.9739 103.495 83.4211 103.837C82.863 104.158 82.2556 104.315 81.5989 104.309C80.9495 104.29 80.2883 104.086 79.6151 103.697C78.9419 103.308 78.4383 102.831 78.1042 102.266C77.7702 101.7 77.6128 101.093 77.6321 100.444C77.6387 99.7869 77.8289 99.1346 78.2029 98.4868C78.5696 97.8517 79.0256 97.3699 79.571 97.0412C80.1164 96.7125 80.7138 96.5578 81.3632 96.5771C81.9999 96.589 82.6611 96.793 83.347 97.189C84.0202 97.5777 84.5302 98.0584 84.8769 98.6312C85.2183 99.1839 85.3857 99.7886 85.3791 100.445C85.3672 101.082 85.1779 101.718 84.8112 102.353ZM82.8107 101.198C82.972 100.918 83.0469 100.657 83.0352 100.413C83.0109 100.162 82.9191 99.9395 82.7599 99.746C82.608 99.5397 82.4241 99.3743 82.2081 99.2496C81.9922 99.125 81.7633 99.0521 81.5214 99.031C81.2742 98.9899 81.0358 99.0215 80.8061 99.126C80.5764 99.2305 80.3809 99.4225 80.2196 99.7019C79.9629 100.146 79.9193 100.545 80.0887 100.897C80.2454 101.241 80.4889 101.509 80.8192 101.699C81.1568 101.877 81.5139 101.948 81.8907 101.912C82.2547 101.868 82.5614 101.63 82.8107 101.198ZM72.7055 106.821C72.3242 107.481 71.8608 107.976 71.3154 108.304C70.7573 108.626 70.1499 108.783 69.4932 108.777C68.8438 108.757 68.1889 108.557 67.5284 108.176C66.8425 107.78 66.3289 107.305 65.9875 106.753C65.6535 106.187 65.4961 105.58 65.5154 104.93C65.5219 104.274 65.7122 103.621 66.0862 102.974C66.4602 102.326 66.9163 101.844 67.4543 101.528C67.9997 101.199 68.5971 101.045 69.2465 101.064C69.8831 101.076 70.5444 101.28 71.2303 101.676C71.9035 102.064 72.4171 102.539 72.7712 103.099C73.1126 103.652 73.28 104.256 73.2734 104.913C73.2615 105.55 73.0722 106.186 72.7055 106.821ZM70.6859 105.655C70.8473 105.375 70.9221 105.114 70.9105 104.87C70.8861 104.619 70.8007 104.4 70.6542 104.214C70.4949 104.02 70.301 103.857 70.0724 103.725C69.8564 103.601 69.6275 103.528 69.3857 103.507C69.1385 103.466 68.9 103.497 68.6703 103.602C68.448 103.694 68.2561 103.879 68.0948 104.159C67.8381 104.603 67.7908 105.008 67.953 105.372C68.1097 105.717 68.3632 105.982 68.7135 106.167C69.0437 106.358 69.3909 106.431 69.7549 106.387C70.1263 106.331 70.4366 106.086 70.6859 105.655Z" fill="black"/>
<path d="M85.1193 129.704C84.6833 130.459 84.152 131.012 83.5253 131.361C82.9026 131.704 82.2252 131.853 81.4931 131.809C80.765 131.758 80.0372 131.523 79.3097 131.103C78.5684 130.675 77.9991 130.157 77.602 129.549C77.1978 128.937 76.9904 128.272 76.9797 127.554C76.9621 126.833 77.1713 126.095 77.6073 125.339C78.0433 124.584 78.5727 124.035 79.1953 123.693C79.822 123.343 80.5014 123.191 81.2336 123.235C81.9587 123.275 82.6885 123.506 83.4229 123.93C84.1504 124.35 84.7162 124.867 85.1203 125.479C85.5284 126.084 85.7393 126.75 85.7529 127.479C85.7705 128.2 85.5593 128.942 85.1193 129.704ZM83.9258 128.987C84.2298 128.461 84.3566 127.961 84.3061 127.489C84.2556 127.016 84.0804 126.592 83.7804 126.215C83.4844 125.832 83.1182 125.514 82.6817 125.262C82.3492 125.07 82.0045 124.931 81.6476 124.845C81.2948 124.753 80.9431 124.73 80.5926 124.777C80.2461 124.817 79.9216 124.939 79.619 125.143C79.3096 125.343 79.0408 125.641 78.8128 126.035C78.5128 126.555 78.3861 127.055 78.4325 127.534C78.483 128.007 78.6563 128.435 78.9522 128.818C79.2482 129.201 79.6214 129.523 80.0717 129.783C80.5151 130.039 80.9768 130.199 81.4568 130.264C81.9368 130.329 82.394 130.265 82.8285 130.072C83.26 129.869 83.6258 129.507 83.9258 128.987ZM87.9855 124.548L83.6311 122.034L83.1391 122.886L82.0168 122.238L82.5088 121.386L81.9892 121.086C81.5735 120.846 81.27 120.587 81.0787 120.311C80.8805 120.03 80.7971 119.719 80.8284 119.376C80.8636 119.027 81.0053 118.638 81.2533 118.208L81.7213 117.398L82.8437 118.046L82.4597 118.711C82.3517 118.898 82.2988 119.061 82.3012 119.201C82.3035 119.341 82.3531 119.472 82.4498 119.592C82.5436 119.702 82.6771 119.806 82.8503 119.906L83.2348 120.128L84.0388 118.736L85.1611 119.384L84.3571 120.776L88.7115 123.29L87.9855 124.548ZM90.2531 120.62L85.8987 118.106L85.4067 118.958L84.2844 118.31L84.7764 117.458L84.2567 117.158C83.841 116.918 83.5376 116.66 83.3463 116.383C83.1481 116.103 83.0646 115.791 83.0959 115.449C83.1312 115.1 83.2729 114.71 83.5209 114.281L83.9889 113.47L85.1112 114.118L84.7272 114.783C84.6192 114.97 84.5664 115.134 84.5688 115.274C84.5711 115.414 84.6207 115.544 84.7174 115.664C84.8111 115.774 84.9446 115.879 85.1178 115.979L85.5024 116.201L86.3064 114.808L87.4287 115.456L86.6247 116.849L90.9791 119.363L90.2531 120.62Z" fill="black"/>
<path d="M154.55 208.904C155.422 208.904 156.166 209.088 156.782 209.456C157.39 209.824 157.858 210.336 158.186 210.992C158.506 211.648 158.666 212.396 158.666 213.236C158.666 214.092 158.502 214.844 158.174 215.492C157.846 216.148 157.374 216.66 156.758 217.028C156.142 217.404 155.398 217.592 154.526 217.592C153.654 217.592 152.914 217.408 152.306 217.04C151.69 216.672 151.218 216.16 150.89 215.504C150.562 214.856 150.398 214.108 150.398 213.26C150.398 212.42 150.562 211.672 150.89 211.016C151.21 210.36 151.682 209.844 152.306 209.468C152.922 209.092 153.67 208.904 154.55 208.904ZM154.526 210.296C153.918 210.296 153.422 210.436 153.038 210.716C152.654 210.996 152.374 211.36 152.198 211.808C152.014 212.256 151.922 212.732 151.922 213.236C151.922 213.62 151.974 213.988 152.078 214.34C152.174 214.692 152.33 215.008 152.546 215.288C152.754 215.568 153.022 215.788 153.35 215.948C153.678 216.116 154.07 216.2 154.526 216.2C155.126 216.2 155.622 216.06 156.014 215.78C156.398 215.5 156.682 215.136 156.866 214.688C157.05 214.24 157.142 213.756 157.142 213.236C157.142 212.724 157.05 212.244 156.866 211.796C156.682 211.348 156.398 210.984 156.014 210.704C155.622 210.432 155.126 210.296 154.526 210.296ZM148.652 209L148.652 214.028L149.636 214.028L149.636 215.324L148.652 215.324L148.652 215.924C148.652 216.404 148.58 216.796 148.436 217.1C148.292 217.412 148.064 217.64 147.752 217.784C147.432 217.928 147.024 218 146.528 218L145.592 218L145.592 216.704L146.36 216.704C146.576 216.704 146.744 216.668 146.864 216.596C146.984 216.524 147.072 216.416 147.128 216.272C147.176 216.136 147.2 215.968 147.2 215.768L147.2 215.324L145.592 215.324L145.592 214.028L147.2 214.028L147.2 209L148.652 209ZM144.117 209L144.117 214.028L145.101 214.028L145.101 215.324L144.117 215.324L144.117 215.924C144.117 216.404 144.045 216.796 143.901 217.1C143.757 217.412 143.529 217.64 143.217 217.784C142.897 217.928 142.489 218 141.993 218L141.057 218L141.057 216.704L141.825 216.704C142.041 216.704 142.209 216.668 142.329 216.596C142.449 216.524 142.537 216.416 142.593 216.272C142.641 216.136 142.665 215.968 142.665 215.768L142.665 215.324L141.057 215.324L141.057 214.028L142.665 214.028L142.665 209L144.117 209Z" fill="black"/>
<path d="M151.871 189.235C170.733 189.235 186.023 174.128 186.023 155.492C186.023 136.856 170.733 121.748 151.871 121.748C133.009 121.748 117.719 136.856 117.719 155.492C117.719 174.128 133.009 189.235 151.871 189.235Z" fill="#3D3D3D"/>
<path d="M131.049 176.064C119.551 164.703 119.551 146.276 131.049 134.916L151.873 106.084L172.696 134.916C184.194 146.276 184.194 164.703 172.696 176.064C161.198 187.424 142.548 187.424 131.049 176.064Z" fill="#3D3D3D"/>
<path d="M168.158 171.125C176.941 162.447 176.941 148.377 168.158 139.699C159.375 131.022 145.135 131.021 136.352 139.699C127.569 148.377 127.569 162.447 136.352 171.125C145.135 179.803 159.375 179.803 168.158 171.125Z" fill="white"/>
<path d="M145.726 166.666C144.438 166.666 143.3 166.438 142.315 165.979C141.329 165.522 140.556 164.865 140 164.013C139.443 163.161 139.164 162.135 139.164 160.936C139.164 160.569 139.464 160.274 139.831 160.274H141.598C141.968 160.274 142.265 160.572 142.265 160.936C142.265 161.932 142.576 162.676 143.197 163.174C143.817 163.672 144.661 163.921 145.726 163.921C146.792 163.921 147.615 163.708 148.15 163.282C148.683 162.856 148.949 162.312 148.949 161.647C148.949 161.19 148.817 160.818 148.556 160.533C148.295 160.249 147.912 160.018 147.41 159.835C146.908 159.653 146.301 159.484 145.584 159.327L145.036 159.209C143.89 158.958 142.907 158.637 142.087 158.249C141.267 157.862 140.638 157.354 140.201 156.723C139.764 156.091 139.544 155.27 139.544 154.259C139.544 153.248 139.787 152.386 140.271 151.667C140.757 150.949 141.44 150.397 142.325 150.01C143.207 149.622 144.247 149.43 145.439 149.43C146.632 149.43 147.695 149.63 148.626 150.033C149.557 150.436 150.289 151.036 150.822 151.832C151.355 152.63 151.621 153.628 151.621 154.826V154.872C151.621 155.239 151.321 155.535 150.954 155.535H149.187C148.817 155.535 148.52 155.237 148.52 154.872V154.826C148.52 154.195 148.396 153.687 148.15 153.299C147.904 152.912 147.55 152.63 147.087 152.447C146.626 152.265 146.075 152.175 145.439 152.175C144.485 152.175 143.781 152.353 143.326 152.709C142.873 153.063 142.646 153.548 142.646 154.164C142.646 154.575 142.754 154.921 142.969 155.206C143.184 155.491 143.507 155.727 143.936 155.917C144.366 156.107 144.914 156.271 145.584 156.415L146.132 156.533C147.325 156.784 148.365 157.11 149.247 157.503C150.129 157.898 150.817 158.419 151.311 159.066C151.805 159.712 152.051 160.541 152.051 161.552C152.051 162.563 151.792 163.451 151.275 164.216C150.757 164.98 150.025 165.581 149.079 166.015C148.132 166.448 147.014 166.666 145.726 166.666Z" fill="#231F20"/>
<path d="M165.03 159.083C163.605 161.972 158.792 162.909 156.831 160.235C156.689 160.009 156.311 160.122 156.319 160.389V163.166C156.319 163.64 156.541 163.877 156.986 163.877H163.579C163.735 163.877 163.859 164 163.859 164.154V166.204C163.859 166.358 163.735 166.481 163.579 166.481C162.105 166.199 155.031 167.164 154.027 165.76C153.549 165.278 153.311 164.636 153.311 163.83V150.281C153.311 150.127 153.435 150.004 153.59 150.004H155.99C156.453 149.981 156.215 150.905 156.27 151.149C156.27 151.302 156.394 151.426 156.549 151.426C158.14 149.575 160.706 149.078 163.059 150.371C165.962 151.906 166.453 156.396 165.028 159.086L165.03 159.083ZM161.833 158.313C162.509 157.708 162.809 156.697 162.765 155.614C163.01 152.575 159.19 151.259 157.19 153.14C156.526 153.735 156.226 154.759 156.272 155.852C156.039 158.862 159.831 160.225 161.833 158.316V158.313Z" fill="#CE4927"/>
<path d="M148.692 147.765H147.383C147.158 147.765 146.951 147.624 146.892 147.409C146.734 146.854 146.219 146.446 145.611 146.446C145.004 146.446 144.489 146.854 144.331 147.409C144.272 147.624 144.062 147.765 143.84 147.765H142.531C142.215 147.765 141.967 147.486 142.019 147.178C142.303 145.464 143.806 144.152 145.611 144.152C147.417 144.152 148.922 145.464 149.204 147.178C149.256 147.486 149.008 147.765 148.692 147.765Z" fill="#CE4927"/>
<defs>
<linearGradient id="paint0_linear_2_3179" x1="151.774" y1="25.2305" x2="151.774" y2="284.942" gradientUnits="userSpaceOnUse">
<stop stop-color="#CC4924"/>
<stop offset="1" stop-color="white"/>
</linearGradient>
<linearGradient id="paint1_linear_2_3179" x1="151.772" y1="281.132" x2="151.772" y2="29.0391" gradientUnits="userSpaceOnUse">
<stop stop-color="#CC4924"/>
<stop offset="1" stop-color="white"/>
</linearGradient>
<linearGradient id="paint2_linear_2_3179" x1="91.351" y1="52.5045" x2="182.304" y2="105.016" gradientUnits="userSpaceOnUse">
<stop stop-color="#FFBE93"/>
<stop offset="1" stop-color="#CC4924"/>
</linearGradient>
<linearGradient id="paint3_linear_2_3179" x1="90.9542" y1="262.547" x2="90.9542" y2="157.524" gradientUnits="userSpaceOnUse">
<stop stop-color="#FFBE93"/>
<stop offset="1" stop-color="#CC4924"/>
</linearGradient>
<linearGradient id="paint4_linear_2_3179" x1="272.849" y1="157.515" x2="181.896" y2="210.027" gradientUnits="userSpaceOnUse">
<stop stop-color="#FFBE93"/>
<stop offset="1" stop-color="#CC4924"/>
</linearGradient>
</defs>
</svg>
