<svg width="343" height="208" viewBox="0 0 343 208" fill="none" xmlns="http://www.w3.org/2000/svg">
<rect width="342.98" height="207.776" fill="black"/>
<path d="M15.9062 0H115.321V207.776H15.9062V0Z" fill="black"/>
<path d="M15.9062 0H115.321V207.776H15.9062V0Z" fill="#B0B0B0" fill-opacity="0.2"/>
<path d="M69.0705 18.8887H61.2547C60.2929 18.8887 59.691 19.9305 60.1723 20.7636L62.9071 25.5016H67.4182L70.1534 20.7636C70.6352 19.9305 70.0333 18.8887 69.0705 18.8887Z" fill="#FEBB50"/>
<path d="M67.979 27.7051H62.3489C56.7793 29.4213 52.793 34.022 52.793 39.4291C52.793 39.6512 52.7996 39.8719 52.813 40.0911C53.128 45.2956 57.6386 49.2595 62.8527 49.2595H67.4748C72.6884 49.2595 77.199 45.2956 77.5145 40.0911C77.5278 39.8719 77.5345 39.6512 77.5345 39.4291C77.5345 34.022 73.5477 29.4218 67.979 27.7051Z" fill="url(#paint0_linear_4823_2564)"/>
<path d="M70.2824 26.6098C70.2824 26.9992 70.1256 27.3542 69.8697 27.6097C69.6137 27.8656 69.2534 28.0224 68.864 28.0224H61.4571C60.6726 28.0224 60.0449 27.389 60.0449 26.6098C60.0449 26.2204 60.2017 25.8601 60.4577 25.6041C60.7131 25.3482 61.0682 25.1914 61.4571 25.1914H68.864C69.6485 25.1914 70.2824 25.8253 70.2824 26.6098Z" fill="#C17E48"/>
<path d="M48.1654 164.033H82.6185C82.8106 164.033 82.9616 164.184 82.9616 164.376V182.907C82.9616 183.099 82.8106 183.25 82.6185 183.25H48.1654C47.9733 183.25 47.8223 183.099 47.8223 182.907V164.376C47.8223 164.184 47.9733 164.033 48.1654 164.033Z" fill="#87C443"/>
<path d="M49.8809 166.092H80.9023V181.191H49.8809V166.092Z" fill="#3D8033"/>
<path d="M79.5301 170.526V176.751C79.5301 176.963 79.3448 177.121 79.1321 177.087C78.5899 177.011 77.979 177.149 77.3751 177.567C76.8809 178.185 76.7231 178.844 76.8054 179.42C76.8329 179.626 76.675 179.812 76.4691 179.812H54.3149C54.1021 179.812 53.9443 179.626 53.9786 179.42C54.0609 178.844 53.9031 178.185 53.4089 177.567C52.7981 177.149 52.1942 177.011 51.652 177.087C51.4461 177.114 51.2539 176.957 51.2539 176.751V170.526C51.2539 170.313 51.4392 170.155 51.652 170.19C52.1942 170.265 52.805 170.128 53.4089 169.709C53.9031 169.091 54.0609 168.433 53.9786 167.856C53.9511 167.65 54.109 167.465 54.3149 167.465H76.4623C76.6682 167.465 76.8329 167.65 76.7986 167.856C76.7162 168.433 76.8741 169.091 77.3682 169.709C77.979 170.128 78.583 170.265 79.1252 170.19C79.3448 170.162 79.5301 170.32 79.5301 170.526Z" fill="#87C443"/>
<path d="M65.3915 178.791C68.2343 178.791 70.5389 176.486 70.5389 173.643C70.5389 170.801 68.2343 168.496 65.3915 168.496C62.5487 168.496 60.2441 170.801 60.2441 173.643C60.2441 176.486 62.5487 178.791 65.3915 178.791Z" fill="#3D8033"/>
<path d="M75.0341 175.359C75.9818 175.359 76.7499 174.591 76.7499 173.644C76.7499 172.696 75.9818 171.928 75.0341 171.928C74.0865 171.928 73.3184 172.696 73.3184 173.644C73.3184 174.591 74.0865 175.359 75.0341 175.359Z" fill="#3D8033"/>
<path d="M55.749 175.359C56.6966 175.359 57.4648 174.591 57.4648 173.644C57.4648 172.696 56.6966 171.928 55.749 171.928C54.8014 171.928 54.0332 172.696 54.0332 173.644C54.0332 174.591 54.8014 175.359 55.749 175.359Z" fill="#3D8033"/>
<line x1="90.5703" y1="71.084" x2="39.7658" y2="71.084" stroke="white" stroke-opacity="0.5"/>
<line x1="90.5703" y1="137.691" x2="39.7658" y2="137.691" stroke="white" stroke-opacity="0.5"/>
<path d="M56.2757 120.294C54.4212 120.294 52.7827 119.961 51.3638 119.292C49.945 118.626 48.8316 117.669 48.0309 116.427C47.2303 115.186 46.8281 113.69 46.8281 111.944C46.8281 111.409 47.2601 110.979 47.7889 110.979H50.3323C50.8648 110.979 51.2931 111.413 51.2931 111.944C51.2931 113.395 51.74 114.479 52.6337 115.205C53.5274 115.93 54.7414 116.293 56.2757 116.293C57.8099 116.293 58.9941 115.982 59.765 115.362C60.5321 114.741 60.9157 113.948 60.9157 112.98C60.9157 112.314 60.7257 111.772 60.3496 111.357C59.9735 110.942 59.4224 110.606 58.6999 110.34C57.9775 110.075 57.1024 109.828 56.0709 109.6L55.2814 109.428C53.6317 109.061 52.2166 108.594 51.0361 108.029C49.8557 107.465 48.9508 106.724 48.3214 105.804C47.6921 104.885 47.3755 103.688 47.3755 102.215C47.3755 100.742 47.7256 99.4853 48.422 98.4383C49.1221 97.3913 50.1052 96.5874 51.3787 96.0228C52.6486 95.4582 54.1456 95.1777 55.8623 95.1777C57.579 95.1777 59.1096 95.4694 60.4502 96.0564C61.7908 96.6435 62.8447 97.5185 63.6118 98.6776C64.3789 99.8405 64.7625 101.295 64.7625 103.041V103.109C64.7625 103.643 64.3305 104.073 63.8017 104.073H61.2583C60.7257 104.073 60.2975 103.639 60.2975 103.109V103.041C60.2975 102.121 60.1188 101.381 59.765 100.816C59.4112 100.252 58.901 99.8405 58.2345 99.575C57.5716 99.3095 56.7784 99.1787 55.8623 99.1787C54.4882 99.1787 53.4753 99.4367 52.8199 99.9564C52.1682 100.472 51.8405 101.179 51.8405 102.077C51.8405 102.675 51.9969 103.18 52.306 103.595C52.6151 104.01 53.0806 104.354 53.6987 104.63C54.3169 104.907 55.1064 105.146 56.0709 105.356L56.8603 105.528C58.5771 105.894 60.0741 106.369 61.3439 106.941C62.6138 107.517 63.6043 108.276 64.3156 109.218C65.0269 110.161 65.3806 111.368 65.3806 112.842C65.3806 114.315 65.0082 115.609 64.2635 116.723C63.5187 117.837 62.4648 118.712 61.1019 119.344C59.7389 119.976 58.1302 120.294 56.2757 120.294Z" fill="white"/>
<path d="M84.0664 109.241C82.0145 113.452 75.0843 114.817 72.2616 110.92C72.0568 110.591 71.5131 110.756 71.5243 111.145V115.191C71.5243 115.882 71.8445 116.226 72.485 116.226H81.9773C82.2007 116.226 82.3795 116.406 82.3795 116.63V119.618C82.3795 119.842 82.2007 120.022 81.9773 120.022C79.8547 119.61 69.6698 121.016 68.2249 118.971C67.536 118.268 67.1934 117.333 67.1934 116.159V96.4161C67.1934 96.1918 67.3721 96.0123 67.5955 96.0123H71.0513C71.7179 95.9786 71.3753 97.3247 71.4535 97.68C71.4535 97.9043 71.6323 98.0838 71.8557 98.0838C74.1459 95.3878 77.84 94.6624 81.2288 96.547C85.407 98.783 86.1145 105.327 84.0627 109.245L84.0664 109.241ZM79.4636 108.12C80.4356 107.237 80.8675 105.764 80.8042 104.186C81.158 99.7589 75.6578 97.8407 72.7792 100.582C71.8222 101.449 71.3902 102.941 71.4572 104.534C71.1221 108.92 76.5813 110.905 79.4636 108.123V108.12Z" fill="#CC4924"/>
<path d="M60.5394 92.7491H58.6551C58.3311 92.7491 58.0332 92.5435 57.9476 92.2294C57.7204 91.4217 56.9794 90.8272 56.1042 90.8272C55.2291 90.8272 54.4881 91.4217 54.2609 92.2294C54.1753 92.5435 53.8736 92.7491 53.5534 92.7491H51.6691C51.2147 92.7491 50.8573 92.3416 50.9317 91.8929C51.3414 89.3951 53.505 87.4844 56.1042 87.4844C58.7035 87.4844 60.8708 89.3951 61.2767 91.8929C61.3512 92.3416 60.9937 92.7491 60.5394 92.7491Z" fill="#CC4924"/>
<rect x="15.9062" width="99.4146" height="65.6136" fill="url(#paint1_linear_4823_2564)"/>
<rect x="115.321" y="207.777" width="99.4146" height="65.6136" transform="rotate(-180 115.321 207.777)" fill="url(#paint2_linear_4823_2564)"/>
<path d="M121.286 0H221.695V207.776H121.286V0Z" fill="black"/>
<path d="M121.286 0H221.695V207.776H121.286V0Z" fill="#B0B0B0" fill-opacity="0.2"/>
<path d="M175.445 18.8887H167.629C166.667 18.8887 166.065 19.9305 166.546 20.7636L169.281 25.5016H173.792L176.527 20.7636C177.009 19.9305 176.407 18.8887 175.445 18.8887Z" fill="#FEBB50"/>
<path d="M174.353 27.7051H168.723C163.153 29.4213 159.167 34.022 159.167 39.4291C159.167 39.6512 159.174 39.8719 159.187 40.0911C159.502 45.2956 164.013 49.2595 169.227 49.2595H173.849C179.062 49.2595 183.573 45.2956 183.889 40.0911C183.902 39.8719 183.909 39.6512 183.909 39.4291C183.909 34.022 179.922 29.4218 174.353 27.7051Z" fill="url(#paint3_linear_4823_2564)"/>
<path d="M176.656 26.6098C176.656 26.9992 176.5 27.3542 176.244 27.6097C175.988 27.8656 175.627 28.0224 175.238 28.0224H167.831C167.047 28.0224 166.419 27.389 166.419 26.6098C166.419 26.2204 166.576 25.8601 166.832 25.6041C167.087 25.3482 167.442 25.1914 167.831 25.1914H175.238C176.023 25.1914 176.656 25.8253 176.656 26.6098Z" fill="#C17E48"/>
<path d="M154.539 164.033H188.992C189.185 164.033 189.336 164.184 189.336 164.376V182.907C189.336 183.099 189.185 183.25 188.992 183.25H154.539C154.347 183.25 154.196 183.099 154.196 182.907V164.376C154.196 164.184 154.347 164.033 154.539 164.033Z" fill="#87C443"/>
<path d="M156.255 166.092H187.276V181.191H156.255V166.092Z" fill="#3D8033"/>
<path d="M185.904 170.526V176.751C185.904 176.963 185.719 177.121 185.506 177.087C184.964 177.011 184.353 177.149 183.749 177.567C183.255 178.185 183.097 178.844 183.179 179.42C183.207 179.626 183.049 179.812 182.843 179.812H160.689C160.476 179.812 160.318 179.626 160.353 179.42C160.435 178.844 160.277 178.185 159.783 177.567C159.172 177.149 158.568 177.011 158.026 177.087C157.82 177.114 157.628 176.957 157.628 176.751V170.526C157.628 170.313 157.813 170.155 158.026 170.19C158.568 170.265 159.179 170.128 159.783 169.709C160.277 169.091 160.435 168.433 160.353 167.856C160.325 167.65 160.483 167.465 160.689 167.465H182.836C183.042 167.465 183.207 167.65 183.173 167.856C183.09 168.433 183.248 169.091 183.742 169.709C184.353 170.128 184.957 170.265 185.499 170.19C185.719 170.162 185.904 170.32 185.904 170.526Z" fill="#87C443"/>
<path d="M171.766 178.791C174.608 178.791 176.913 176.486 176.913 173.643C176.913 170.801 174.608 168.496 171.766 168.496C168.923 168.496 166.618 170.801 166.618 173.643C166.618 176.486 168.923 178.791 171.766 178.791Z" fill="#3D8033"/>
<path d="M181.408 175.359C182.356 175.359 183.124 174.591 183.124 173.644C183.124 172.696 182.356 171.928 181.408 171.928C180.461 171.928 179.692 172.696 179.692 173.644C179.692 174.591 180.461 175.359 181.408 175.359Z" fill="#3D8033"/>
<path d="M162.123 175.359C163.071 175.359 163.839 174.591 163.839 173.644C163.839 172.696 163.071 171.928 162.123 171.928C161.175 171.928 160.407 172.696 160.407 173.644C160.407 174.591 161.175 175.359 162.123 175.359Z" fill="#3D8033"/>
<line x1="196.944" y1="71.084" x2="146.14" y2="71.084" stroke="white" stroke-opacity="0.5"/>
<line x1="196.944" y1="137.691" x2="146.14" y2="137.691" stroke="white" stroke-opacity="0.5"/>
<path d="M162.65 120.294C160.795 120.294 159.157 119.961 157.738 119.292C156.319 118.626 155.206 117.669 154.405 116.427C153.604 115.186 153.202 113.69 153.202 111.944C153.202 111.409 153.634 110.979 154.163 110.979H156.706C157.239 110.979 157.667 111.413 157.667 111.944C157.667 113.395 158.114 114.479 159.008 115.205C159.901 115.93 161.115 116.293 162.65 116.293C164.184 116.293 165.368 115.982 166.139 115.362C166.906 114.741 167.29 113.948 167.29 112.98C167.29 112.314 167.1 111.772 166.724 111.357C166.348 110.942 165.796 110.606 165.074 110.34C164.352 110.075 163.476 109.828 162.445 109.6L161.655 109.428C160.006 109.061 158.591 108.594 157.41 108.029C156.23 107.465 155.325 106.724 154.695 105.804C154.066 104.885 153.75 103.688 153.75 102.215C153.75 100.742 154.1 99.4853 154.796 98.4383C155.496 97.3913 156.479 96.5874 157.753 96.0228C159.023 95.4582 160.52 95.1777 162.236 95.1777C163.953 95.1777 165.484 95.4694 166.824 96.0564C168.165 96.6435 169.219 97.5185 169.986 98.6776C170.753 99.8405 171.136 101.295 171.136 103.041V103.109C171.136 103.643 170.705 104.073 170.176 104.073H167.632C167.1 104.073 166.672 103.639 166.672 103.109V103.041C166.672 102.121 166.493 101.381 166.139 100.816C165.785 100.252 165.275 99.8405 164.608 99.575C163.946 99.3095 163.152 99.1787 162.236 99.1787C160.862 99.1787 159.849 99.4367 159.194 99.9564C158.542 100.472 158.215 101.179 158.215 102.077C158.215 102.675 158.371 103.18 158.68 103.595C158.989 104.01 159.455 104.354 160.073 104.63C160.691 104.907 161.48 105.146 162.445 105.356L163.234 105.528C164.951 105.894 166.448 106.369 167.718 106.941C168.988 107.517 169.978 108.276 170.69 109.218C171.401 110.161 171.755 111.368 171.755 112.842C171.755 114.315 171.382 115.609 170.637 116.723C169.893 117.837 168.839 118.712 167.476 119.344C166.113 119.976 164.504 120.294 162.65 120.294Z" fill="white"/>
<path d="M190.44 109.241C188.389 113.452 181.458 114.817 178.636 110.92C178.431 110.591 177.887 110.756 177.898 111.145V115.191C177.898 115.882 178.219 116.226 178.859 116.226H188.351C188.575 116.226 188.753 116.406 188.753 116.63V119.618C188.753 119.842 188.575 120.022 188.351 120.022C186.229 119.61 176.044 121.016 174.599 118.971C173.91 118.268 173.567 117.333 173.567 116.159V96.4161C173.567 96.1918 173.746 96.0123 173.97 96.0123H177.425C178.092 95.9786 177.749 97.3247 177.828 97.68C177.828 97.9043 178.006 98.0838 178.23 98.0838C180.52 95.3878 184.214 94.6624 187.603 96.547C191.781 98.783 192.489 105.327 190.437 109.245L190.44 109.241ZM185.838 108.12C186.81 107.237 187.242 105.764 187.178 104.186C187.532 99.7589 182.032 97.8407 179.153 100.582C178.196 101.449 177.764 102.941 177.831 104.534C177.496 108.92 182.955 110.905 185.838 108.123V108.12Z" fill="#CC4924"/>
<path d="M166.913 92.7491H165.029C164.705 92.7491 164.407 92.5435 164.322 92.2294C164.094 91.4217 163.353 90.8272 162.478 90.8272C161.603 90.8272 160.862 91.4217 160.635 92.2294C160.549 92.5435 160.248 92.7491 159.927 92.7491H158.043C157.589 92.7491 157.231 92.3416 157.306 91.8929C157.715 89.3951 159.879 87.4844 162.478 87.4844C165.078 87.4844 167.245 89.3951 167.651 91.8929C167.725 92.3416 167.368 92.7491 166.913 92.7491Z" fill="#CC4924"/>
<rect x="121.286" width="100.409" height="65.6136" fill="url(#paint4_linear_4823_2564)"/>
<rect x="221.694" y="207.777" width="100.409" height="65.6136" transform="rotate(-180 221.694 207.777)" fill="url(#paint5_linear_4823_2564)"/>
<path d="M227.659 0H327.074V207.776H227.659V0Z" fill="black"/>
<path d="M227.659 0H327.074V207.776H227.659V0Z" fill="#B0B0B0" fill-opacity="0.2"/>
<path d="M280.823 18.8887H273.008C272.046 18.8887 271.444 19.9305 271.925 20.7636L274.66 25.5016H279.171L281.906 20.7636C282.388 19.9305 281.786 18.8887 280.823 18.8887Z" fill="#FEBB50"/>
<path d="M279.732 27.7051H274.102C268.532 29.4213 264.546 34.022 264.546 39.4291C264.546 39.6512 264.553 39.8719 264.566 40.0911C264.881 45.2956 269.392 49.2595 274.606 49.2595H279.228C284.441 49.2595 288.952 45.2956 289.267 40.0911C289.281 39.8719 289.287 39.6512 289.287 39.4291C289.287 34.022 285.301 29.4218 279.732 27.7051Z" fill="url(#paint6_linear_4823_2564)"/>
<path d="M282.035 26.6098C282.035 26.9992 281.879 27.3542 281.623 27.6097C281.367 27.8656 281.006 28.0224 280.617 28.0224H273.21C272.426 28.0224 271.798 27.389 271.798 26.6098C271.798 26.2204 271.955 25.8601 272.211 25.6041C272.466 25.3482 272.821 25.1914 273.21 25.1914H280.617C281.401 25.1914 282.035 25.8253 282.035 26.6098Z" fill="#C17E48"/>
<path d="M259.918 164.033H294.371C294.564 164.033 294.715 164.184 294.715 164.376V182.907C294.715 183.099 294.564 183.25 294.371 183.25H259.918C259.726 183.25 259.575 183.099 259.575 182.907V164.376C259.575 164.184 259.726 164.033 259.918 164.033Z" fill="#87C443"/>
<path d="M261.634 166.092H292.655V181.191H261.634V166.092Z" fill="#3D8033"/>
<path d="M291.283 170.526V176.751C291.283 176.963 291.098 177.121 290.885 177.087C290.343 177.011 289.732 177.149 289.128 177.567C288.634 178.185 288.476 178.844 288.558 179.42C288.586 179.626 288.428 179.812 288.222 179.812H266.068C265.855 179.812 265.697 179.626 265.732 179.42C265.814 178.844 265.656 178.185 265.162 177.567C264.551 177.149 263.947 177.011 263.405 177.087C263.199 177.114 263.007 176.957 263.007 176.751V170.526C263.007 170.313 263.192 170.155 263.405 170.19C263.947 170.265 264.558 170.128 265.162 169.709C265.656 169.091 265.814 168.433 265.732 167.856C265.704 167.65 265.862 167.465 266.068 167.465H288.215C288.421 167.465 288.586 167.65 288.552 167.856C288.469 168.433 288.627 169.091 289.121 169.709C289.732 170.128 290.336 170.265 290.878 170.19C291.098 170.162 291.283 170.32 291.283 170.526Z" fill="#87C443"/>
<path d="M277.144 178.791C279.987 178.791 282.292 176.486 282.292 173.643C282.292 170.801 279.987 168.496 277.144 168.496C274.302 168.496 271.997 170.801 271.997 173.643C271.997 176.486 274.302 178.791 277.144 178.791Z" fill="#3D8033"/>
<path d="M286.787 175.359C287.735 175.359 288.503 174.591 288.503 173.644C288.503 172.696 287.735 171.928 286.787 171.928C285.839 171.928 285.071 172.696 285.071 173.644C285.071 174.591 285.839 175.359 286.787 175.359Z" fill="#3D8033"/>
<path d="M267.502 175.359C268.45 175.359 269.218 174.591 269.218 173.644C269.218 172.696 268.45 171.928 267.502 171.928C266.554 171.928 265.786 172.696 265.786 173.644C265.786 174.591 266.554 175.359 267.502 175.359Z" fill="#3D8033"/>
<line x1="302.323" y1="71.084" x2="251.519" y2="71.084" stroke="white" stroke-opacity="0.5"/>
<line x1="302.323" y1="137.691" x2="251.519" y2="137.691" stroke="white" stroke-opacity="0.5"/>
<path d="M268.029 120.294C266.174 120.294 264.536 119.961 263.117 119.292C261.698 118.626 260.585 117.669 259.784 116.427C258.983 115.186 258.581 113.69 258.581 111.944C258.581 111.409 259.013 110.979 259.542 110.979H262.085C262.618 110.979 263.046 111.413 263.046 111.944C263.046 113.395 263.493 114.479 264.387 115.205C265.28 115.93 266.494 116.293 268.029 116.293C269.563 116.293 270.747 115.982 271.518 115.362C272.285 114.741 272.669 113.948 272.669 112.98C272.669 112.314 272.479 111.772 272.103 111.357C271.726 110.942 271.175 110.606 270.453 110.34C269.73 110.075 268.855 109.828 267.824 109.6L267.034 109.428C265.385 109.061 263.97 108.594 262.789 108.029C261.609 107.465 260.704 106.724 260.074 105.804C259.445 104.885 259.128 103.688 259.128 102.215C259.128 100.742 259.479 99.4853 260.175 98.4383C260.875 97.3913 261.858 96.5874 263.132 96.0228C264.402 95.4582 265.899 95.1777 267.615 95.1777C269.332 95.1777 270.863 95.4694 272.203 96.0564C273.544 96.6435 274.598 97.5185 275.365 98.6776C276.132 99.8405 276.515 101.295 276.515 103.041V103.109C276.515 103.643 276.083 104.073 275.555 104.073H273.011C272.479 104.073 272.05 103.639 272.05 103.109V103.041C272.05 102.121 271.872 101.381 271.518 100.816C271.164 100.252 270.654 99.8405 269.987 99.575C269.325 99.3095 268.531 99.1787 267.615 99.1787C266.241 99.1787 265.228 99.4367 264.573 99.9564C263.921 100.472 263.593 101.179 263.593 102.077C263.593 102.675 263.75 103.18 264.059 103.595C264.368 104.01 264.833 104.354 265.452 104.63C266.07 104.907 266.859 105.146 267.824 105.356L268.613 105.528C270.33 105.894 271.827 106.369 273.097 106.941C274.367 107.517 275.357 108.276 276.069 109.218C276.78 110.161 277.134 111.368 277.134 112.842C277.134 114.315 276.761 115.609 276.016 116.723C275.272 117.837 274.218 118.712 272.855 119.344C271.492 119.976 269.883 120.294 268.029 120.294Z" fill="white"/>
<path d="M295.819 109.241C293.767 113.452 286.837 114.817 284.015 110.92C283.81 110.591 283.266 110.756 283.277 111.145V115.191C283.277 115.882 283.597 116.226 284.238 116.226H293.73C293.954 116.226 294.132 116.406 294.132 116.63V119.618C294.132 119.842 293.954 120.022 293.73 120.022C291.608 119.61 281.423 121.016 279.978 118.971C279.289 118.268 278.946 117.333 278.946 116.159V96.4161C278.946 96.1918 279.125 96.0123 279.348 96.0123H282.804C283.471 95.9786 283.128 97.3247 283.206 97.68C283.206 97.9043 283.385 98.0838 283.609 98.0838C285.899 95.3878 289.593 94.6624 292.982 96.547C297.16 98.783 297.867 105.327 295.816 109.245L295.819 109.241ZM291.217 108.12C292.189 107.237 292.62 105.764 292.557 104.186C292.911 99.7589 287.411 97.8407 284.532 100.582C283.575 101.449 283.143 102.941 283.21 104.534C282.875 108.92 288.334 110.905 291.217 108.123V108.12Z" fill="#CC4924"/>
<path d="M272.292 92.7491H270.408C270.084 92.7491 269.786 92.5435 269.701 92.2294C269.473 91.4217 268.732 90.8272 267.857 90.8272C266.982 90.8272 266.241 91.4217 266.014 92.2294C265.928 92.5435 265.627 92.7491 265.306 92.7491H263.422C262.968 92.7491 262.61 92.3416 262.685 91.8929C263.094 89.3951 265.258 87.4844 267.857 87.4844C270.456 87.4844 272.624 89.3951 273.03 91.8929C273.104 92.3416 272.747 92.7491 272.292 92.7491Z" fill="#CC4924"/>
<rect x="227.659" width="99.4146" height="65.6136" fill="url(#paint7_linear_4823_2564)"/>
<rect x="327.074" y="207.777" width="99.4146" height="65.6136" transform="rotate(-180 327.074 207.777)" fill="url(#paint8_linear_4823_2564)"/>
<mask id="path-53-inside-1_4823_2564" fill="white">
<path fill-rule="evenodd" clip-rule="evenodd" d="M324.117 102.674C322.774 103.442 322.774 105.379 324.117 106.147L334.469 112.064C335.802 112.826 337.461 111.863 337.461 110.327L337.461 108.428L343 108.428L343 100.783L337.461 100.783L337.461 98.4943C337.461 96.9586 335.802 95.9959 334.469 96.7579L324.117 102.674Z"/>
</mask>
<path fill-rule="evenodd" clip-rule="evenodd" d="M324.117 102.674C322.774 103.442 322.774 105.379 324.117 106.147L334.469 112.064C335.802 112.826 337.461 111.863 337.461 110.327L337.461 108.428L343 108.428L343 100.783L337.461 100.783L337.461 98.4943C337.461 96.9586 335.802 95.9959 334.469 96.7579L324.117 102.674Z" fill="#CC4924"/>
<path d="M324.117 106.147L323.621 107.015L324.117 106.147ZM324.117 102.674L323.621 101.806L324.117 102.674ZM334.469 112.064L333.973 112.932V112.932L334.469 112.064ZM337.461 110.327L336.461 110.327L337.461 110.327ZM337.461 108.428L337.461 107.428L336.461 107.428L336.461 108.428L337.461 108.428ZM343 108.428L343 109.428L344 109.428L344 108.428L343 108.428ZM343 100.783L344 100.783L344 99.783L343 99.783L343 100.783ZM337.461 100.783L336.461 100.783L336.461 101.783L337.461 101.783L337.461 100.783ZM334.469 96.7579L333.973 95.8897L334.469 96.7579ZM324.613 105.279C323.941 104.895 323.941 103.926 324.613 103.543L323.621 101.806C321.606 102.958 321.606 105.864 323.621 107.015L324.613 105.279ZM334.965 111.195L324.613 105.279L323.621 107.015L333.973 112.932L334.965 111.195ZM336.461 110.327C336.461 111.095 335.632 111.576 334.965 111.195L333.973 112.932C335.973 114.075 338.461 112.631 338.461 110.327L336.461 110.327ZM336.461 108.428L336.461 110.327L338.461 110.327L338.461 108.428L336.461 108.428ZM343 107.428L337.461 107.428L337.461 109.428L343 109.428L343 107.428ZM342 100.783L342 108.428L344 108.428L344 100.783L342 100.783ZM337.461 101.783L343 101.783L343 99.783L337.461 99.783L337.461 101.783ZM336.461 98.4943L336.461 100.783L338.461 100.783L338.461 98.4943L336.461 98.4943ZM334.965 97.6261C335.632 97.2451 336.461 97.7265 336.461 98.4943L338.461 98.4943C338.461 96.1908 335.973 94.7467 333.973 95.8897L334.965 97.6261ZM324.613 103.543L334.965 97.6261L333.973 95.8897L323.621 101.806L324.613 103.543Z" fill="url(#paint9_linear_4823_2564)" mask="url(#path-53-inside-1_4823_2564)"/>
<mask id="path-55-inside-2_4823_2564" fill="white">
<path fill-rule="evenodd" clip-rule="evenodd" d="M18.883 102.674C20.2265 103.442 20.2265 105.379 18.883 106.147L8.53114 112.064C7.19782 112.826 5.53873 111.863 5.53873 110.327L5.53873 108.428L-3.41107e-07 108.428L-1.00948e-06 100.783L5.53872 100.783L5.53872 98.4943C5.53872 96.9586 7.19782 95.9959 8.53114 96.7579L18.883 102.674Z"/>
</mask>
<path fill-rule="evenodd" clip-rule="evenodd" d="M18.883 102.674C20.2265 103.442 20.2265 105.379 18.883 106.147L8.53114 112.064C7.19782 112.826 5.53873 111.863 5.53873 110.327L5.53873 108.428L-3.41107e-07 108.428L-1.00948e-06 100.783L5.53872 100.783L5.53872 98.4943C5.53872 96.9586 7.19782 95.9959 8.53114 96.7579L18.883 102.674Z" fill="#CC4924"/>
<path d="M18.883 106.147L19.3792 107.015L18.883 106.147ZM18.883 102.674L19.3792 101.806L18.883 102.674ZM8.53114 112.064L9.02734 112.932L9.02734 112.932L8.53114 112.064ZM5.53873 110.327L6.53873 110.327L5.53873 110.327ZM5.53873 108.428L5.53873 107.428L6.53873 107.428L6.53873 108.428L5.53873 108.428ZM-3.41107e-07 108.428L-2.53684e-07 109.428L-1 109.428L-1 108.428L-3.41107e-07 108.428ZM-1.00948e-06 100.783L-1 100.783L-1 99.783L-1.0969e-06 99.783L-1.00948e-06 100.783ZM5.53872 100.783L6.53872 100.783L6.53872 101.783L5.53872 101.783L5.53872 100.783ZM8.53114 96.7579L9.02734 95.8897L8.53114 96.7579ZM18.3868 105.279C19.0585 104.895 19.0585 103.926 18.3868 103.543L19.3792 101.806C21.3944 102.958 21.3944 105.864 19.3792 107.015L18.3868 105.279ZM8.03493 111.195L18.3868 105.279L19.3792 107.015L9.02734 112.932L8.03493 111.195ZM6.53873 110.327C6.53873 111.095 7.36827 111.576 8.03493 111.195L9.02734 112.932C7.02737 114.075 4.53873 112.631 4.53873 110.327L6.53873 110.327ZM6.53873 108.428L6.53873 110.327L4.53873 110.327L4.53873 108.428L6.53873 108.428ZM-4.2853e-07 107.428L5.53873 107.428L5.53873 109.428L-2.53684e-07 109.428L-4.2853e-07 107.428ZM0.999999 100.783L1 108.428L-1 108.428L-1 100.783L0.999999 100.783ZM5.53872 101.783L-9.22054e-07 101.783L-1.0969e-06 99.783L5.53872 99.783L5.53872 101.783ZM6.53872 98.4943L6.53872 100.783L4.53872 100.783L4.53872 98.4943L6.53872 98.4943ZM8.03493 97.6261C7.36827 97.2451 6.53872 97.7265 6.53872 98.4943L4.53872 98.4943C4.53872 96.1908 7.02737 94.7467 9.02734 95.8897L8.03493 97.6261ZM18.3868 103.543L8.03493 97.6261L9.02734 95.8897L19.3792 101.806L18.3868 103.543Z" fill="url(#paint10_linear_4823_2564)" mask="url(#path-55-inside-2_4823_2564)"/>
<defs>
<linearGradient id="paint0_linear_4823_2564" x1="65.1637" y1="27.7051" x2="65.1637" y2="49.2595" gradientUnits="userSpaceOnUse">
<stop stop-color="#FEBB50"/>
<stop offset="1" stop-color="#DE9014"/>
</linearGradient>
<linearGradient id="paint1_linear_4823_2564" x1="65.6135" y1="0" x2="65.6135" y2="65.6136" gradientUnits="userSpaceOnUse">
<stop offset="0.16"/>
<stop offset="1" stop-color="#3D3D3D" stop-opacity="0"/>
</linearGradient>
<linearGradient id="paint2_linear_4823_2564" x1="165.029" y1="207.777" x2="165.029" y2="273.391" gradientUnits="userSpaceOnUse">
<stop offset="0.16"/>
<stop offset="1" stop-color="#3D3D3D" stop-opacity="0"/>
</linearGradient>
<linearGradient id="paint3_linear_4823_2564" x1="171.538" y1="27.7051" x2="171.538" y2="49.2595" gradientUnits="userSpaceOnUse">
<stop stop-color="#FEBB50"/>
<stop offset="1" stop-color="#DE9014"/>
</linearGradient>
<linearGradient id="paint4_linear_4823_2564" x1="171.491" y1="0" x2="171.491" y2="65.6136" gradientUnits="userSpaceOnUse">
<stop offset="0.16"/>
<stop offset="1" stop-color="#3D3D3D" stop-opacity="0"/>
</linearGradient>
<linearGradient id="paint5_linear_4823_2564" x1="271.899" y1="207.777" x2="271.899" y2="273.391" gradientUnits="userSpaceOnUse">
<stop offset="0.16"/>
<stop offset="1" stop-color="#3D3D3D" stop-opacity="0"/>
</linearGradient>
<linearGradient id="paint6_linear_4823_2564" x1="276.917" y1="27.7051" x2="276.917" y2="49.2595" gradientUnits="userSpaceOnUse">
<stop stop-color="#FEBB50"/>
<stop offset="1" stop-color="#DE9014"/>
</linearGradient>
<linearGradient id="paint7_linear_4823_2564" x1="277.366" y1="0" x2="277.366" y2="65.6136" gradientUnits="userSpaceOnUse">
<stop offset="0.16"/>
<stop offset="1" stop-color="#3D3D3D" stop-opacity="0"/>
</linearGradient>
<linearGradient id="paint8_linear_4823_2564" x1="376.782" y1="207.777" x2="376.782" y2="273.391" gradientUnits="userSpaceOnUse">
<stop offset="0.16"/>
<stop offset="1" stop-color="#3D3D3D" stop-opacity="0"/>
</linearGradient>
<linearGradient id="paint9_linear_4823_2564" x1="340.088" y1="104.411" x2="323.109" y2="104.411" gradientUnits="userSpaceOnUse">
<stop stop-color="#CC4924"/>
<stop offset="1" stop-color="white"/>
</linearGradient>
<linearGradient id="paint10_linear_4823_2564" x1="2.91242" y1="104.411" x2="19.8906" y2="104.411" gradientUnits="userSpaceOnUse">
<stop stop-color="#CC4924"/>
<stop offset="1" stop-color="white"/>
</linearGradient>
</defs>
</svg>
