<svg width="344" height="190" viewBox="0 0 344 190" fill="none" xmlns="http://www.w3.org/2000/svg">
    <g clip-path="url(#clip0_478_4394)">
        <rect width="344" height="190" rx="20" fill="#CC4924"/>
        <rect x="-83.9785" y="171.993" width="181.29" height="182.107" rx="28.3425" transform="rotate(-53.786 -83.9785 171.993)" fill="white" fill-opacity="0.12"/>
        <path d="M26.3397 162.011L26.3397 151.621L30.6015 151.621C31.0816 151.621 31.5225 151.665 31.9242 151.753C32.3357 151.831 32.6884 151.973 32.9823 152.179C33.286 152.385 33.5212 152.659 33.6877 153.002C33.8543 153.345 33.9376 153.771 33.9376 154.281C33.9376 154.751 33.8298 155.182 33.6142 155.574C33.3987 155.956 33.0803 156.245 32.659 156.441C33.2272 156.588 33.6632 156.872 33.967 157.293C34.2707 157.705 34.4225 158.244 34.4225 158.91C34.4225 159.508 34.3099 160.007 34.0845 160.409C33.869 160.801 33.5653 161.114 33.1734 161.349C32.7913 161.585 32.3455 161.756 31.836 161.864C31.3265 161.962 30.7828 162.011 30.2047 162.011L26.3397 162.011ZM28.1767 160.335L30.3664 160.335C30.6407 160.335 30.9102 160.316 31.1747 160.277C31.4392 160.237 31.6793 160.169 31.8948 160.071C32.1103 159.973 32.2769 159.831 32.3945 159.645C32.5218 159.449 32.5855 159.199 32.5855 158.895C32.5855 158.621 32.5365 158.395 32.4386 158.219C32.3406 158.043 32.2034 157.906 32.0271 157.808C31.8605 157.7 31.6597 157.626 31.4245 157.587C31.1894 157.538 30.9444 157.514 30.6897 157.514L28.1767 157.514L28.1767 160.335ZM28.1767 155.971L30.1166 155.971C30.4203 155.971 30.6946 155.941 30.9395 155.882C31.1845 155.824 31.3951 155.735 31.5715 155.618C31.7478 155.491 31.885 155.339 31.983 155.162C32.0809 154.976 32.1299 154.751 32.1299 154.486C32.1299 154.143 32.0516 153.889 31.8948 153.722C31.738 153.546 31.5225 153.433 31.2482 153.384C30.9836 153.325 30.6848 153.296 30.3517 153.296L28.1767 153.296L28.1767 155.971ZM39.3596 162.114C38.5562 162.114 37.8704 161.947 37.3022 161.614C36.7437 161.281 36.3175 160.82 36.0236 160.233C35.7395 159.635 35.5974 158.944 35.5974 158.16C35.5974 157.377 35.7444 156.686 36.0383 156.088C36.342 155.481 36.7731 155.006 37.3316 154.663C37.8998 154.32 38.5807 154.148 39.3743 154.148C39.9622 154.148 40.4765 154.256 40.9174 154.472C41.3583 154.677 41.7257 154.961 42.0196 155.324C42.3233 155.687 42.5487 156.098 42.6957 156.558C42.8426 157.019 42.9112 157.504 42.9014 158.013C42.8916 158.131 42.8818 158.249 42.872 158.366C42.8622 158.474 42.8475 158.591 42.8279 158.719L37.3903 158.719C37.4197 159.062 37.5079 159.375 37.6549 159.659C37.8116 159.943 38.0272 160.169 38.3015 160.335C38.5856 160.502 38.9383 160.585 39.3596 160.585C39.6046 160.585 39.8397 160.556 40.065 160.497C40.2904 160.428 40.4863 160.33 40.6529 160.203C40.8292 160.076 40.9468 159.914 41.0056 159.718L42.7985 159.718C42.6712 160.277 42.436 160.732 42.0931 161.085C41.7502 161.438 41.3387 161.697 40.8586 161.864C40.3884 162.03 39.8887 162.114 39.3596 162.114ZM37.4197 157.381L41.1526 157.381C41.1526 157.058 41.0791 156.764 40.9321 156.5C40.7852 156.235 40.5745 156.029 40.3002 155.882C40.0357 155.726 39.7123 155.647 39.3302 155.647C38.9187 155.647 38.5758 155.731 38.3015 155.897C38.0272 156.064 37.8165 156.279 37.6696 156.544C37.5226 156.808 37.4393 157.088 37.4197 157.381ZM46.2994 162.011L43.4925 154.266L45.4764 154.266L47.5192 160.482L49.5473 154.266L51.5165 154.266L48.7096 162.011L46.2994 162.011ZM55.8784 162.114C55.075 162.114 54.3892 161.947 53.821 161.614C53.2625 161.281 52.8363 160.82 52.5424 160.233C52.2583 159.635 52.1162 158.944 52.1162 158.16C52.1162 157.377 52.2632 156.686 52.5571 156.088C52.8608 155.481 53.2919 155.006 53.8504 154.663C54.4186 154.32 55.0995 154.148 55.8931 154.148C56.481 154.148 56.9953 154.256 57.4362 154.472C57.8771 154.677 58.2445 154.961 58.5384 155.324C58.8421 155.687 59.0675 156.098 59.2145 156.558C59.3614 157.019 59.43 157.504 59.4202 158.013C59.4104 158.131 59.4006 158.249 59.3908 158.366C59.381 158.474 59.3663 158.591 59.3467 158.719L53.9091 158.719C53.9385 159.062 54.0267 159.375 54.1737 159.659C54.3304 159.943 54.546 160.169 54.8203 160.335C55.1044 160.502 55.4571 160.585 55.8784 160.585C56.1234 160.585 56.3585 160.556 56.5838 160.497C56.8092 160.428 57.0051 160.33 57.1717 160.203C57.348 160.076 57.4656 159.914 57.5244 159.718L59.3173 159.718C59.19 160.277 58.9548 160.732 58.6119 161.085C58.269 161.438 57.8575 161.697 57.3774 161.864C56.9072 162.03 56.4075 162.114 55.8784 162.114ZM53.9385 157.381L57.6714 157.381C57.6714 157.058 57.5979 156.764 57.4509 156.5C57.304 156.235 57.0933 156.029 56.819 155.882C56.5544 155.726 56.2311 155.647 55.849 155.647C55.4375 155.647 55.0946 155.731 54.8203 155.897C54.546 156.064 54.3353 156.279 54.1884 156.544C54.0414 156.808 53.9581 157.088 53.9385 157.381ZM60.8489 162.011L60.8489 154.266L62.4802 154.266L62.5831 155.28C62.779 154.986 62.9995 154.761 63.2444 154.604C63.4991 154.437 63.7686 154.32 64.0527 154.251C64.3466 154.183 64.6405 154.148 64.9345 154.148C65.0422 154.148 65.1402 154.148 65.2284 154.148C65.3264 154.148 65.4047 154.153 65.4635 154.163L65.4635 155.868L64.9932 155.868C64.4838 155.868 64.0527 155.966 63.7 156.162C63.3473 156.358 63.0827 156.637 62.9064 156.999C62.73 157.362 62.6419 157.808 62.6419 158.337L62.6419 162.011L60.8489 162.011ZM66.5179 162.011L66.5179 151.621L68.3108 151.621L68.3108 162.011L66.5179 162.011ZM73.4726 165.553C72.8749 165.553 72.292 165.469 71.7237 165.303C71.1653 165.146 70.646 164.876 70.1659 164.494L70.8126 163.054C71.1457 163.319 71.518 163.524 71.9295 163.671C72.341 163.828 72.7916 163.907 73.2815 163.907C74.0555 163.907 74.6189 163.711 74.9716 163.319C75.3341 162.927 75.5153 162.393 75.5153 161.717L75.5153 161.144C75.339 161.369 75.1234 161.555 74.8687 161.702C74.614 161.849 74.3396 161.957 74.0457 162.025C73.7518 162.094 73.453 162.128 73.1493 162.128C72.3949 162.128 71.7923 161.976 71.3416 161.673C70.9007 161.359 70.5823 160.933 70.3864 160.394C70.1904 159.846 70.0925 159.223 70.0925 158.528L70.0925 154.266L71.8707 154.266L71.8707 158.131C71.8707 158.405 71.8903 158.685 71.9295 158.969C71.9687 159.253 72.047 159.512 72.1646 159.748C72.2822 159.983 72.4536 160.174 72.679 160.321C72.9141 160.458 73.2227 160.526 73.6048 160.526C74.1045 160.526 74.4915 160.404 74.7658 160.159C75.0402 159.914 75.2263 159.596 75.3243 159.204C75.4321 158.812 75.4859 158.395 75.4859 157.955L75.4859 154.266L77.2789 154.266L77.2789 161.276C77.2789 161.932 77.2103 162.52 77.0731 163.039C76.936 163.569 76.7155 164.019 76.4118 164.392C76.1081 164.764 75.7162 165.048 75.2361 165.244C74.756 165.45 74.1682 165.553 73.4726 165.553ZM87.7524 162.128C86.6943 162.128 85.7978 161.908 85.063 161.467C84.3282 161.016 83.7697 160.394 83.3876 159.601C83.0153 158.797 82.8292 157.871 82.8292 156.823C82.8292 156.029 82.9321 155.309 83.1378 154.663C83.3533 154.016 83.6669 153.458 84.0784 152.987C84.4996 152.507 85.014 152.14 85.6214 151.885C86.2289 151.621 86.9294 151.488 87.723 151.488C88.497 151.488 89.1877 151.616 89.7951 151.87C90.4124 152.115 90.917 152.478 91.3089 152.958C91.7105 153.438 91.98 154.026 92.1171 154.721L90.2213 154.721C90.143 154.388 89.9911 154.109 89.7658 153.884C89.5502 153.658 89.2759 153.487 88.9428 153.369C88.6097 153.252 88.2276 153.193 87.7965 153.193C87.238 153.193 86.7628 153.291 86.371 153.487C85.9791 153.683 85.6606 153.952 85.4157 154.295C85.1708 154.628 84.9895 155.015 84.8719 155.456C84.7642 155.887 84.7103 156.348 84.7103 156.838C84.7103 157.475 84.8132 158.067 85.0189 158.616C85.2344 159.165 85.5676 159.605 86.0182 159.939C86.4787 160.262 87.0764 160.424 87.8112 160.424C88.3304 160.424 88.786 160.335 89.1779 160.159C89.5796 159.983 89.8931 159.728 90.1185 159.395C90.3536 159.052 90.481 158.631 90.5006 158.131L87.4732 158.131L87.4732 156.544L92.3523 156.544L92.3523 157.22C92.3523 158.229 92.1759 159.101 91.8232 159.836C91.4705 160.571 90.9512 161.139 90.2654 161.54C89.5894 161.932 88.7517 162.128 87.7524 162.128ZM97.3422 162.114C96.5486 162.114 95.8628 161.952 95.2847 161.629C94.7165 161.305 94.2756 160.845 93.9621 160.247C93.6584 159.65 93.5065 158.949 93.5065 158.146C93.5065 157.332 93.6633 156.632 93.9768 156.044C94.2903 155.446 94.7312 154.981 95.2994 154.648C95.8677 154.315 96.5486 154.148 97.3422 154.148C98.126 154.148 98.802 154.315 99.3703 154.648C99.9385 154.981 100.374 155.451 100.678 156.059C100.982 156.656 101.134 157.362 101.134 158.175C101.134 158.969 100.982 159.664 100.678 160.262C100.384 160.85 99.9532 161.305 99.385 161.629C98.8167 161.952 98.1358 162.114 97.3422 162.114ZM97.3275 160.482C97.8174 160.482 98.2093 160.375 98.5032 160.159C98.8069 159.943 99.0273 159.659 99.1645 159.307C99.3017 158.954 99.3703 158.572 99.3703 158.16C99.3703 157.749 99.3017 157.362 99.1645 156.999C99.0273 156.637 98.8069 156.348 98.5032 156.132C98.2093 155.907 97.8174 155.794 97.3275 155.794C96.8376 155.794 96.4408 155.907 96.1371 156.132C95.8334 156.348 95.6129 156.637 95.4758 156.999C95.3386 157.352 95.27 157.739 95.27 158.16C95.27 158.572 95.3386 158.959 95.4758 159.321C95.6227 159.674 95.8432 159.958 96.1371 160.174C96.4408 160.379 96.8376 160.482 97.3275 160.482ZM102.569 162.011L102.569 154.266L104.201 154.266L104.303 155.28C104.499 154.986 104.72 154.761 104.965 154.604C105.22 154.437 105.489 154.32 105.773 154.251C106.067 154.183 106.361 154.148 106.655 154.148C106.763 154.148 106.861 154.148 106.949 154.148C107.047 154.148 107.125 154.153 107.184 154.163L107.184 155.868L106.714 155.868C106.204 155.868 105.773 155.966 105.42 156.162C105.068 156.358 104.803 156.637 104.627 156.999C104.45 157.362 104.362 157.808 104.362 158.337L104.362 162.011L102.569 162.011ZM111.254 162.114C110.471 162.114 109.824 161.937 109.314 161.585C108.805 161.222 108.423 160.742 108.168 160.144C107.923 159.547 107.801 158.88 107.801 158.146C107.801 157.381 107.933 156.701 108.198 156.103C108.462 155.495 108.859 155.02 109.388 154.677C109.917 154.325 110.578 154.148 111.372 154.148C111.666 154.148 111.95 154.183 112.224 154.251C112.508 154.31 112.773 154.408 113.018 154.545C113.273 154.672 113.483 154.844 113.65 155.059L113.65 151.621L115.443 151.621L115.443 162.011L113.709 162.011L113.679 161.041C113.493 161.286 113.273 161.487 113.018 161.643C112.773 161.8 112.499 161.918 112.195 161.996C111.891 162.074 111.578 162.114 111.254 162.114ZM111.592 160.497C112.063 160.497 112.45 160.389 112.753 160.174C113.057 159.948 113.282 159.654 113.429 159.292C113.586 158.92 113.665 158.528 113.665 158.116C113.665 157.685 113.586 157.293 113.429 156.941C113.282 156.588 113.057 156.304 112.753 156.088C112.45 155.873 112.063 155.765 111.592 155.765C111.093 155.765 110.696 155.878 110.402 156.103C110.118 156.328 109.907 156.627 109.77 156.999C109.643 157.362 109.579 157.754 109.579 158.175C109.579 158.489 109.613 158.787 109.682 159.072C109.76 159.346 109.878 159.591 110.035 159.806C110.191 160.022 110.397 160.193 110.652 160.321C110.907 160.438 111.22 160.497 111.592 160.497ZM120.721 162.114C119.928 162.114 119.242 161.952 118.664 161.629C118.095 161.305 117.655 160.845 117.341 160.247C117.037 159.65 116.885 158.949 116.885 158.146C116.885 157.332 117.042 156.632 117.356 156.044C117.669 155.446 118.11 154.981 118.678 154.648C119.247 154.315 119.928 154.148 120.721 154.148C121.505 154.148 122.181 154.315 122.749 154.648C123.317 154.981 123.753 155.451 124.057 156.059C124.361 156.656 124.513 157.362 124.513 158.175C124.513 158.969 124.361 159.664 124.057 160.262C123.763 160.85 123.332 161.305 122.764 161.629C122.196 161.952 121.515 162.114 120.721 162.114ZM120.706 160.482C121.196 160.482 121.588 160.375 121.882 160.159C122.186 159.943 122.406 159.659 122.543 159.307C122.681 158.954 122.749 158.572 122.749 158.16C122.749 157.749 122.681 157.362 122.543 156.999C122.406 156.637 122.186 156.348 121.882 156.132C121.588 155.907 121.196 155.794 120.706 155.794C120.217 155.794 119.82 155.907 119.516 156.132C119.212 156.348 118.992 156.637 118.855 156.999C118.718 157.352 118.649 157.739 118.649 158.16C118.649 158.572 118.718 158.959 118.855 159.321C119.002 159.674 119.222 159.958 119.516 160.174C119.82 160.379 120.217 160.482 120.706 160.482ZM125.948 162.011L125.948 154.266L127.624 154.266L127.726 155.251C127.932 154.976 128.172 154.761 128.447 154.604C128.721 154.447 129.01 154.334 129.314 154.266C129.617 154.187 129.901 154.148 130.166 154.148C130.901 154.148 131.479 154.31 131.9 154.633C132.331 154.957 132.635 155.388 132.811 155.927C132.988 156.465 133.076 157.068 133.076 157.734L133.076 162.011L131.283 162.011L131.283 158.028C131.283 157.744 131.263 157.47 131.224 157.205C131.185 156.931 131.107 156.686 130.989 156.47C130.881 156.255 130.724 156.083 130.519 155.956C130.313 155.829 130.039 155.765 129.696 155.765C129.274 155.765 128.917 155.878 128.623 156.103C128.329 156.328 128.109 156.632 127.962 157.014C127.815 157.386 127.741 157.813 127.741 158.293L127.741 162.011L125.948 162.011Z" fill="white"/>
        <path opacity="0.5" d="M29.1088 140.249C28.346 140.249 27.7092 140.088 27.1983 139.766C26.6945 139.437 26.3166 138.99 26.0646 138.423C25.8197 137.849 25.6972 137.195 25.6972 136.46C25.6972 135.732 25.8232 135.085 26.0751 134.518C26.3271 133.944 26.705 133.493 27.2088 133.164C27.7197 132.828 28.36 132.66 29.1298 132.66C29.6757 132.66 30.1446 132.747 30.5365 132.922C30.9353 133.09 31.2573 133.325 31.5022 133.626C31.7471 133.926 31.9151 134.28 32.0061 134.686L31.0823 134.686C30.9773 134.322 30.7499 134.031 30.4 133.814C30.0571 133.598 29.6232 133.489 29.0983 133.489C28.5105 133.489 28.0346 133.629 27.6707 133.909C27.3138 134.182 27.0514 134.542 26.8834 134.99C26.7155 135.431 26.6315 135.91 26.6315 136.428C26.6315 136.974 26.719 137.474 26.8939 137.929C27.0689 138.384 27.3418 138.748 27.7127 139.021C28.0836 139.287 28.556 139.42 29.1298 139.42C29.4797 139.42 29.7911 139.371 30.0641 139.273C30.344 139.175 30.5749 139.035 30.7569 138.853C30.9458 138.671 31.0753 138.461 31.1453 138.223L32.1425 138.223C32.0376 138.629 31.8486 138.986 31.5757 139.294C31.3098 139.595 30.9703 139.829 30.5574 139.997C30.1446 140.165 29.6617 140.249 29.1088 140.249ZM32.5357 140.165L35.2965 132.744L36.6086 132.744L39.3589 140.165L38.3722 140.165L37.7843 138.57L34.1103 138.57L33.5224 140.165L32.5357 140.165ZM34.4147 137.74L37.4799 137.74L35.9473 133.542L34.4147 137.74ZM40.3763 140.165L40.3763 132.744L43.1581 132.744C43.571 132.744 43.9384 132.786 44.2603 132.87C44.5892 132.954 44.8691 133.087 45.1001 133.269C45.331 133.451 45.506 133.692 45.6249 133.993C45.7509 134.287 45.8139 134.644 45.8139 135.064C45.8139 135.477 45.7369 135.83 45.5829 136.124C45.429 136.411 45.226 136.645 44.9741 136.827C44.7222 137.009 44.4492 137.142 44.1553 137.226L45.7089 140.165L44.7117 140.165L43.2316 137.384L41.2896 137.384L41.2896 140.165L40.3763 140.165ZM41.2896 136.554L42.8641 136.554C43.1371 136.554 43.3925 136.533 43.6304 136.491C43.8754 136.449 44.0888 136.376 44.2708 136.271C44.4597 136.159 44.6067 136.005 44.7117 135.809C44.8166 135.606 44.8726 135.347 44.8796 135.032C44.8866 134.675 44.8201 134.392 44.6802 134.182C44.5402 133.965 44.3338 133.811 44.0608 133.72C43.7879 133.622 43.4555 133.573 43.0636 133.573L41.2896 133.573L41.2896 136.554ZM47.2856 140.165L47.2856 132.744L49.9204 132.744C50.6902 132.744 51.3341 132.901 51.8519 133.216C52.3698 133.524 52.7582 133.958 53.0171 134.518C53.283 135.071 53.416 135.718 53.416 136.46C53.416 137.195 53.2865 137.842 53.0276 138.402C52.7687 138.955 52.3803 139.388 51.8624 139.703C51.3446 140.011 50.6972 140.165 49.9204 140.165L47.2856 140.165ZM48.1989 139.336L49.8574 139.336C50.4593 139.336 50.9527 139.214 51.3376 138.969C51.7225 138.724 52.0094 138.388 52.1983 137.961C52.3873 137.527 52.4818 137.027 52.4818 136.46C52.4818 135.907 52.3873 135.414 52.1983 134.98C52.0164 134.546 51.7364 134.203 51.3585 133.951C50.9806 133.699 50.4978 133.573 49.9099 133.573L48.1989 133.573L48.1989 139.336ZM57.6701 140.165L57.6701 132.744L58.5834 132.744L58.5834 136.103L62.5618 136.103L62.5618 132.744L63.4751 132.744L63.4751 140.165L62.5618 140.165L62.5618 136.943L58.5834 136.943L58.5834 140.165L57.6701 140.165ZM68.3832 140.249C67.6134 140.249 66.9696 140.085 66.4517 139.756C65.9338 139.427 65.5419 138.976 65.276 138.402C65.0171 137.828 64.8876 137.181 64.8876 136.46C64.8876 135.732 65.0171 135.081 65.276 134.507C65.5419 133.933 65.9338 133.482 66.4517 133.153C66.9696 132.824 67.6134 132.66 68.3832 132.66C69.153 132.66 69.7933 132.824 70.3042 133.153C70.822 133.482 71.2104 133.933 71.4694 134.507C71.7353 135.081 71.8683 135.732 71.8683 136.46C71.8683 137.181 71.7353 137.828 71.4694 138.402C71.2104 138.976 70.822 139.427 70.3042 139.756C69.7933 140.085 69.153 140.249 68.3832 140.249ZM68.3832 139.42C68.971 139.42 69.4539 139.287 69.8318 139.021C70.2097 138.748 70.4861 138.388 70.6611 137.94C70.843 137.492 70.934 136.999 70.934 136.46C70.934 136.054 70.8815 135.672 70.7766 135.316C70.6786 134.952 70.5246 134.633 70.3147 134.36C70.1047 134.087 69.8388 133.874 69.5169 133.72C69.195 133.566 68.8171 133.489 68.3832 133.489C67.8023 133.489 67.3195 133.626 66.9346 133.898C66.5567 134.171 66.2732 134.532 66.0843 134.98C65.9023 135.428 65.8114 135.921 65.8114 136.46C65.8114 136.992 65.9023 137.481 66.0843 137.929C66.2662 138.377 66.5462 138.738 66.9241 139.011C67.309 139.284 67.7953 139.42 68.3832 139.42ZM73.2827 140.165L73.2827 132.744L74.1959 132.744L74.1959 139.336L78.2689 139.336L78.2689 140.165L73.2827 140.165ZM79.3104 140.165L79.3104 132.744L81.9452 132.744C82.715 132.744 83.3588 132.901 83.8767 133.216C84.3946 133.524 84.783 133.958 85.0419 134.518C85.3078 135.071 85.4408 135.718 85.4408 136.46C85.4408 137.195 85.3113 137.842 85.0524 138.402C84.7935 138.955 84.4051 139.388 83.8872 139.703C83.3693 140.011 82.722 140.165 81.9452 140.165L79.3104 140.165ZM80.2237 139.336L81.8822 139.336C82.4841 139.336 82.9774 139.214 83.3623 138.969C83.7472 138.724 84.0342 138.388 84.2231 137.961C84.4121 137.527 84.5065 137.027 84.5065 136.46C84.5065 135.907 84.4121 135.414 84.2231 134.98C84.0412 134.546 83.7612 134.203 83.3833 133.951C83.0054 133.699 82.5226 133.573 81.9347 133.573L80.2237 133.573L80.2237 139.336ZM86.8655 140.165L86.8655 132.744L91.8517 132.744L91.8517 133.573L87.7788 133.573L87.7788 136.071L91.4423 136.071L91.4423 136.911L87.7788 136.911L87.7788 139.336L91.8517 139.336L91.8517 140.165L86.8655 140.165ZM93.2725 140.165L93.2725 132.744L96.0543 132.744C96.4672 132.744 96.8346 132.786 97.1565 132.87C97.4854 132.954 97.7654 133.087 97.9963 133.269C98.2272 133.451 98.4022 133.692 98.5212 133.993C98.6471 134.287 98.7101 134.644 98.7101 135.064C98.7101 135.477 98.6331 135.83 98.4792 136.124C98.3252 136.411 98.1223 136.645 97.8703 136.827C97.6184 137.009 97.3455 137.142 97.0515 137.226L98.6051 140.165L97.6079 140.165L96.1278 137.384L94.1858 137.384L94.1858 140.165L93.2725 140.165ZM94.1858 136.554L95.7604 136.554C96.0333 136.554 96.2887 136.533 96.5267 136.491C96.7716 136.449 96.9851 136.376 97.167 136.271C97.356 136.159 97.5029 136.005 97.6079 135.809C97.7129 135.606 97.7689 135.347 97.7759 135.032C97.7829 134.675 97.7164 134.392 97.5764 134.182C97.4364 133.965 97.23 133.811 96.9571 133.72C96.6841 133.622 96.3517 133.573 95.9598 133.573L94.1858 133.573L94.1858 136.554ZM103.011 140.165L103.011 132.744L104.176 132.744L108.05 138.927L108.05 132.744L108.963 132.744L108.963 140.165L107.819 140.165L103.924 134.003L103.924 140.165L103.011 140.165ZM109.984 140.165L112.744 132.744L114.057 132.744L116.807 140.165L115.82 140.165L115.232 138.57L111.558 138.57L110.97 140.165L109.984 140.165ZM111.863 137.74L114.928 137.74L113.395 133.542L111.863 137.74ZM117.824 140.165L117.824 132.744L119.21 132.744L121.435 136.827L123.629 132.744L124.983 132.744L124.983 140.165L124.07 140.165L124.07 133.709L121.624 138.223L121.204 138.223L118.737 133.709L118.737 140.165L117.824 140.165ZM126.814 140.165L126.814 132.744L131.801 132.744L131.801 133.573L127.728 133.573L127.728 136.071L131.391 136.071L131.391 136.911L127.728 136.911L127.728 139.336L131.801 139.336L131.801 140.165L126.814 140.165Z" fill="white"/>
        <path opacity="0.5" d="M29.1088 69.9186C28.346 69.9186 27.7092 69.7576 27.1983 69.4357C26.6945 69.1068 26.3166 68.6589 26.0646 68.0921C25.8197 67.5182 25.6972 66.8639 25.6972 66.1291C25.6972 65.4013 25.8232 64.7539 26.0751 64.1871C26.3271 63.6132 26.705 63.1619 27.2088 62.8329C27.7197 62.497 28.36 62.3291 29.1298 62.3291C29.6757 62.3291 30.1446 62.4165 30.5365 62.5915C30.9353 62.7595 31.2573 62.9939 31.5022 63.2948C31.7471 63.5957 31.9151 63.9491 32.0061 64.355L31.0823 64.355C30.9773 63.9911 30.7499 63.7007 30.4 63.4838C30.0571 63.2668 29.6232 63.1584 29.0983 63.1584C28.5105 63.1584 28.0346 63.2983 27.6707 63.5782C27.3138 63.8512 27.0514 64.2116 26.8834 64.6595C26.7155 65.1003 26.6315 65.5797 26.6315 66.0976C26.6315 66.6434 26.719 67.1438 26.8939 67.5987C27.0689 68.0536 27.3418 68.4175 27.7127 68.6904C28.0836 68.9563 28.556 69.0893 29.1298 69.0893C29.4797 69.0893 29.7911 69.0403 30.0641 68.9423C30.344 68.8444 30.5749 68.7044 30.7569 68.5224C30.9458 68.3405 31.0753 68.1305 31.1453 67.8926L32.1425 67.8926C32.0376 68.2985 31.8486 68.6554 31.5757 68.9633C31.3098 69.2642 30.9703 69.4987 30.5574 69.6666C30.1446 69.8346 29.6617 69.9186 29.1088 69.9186ZM32.5357 69.8346L35.2965 62.413L36.6086 62.413L39.3589 69.8346L38.3722 69.8346L37.7843 68.239L34.1103 68.239L33.5224 69.8346L32.5357 69.8346ZM34.4147 67.4097L37.4799 67.4097L35.9473 63.2108L34.4147 67.4097ZM40.3763 69.8346L40.3763 62.413L43.1581 62.413C43.571 62.413 43.9384 62.455 44.2603 62.539C44.5892 62.623 44.8691 62.756 45.1001 62.9379C45.331 63.1199 45.506 63.3613 45.6249 63.6622C45.7509 63.9561 45.8139 64.313 45.8139 64.7329C45.8139 65.1458 45.7369 65.4992 45.5829 65.7932C45.429 66.0801 45.226 66.3145 44.9741 66.4965C44.7222 66.6784 44.4492 66.8114 44.1553 66.8954L45.7089 69.8346L44.7117 69.8346L43.2316 67.0528L41.2896 67.0528L41.2896 69.8346L40.3763 69.8346ZM41.2896 66.2235L42.8641 66.2235C43.1371 66.2235 43.3925 66.2025 43.6304 66.1606C43.8754 66.1186 44.0888 66.0451 44.2708 65.9401C44.4597 65.8281 44.6067 65.6742 44.7117 65.4782C44.8166 65.2753 44.8726 65.0164 44.8796 64.7014C44.8866 64.3445 44.8201 64.0611 44.6802 63.8512C44.5402 63.6342 44.3338 63.4803 44.0608 63.3893C43.7879 63.2913 43.4555 63.2423 43.0636 63.2423L41.2896 63.2423L41.2896 66.2235ZM47.2856 69.8346L47.2856 62.413L49.9204 62.413C50.6902 62.413 51.3341 62.5705 51.8519 62.8854C52.3698 63.1933 52.7582 63.6272 53.0171 64.1871C53.283 64.7399 53.416 65.3873 53.416 66.1291C53.416 66.8639 53.2865 67.5112 53.0276 68.0711C52.7687 68.6239 52.3803 69.0578 51.8624 69.3727C51.3446 69.6806 50.6972 69.8346 49.9204 69.8346L47.2856 69.8346ZM48.1989 69.0053L49.8574 69.0053C50.4593 69.0053 50.9527 68.8828 51.3376 68.6379C51.7225 68.393 52.0094 68.0571 52.1983 67.6302C52.3873 67.1963 52.4818 66.6959 52.4818 66.1291C52.4818 65.5762 52.3873 65.0828 52.1983 64.649C52.0164 64.2151 51.7364 63.8722 51.3585 63.6202C50.9806 63.3683 50.4978 63.2423 49.9099 63.2423L48.1989 63.2423L48.1989 69.0053ZM57.6701 69.8346L57.6701 62.413L58.8353 62.413L62.7088 68.5959L62.7088 62.413L63.622 62.413L63.622 69.8346L62.4778 69.8346L58.5834 63.6727L58.5834 69.8346L57.6701 69.8346ZM68.348 69.9186C67.6552 69.9186 67.0918 69.7751 66.6579 69.4882C66.2241 69.2013 65.9056 68.8129 65.7027 68.323C65.4997 67.8261 65.3983 67.2628 65.3983 66.6329L65.3983 62.413L66.3115 62.413L66.3115 66.6224C66.3115 67.0703 66.3745 67.4832 66.5005 67.8611C66.6334 68.232 66.8504 68.5294 67.1513 68.7534C67.4522 68.9773 67.8546 69.0893 68.3585 69.0893C68.8694 69.0893 69.2683 68.9773 69.5552 68.7534C69.8491 68.5294 70.059 68.232 70.185 67.8611C70.311 67.4832 70.374 67.0703 70.374 66.6224L70.374 62.413L71.2977 62.413L71.2977 66.6329C71.2977 67.2558 71.1962 67.8156 70.9933 68.3125C70.7904 68.8094 70.4719 69.2013 70.0381 69.4882C69.6042 69.7751 69.0408 69.9186 68.348 69.9186ZM73.0674 69.8346L73.0674 62.413L74.453 62.413L76.6785 66.4965L78.8724 62.413L80.2265 62.413L80.2265 69.8346L79.3133 69.8346L79.3133 63.3788L76.8674 67.8926L76.4475 67.8926L73.9807 63.3788L73.9807 69.8346L73.0674 69.8346ZM82.0472 69.8346L82.0472 62.413L84.6505 62.413C85.0214 62.413 85.3574 62.4445 85.6583 62.5075C85.9592 62.5635 86.2181 62.6615 86.4351 62.8014C86.659 62.9414 86.8305 63.1304 86.9494 63.3683C87.0684 63.6062 87.1279 63.9072 87.1279 64.2711C87.1279 64.649 87.0404 64.9849 86.8655 65.2788C86.6975 65.5727 86.4351 65.7897 86.0782 65.9296C86.554 66.0136 86.9109 66.2095 87.1489 66.5175C87.3868 66.8184 87.5058 67.2208 87.5058 67.7246C87.5058 68.1375 87.4288 68.4805 87.2748 68.7534C87.1209 69.0263 86.9074 69.2432 86.6345 69.4042C86.3686 69.5582 86.0607 69.6701 85.7108 69.7401C85.3608 69.8031 84.9899 69.8346 84.5981 69.8346L82.0472 69.8346ZM82.9605 69.0053L84.5666 69.0053C84.7835 69.0053 85.0074 68.9948 85.2384 68.9738C85.4763 68.9458 85.6968 68.8933 85.8997 68.8164C86.1027 68.7324 86.2671 68.6029 86.3931 68.428C86.519 68.253 86.582 68.0186 86.582 67.7246C86.582 67.4727 86.533 67.2663 86.4351 67.1053C86.3441 66.9444 86.2181 66.8184 86.0572 66.7274C85.9032 66.6364 85.7248 66.5735 85.5218 66.5385C85.3189 66.5035 85.1124 66.486 84.9025 66.486L82.9605 66.486L82.9605 69.0053ZM82.9605 65.6672L84.3881 65.6672C84.647 65.6672 84.8885 65.6462 85.1124 65.6042C85.3364 65.5552 85.5323 65.4782 85.7003 65.3733C85.8682 65.2683 85.9977 65.1318 86.0887 64.9639C86.1866 64.7959 86.2356 64.586 86.2356 64.334C86.2426 64.0121 86.1726 63.7742 86.0257 63.6202C85.8787 63.4663 85.6828 63.3648 85.4378 63.3158C85.1999 63.2668 84.941 63.2423 84.661 63.2423L82.9605 63.2423L82.9605 65.6672ZM88.9363 69.8346L88.9363 62.413L93.9225 62.413L93.9225 63.2423L89.8495 63.2423L89.8495 65.7407L93.5131 65.7407L93.5131 66.5804L89.8495 66.5805L89.8495 69.0053L93.9225 69.0053L93.9225 69.8346L88.9363 69.8346ZM95.3433 69.8346L95.3433 62.413L98.1251 62.413C98.5379 62.413 98.9053 62.455 99.2273 62.539C99.5562 62.623 99.8361 62.756 100.067 62.9379C100.298 63.1199 100.473 63.3613 100.592 63.6622C100.718 63.9561 100.781 64.313 100.781 64.7329C100.781 65.1458 100.704 65.4992 100.55 65.7932C100.396 66.0801 100.193 66.3145 99.9411 66.4965C99.6891 66.6784 99.4162 66.8114 99.1223 66.8954L100.676 69.8346L99.6786 69.8346L98.1985 67.0528L96.2565 67.0528L96.2565 69.8346L95.3433 69.8346ZM96.2565 66.2235L97.8311 66.2235C98.1041 66.2235 98.3595 66.2025 98.5974 66.1606C98.8424 66.1186 99.0558 66.0451 99.2378 65.9401C99.4267 65.8281 99.5737 65.6742 99.6786 65.4782C99.7836 65.2753 99.8396 65.0164 99.8466 64.7014C99.8536 64.3445 99.7871 64.0611 99.6472 63.8512C99.5072 63.6342 99.3007 63.4803 99.0278 63.3893C98.7549 63.2913 98.4225 63.2423 98.0306 63.2423L96.2565 63.2423L96.2565 66.2235Z" fill="white"/>
        <rect x="247.734" y="-9.01721" width="88.8564" height="89.257" rx="20.9945" transform="rotate(-19.6108 247.734 -9.01721)" fill="white" fill-opacity="0.12"/>
        <rect x="155.359" y="27.9729" width="17.9164" height="17.9971" rx="5.24862" transform="rotate(-53.0928 155.359 27.9729)" fill="#D25F3F"/>
        <rect x="248.823" y="144.232" width="31.7063" height="31.8564" rx="9.70995" transform="rotate(-57.1072 248.823 144.232)" stroke="#D25F3F" stroke-width="1.57459"/>
        <g clip-path="url(#clip1_478_4394)">
            <path d="M43.7436 20.9948L40.9517 38.8032H45.4144L48.2044 20.9948H43.7436ZM57.2054 28.2493C55.6464 27.4605 54.6821 26.9266 54.6821 26.1193C54.702 25.3804 55.4914 24.6415 57.2541 24.6415C58.3958 24.6081 59.5306 24.8333 60.5777 25.3009L60.9832 25.4857L61.5906 21.7596C60.3105 21.2661 58.9534 21.0158 57.5857 21.0207C53.179 21.0207 50.0753 23.3686 50.0555 26.7289C50.0194 29.2081 52.2778 30.5825 53.9666 31.4083C55.6933 32.2543 56.2808 32.803 56.2808 33.5549C56.261 34.7095 54.884 35.2415 53.6007 35.2415C52.1526 35.2806 50.7163 34.9639 49.412 34.3178L48.8244 34.0426L48.2008 37.922C49.7913 38.5385 51.4785 38.8516 53.179 38.8456C57.8651 38.8456 60.9111 36.5328 60.9489 32.9526C60.9598 30.9834 59.7702 29.4796 57.1964 28.2493H57.2054ZM73.0392 21.0447H69.5769C69.0876 20.9828 68.5921 21.0902 68.1693 21.35C67.7464 21.6097 67.4203 22.0068 67.2428 22.4782L60.6137 38.8032H65.2998L66.5903 35.2692H71.8298L72.4985 38.8179H76.6295L73.0392 21.0447ZM67.8953 31.7038C67.9854 31.7038 69.6976 25.9364 69.6976 25.9364L71.0566 31.7038H67.8953ZM37.2208 20.9893L32.8483 33.0893L32.3725 30.7026C31.2661 27.5886 29.0653 25.0101 26.2012 23.4721L30.206 38.781H34.912L41.9412 20.9967H37.219L37.2208 20.9893Z" fill="white"/>
            <path d="M30.8945 23.2913C30.7393 22.6264 30.3664 22.0362 29.838 21.619C29.3096 21.2018 28.6577 20.9829 27.9909 20.9987H21.0662L20.9941 21.3276C23.4694 21.937 25.7794 23.1084 27.7538 24.7554C29.7282 26.4024 31.3164 28.4828 32.4013 30.8432L30.8945 23.2913Z" fill="white"/>
        </g>
        <path d="M25.2941 93.6793L29.3251 87.7337L25.4117 81.788H28.3173L30.8535 85.9534L33.356 81.788H36.2113L32.2979 87.7169L36.3288 93.6793H33.4232L30.7695 89.514L28.0318 93.6793H25.2941ZM41.5681 93.6793L45.5991 87.7337L41.6857 81.788H44.5913L47.1275 85.9534L49.63 81.788H52.4853L48.5719 87.7169L52.6028 93.6793H49.6972L47.0435 89.514L44.3058 93.6793H41.5681ZM57.8421 93.6793L61.8731 87.7337L57.9597 81.788H60.8653L63.4015 85.9534L65.904 81.788H68.7593L64.8459 87.7169L68.8768 93.6793H65.9712L63.3175 89.514L60.5798 93.6793H57.8421ZM74.1161 93.6793L78.1471 87.7337L74.2337 81.788H77.1393L79.6755 85.9534L82.178 81.788H85.0333L81.1199 87.7169L85.1508 93.6793H82.2452L79.5915 89.514L76.8538 93.6793H74.1161ZM100.169 93.6793L104.2 87.7337L100.287 81.788H103.192L105.728 85.9534L108.231 81.788H111.086L107.173 87.7169L111.204 93.6793H108.298L105.644 89.514L102.907 93.6793H100.169ZM116.443 93.6793L120.474 87.7337L116.561 81.788H119.466L122.002 85.9534L124.505 81.788H127.36L123.447 87.7169L127.478 93.6793H124.572L121.918 89.514L119.181 93.6793H116.443ZM132.717 93.6793L136.748 87.7337L132.835 81.788H135.74L138.276 85.9534L140.779 81.788H143.634L139.721 87.7169L143.752 93.6793H140.846L138.192 89.514L135.455 93.6793H132.717ZM148.991 93.6793L153.022 87.7337L149.109 81.788H152.014L154.55 85.9534L157.053 81.788H159.908L155.995 87.7169L160.026 93.6793H157.12L154.466 89.514L151.729 93.6793H148.991ZM175.044 93.6793L179.075 87.7337L175.161 81.788H178.067L180.603 85.9534L183.106 81.788H185.961L182.048 87.7169L186.078 93.6793H183.173L180.519 89.514L177.781 93.6793H175.044ZM191.318 93.6793L195.349 87.7337L191.435 81.788H194.341L196.877 85.9534L199.38 81.788H202.235L198.322 87.7169L202.352 93.6793H199.447L196.793 89.514L194.055 93.6793H191.318ZM207.592 93.6793L211.623 87.7337L207.709 81.788H210.615L213.151 85.9534L215.654 81.788H218.509L214.596 87.7169L218.626 93.6793H215.721L213.067 89.514L210.329 93.6793H207.592ZM223.866 93.6793L227.897 87.7337L223.983 81.788H226.889L229.425 85.9534L231.928 81.788H234.783L230.87 87.7169L234.901 93.6793H231.995L229.341 89.514L226.603 93.6793H223.866ZM256.351 93.6793V91.4959H250.322V89.6652L255.847 81.788H258.753V89.3125H260.097V91.4959H258.753V93.6793H256.351ZM253.076 89.3125H256.351V84.4418L253.076 89.3125ZM265.903 93.6793V91.6974L269.195 88.9598C269.43 88.7582 269.699 88.5343 270.001 88.2879C270.315 88.0304 270.612 87.7561 270.892 87.465C271.183 87.1738 271.418 86.8659 271.597 86.5412C271.787 86.2165 271.883 85.8806 271.883 85.5335C271.883 85.052 271.731 84.6601 271.429 84.3578C271.138 84.0555 270.707 83.9043 270.136 83.9043C269.598 83.9043 269.173 84.0275 268.859 84.2738C268.557 84.5089 268.367 84.8113 268.288 85.1808H265.97C266.038 84.3858 266.273 83.7307 266.676 83.2157C267.09 82.6894 267.611 82.2975 268.238 82.04C268.865 81.7825 269.526 81.6537 270.22 81.6537C270.97 81.6537 271.653 81.7936 272.269 82.0736C272.885 82.3535 273.372 82.7622 273.73 83.2997C274.088 83.8259 274.268 84.4809 274.268 85.2647C274.268 85.9366 274.139 86.5468 273.881 87.0955C273.635 87.6329 273.293 88.1368 272.857 88.6071C272.42 89.0661 271.927 89.5084 271.379 89.9339L269.498 91.4623H274.251V93.6793H265.903ZM286.209 93.6793V91.4959H280.18V89.6652L285.706 81.788H288.611V89.3125H289.955V91.4959H288.611V93.6793H286.209ZM282.934 89.3125H286.209V84.4418L282.934 89.3125ZM295.761 93.6793V91.6974L299.053 88.9598C299.288 88.7582 299.557 88.5343 299.86 88.2879C300.173 88.0304 300.47 87.7561 300.75 87.465C301.041 87.1738 301.276 86.8659 301.455 86.5412C301.645 86.2165 301.741 85.8806 301.741 85.5335C301.741 85.052 301.589 84.6601 301.287 84.3578C300.996 84.0555 300.565 83.9043 299.994 83.9043C299.456 83.9043 299.031 84.0275 298.717 84.2738C298.415 84.5089 298.225 84.8113 298.146 85.1808H295.829C295.896 84.3858 296.131 83.7307 296.534 83.2157C296.948 82.6894 297.469 82.2975 298.096 82.04C298.723 81.7825 299.384 81.6537 300.078 81.6537C300.828 81.6537 301.511 81.7936 302.127 82.0736C302.743 82.3535 303.23 82.7622 303.588 83.2997C303.946 83.8259 304.126 84.4809 304.126 85.2647C304.126 85.9366 303.997 86.5468 303.739 87.0955C303.493 87.6329 303.151 88.1368 302.715 88.6071C302.278 89.0661 301.785 89.5084 301.237 89.9339L299.356 91.4623H304.109V93.6793H295.761Z" fill="white"/>
        <path d="M258.528 162.011V153.913H256.441V152.811C256.833 152.782 257.186 152.737 257.5 152.679C257.813 152.61 258.092 152.497 258.337 152.341C258.582 152.174 258.798 151.934 258.984 151.621H260.086V162.011H258.528ZM261.998 162.011V160.717L264.922 158.219C265.167 158.013 265.436 157.783 265.73 157.528C266.034 157.274 266.323 156.999 266.597 156.705C266.882 156.412 267.112 156.098 267.288 155.765C267.474 155.432 267.567 155.084 267.567 154.721C267.567 154.163 267.396 153.727 267.053 153.414C266.72 153.1 266.264 152.943 265.686 152.943C265.196 152.943 264.78 153.046 264.437 153.252C264.104 153.458 263.884 153.747 263.776 154.119H262.189C262.277 153.521 262.497 153.031 262.85 152.649C263.203 152.267 263.634 151.983 264.143 151.797C264.653 151.601 265.187 151.503 265.745 151.503C266.392 151.503 266.97 151.621 267.479 151.856C267.989 152.091 268.39 152.439 268.684 152.899C268.978 153.35 269.125 153.903 269.125 154.56C269.125 155.177 269.008 155.726 268.773 156.206C268.537 156.686 268.224 157.122 267.832 157.514C267.45 157.906 267.033 158.288 266.583 158.66L264.276 160.585H269.199V162.011H261.998ZM270.41 164.45L274.996 150.298H276.568L271.983 164.45H270.41ZM277.483 162.011V160.717L280.408 158.219C280.653 158.013 280.922 157.783 281.216 157.528C281.52 157.274 281.809 156.999 282.083 156.705C282.367 156.412 282.597 156.098 282.774 155.765C282.96 155.432 283.053 155.084 283.053 154.721C283.053 154.163 282.881 153.727 282.539 153.414C282.205 153.1 281.75 152.943 281.172 152.943C280.682 152.943 280.266 153.046 279.923 153.252C279.59 153.458 279.369 153.747 279.261 154.119H277.674C277.762 153.521 277.983 153.031 278.335 152.649C278.688 152.267 279.119 151.983 279.629 151.797C280.138 151.601 280.672 151.503 281.231 151.503C281.877 151.503 282.455 151.621 282.965 151.856C283.474 152.091 283.876 152.439 284.17 152.899C284.464 153.35 284.611 153.903 284.611 154.56C284.611 155.177 284.493 155.726 284.258 156.206C284.023 156.686 283.709 157.122 283.317 157.514C282.935 157.906 282.519 158.288 282.068 158.66L279.761 160.585H284.684V162.011H277.483ZM290.187 162.128C289.472 162.128 288.86 161.996 288.35 161.732C287.841 161.457 287.424 161.085 287.101 160.615C286.778 160.144 286.543 159.61 286.396 159.013C286.249 158.405 286.175 157.773 286.175 157.117C286.175 156.353 286.254 155.633 286.41 154.957C286.567 154.281 286.812 153.683 287.145 153.164C287.488 152.644 287.924 152.238 288.453 151.944C288.992 151.65 289.634 151.503 290.378 151.503C290.907 151.503 291.397 151.596 291.848 151.782C292.308 151.959 292.7 152.228 293.024 152.591C293.347 152.953 293.577 153.409 293.714 153.957H292.156C292 153.614 291.755 153.355 291.422 153.178C291.089 153.002 290.731 152.914 290.349 152.914C289.928 152.914 289.565 152.992 289.261 153.149C288.967 153.296 288.718 153.502 288.512 153.766C288.306 154.021 288.14 154.315 288.012 154.648C287.885 154.981 287.792 155.329 287.733 155.691C287.674 156.044 287.645 156.392 287.645 156.735C287.88 156.392 288.144 156.118 288.438 155.912C288.742 155.706 289.065 155.559 289.408 155.471C289.751 155.373 290.089 155.324 290.422 155.324C291.118 155.324 291.716 155.466 292.215 155.75C292.715 156.025 293.102 156.412 293.376 156.911C293.66 157.401 293.802 157.974 293.802 158.631C293.802 159.326 293.646 159.939 293.332 160.468C293.028 160.997 292.602 161.408 292.054 161.702C291.515 161.986 290.893 162.128 290.187 162.128ZM290.173 160.717C290.584 160.717 290.942 160.629 291.245 160.453C291.559 160.277 291.799 160.041 291.965 159.748C292.142 159.444 292.23 159.111 292.23 158.748C292.23 158.366 292.147 158.023 291.98 157.719C291.814 157.416 291.578 157.176 291.275 156.999C290.981 156.813 290.633 156.72 290.231 156.72C289.849 156.72 289.492 156.808 289.158 156.985C288.835 157.151 288.576 157.386 288.38 157.69C288.184 157.984 288.086 158.332 288.086 158.734C288.086 159.096 288.174 159.429 288.35 159.733C288.527 160.027 288.771 160.267 289.085 160.453C289.408 160.629 289.771 160.717 290.173 160.717Z" fill="white"/>
        <path opacity="0.5" d="M259.062 140.165L256.28 132.744L257.277 132.744L259.723 139.378L262.169 132.744L263.155 132.744L260.384 140.165L259.062 140.165ZM262.881 140.165L265.641 132.744L266.953 132.744L269.704 140.165L268.717 140.165L268.129 138.57L264.455 138.57L263.867 140.165L262.881 140.165ZM264.76 137.74L267.825 137.74L266.292 133.542L264.76 137.74ZM270.721 140.165L270.721 132.744L271.634 132.744L271.634 139.336L275.707 139.336L275.707 140.165L270.721 140.165ZM276.749 140.165L276.749 132.744L277.662 132.744L277.662 140.165L276.749 140.165ZM279.486 140.165L279.486 132.744L282.121 132.744C282.891 132.744 283.534 132.901 284.052 133.216C284.57 133.524 284.959 133.958 285.217 134.518C285.483 135.071 285.616 135.718 285.616 136.46C285.616 137.195 285.487 137.842 285.228 138.402C284.969 138.955 284.581 139.388 284.063 139.703C283.545 140.011 282.898 140.165 282.121 140.165L279.486 140.165ZM280.399 139.336L282.058 139.336C282.66 139.336 283.153 139.214 283.538 138.969C283.923 138.724 284.21 138.388 284.399 137.961C284.588 137.527 284.682 137.027 284.682 136.46C284.682 135.907 284.588 135.414 284.399 134.98C284.217 134.546 283.937 134.203 283.559 133.951C283.181 133.699 282.698 133.573 282.11 133.573L280.399 133.573L280.399 139.336ZM291.487 140.165L291.487 133.573L289.104 133.573L289.104 132.744L294.783 132.744L294.783 133.573L292.4 133.573L292.4 140.165L291.487 140.165ZM295.847 140.165L295.847 132.744L296.76 132.744L296.76 136.103L300.739 136.103L300.739 132.744L301.652 132.744L301.652 140.165L300.739 140.165L300.739 136.943L296.76 136.943L296.76 140.165L295.847 140.165ZM303.474 140.165L303.474 132.744L306.256 132.744C306.668 132.744 307.036 132.786 307.358 132.87C307.687 132.954 307.967 133.087 308.198 133.269C308.428 133.451 308.603 133.692 308.722 133.993C308.848 134.287 308.911 134.644 308.911 135.064C308.911 135.477 308.834 135.83 308.68 136.124C308.526 136.411 308.324 136.645 308.072 136.827C307.82 137.009 307.547 137.142 307.253 137.226L308.806 140.165L307.809 140.165L306.329 137.384L304.387 137.384L304.387 140.165L303.474 140.165ZM304.387 136.554L305.962 136.554C306.235 136.554 306.49 136.533 306.728 136.491C306.973 136.449 307.186 136.376 307.368 136.271C307.557 136.159 307.704 136.005 307.809 135.809C307.914 135.606 307.97 135.347 307.977 135.032C307.984 134.675 307.918 134.392 307.778 134.182C307.638 133.965 307.431 133.811 307.158 133.72C306.885 133.622 306.553 133.573 306.161 133.573L304.387 133.573L304.387 136.554ZM313.28 140.249C312.588 140.249 312.024 140.106 311.59 139.819C311.156 139.532 310.838 139.144 310.635 138.654C310.432 138.157 310.331 137.593 310.331 136.964L310.331 132.744L311.244 132.744L311.244 136.953C311.244 137.401 311.307 137.814 311.433 138.192C311.566 138.563 311.783 138.86 312.084 139.084C312.385 139.308 312.787 139.42 313.291 139.42C313.802 139.42 314.201 139.308 314.488 139.084C314.781 138.86 314.991 138.563 315.117 138.192C315.243 137.814 315.306 137.401 315.306 136.953L315.306 132.744L316.23 132.744L316.23 136.964C316.23 137.586 316.129 138.146 315.926 138.643C315.723 139.14 315.404 139.532 314.97 139.819C314.537 140.106 313.973 140.249 313.28 140.249Z" fill="white"/>
    </g>
    <defs>
        <clipPath id="clip0_478_4394">
            <rect width="344" height="190" rx="20" fill="white"/>
        </clipPath>
        <clipPath id="clip1_478_4394">
            <rect width="55.6354" height="17.8453" fill="white" transform="translate(20.9941 20.9951)"/>
        </clipPath>
    </defs>
</svg>
