<?xml version="1.0" encoding="UTF-8"?>
<svg version="1.1" xmlns="http://www.w3.org/2000/svg" width="375" height="812">
<path d="M0 0 C123.75 0 247.5 0 375 0 C375 267.96 375 535.92 375 812 C251.25 812 127.5 812 0 812 C0 544.04 0 276.08 0 0 Z " fill="#CB4823" transform="translate(0,0)"/>
<path d="M0 0 C0 0.66 0 1.32 0 2 C-1.32 2 -2.64 2 -4 2 C-2.7934375 2.185625 -2.7934375 2.185625 -1.5625 2.375 C-0.716875 2.58125 0.12875 2.7875 1 3 C1.33 3.66 1.66 4.32 2 5 C4.01669827 6.13350534 4.01669827 6.13350534 6 7 C2.25 9 2.25 9 0 9 C-0.33 9.66 -0.66 10.32 -1 11 C-1.66 11 -2.32 11 -3 11 C-2.67 11.7425 -2.34 12.485 -2 13.25 C-0.898095 16.28023875 -1 18.80838275 -1 22 C-2.32 22 -3.64 22 -5 22 C-5 22.99 -5 23.98 -5 25 C-4.34 25.33 -3.68 25.66 -3 26 C-3 26.99 -3 27.98 -3 29 C-2.01 29.33 -1.02 29.66 0 30 C0.33 30.66 0.66 31.32 1 32 C1 30.68 1 29.36 1 28 C1.99 27.67 2.98 27.34 4 27 C4 28.32 4 29.64 4 31 C7.28696233 31.79953138 8.71023192 32.09658936 12 31 C10.68 30.67 9.36 30.34 8 30 C8.33 29.01 8.66 28.02 9 27 C10.99954746 26.95745644 13.00041636 26.95919217 15 27 C15.33 27.33 15.66 27.66 16 28 C16.99 25.525 16.99 25.525 18 23 C19.98 24.98 19.98 24.98 22 27 C21.34 27 20.68 27 20 27 C20.33 27.99 20.66 28.98 21 30 C21.66 30 22.32 30 23 30 C23.1546875 29.1028125 23.1546875 29.1028125 23.3125 28.1875 C24.10636936 25.66155205 24.95572409 24.65114593 27 23 C27.99 22.67 28.98 22.34 30 22 C30.66 21.01 31.32 20.02 32 19 C32.33 20.32 32.66 21.64 33 23 C33.66 22.34 34.32 21.68 35 21 C38.125 20.875 38.125 20.875 41 21 C40.01 21.99 39.02 22.98 38 24 C38.66 24.66 39.32 25.32 40 26 C39.34 28.31 38.68 30.62 38 33 C38.66 33 39.32 33 40 33 C40.66 33 41.32 33 42 33 C42.33 32.34 42.66 31.68 43 31 C43 33.97 43 36.94 43 40 C43.99 40 44.98 40 46 40 C46 41.32 46 42.64 46 44 C46.66 44 47.32 44 48 44 C48 42.35 48 40.7 48 39 C49.65 39 51.3 39 53 39 C51.35 38.67 49.7 38.34 48 38 C48.66 37.01 49.32 36.02 50 35 C50.8353125 35.3403125 50.8353125 35.3403125 51.6875 35.6875 C54.90552211 36.12236785 56.32389207 34.69017343 59 33 C59.66 33.33 60.32 33.66 61 34 C61.66 34 62.32 34 63 34 C63.33 32.35 63.66 30.7 64 29 C65.65 29.33 67.3 29.66 69 30 C69 29.34 69 28.68 69 28 C70.98 28.99 70.98 28.99 73 30 C73 34 73 34 71 37 C71.99 37 72.98 37 74 37 C74 37.99 74 38.98 74 40 C72.35 40.33 70.7 40.66 69 41 C70.175625 41.185625 70.175625 41.185625 71.375 41.375 C74 42 74 42 76 44 C76.66 44 77.32 44 78 44 C78 45.32 78 46.64 78 48 C-22.65 48 -123.3 48 -227 48 C-227 43.05 -227 38.1 -227 33 C-225.515 32.505 -225.515 32.505 -224 32 C-223.34 32.66 -222.68 33.32 -222 34 C-222.495 34.495 -222.495 34.495 -223 35 C-222.34 35 -221.68 35 -221 35 C-219.98594743 33.67732273 -218.98731742 32.34275169 -218 31 C-217.01 30.34 -216.02 29.68 -215 29 C-214.67 29.99 -214.34 30.98 -214 32 C-213.67 31.01 -213.34 30.02 -213 29 C-213.33 28.34 -213.66 27.68 -214 27 C-212.02 27.33 -210.04 27.66 -208 28 C-208 29.32 -208 30.64 -208 32 C-207.34 32 -206.68 32 -206 32 C-206.33 30.68 -206.66 29.36 -207 28 C-206.34 28 -205.68 28 -205 28 C-204.34 28.66 -203.68 29.32 -203 30 C-203.29235267 32.33882138 -203.62599214 34.67284 -204 37 C-203.67 37.66 -203.34 38.32 -203 39 C-201.31369881 35.48966871 -201.31369881 35.48966871 -201.375 31.6875 C-201.58125 31.130625 -201.7875 30.57375 -202 30 C-200.02 29.34 -198.04 28.68 -196 28 C-197.65 27.67 -199.3 27.34 -201 27 C-201 26.34 -201 25.68 -201 25 C-201.66 24.67 -202.32 24.34 -203 24 C-202.67 22.35 -202.34 20.7 -202 19 C-200 20 -200 20 -198 23 C-195.94996045 24.19232613 -195.94996045 24.19232613 -194 25 C-193.505 23.515 -193.505 23.515 -193 22 C-191.02 22.66 -189.04 23.32 -187 24 C-187.495 22.515 -187.495 22.515 -188 21 C-187.34 20.67 -186.68 20.34 -186 20 C-186 21.65 -186 23.3 -186 25 C-187.32 25.33 -188.64 25.66 -190 26 C-187.22739701 27.93798263 -187.22739701 27.93798263 -185 29 C-185 29.66 -185 30.32 -185 31 C-184.34 30.34 -183.68 29.68 -183 29 C-182.01 28.34 -181.02 27.68 -180 27 C-179.505 25.515 -179.505 25.515 -179 24 C-176.525 24.99 -176.525 24.99 -174 26 C-174 25.01 -174 24.02 -174 23 C-173.34 23 -172.68 23 -172 23 C-171.731875 23.969375 -171.46375 24.93875 -171.1875 25.9375 C-170.5996875 27.4534375 -170.5996875 27.4534375 -170 29 C-169.01 29.33 -168.02 29.66 -167 30 C-166.01 30.33 -165.02 30.66 -164 31 C-163.20046862 34.28696233 -162.90341064 35.71023192 -164 39 C-163.34 39 -162.68 39 -162 39 C-162 37.68 -162 36.36 -162 35 C-161.34 35 -160.68 35 -160 35 C-159.67 34.01 -159.34 33.02 -159 32 C-159 32.99 -159 33.98 -159 35 C-158.34 35 -157.68 35 -157 35 C-156.67 35.66 -156.34 36.32 -156 37 C-154.68 35.68 -153.36 34.36 -152 33 C-149.69 33.66 -147.38 34.32 -145 35 C-144.34 32.36 -143.68 29.72 -143 27 C-141.68 27 -140.36 27 -139 27 C-138.06576355 30.01031744 -137.95550089 30.86650268 -139 34 C-137.68 34 -136.36 34 -135 34 C-135 34.66 -135 35.32 -135 36 C-133.02 36 -131.04 36 -129 36 C-129 36.99 -129 37.98 -129 39 C-128.34 38.67 -127.68 38.34 -127 38 C-125.00039988 37.960008 -122.99952758 37.95653201 -121 38 C-121 37.34 -121 36.68 -121 36 C-119.35 35.67 -117.7 35.34 -116 35 C-116.66 35 -117.32 35 -118 35 C-118 34.34 -118 33.68 -118 33 C-117.34 33 -116.68 33 -116 33 C-115.67 31.68 -115.34 30.36 -115 29 C-115.66 29 -116.32 29 -117 29 C-116.67 27.02 -116.34 25.04 -116 23 C-115.38125 23.33 -114.7625 23.66 -114.125 24 C-112.08981656 25.14193235 -112.08981656 25.14193235 -110 25 C-110.33 26.32 -110.66 27.64 -111 29 C-111.66 28.67 -112.32 28.34 -113 28 C-113.33 28.66 -113.66 29.32 -114 30 C-113.34 30 -112.68 30 -112 30 C-112 30.66 -112 31.32 -112 32 C-111.01 31.34 -110.02 30.68 -109 30 C-108.63637182 27.79274927 -108.63637182 27.79274927 -108.8125 25.375 C-108.83957031 24.55773437 -108.86664063 23.74046875 -108.89453125 22.8984375 C-108.94673828 21.95871094 -108.94673828 21.95871094 -109 21 C-108.60167969 21.96679688 -108.60167969 21.96679688 -108.1953125 22.953125 C-107.60363281 23.96632813 -107.60363281 23.96632813 -107 25 C-103.94091587 25.81584568 -103.94091587 25.81584568 -101 26 C-101 25.01 -101 24.02 -101 23 C-99.02 22.505 -99.02 22.505 -97 22 C-96.01 24.97 -96.01 24.97 -95 28 C-91.69437371 25.56427537 -89.6770525 23.74111712 -88 20 C-87.01 19.505 -87.01 19.505 -86 19 C-86.33 21.31 -86.66 23.62 -87 26 C-85.741875 26.185625 -84.48375 26.37125 -83.1875 26.5625 C-82.47980469 26.66691406 -81.77210938 26.77132812 -81.04296875 26.87890625 C-78.7974658 27.13904799 -78.7974658 27.13904799 -76 26 C-75.67 26.66 -75.34 27.32 -75 28 C-73.02 27.505 -73.02 27.505 -71 27 C-71.33 26.67 -71.66 26.34 -72 26 C-72.66 26 -73.32 26 -74 26 C-73.625 24.0625 -73.625 24.0625 -73 22 C-72.01 21.505 -72.01 21.505 -71 21 C-70.01 19.515 -70.01 19.515 -69 18 C-68.34 18 -67.68 18 -67 18 C-67 18.66 -67 19.32 -67 20 C-66.01 19.67 -65.02 19.34 -64 19 C-63.01 20.98 -63.01 20.98 -62 23 C-62.66 23 -63.32 23 -64 23 C-64 23.66 -64 24.32 -64 25 C-63.38125 25.103125 -62.7625 25.20625 -62.125 25.3125 C-60 26 -60 26 -58 29 C-57.78561249 24.49786224 -58.55543356 21.2373949 -60 17 C-59.67 16.34 -59.34 15.68 -59 15 C-56.27734375 14.5859375 -56.27734375 14.5859375 -52.9375 14.375 C-51.83277344 14.30023437 -50.72804687 14.22546875 -49.58984375 14.1484375 C-48.73519531 14.09945312 -47.88054687 14.05046875 -47 14 C-47.66 14.66 -48.32 15.32 -49 16 C-47.02 16 -45.04 16 -43 16 C-43.33 15.01 -43.66 14.02 -44 13 C-43.34 12.67 -42.68 12.34 -42 12 C-39.43730503 13.04109483 -37.97389657 14.02610343 -36 16 C-36.99 14.02 -36.99 14.02 -38 12 C-38.99 12 -39.98 12 -41 12 C-41 9.36 -41 6.72 -41 4 C-39.35 4 -37.7 4 -36 4 C-36 4.66 -36 5.32 -36 6 C-35.34 6 -34.68 6 -34 6 C-33.67 5.01 -33.34 4.02 -33 3 C-33 3.66 -33 4.32 -33 5 C-31.68 5 -30.36 5 -29 5 C-29 5.66 -29 6.32 -29 7 C-30.65 7.33 -32.3 7.66 -34 8 C-33.01 8.99 -33.01 8.99 -32 10 C-31.67 9.34 -31.34 8.68 -31 8 C-31 8.99 -31 9.98 -31 11 C-30.34 11 -29.68 11 -29 11 C-28.731875 10.0925 -28.46375 9.185 -28.1875 8.25 C-27.10423706 5.28528037 -26.01640543 3.3830246 -24 1 C-24 2.32 -24 3.64 -24 5 C-23.236875 5.103125 -22.47375 5.20625 -21.6875 5.3125 C-18.82940576 6.04364039 -17.84257115 6.76951913 -16 9 C-15.34 8.01 -14.68 7.02 -14 6 C-11.875 5.3125 -11.875 5.3125 -10 5 C-10 6.98 -10 8.96 -10 11 C-6.535 10.505 -6.535 10.505 -3 10 C-3.99 9.34 -4.98 8.68 -6 8 C-5.67 7.01 -5.34 6.02 -5 5 C-5 3.68 -5 2.36 -5 1 C-5.99 0.505 -5.99 0.505 -7 0 C-4.3333581 -1.33332095 -2.83319697 -0.67102033 0 0 Z M-160 37 C-160 37.66 -160 38.32 -160 39 C-159.01 38.67 -158.02 38.34 -157 38 C-157.99 37.67 -158.98 37.34 -160 37 Z M-163 32 C-162.01 32.495 -162.01 32.495 -161 33 C-161.99 33.495 -161.99 33.495 -163 34 C-163 33.34 -163 32.68 -163 32 Z " fill="#C73B1E" transform="translate(227,764)"/>
<path d="M0 0 C0.66 0.33 1.32 0.66 2 1 C2 1.99 2 2.98 2 4 C2.66 4 3.32 4 4 4 C4 3.34 4 2.68 4 2 C7.465 1.505 7.465 1.505 11 1 C11.33 2.65 11.66 4.3 12 6 C12.66 6 13.32 6 14 6 C13.67 8.64 13.34 11.28 13 14 C14.32 13.67 15.64 13.34 17 13 C17 13.66 17 14.32 17 15 C17.99 15.33 18.98 15.66 20 16 C20.33 15.34 20.66 14.68 21 14 C21.12375 14.639375 21.2475 15.27875 21.375 15.9375 C21.58125 16.618125 21.7875 17.29875 22 18 C22.66 18.33 23.32 18.66 24 19 C23.505 17.515 23.505 17.515 23 16 C23 14.33333333 23 12.66666667 23 11 C23.66 11 24.32 11 25 11 C25.66 10.01 26.32 9.02 27 8 C27 8.66 27 9.32 27 10 C27.66 10.33 28.32 10.66 29 11 C29 12.65 29 14.3 29 16 C30.32 16.33 31.64 16.66 33 17 C31.68 17 30.36 17 29 17 C28.67 17.66 28.34 18.32 28 19 C27.34 18.67 26.68 18.34 26 18 C25.34 20.31 24.68 22.62 24 25 C25.32 24.34 26.64 23.68 28 23 C29.32 23.99 30.64 24.98 32 26 C32.0825 25.38125 32.165 24.7625 32.25 24.125 C33 22 33 22 34.875 20.75 C37 20 37 20 40 20 C40.495 20.99 40.495 20.99 41 22 C41.99 22.33 42.98 22.66 44 23 C44 23.66 44 24.32 44 25 C44.66 25 45.32 25 46 25 C46.495 25.99 46.495 25.99 47 27 C47.185625 25.88625 47.185625 25.88625 47.375 24.75 C48 22 48 22 49.125 19.9375 C50.20863003 17.5380335 49.8677564 16.42971792 49 14 C48.67 14.99 48.34 15.98 48 17 C48 15.68 48 14.36 48 13 C49.65 13 51.3 13 53 13 C53 12.01 53 11.02 53 10 C53.99 10.495 53.99 10.495 55 11 C54.34 12.65 53.68 14.3 53 16 C53.66 16 54.32 16 55 16 C54.625 18.4375 54.625 18.4375 54 21 C53.01 21.495 53.01 21.495 52 22 C52.495 22.5775 52.99 23.155 53.5 23.75 C55 26 55 26 55 30 C56.98 30.495 56.98 30.495 59 31 C57.515 31.495 57.515 31.495 56 32 C55.505 32.99 55.505 32.99 55 34 C54.34 34 53.68 34 53 34 C52.505 34.99 52.505 34.99 52 36 C51.34 36 50.68 36 50 36 C49.01 36.495 49.01 36.495 48 37 C48.33 35.02 48.66 33.04 49 31 C50.32 31.33 51.64 31.66 53 32 C51.68 31.34 50.36 30.68 49 30 C48.01 32.97 47.02 35.94 46 39 C45.67 39 45.34 39 45 39 C44.67 37.35 44.34 35.7 44 34 C43.34 34 42.68 34 42 34 C42 34.66 42 35.32 42 36 C42.66 36 43.32 36 44 36 C43 39 43 39 40 41 C40 39.68 40 38.36 40 37 C39.34 37.66 38.68 38.32 38 39 C38.33 39 38.66 39 39 39 C39.66 41.31 40.32 43.62 41 46 C37.37 46 33.74 46 30 46 C30 44.68 30 43.36 30 42 C29.01 42.33 28.02 42.66 27 43 C26.34 42.34 25.68 41.68 25 41 C23.35008418 40.29289322 21.68437744 39.62056011 20 39 C22.07553648 38.4465236 23.84365964 38 26 38 C26 37.01 26 36.02 26 35 C25.01 35.33 24.02 35.66 23 36 C22.67 35.34 22.34 34.68 22 34 C24 31 24 31 26 29 C22.77736934 27.71296181 22.77736934 27.71296181 20 29 C17.875 28.0625 17.875 28.0625 16 27 C15.67 29.31 15.34 31.62 15 34 C14.195625 33.4121875 14.195625 33.4121875 13.375 32.8125 C10.83671647 31.64701676 10.83671647 31.64701676 7.8125 33.375 C6.884375 33.91125 5.95625 34.4475 5 35 C4.67 35 4.34 35 4 35 C4.66 35.99 5.32 36.98 6 38 C4.02 37.67 2.04 37.34 0 37 C0 38.65 0 40.3 0 42 C-2 42 -2 42 -4.125 40.4375 C-6.62040957 37.19346756 -6.3069357 34.9901641 -6 31 C-6.33 31.66 -6.66 32.32 -7 33 C-8.32 32.34 -9.64 31.68 -11 31 C-10.34 29.02 -9.68 27.04 -9 25 C-9.66 24.67 -10.32 24.34 -11 24 C-11 23.01 -11 22.02 -11 21 C-9.68 21.33 -8.36 21.66 -7 22 C-7 22.66 -7 23.32 -7 24 C-4.36 24.33 -1.72 24.66 1 25 C0.67 23.68 0.34 22.36 0 21 C0.99 21.99 1.98 22.98 3 24 C3 23.01 3 22.02 3 21 C3.99 21.33 4.98 21.66 6 22 C7.65177773 20.34822227 8.17252291 18.15144042 9 16 C7.02 15.34 5.04 14.68 3 14 C2.67 15.65 2.34 17.3 2 19 C1.34 18.67 0.68 18.34 0 18 C0.33 17.34 0.66 16.68 1 16 C-0.32 16 -1.64 16 -3 16 C-3 15.01 -3 14.02 -3 13 C-5.475 12.01 -5.475 12.01 -8 11 C-8 8.36 -8 5.72 -8 3 C-7.67 3.66 -7.34 4.32 -7 5 C-5.02 4.67 -3.04 4.34 -1 4 C-0.67 2.68 -0.34 1.36 0 0 Z M30 10 C30.66 10 31.32 10 32 10 C32 11.32 32 12.64 32 14 C32.99 14 33.98 14 35 14 C35 14.66 35 15.32 35 16 C32.525 15.01 32.525 15.01 30 14 C30 12.68 30 11.36 30 10 Z " fill="#D44226" transform="translate(275,766)"/>
<path d="M0 0 C0.99 0.66 1.98 1.32 3 2 C3.598125 1.67 4.19625 1.34 4.8125 1 C7 0 7 0 10 0 C10 11.22 10 22.44 10 34 C2.34877441 34.04191177 -5.30203678 34.08198508 -12.95327759 34.10350037 C-16.51610208 34.11407217 -20.07883179 34.12820497 -23.64160156 34.15087891 C-27.727223 34.17671832 -31.81274369 34.18646444 -35.8984375 34.1953125 C-37.17866791 34.20563507 -38.45889832 34.21595764 -39.77792358 34.22659302 C-41.54953354 34.22681961 -41.54953354 34.22681961 -43.35693359 34.22705078 C-44.40062103 34.231492 -45.44430847 34.23593323 -46.5196228 34.24050903 C-49 34 -49 34 -51 32 C-51.71408334 30.01643517 -52.38617742 28.01684563 -53 26 C-51 26 -49 26 -47 26 C-46.67 25.34 -46.34 24.68 -46 24 C-46.66 24 -47.32 24 -48 24 C-48 23.34 -48 22.68 -48 22 C-47.34 22 -46.68 22 -46 22 C-45.67 21.34 -45.34 20.68 -45 20 C-44.67 20.99 -44.34 21.98 -44 23 C-43.34 21.02 -42.68 19.04 -42 17 C-40.02 17.33 -38.04 17.66 -36 18 C-36.33 18.99 -36.66 19.98 -37 21 C-37.99 21 -38.98 21 -40 21 C-40 21.66 -40 22.32 -40 23 C-38.35 22.67 -36.7 22.34 -35 22 C-35 20.68 -35 19.36 -35 18 C-35 16.68 -35 15.36 -35 14 C-35.66 13.67 -36.32 13.34 -37 13 C-34.6875 12.375 -34.6875 12.375 -32 12 C-31.01 12.66 -30.02 13.32 -29 14 C-29 14.66 -29 15.32 -29 16 C-27.35 14.68 -25.7 13.36 -24 12 C-19.125 13.75 -19.125 13.75 -18 16 C-14.97065509 16.65772428 -14.97065509 16.65772428 -12 17 C-12.99 17.33 -13.98 17.66 -15 18 C-15.66 17.67 -16.32 17.34 -17 17 C-16.505 17.45375 -16.01 17.9075 -15.5 18.375 C-14 20 -14 20 -14 22 C-12.35 21.67 -10.7 21.34 -9 21 C-9 20.34 -9 19.68 -9 19 C-9.66 19 -10.32 19 -11 19 C-11 17.35 -11 15.7 -11 14 C-10.34 14.33 -9.68 14.66 -9 15 C-8.67 14.34 -8.34 13.68 -8 13 C-6.68 13 -5.36 13 -4 13 C-4 13.66 -4 14.32 -4 15 C-2.35 15 -0.7 15 1 15 C0.34 15.66 -0.32 16.32 -1 17 C0.32 17 1.64 17 3 17 C2.72285156 16.33613281 2.44570313 15.67226563 2.16015625 14.98828125 C1.61681641 13.66376953 1.61681641 13.66376953 1.0625 12.3125 C0.52302734 11.00732422 0.52302734 11.00732422 -0.02734375 9.67578125 C-0.97038016 7.08148429 -1.70523389 4.74647156 -2 2 C-1.34 1.34 -0.68 0.68 0 0 Z " fill="#C53E1E" transform="translate(365,778)"/>
<path d="M0 0 C0.804375 0.37125 1.60875 0.7425 2.4375 1.125 C7.09445159 2.26881267 10.47229904 1.3080025 15 0 C15.495 1.485 15.495 1.485 16 3 C14.68 3 13.36 3 12 3 C12.99 3.99 13.98 4.98 15 6 C15.66 5.34 16.32 4.68 17 4 C17.98120464 7.05263664 17.98120464 8.94736336 17 12 C17.66 12 18.32 12 19 12 C19.33 10.68 19.66 9.36 20 8 C20.99 10.64 21.98 13.28 23 16 C19.42424104 16 17.94704065 14.91159393 15 13 C15 13.99 15 14.98 15 16 C10.7118631 16.97457657 8.82181108 17.03033714 5 15 C1.83304044 14.83275263 1.83304044 14.83275263 -1 15 C-0.855625 15.86625 -0.71125 16.7325 -0.5625 17.625 C-0.376875 18.73875 -0.19125 19.8525 0 21 C0.20625 22.0725 0.4125 23.145 0.625 24.25 C1 27 1 27 0 29 C-0.99 28.67 -1.98 28.34 -3 28 C-3 27.34 -3 26.68 -3 26 C-3.99 25.67 -4.98 25.34 -6 25 C-6 23.68 -6 22.36 -6 21 C-9.81507216 21 -11.67908998 21.29466783 -15 23 C-15.33 23.99 -15.66 24.98 -16 26 C-15.34 26 -14.68 26 -14 26 C-13.67 25.01 -13.34 24.02 -13 23 C-12.67 24.32 -12.34 25.64 -12 27 C-13.98 27.66 -15.96 28.32 -18 29 C-18 28.01 -18 27.02 -18 26 C-20.16666667 26.83333333 -20.16666667 26.83333333 -21 29 C-22 31 -22 31 -24 32 C-24 30.35 -24 28.7 -24 27 C-25.65 27 -27.3 27 -29 27 C-29.33 25.35 -29.66 23.7 -30 22 C-30.33 23.32 -30.66 24.64 -31 26 C-31.61875 26.103125 -32.2375 26.20625 -32.875 26.3125 C-35.36526484 26.87525373 -35.36526484 26.87525373 -37 30 C-37 29.34 -37 28.68 -37 28 C-37.66 27.67 -38.32 27.34 -39 27 C-39 25.35 -39 23.7 -39 22 C-38.01 22 -37.02 22 -36 22 C-36.66 20.68 -37.32 19.36 -38 18 C-36.68 18.33 -35.36 18.66 -34 19 C-34 19.66 -34 20.32 -34 21 C-33.34 20.67 -32.68 20.34 -32 20 C-32 19.34 -32 18.68 -32 18 C-32.99 17.34 -33.98 16.68 -35 16 C-35.66 16.33 -36.32 16.66 -37 17 C-37.33 16.01 -37.66 15.02 -38 14 C-35.69 14 -33.38 14 -31 14 C-30.67 14.66 -30.34 15.32 -30 16 C-29.01 13.03 -28.02 10.06 -27 7 C-25.35 7.99 -23.7 8.98 -22 10 C-22.33 10.99 -22.66 11.98 -23 13 C-20.25198568 10.62671491 -19.28917827 8.3518635 -18 5 C-15.53264116 2.53264116 -13.27828479 2.0927616 -10 1 C-6.88772805 1 -4.05847848 1.45627049 -1 2 C-0.67 1.34 -0.34 0.68 0 0 Z " fill="#CC4229" transform="translate(169,764)"/>
<path d="M0 0 C0.33 0 0.66 0 1 0 C1.33 2.64 1.66 5.28 2 8 C3.32 7.34 4.64 6.68 6 6 C6 6.99 6 7.98 6 9 C8.64 9 11.28 9 14 9 C14 9.66 14 10.32 14 11 C13.34 11 12.68 11 12 11 C12.33 12.32 12.66 13.64 13 15 C11.68 15.33 10.36 15.66 9 16 C9 14.68 9 13.36 9 12 C8.34 12 7.68 12 7 12 C7.57344937 14.86724686 7.8614515 15.8614515 10 18 C8.68 18 7.36 18 6 18 C5.34 16.02 4.68 14.04 4 12 C3.34 13.32 2.68 14.64 2 16 C2 15.01 2 14.02 2 13 C1.34 13 0.68 13 0 13 C0.350625 13.763125 0.70125 14.52625 1.0625 15.3125 C2 18 2 18 1 21 C0.01 20.67 -0.98 20.34 -2 20 C-2.33 19.34 -2.66 18.68 -3 18 C-4.32796291 17.64587656 -5.66216607 17.31478446 -7 17 C-7.99 16.34 -8.98 15.68 -10 15 C-9.1875 11.5625 -9.1875 11.5625 -8 8 C-7.01 7.67 -6.02 7.34 -5 7 C-4.34 6.01 -3.68 5.02 -3 4 C-2.01 3.67 -1.02 3.34 0 3 C0 2.01 0 1.02 0 0 Z " fill="#D5472E" transform="translate(298,764)"/>
<path d="M0 0 C1.33841672 0.31229724 2.67139075 0.64830932 4 1 C6.18703385 0.62092718 6.18703385 0.62092718 8 0 C7.01 1.485 7.01 1.485 6 3 C7.32 3 8.64 3 10 3 C10 2.01 10 1.02 10 0 C13 1 13 1 15 3 C15.66 2.67 16.32 2.34 17 2 C18.67654729 2.27942455 20.34608154 2.60828247 22 3 C22 3.99 22 4.98 22 6 C23.32 5.67 24.64 5.34 26 5 C26 4.01 26 3.02 26 2 C28.97 2.495 28.97 2.495 32 3 C32 2.34 32 1.68 32 1 C32.99 1.33 33.98 1.66 35 2 C35 3.98 35 5.96 35 8 C22.79 8 10.58 8 -2 8 C-2 2 -2 2 0 0 Z " fill="#D74221" transform="translate(78,804)"/>
<path d="M0 0 C2.97 0.495 2.97 0.495 6 1 C5.67 1.99 5.34 2.98 5 4 C4.01 4 3.02 4 2 4 C2 4.66 2 5.32 2 6 C3.65 5.67 5.3 5.34 7 5 C7.33 4.01 7.66 3.02 8 2 C8.66 2 9.32 2 10 2 C9.67 3.32 9.34 4.64 9 6 C9.66 6 10.32 6 11 6 C11 5.34 11 4.68 11 4 C13.97 4.495 13.97 4.495 17 5 C14.18221168 8.33011347 12.62095188 9.85265549 8.3125 10.875 C5 11 5 11 3 10 C3 10.66 3 11.32 3 12 C1.68 12.33 0.36 12.66 -1 13 C-0.34 13.66 0.32 14.32 1 15 C1.33 15.66 1.66 16.32 2 17 C0.54207116 17.05399736 -0.91642712 17.09279177 -2.375 17.125 C-3.59316406 17.15980469 -3.59316406 17.15980469 -4.8359375 17.1953125 C-7 17 -7 17 -9 15 C-9.71408334 13.01643517 -10.38617742 11.01684563 -11 9 C-9 9 -7 9 -5 9 C-4.67 8.34 -4.34 7.68 -4 7 C-4.66 7 -5.32 7 -6 7 C-6 6.34 -6 5.68 -6 5 C-5.34 5 -4.68 5 -4 5 C-3.67 4.34 -3.34 3.68 -3 3 C-2.67 3.99 -2.34 4.98 -2 6 C-1.34 4.02 -0.68 2.04 0 0 Z " fill="#C93718" transform="translate(323,795)"/>
<path d="M0 0 C1.65 0.99 3.3 1.98 5 3 C4.67 3.99 4.34 4.98 4 6 C4.99 6.33 5.98 6.66 7 7 C6.34 7.66 5.68 8.32 5 9 C5.33 9.99 5.66 10.98 6 12 C5.75 14.125 5.75 14.125 5 16 C4.01 16.33 3.02 16.66 2 17 C2.33 15.68 2.66 14.36 3 13 C2.01 12.67 1.02 12.34 0 12 C0.33 13.98 0.66 15.96 1 18 C0.34 18 -0.32 18 -1 18 C-1.33 16.35 -1.66 14.7 -2 13 C-3.57273568 15.8424854 -3.57273568 15.8424854 -4 19 C-4.61875 19.103125 -5.2375 19.20625 -5.875 19.3125 C-8.36526484 19.87525373 -8.36526484 19.87525373 -10 23 C-10 22.34 -10 21.68 -10 21 C-10.66 20.67 -11.32 20.34 -12 20 C-12 18.35 -12 16.7 -12 15 C-11.01 15 -10.02 15 -9 15 C-9.66 13.68 -10.32 12.36 -11 11 C-9.02 11.495 -9.02 11.495 -7 12 C-7 12.66 -7 13.32 -7 14 C-6.34 13.67 -5.68 13.34 -5 13 C-5 12.34 -5 11.68 -5 11 C-5.99 10.34 -6.98 9.68 -8 9 C-8.99 9.495 -8.99 9.495 -10 10 C-10.33 9.01 -10.66 8.02 -11 7 C-8.69 7 -6.38 7 -4 7 C-3.67 7.66 -3.34 8.32 -3 9 C-2.01 6.03 -1.02 3.06 0 0 Z " fill="#D5472F" transform="translate(142,771)"/>
<path d="M0 0 C2.69725519 1.88807863 4.13216429 3.19824644 6 6 C6 6.66 6 7.32 6 8 C6.763125 7.814375 7.52625 7.62875 8.3125 7.4375 C11 7 11 7 14 8 C14 8.66 14 9.32 14 10 C10.41682042 10.08720919 6.83391433 10.14046112 3.25 10.1875 C2.23421875 10.21263672 1.2184375 10.23777344 0.171875 10.26367188 C-0.8078125 10.27333984 -1.7875 10.28300781 -2.796875 10.29296875 C-4.14797363 10.31653442 -4.14797363 10.31653442 -5.52636719 10.34057617 C-8.48621721 9.93305636 -9.85913449 9.05379533 -12 7 C-12 6.34 -12 5.68 -12 5 C-11.01 4.67 -10.02 4.34 -9 4 C-8.34 4.33 -7.68 4.66 -7 5 C-7 4.34 -7 3.68 -7 3 C-7.99 2.67 -8.98 2.34 -10 2 C-8.6078125 2.2784375 -8.6078125 2.2784375 -7.1875 2.5625 C-3.98656229 3.24123881 -3.98656229 3.24123881 -1 2 C-0.67 1.34 -0.34 0.68 0 0 Z " fill="#D34221" transform="translate(333,802)"/>
<path d="M0 0 C0.0825 0.61875 0.165 1.2375 0.25 1.875 C0.79994195 4.1765144 0.79994195 4.1765144 3 5.125 C3.66 5.41375 4.32 5.7025 5 6 C5.33 6.66 5.66 7.32 6 8 C5.67 8.66 5.34 9.32 5 10 C6.32 10 7.64 10 9 10 C9.33 10.99 9.66 11.98 10 13 C10 11.02 10 9.04 10 7 C11.65 7.33 13.3 7.66 15 8 C15 8.66 15 9.32 15 10 C15.99 9.67 16.98 9.34 18 9 C18 10.32 18 11.64 18 13 C17.34 13 16.68 13 16 13 C15.67 14.32 15.34 15.64 15 17 C14.01 16.67 13.02 16.34 12 16 C11.67 16.99 11.34 17.98 11 19 C10.34 18.34 9.68 17.68 9 17 C9 17.66 9 18.32 9 19 C6.36 18.67 3.72 18.34 1 18 C1 17.34 1 16.68 1 16 C0.34 15.67 -0.32 15.34 -1 15 C-0.01 15 0.98 15 2 15 C2 15.66 2 16.32 2 17 C4.0162233 16.28436734 4.0162233 16.28436734 6 15 C6.80528889 12.94999129 6.80528889 12.94999129 7 11 C6.01 11 5.02 11 4 11 C4 11.99 4 12.98 4 14 C3.34 14 2.68 14 2 14 C2.0928125 12.576875 2.0928125 12.576875 2.1875 11.125 C2.125625 10.09375 2.06375 9.0625 2 8 C1.01 7.34 0.02 6.68 -1 6 C-1.25 3.4375 -1.25 3.4375 -1 1 C-0.67 0.67 -0.34 0.34 0 0 Z " fill="#C93A20" transform="translate(267,772)"/>
<path d="M0 0 C4.75 0.75 4.75 0.75 7 3 C7.31884766 4.87939453 7.31884766 4.87939453 7.4140625 7.1328125 C7.45273437 7.93847656 7.49140625 8.74414062 7.53125 9.57421875 C7.5621875 10.41597656 7.593125 11.25773438 7.625 12.125 C7.66367187 12.97449219 7.70234375 13.82398438 7.7421875 14.69921875 C7.83656494 16.79911684 7.91937586 18.89952891 8 21 C4.04 21.495 4.04 21.495 0 22 C0.66 20.02 1.32 18.04 2 16 C2.99 16.33 3.98 16.66 5 17 C5.33 16.34 5.66 15.68 6 15 C5.34 14.67 4.68 14.34 4 14 C4.185625 13.29875 4.37125 12.5975 4.5625 11.875 C5.05156976 8.66111302 4.66231558 6.16439664 4 3 C3.67 3 3.34 3 3 3 C3 4.65 3 6.3 3 8 C1.35 8.33 -0.3 8.66 -2 9 C-1.67 10.32 -1.34 11.64 -1 13 C-2.32 13 -3.64 13 -5 13 C-4.34 12.67 -3.68 12.34 -3 12 C-3.33 9.36 -3.66 6.72 -4 4 C-2.68 3.34 -1.36 2.68 0 2 C0 1.34 0 0.68 0 0 Z " fill="#C73D22" transform="translate(354,768)"/>
<path d="M0 0 C1.85776765 3.13498292 2.20140476 5.37471432 2 9 C5.465 8.505 5.465 8.505 9 8 C9 8.99 9 9.98 9 11 C9.66 11 10.32 11 11 11 C11.33 9.68 11.66 8.36 12 7 C10.35 7 8.7 7 7 7 C6.67 6.01 6.34 5.02 6 4 C3.99983534 2.79117904 3.99983534 2.79117904 2 2 C3.43655854 1.91868537 4.8744483 1.86066441 6.3125 1.8125 C7.51326172 1.76029297 7.51326172 1.76029297 8.73828125 1.70703125 C11 2 11 2 12.75 3.25 C14.91141564 6.27598189 14.70081317 9.34992062 15 13 C10.545 13.495 10.545 13.495 6 14 C6.66 13.67 7.32 13.34 8 13 C8 12.34 8 11.68 8 11 C7.38125 11.185625 6.7625 11.37125 6.125 11.5625 C4 12 4 12 2 11 C2.33 11.66 2.66 12.32 3 13 C3.66 13 4.32 13 5 13 C5.33 13.99 5.66 14.98 6 16 C4.68 16.33 3.36 16.66 2 17 C1.71125 16.38125 1.4225 15.7625 1.125 15.125 C0.06279958 12.86674235 0.06279958 12.86674235 -2 11 C-1.67 10.484375 -1.34 9.96875 -1 9.4375 C0.32010877 6.21973488 0.13242105 3.4429472 0 0 Z " fill="#C13E14" transform="translate(6,776)"/>
<path d="M0 0 C1.98 0 3.96 0 6 0 C6.33 1.32 6.66 2.64 7 4 C5.906875 4.433125 4.81375 4.86625 3.6875 5.3125 C0.85677523 6.52323168 -0.95466608 7.66247552 -3 10 C-6.89585857 13.28713067 -8.89534191 13 -14 13 C-14 14.32 -14 15.64 -14 17 C-15.65 17 -17.3 17 -19 17 C-19.33 17.66 -19.66 18.32 -20 19 C-20.66 18.67 -21.32 18.34 -22 18 C-21.0625 15.625 -21.0625 15.625 -19 13 C-16.65616346 12.23561367 -14.39843877 11.81595134 -11.9609375 11.45703125 C-11.31382812 11.30621094 -10.66671875 11.15539062 -10 11 C-9.67 10.34 -9.34 9.68 -9 9 C-7 6 -7 6 -4.875 5.3125 C-4.25625 5.209375 -3.6375 5.10625 -3 5 C-3.33 3.68 -3.66 2.36 -4 1 C-2.68 1.33 -1.36 1.66 0 2 C0 1.34 0 0.68 0 0 Z " fill="#D5482E" transform="translate(320,771)"/>
<path d="M0 0 C0.66 0.33 1.32 0.66 2 1 C2.99 1.33 3.98 1.66 5 2 C5.79953138 5.28696233 6.09658936 6.71023192 5 10 C5.33 10.99 5.66 11.98 6 13 C6.66 13.33 7.32 13.66 8 14 C8.66 15.65 9.32 17.3 10 19 C4.39 19 -1.22 19 -7 19 C-7 18.34 -7 17.68 -7 17 C-4.69 17 -2.38 17 0 17 C0 15.35 0 13.7 0 12 C0.66 12 1.32 12 2 12 C2 11.01 2 10.02 2 9 C1.34 8.67 0.68 8.34 0 8 C0.66 6.68 1.32 5.36 2 4 C1.01 4.495 1.01 4.495 0 5 C0 3.35 0 1.7 0 0 Z M6 3 C6.99 3.495 6.99 3.495 8 4 C7.01 4.495 7.01 4.495 6 5 C6 4.34 6 3.68 6 3 Z " fill="#C13819" transform="translate(58,793)"/>
<path d="M0 0 C2.31 0 4.62 0 7 0 C6.67 1.65 6.34 3.3 6 5 C6.99 5.33 7.98 5.66 9 6 C8.34 7.98 7.68 9.96 7 12 C6.21625 12.0825 5.4325 12.165 4.625 12.25 C3.75875 12.4975 2.8925 12.745 2 13 C1.34 14.32 0.68 15.64 0 17 C0 11.39 0 5.78 0 0 Z " fill="#C0441E" transform="translate(0,687)"/>
<path d="M0 0 C1.32 0.66 2.64 1.32 4 2 C4 2.66 4 3.32 4 4 C3.34 4 2.68 4 2 4 C1.67 4.99 1.34 5.98 1 7 C0.67 5.35 0.34 3.7 0 2 C-0.16733157 3.4790916 -0.33384686 4.95827556 -0.5 6.4375 C-0.5928125 7.26121094 -0.685625 8.08492187 -0.78125 8.93359375 C-0.94456279 10.4639499 -0.94456279 10.4639499 -1 12 C-1 12.66 -1 13.32 -1 14 C-0.34 14 0.32 14 1 14 C1 13.34 1 12.68 1 12 C1.99 12.33 2.98 12.66 4 13 C3.67 13.99 3.34 14.98 3 16 C0.9375 16.6875 0.9375 16.6875 -1 17 C-1 16.34 -1 15.68 -1 15 C-3.31 14.34 -5.62 13.68 -8 13 C-4.875 3.625 -4.875 3.625 0 0 Z " fill="#D6462C" transform="translate(337,777)"/>
<path d="M0 0 C0.99 0.33 1.98 0.66 3 1 C3.16788373 2.62487471 3.33426787 4.24990442 3.5 5.875 C3.5928125 6.77992188 3.685625 7.68484375 3.78125 8.6171875 C4.06845359 11.74565519 4 14.85922803 4 18 C3.34 17.34 2.68 16.68 2 16 C1.01 15.67 0.02 15.34 -1 15 C-1 14.01 -1 13.02 -1 12 C-1.66 12 -2.32 12 -3 12 C-3.33 12.99 -3.66 13.98 -4 15 C-4.66 14.01 -5.32 13.02 -6 12 C-5.34 11.67 -4.68 11.34 -4 11 C-4 9.68 -4 8.36 -4 7 C-3.34 7 -2.68 7 -2 7 C-1.67 6.01 -1.34 5.02 -1 4 C-1 4.66 -1 5.32 -1 6 C-0.34 6 0.32 6 1 6 C0.67 4.02 0.34 2.04 0 0 Z " fill="#D1472C" transform="translate(356,770)"/>
<path d="M0 0 C1.10844919 3.32534757 0.84454356 5.62182575 0 9 C-0.66 8.34 -1.32 7.68 -2 7 C-2.33 7 -2.66 7 -3 7 C-2.67 8.32 -2.34 9.64 -2 11 C-2.66 11 -3.32 11 -4 11 C-4 14.3 -4 17.6 -4 21 C-5.32 21 -6.64 21 -8 21 C-8 19.35 -8 17.7 -8 16 C-7.67 16 -7.34 16 -7 16 C-7 12.04 -7 8.08 -7 4 C-6.01 3.67 -5.02 3.34 -4 3 C-3.67 2.34 -3.34 1.68 -3 1 C-2.01 0.67 -1.02 0.34 0 0 Z " fill="#B9361D" transform="translate(216,769)"/>
<path d="M0 0 C0.66 1.32 1.32 2.64 2 4 C2.66 3.01 3.32 2.02 4 1 C5.5625 2.1875 5.5625 2.1875 7 4 C6.6875 6.6875 6.6875 6.6875 6 9 C6.66 9 7.32 9 8 9 C8 8.01 8 7.02 8 6 C8.99 6 9.98 6 11 6 C11 7.65 11 9.3 11 11 C9.35 11.33 7.7 11.66 6 12 C6 11.34 6 10.68 6 10 C2.64541845 9.23477199 2.64541845 9.23477199 -1 9 C-2.96431405 10.29264699 -2.96431405 10.29264699 -4 12 C-3.67 10.02 -3.34 8.04 -3 6 C-1.68 6 -0.36 6 1 6 C0.67 5.01 0.34 4.02 0 3 C0 2.01 0 1.02 0 0 Z " fill="#D64A30" transform="translate(263,777)"/>
<path d="M0 0 C1.32 1.32 2.64 2.64 4 4 C3.67 4.99 3.34 5.98 3 7 C4.65 7.33 6.3 7.66 8 8 C5.24075815 9.80411967 4.11027897 10.0127245 0.75 9.625 C-0.61125 9.315625 -0.61125 9.315625 -2 9 C-2 7.68 -2 6.36 -2 5 C-2.144375 5.61875 -2.28875 6.2375 -2.4375 6.875 C-3 9 -3 9 -4 11 C-4.268125 10.401875 -4.53625 9.80375 -4.8125 9.1875 C-5.98493467 7.02775192 -7.19369282 5.64209744 -9 4 C-8.34 3.34 -7.68 2.68 -7 2 C-6.67 2.33 -6.34 2.66 -6 3 C-5.67 2.34 -5.34 1.68 -5 1 C-4.34 1 -3.68 1 -3 1 C-3 1.66 -3 2.32 -3 3 C-2.01 2.67 -1.02 2.34 0 2 C0 1.34 0 0.68 0 0 Z " fill="#CD4228" transform="translate(232,787)"/>
<path d="M0 0 C0.66 0.33 1.32 0.66 2 1 C2 1.66 2 2.32 2 3 C1.01 3.33 0.02 3.66 -1 4 C0.32 4 1.64 4 3 4 C3.66 3.34 4.32 2.68 5 2 C6.89865603 4.97180943 8.35455571 7.51460083 9 11 C7.35 11.33 5.7 11.66 4 12 C4 11.01 4 10.02 4 9 C2.68 9 1.36 9 0 9 C0 8.34 0 7.68 0 7 C-1.65 7.33 -3.3 7.66 -5 8 C-3.8141763 4.62496331 -2.72426311 2.35277269 0 0 Z " fill="#C63E21" transform="translate(55,778)"/>
<path d="M0 0 C2.475 0.99 2.475 0.99 5 2 C4.67 2.66 4.34 3.32 4 4 C4.763125 3.9175 5.52625 3.835 6.3125 3.75 C9 4 9 4 10.8125 6 C11.204375 6.66 11.59625 7.32 12 8 C11.34 8.66 10.68 9.32 10 10 C9.67 9.01 9.34 8.02 9 7 C8.34 7 7.68 7 7 7 C6.67 8.98 6.34 10.96 6 13 C4.68 13.33 3.36 13.66 2 14 C2.66 12.35 3.32 10.7 4 9 C2.35 8.67 0.7 8.34 -1 8 C-0.34 7.67 0.32 7.34 1 7 C0.67 4.69 0.34 2.38 0 0 Z " fill="#C3431B" transform="translate(22,741)"/>
<path d="M0 0 C1.65 0 3.3 0 5 0 C5 2.31 5 4.62 5 7 C3 8 1 9 -1 10 C-2.03145371 11.30915279 -3.03542166 12.64082143 -4 14 C-4.99 13.67 -5.98 13.34 -7 13 C-6.34 13 -5.68 13 -5 13 C-5.226875 12.278125 -5.45375 11.55625 -5.6875 10.8125 C-6.08398299 7.24415308 -5.04377787 5.86128901 -3 3 C-2.67 3.99 -2.34 4.98 -2 6 C-1.34 6 -0.68 6 0 6 C0 4.02 0 2.04 0 0 Z " fill="#C63E1D" transform="translate(203,727)"/>
<path d="M0 0 C0.66 0.33 1.32 0.66 2 1 C2 2.98 2 4.96 2 7 C4.64 7.33 7.28 7.66 10 8 C10.33 7.34 10.66 6.68 11 6 C11 6.99 11 7.98 11 9 C10.34 9 9.68 9 9 9 C8.67 9.66 8.34 10.32 8 11 C7.67 10.67 7.34 10.34 7 10 C4.66924071 10.95865509 4.66924071 10.95865509 3 14 C3 12.68 3 11.36 3 10 C2.67 11.65 2.34 13.3 2 15 C1.01 14.67 0.02 14.34 -1 14 C-1 13.34 -1 12.68 -1 12 C-1.66 11.34 -2.32 10.68 -3 10 C-2.34 9.67 -1.68 9.34 -1 9 C-1 7.68 -1 6.36 -1 5 C-0.67 4.01 -0.34 3.02 0 2 C-0.66 1.67 -1.32 1.34 -2 1 C-1.34 0.67 -0.68 0.34 0 0 Z " fill="#C4411E" transform="translate(86,722)"/>
<path d="M0 0 C2.56695636 0.39491636 4.67123994 0.83561997 7 2 C7 2.66 7 3.32 7 4 C8.32 4.33 9.64 4.66 11 5 C10.34 6.32 9.68 7.64 9 9 C7.68 9 6.36 9 5 9 C5 9.66 5 10.32 5 11 C4.34 11 3.68 11 3 11 C3.33 9.68 3.66 8.36 4 7 C3.01 6.67 2.02 6.34 1 6 C1 4.68 1 3.36 1 2 C0.34 1.67 -0.32 1.34 -1 1 C-0.67 0.67 -0.34 0.34 0 0 Z " fill="#D04022" transform="translate(329,790)"/>
<path d="M0 0 C-0.375 1.9375 -0.375 1.9375 -1 4 C-1.99 4.495 -1.99 4.495 -3 5 C-3.33 5.99 -3.66 6.98 -4 8 C-3.34 8 -2.68 8 -2 8 C-1.67 7.01 -1.34 6.02 -1 5 C-0.67 6.32 -0.34 7.64 0 9 C-1.98 9.66 -3.96 10.32 -6 11 C-6 10.01 -6 9.02 -6 8 C-6.99 7.67 -7.98 7.34 -9 7 C-8.1875 4.0625 -8.1875 4.0625 -7 1 C-4 0 -4 0 0 0 Z " fill="#D3462B" transform="translate(157,782)"/>
<path d="M0 0 C0.33 0.66 0.66 1.32 1 2 C1.66 2.268125 2.32 2.53625 3 2.8125 C5 4 5 4 5.75 6.625 C5.87375 7.800625 5.87375 7.800625 6 9 C6.33 7.68 6.66 6.36 7 5 C7.41176754 8.60296594 7.1535853 9.78402067 5 12.8125 C4.34 13.534375 3.68 14.25625 3 15 C0.03 14.505 0.03 14.505 -3 14 C-1.68 13.67 -0.36 13.34 1 13 C0.79375 12.05125 0.5875 11.1025 0.375 10.125 C0.25125 9.09375 0.1275 8.0625 0 7 C0.66 6.34 1.32 5.68 2 5 C1.34 4.67 0.68 4.34 0 4 C0 2.68 0 1.36 0 0 Z " fill="#D94A2F" transform="translate(123,776)"/>
<path d="M0 0 C2.04049422 1.2704964 4.05017465 2.59431196 6 4 C5.01 4.33 4.02 4.66 3 5 C3 5.66 3 6.32 3 7 C-0.26954202 6.43628586 -1.82575883 5.50037734 -4 3 C-4.99 4.32 -5.98 5.64 -7 7 C-7.33 6.34 -7.66 5.68 -8 5 C-7.67 4.01 -7.34 3.02 -7 2 C-7.99 1.67 -8.98 1.34 -10 1 C-6.20867469 -0.84150087 -4.02401912 -1.37405531 0 0 Z " fill="#CE462F" transform="translate(236,772)"/>
<path d="M0 0 C0.66 1.32 1.32 2.64 2 4 C2.66 4 3.32 4 4 4 C4 4.66 4 5.32 4 6 C3.34 6 2.68 6 2 6 C1.67 6.66 1.34 7.32 1 8 C0.01 8.495 0.01 8.495 -1 9 C-1.33 9.99 -1.66 10.98 -2 12 C-2.33 11.01 -2.66 10.02 -3 9 C-3.61875 9.185625 -4.2375 9.37125 -4.875 9.5625 C-7 10 -7 10 -9 9 C-8.67 8.01 -8.34 7.02 -8 6 C-6.02 6.495 -6.02 6.495 -4 7 C-4 6.01 -4 5.02 -4 4 C-3.34 4 -2.68 4 -2 4 C-1.34 2.68 -0.68 1.36 0 0 Z " fill="#D14832" transform="translate(241,760)"/>
<path d="M0 0 C2.55488699 2.55488699 2 3.53111409 2 7 C2.66 7.66 3.32 8.32 4 9 C2.1875 9.6875 2.1875 9.6875 0 10 C-2.48615558 8.15840327 -3.00156904 6.99529289 -4 4 C-4.99 4.33 -5.98 4.66 -7 5 C-6.67 3.68 -6.34 2.36 -6 1 C-3.125 0.375 -3.125 0.375 0 0 Z " fill="#CC4025" transform="translate(160,785)"/>
<path d="M0 0 C1.32 0.33 2.64 0.66 4 1 C4 1.66 4 2.32 4 3 C6.64 3.33 9.28 3.66 12 4 C11.67 2.68 11.34 1.36 11 0 C11.99 0.99 12.98 1.98 14 3 C14 2.01 14 1.02 14 0 C14.99 0.33 15.98 0.66 17 1 C17.33 1.99 17.66 2.98 18 4 C17.34 4 16.68 4 16 4 C15.67 5.65 15.34 7.3 15 9 C14.67 7.68 14.34 6.36 14 5 C12.02463255 5.34786708 12.02463255 5.34786708 10 6 C9.67 6.66 9.34 7.32 9 8 C9 7.34 9 6.68 9 6 C8.34 6 7.68 6 7 6 C7 5.34 7 4.68 7 4 C6.01 4.33 5.02 4.66 4 5 C3.67 4.01 3.34 3.02 3 2 C2.01 1.67 1.02 1.34 0 1 C0 0.67 0 0.34 0 0 Z " fill="#D6462B" transform="translate(264,787)"/>
<path d="M0 0 C0.33 1.32 0.66 2.64 1 4 C1.99 4 2.98 4 4 4 C4.12375 4.639375 4.2475 5.27875 4.375 5.9375 C4.58125 6.618125 4.7875 7.29875 5 8 C5.66 8.33 6.32 8.66 7 9 C6 10 6 10 3.1875 10.375 C0 10 0 10 -2.375 7.5 C-3.179375 6.2625 -3.179375 6.2625 -4 5 C-3.01 5 -2.02 5 -1 5 C-1.33 4.34 -1.66 3.68 -2 3 C-2.99 2.67 -3.98 2.34 -5 2 C-5 1.67 -5 1.34 -5 1 C-3.35 0.67 -1.7 0.34 0 0 Z " fill="#CA3D22" transform="translate(200,802)"/>
<path d="M0 0 C0.99 0.66 1.98 1.32 3 2 C4.32 2 5.64 2 7 2 C6.67 3.65 6.34 5.3 6 7 C2.71023192 8.09658936 1.28696233 7.79953138 -2 7 C-2.33 5.35 -2.66 3.7 -3 2 C-2.01 1.34 -1.02 0.68 0 0 Z " fill="#C53D21" transform="translate(192,741)"/>
<path d="M0 0 C0.33 0 0.66 0 1 0 C1.08226668 3.04386724 0.97608217 5.07175348 0 8 C-2.31 7.67 -4.62 7.34 -7 7 C-7.33 7.99 -7.66 8.98 -8 10 C-10.86724686 9.42655063 -11.8614515 9.1385485 -14 7 C-12.68 7 -11.36 7 -10 7 C-10 6.34 -10 5.68 -10 5 C-10.66 4.67 -11.32 4.34 -12 4 C-8.33198605 2.64147632 -6.50651662 3.52357195 -3 5 C-2.34 4.67 -1.68 4.34 -1 4 C-0.34786708 1.97536745 -0.34786708 1.97536745 0 0 Z " fill="#D94C33" transform="translate(88,772)"/>
<path d="M0 0 C1.32 0.33 2.64 0.66 4 1 C3.67 3.31 3.34 5.62 3 8 C2.34 8 1.68 8 1 8 C1 8.66 1 9.32 1 10 C0.34 10 -0.32 10 -1 10 C-1 10.66 -1 11.32 -1 12 C-1.99 12 -2.98 12 -4 12 C-4 10.68 -4 9.36 -4 8 C-3.34 7.67 -2.68 7.34 -2 7 C-1.61781233 5.34385343 -1.28604898 3.67542976 -1 2 C-0.67 1.34 -0.34 0.68 0 0 Z " fill="#D4472E" transform="translate(260,755)"/>
<path d="M0 0 C0.99 0 1.98 0 3 0 C3 0.66 3 1.32 3 2 C2.34 2 1.68 2 1 2 C1 2.66 1 3.32 1 4 C2.65 4 4.3 4 6 4 C4.375 7 4.375 7 2 10 C-1.25 10.375 -1.25 10.375 -4 10 C-3.67 8.68 -3.34 7.36 -3 6 C-2.34 6 -1.68 6 -1 6 C-0.67 5.34 -0.34 4.68 0 4 C-0.66 4 -1.32 4 -2 4 C-2 3.34 -2 2.68 -2 2 C-1.34 2 -0.68 2 0 2 C0 1.34 0 0.68 0 0 Z " fill="#D84A24" transform="translate(142,705)"/>
<path d="M0 0 C2.31 0.33 4.62 0.66 7 1 C7 1.66 7 2.32 7 3 C7.66 3 8.32 3 9 3 C9 4.32 9 5.64 9 7 C8.34 7 7.68 7 7 7 C7 6.34 7 5.68 7 5 C6.34 5 5.68 5 5 5 C4.67 6.32 4.34 7.64 4 9 C2.68 8.34 1.36 7.68 0 7 C0.66 5.02 1.32 3.04 2 1 C1.34 0.67 0.68 0.34 0 0 Z " fill="#CD3C1F" transform="translate(264,790)"/>
<path d="M0 0 C1.65 0.33 3.3 0.66 5 1 C4.67 1.99 4.34 2.98 4 4 C3.236875 4.12375 2.47375 4.2475 1.6875 4.375 C-1.20267136 4.88102792 -1.20267136 4.88102792 -4 7 C-4.25015873 10.58357241 -4.25015873 10.58357241 -4 14 C-6.4375 13.625 -6.4375 13.625 -9 13 C-9.33 12.34 -9.66 11.68 -10 11 C-8.68 11 -7.36 11 -6 11 C-6.33 10.34 -6.66 9.68 -7 9 C-6.5625 6.875 -6.5625 6.875 -6 5 C-4.68 4.67 -3.36 4.34 -2 4 C-2 3.34 -2 2.68 -2 2 C-1.34 2 -0.68 2 0 2 C0 1.34 0 0.68 0 0 Z " fill="#D54A30" transform="translate(355,765)"/>
<path d="M0 0 C0.66 0.33 1.32 0.66 2 1 C1.67 2.65 1.34 4.3 1 6 C1.99 6 2.98 6 4 6 C4 6.66 4 7.32 4 8 C0.25 9.125 0.25 9.125 -2 8 C-2 7.34 -2 6.68 -2 6 C-3.32 6 -4.64 6 -6 6 C-6.33 6.66 -6.66 7.32 -7 8 C-7 5 -7 5 -5.1875 2.875 C-3 1 -3 1 0 0 Z " fill="#D64325" transform="translate(94,792)"/>
<path d="M0 0 C0.33 0.66 0.66 1.32 1 2 C2.32 2 3.64 2 5 2 C5 2.66 5 3.32 5 4 C3.8553125 4.2165625 3.8553125 4.2165625 2.6875 4.4375 C-0.08172908 4.9632594 -0.08172908 4.9632594 -3 6 C-3.66 5.67 -4.32 5.34 -5 5 C-5 6.32 -5 7.64 -5 9 C-5.66 9 -6.32 9 -7 9 C-7 6.36 -7 3.72 -7 1 C-5.35 1 -3.7 1 -2 1 C-2 1.66 -2 2.32 -2 3 C-1.34 3 -0.68 3 0 3 C0 2.01 0 1.02 0 0 Z " fill="#C13D23" transform="translate(193,767)"/>
<path d="M0 0 C2 2 2 2 2.0625 4.3125 C0.49812085 8.26945901 -2.4608598 9.82846489 -6 12 C-6.66 11.67 -7.32 11.34 -8 11 C-7.01 10.01 -6.02 9.02 -5 8 C-5.66 6.68 -6.32 5.36 -7 4 C-5.02 3.67 -3.04 3.34 -1 3 C-0.67 2.01 -0.34 1.02 0 0 Z " fill="#D6492C" transform="translate(182,733)"/>
<path d="M0 0 C1 3 1 3 1 5 C1.99 5.66 2.98 6.32 4 7 C3.67 8.65 3.34 10.3 3 12 C-0.875 11.125 -0.875 11.125 -2 10 C-2.35897436 3.53846154 -2.35897436 3.53846154 0 0 Z " fill="#C34018" transform="translate(2,783)"/>
<path d="M0 0 C0 1.32 0 2.64 0 4 C-0.99 4.66 -1.98 5.32 -3 6 C-2.67 6.99 -2.34 7.98 -2 9 C-2.99 9 -3.98 9 -5 9 C-5.33 9.66 -5.66 10.32 -6 11 C-6 7.37 -6 3.74 -6 0 C-2 -1 -2 -1 0 0 Z " fill="#BC3D1D" transform="translate(6,665)"/>
<path d="M0 0 C0 3.69418201 -1.28179295 5.77836178 -3 9 C-4.65 9 -6.3 9 -8 9 C-8 7 -8 7 -6.5 5.375 C-6.005 4.92125 -5.51 4.4675 -5 4 C-7.475 3.01 -7.475 3.01 -10 2 C-10 1.67 -10 1.34 -10 1 C-9.36191406 1.01160156 -8.72382813 1.02320313 -8.06640625 1.03515625 C-7.24011719 1.04417969 -6.41382813 1.05320312 -5.5625 1.0625 C-4.32693359 1.07990234 -4.32693359 1.07990234 -3.06640625 1.09765625 C-1.00836062 1.23267348 -1.00836062 1.23267348 0 0 Z " fill="#CA3E18" transform="translate(187,713)"/>
<path d="M0 0 C1.98 0.99 3.96 1.98 6 3 C5.566875 3.350625 5.13375 3.70125 4.6875 4.0625 C2.31641544 6.78485635 1.3283165 9.64758216 0 13 C-0.33 13 -0.66 13 -1 13 C-1 10.36 -1 7.72 -1 5 C-0.34 5 0.32 5 1 5 C1 4.34 1 3.68 1 3 C0.01 3 -0.98 3 -2 3 C-1 1 -1 1 0 0 Z M-4 13 C-3.01 13.33 -2.02 13.66 -1 14 C-1.99 14.33 -2.98 14.66 -4 15 C-4 14.34 -4 13.68 -4 13 Z " fill="#BE421C" transform="translate(13,700)"/>
<path d="M0 0 C-0.99 0.495 -0.99 0.495 -2 1 C-1.34 1.33 -0.68 1.66 0 2 C0.33 2.66 0.66 3.32 1 4 C-0.98 4.33 -2.96 4.66 -5 5 C-5.66 4.01 -6.32 3.02 -7 2 C-10.06556598 1.26656572 -10.06556598 1.26656572 -13 1 C-8.34908395 -1.58384225 -4.74396472 -2.98694075 0 0 Z " fill="#C23F1C" transform="translate(309,730)"/>
<path d="M0 0 C0.33 0.66 0.66 1.32 1 2 C1.66 2 2.32 2 3 2 C3 2.99 3 3.98 3 5 C3.66 5.33 4.32 5.66 5 6 C5.33 5.01 5.66 4.02 6 3 C7.32 3.33 8.64 3.66 10 4 C9.67 4.99 9.34 5.98 9 7 C2.375 8.125 2.375 8.125 -1 7 C-0.67 4.69 -0.34 2.38 0 0 Z " fill="#C34619" transform="translate(62,671)"/>
<path d="M0 0 C2.475 0.99 2.475 0.99 5 2 C5.33 1.34 5.66 0.68 6 0 C6.66 0 7.32 0 8 0 C8.33 1.65 8.66 3.3 9 5 C5.7 5.66 2.4 6.32 -1 7 C-0.67 5.68 -0.34 4.36 0 3 C-0.33 2.67 -0.66 2.34 -1 2 C-0.67 1.34 -0.34 0.68 0 0 Z " fill="#BD3115" transform="translate(179,793)"/>
<path d="M0 0 C3.125 -0.1875 3.125 -0.1875 6 0 C5.67 2.31 5.34 4.62 5 7 C2.625 6.6875 2.625 6.6875 0 6 C-0.66 5.01 -1.32 4.02 -2 3 C-1.34 2.01 -0.68 1.02 0 0 Z " fill="#C63F1E" transform="translate(268,733)"/>
<path d="M0 0 C-1.375 2 -1.375 2 -3 4 C-3.66 4 -4.32 4 -5 4 C-5.33 4.66 -5.66 5.32 -6 6 C-6 5.01 -6 4.02 -6 3 C-9.12197478 4.3089572 -9.12197478 4.3089572 -11 7 C-12.32 6.67 -13.64 6.34 -15 6 C-14.01 6 -13.02 6 -12 6 C-11.731875 5.401875 -11.46375 4.80375 -11.1875 4.1875 C-8.16604045 -1.37834653 -6.22193747 -1.29134551 0 0 Z " fill="#D84A24" transform="translate(184,716)"/>
<path d="M0 0 C0.99 0.33 1.98 0.66 3 1 C2.67 1.66 2.34 2.32 2 3 C3.98 3.66 5.96 4.32 8 5 C8 5.99 8 6.98 8 8 C7.01 8 6.02 8 5 8 C4.67 8.66 4.34 9.32 4 10 C3.67 9.01 3.34 8.02 3 7 C2.01 6.67 1.02 6.34 0 6 C-0.75 4.0625 -0.75 4.0625 -1 2 C-0.67 1.34 -0.34 0.68 0 0 Z " fill="#D13719" transform="translate(303,800)"/>
<path d="M0 0 C1.0625 1.8125 1.0625 1.8125 2 4 C1.67 4.99 1.34 5.98 1 7 C1.99 7.66 2.98 8.32 4 9 C1.36 9 -1.28 9 -4 9 C-4.33 9.66 -4.66 10.32 -5 11 C-6.32 10.01 -7.64 9.02 -9 8 C-3.25 6.875 -3.25 6.875 -1 8 C-1.20625 7.05125 -1.4125 6.1025 -1.625 5.125 C-1.74875 4.09375 -1.8725 3.0625 -2 2 C-1.34 1.34 -0.68 0.68 0 0 Z " fill="#D74D2B" transform="translate(124,725)"/>
<path d="M0 0 C2.33944736 0.28730055 4.6739143 0.61936779 7 1 C7 1.66 7 2.32 7 3 C5.68 3 4.36 3 3 3 C4.06645115 4.29633621 4.06645115 4.29633621 6.5625 4.0625 C7.366875 4.041875 8.17125 4.02125 9 4 C9.33 4.66 9.66 5.32 10 6 C9.01 6.33 8.02 6.66 7 7 C6.67 6.67 6.34 6.34 6 6 C3.94603274 6.40929986 3.94603274 6.40929986 2 7 C1.814375 6.071875 1.814375 6.071875 1.625 5.125 C1.12802644 2.80879168 1.12802644 2.80879168 -1 1 C-0.67 0.67 -0.34 0.34 0 0 Z " fill="#C33516" transform="translate(337,804)"/>
<path d="M0 0 C0.268125 0.639375 0.53625 1.27875 0.8125 1.9375 C1.88667752 4.33131686 1.88667752 4.33131686 5 5 C0.25 7 0.25 7 -2 7 C-2.33 7.99 -2.66 8.98 -3 10 C-3.99 9.67 -4.98 9.34 -6 9 C-4.16172132 5.84866512 -2.24027294 2.88035092 0 0 Z " fill="#C6381E" transform="translate(109,778)"/>
<path d="M0 0 C1.32 0 2.64 0 4 0 C4.33 0.66 4.66 1.32 5 2 C5.66 2 6.32 2 7 2 C7 2.99 7 3.98 7 5 C2.545 5.495 2.545 5.495 -2 6 C-2.66 5.01 -3.32 4.02 -4 3 C-1 2 -1 2 1 2 C0.67 1.34 0.34 0.68 0 0 Z " fill="#C73D1B" transform="translate(30,779)"/>
<path d="M0 0 C1.65 0.33 3.3 0.66 5 1 C4.01 1.495 4.01 1.495 3 2 C3.33 3.65 3.66 5.3 4 7 C3.01 7.66 2.02 8.32 1 9 C-0.5 7.625 -0.5 7.625 -2 6 C-2 5.34 -2 4.68 -2 4 C-1.34 4 -0.68 4 0 4 C0.33 3.34 0.66 2.68 1 2 C0.67 1.67 0.34 1.34 0 1 C0 0.67 0 0.34 0 0 Z " fill="#BA3720" transform="translate(217,775)"/>
<path d="M0 0 C0.99 0.66 1.98 1.32 3 2 C3 2.66 3 3.32 3 4 C3.32380126 5.33568021 3.65657551 6.66923011 4 8 C4 8.33 4 8.66 4 9 C2.35 9 0.7 9 -1 9 C-2.0625 6.625 -2.0625 6.625 -3 4 C-2.67 3.34 -2.34 2.68 -2 2 C-1.34 2 -0.68 2 0 2 C0 1.34 0 0.68 0 0 Z " fill="#C63E1E" transform="translate(277,733)"/>
<path d="M0 0 C0.9590625 0.2784375 0.9590625 0.2784375 1.9375 0.5625 C2.9584375 0.7790625 2.9584375 0.7790625 4 1 C4.33 0.67 4.66 0.34 5 0 C5.66 0 6.32 0 7 0 C8.125 3.75 8.125 3.75 7 6 C3.9375 6.625 3.9375 6.625 1 7 C1 5.68 1 4.36 1 3 C0.34 2.67 -0.32 2.34 -1 2 C-0.67 1.34 -0.34 0.68 0 0 Z " fill="#C14119" transform="translate(19,735)"/>
<path d="M0 0 C0.99 0.33 1.98 0.66 3 1 C3.33 3.31 3.66 5.62 4 8 C2.35 8 0.7 8 -1 8 C-1 6.68 -1 5.36 -1 4 C-1.66 4 -2.32 4 -3 4 C-3.33 3.01 -3.66 2.02 -4 1 C-2.68 1.33 -1.36 1.66 0 2 C0 1.34 0 0.68 0 0 Z " fill="#C4421E" transform="translate(336,727)"/>
<path d="M0 0 C0.99 0.33 1.98 0.66 3 1 C3 1.66 3 2.32 3 3 C3.66 3 4.32 3 5 3 C5 4.65 5 6.3 5 8 C2.69 7.67 0.38 7.34 -2 7 C-2 6.01 -2 5.02 -2 4 C-1.34 4 -0.68 4 0 4 C0 2.68 0 1.36 0 0 Z " fill="#C3461A" transform="translate(341,676)"/>
<path d="M0 0 C1.98 0.495 1.98 0.495 4 1 C4 5 4 5 2.625 6.5625 C2.08875 7.036875 1.5525 7.51125 1 8 C0.34 8.99 -0.32 9.98 -1 11 C-0.67 7.37 -0.34 3.74 0 0 Z " fill="#C1471A" transform="translate(51,669)"/>
<path d="M0 0 C0.33 0 0.66 0 1 0 C1 1.98 1 3.96 1 6 C-0.32 6.33 -1.64 6.66 -3 7 C-3.33 8.65 -3.66 10.3 -4 12 C-5.32 11.67 -6.64 11.34 -8 11 C-7.4376049 7.73810844 -6.5859495 6.08865152 -4 4 C-3.01 3.67 -2.02 3.34 -1 3 C-0.67 2.01 -0.34 1.02 0 0 Z " fill="#C4361B" transform="translate(258,783)"/>
<path d="M0 0 C2.31 0.66 4.62 1.32 7 2 C7.66 1.34 8.32 0.68 9 0 C9.99 0.99 10.98 1.98 12 3 C10.329375 3.433125 10.329375 3.433125 8.625 3.875 C4.99708908 4.69241329 4.99708908 4.69241329 3 7 C2.34 6.67 1.68 6.34 1 6 C1 4.68 1 3.36 1 2 C0.67 1.34 0.34 0.68 0 0 Z " fill="#C23615" transform="translate(75,797)"/>
<path d="M0 0 C0.33 0 0.66 0 1 0 C1 1.65 1 3.3 1 5 C1.66 5 2.32 5 3 5 C3 5.66 3 6.32 3 7 C1.35 7.33 -0.3 7.66 -2 8 C-2 7.34 -2 6.68 -2 6 C-2.99 5.67 -3.98 5.34 -5 5 C-5 4.34 -5 3.68 -5 3 C-3.35 2.67 -1.7 2.34 0 2 C0 1.34 0 0.68 0 0 Z " fill="#CD4628" transform="translate(353,792)"/>
<path d="M0 0 C2 1.3125 2 1.3125 4 3 C4 3.99 4 4.98 4 6 C2.02 6.99 2.02 6.99 0 8 C-0.66 7.34 -1.32 6.68 -2 6 C-1.64644564 3.73725212 -1.02455574 2.04911148 0 0 Z " fill="#C43B1E" transform="translate(365,778)"/>
<path d="M0 0 C0.66 0.33 1.32 0.66 2 1 C0.6875 3 0.6875 3 -1 5 C-1.99 5 -2.98 5 -4 5 C-4 5.66 -4 6.32 -4 7 C-4.99 6.67 -5.98 6.34 -7 6 C-7.6875 3.9375 -7.6875 3.9375 -8 2 C-5.36 2 -2.72 2 0 2 C0 1.34 0 0.68 0 0 Z " fill="#D5472A" transform="translate(255,738)"/>
<path d="M0 0 C2.97 0 5.94 0 9 0 C8.34 1.32 7.68 2.64 7 4 C3.70572419 5.09809194 2.33588828 5.11196276 -1 4 C-0.67 2.68 -0.34 1.36 0 0 Z " fill="#C73F1D" transform="translate(217,726)"/>
<path d="M0 0 C0 3.41761705 -0.75938546 5.82954062 -2 9 C-2.99 9.495 -2.99 9.495 -4 10 C-4 9.01 -4 8.02 -4 7 C-4.66 7 -5.32 7 -6 7 C-6.33 6.01 -6.66 5.02 -7 4 C-6.01 4 -5.02 4 -4 4 C-4.33 3.34 -4.66 2.68 -5 2 C-3.35 1.34 -1.7 0.68 0 0 Z " fill="#CC3A20" transform="translate(325,784)"/>
<path d="M0 0 C0.66 0.66 1.32 1.32 2 2 C2.66 1.67 3.32 1.34 4 1 C4.66 1.33 5.32 1.66 6 2 C5.67 2.66 5.34 3.32 5 4 C4.67 4.99 4.34 5.98 4 7 C2.0625 7.75 2.0625 7.75 0 8 C-0.66 7.67 -1.32 7.34 -2 7 C-1.67 6.34 -1.34 5.68 -1 5 C-0.34 5.33 0.32 5.66 1 6 C0.2575 5.319375 0.2575 5.319375 -0.5 4.625 C-2 3 -2 3 -2 1 C-1.34 0.67 -0.68 0.34 0 0 Z " fill="#C8462C" transform="translate(213,774)"/>
<path d="M0 0 C1.32 0.33 2.64 0.66 4 1 C3.67 2.98 3.34 4.96 3 7 C1.35 7 -0.3 7 -2 7 C-1.42415568 4.61435923 -0.77772405 2.33317216 0 0 Z " fill="#D1482D" transform="translate(321,757)"/>
<path d="M0 0 C0.99 0.33 1.98 0.66 3 1 C3 1.66 3 2.32 3 3 C3.66 3 4.32 3 5 3 C5 2.01 5 1.02 5 0 C5.66 0 6.32 0 7 0 C8.125 3.75 8.125 3.75 7 6 C5.35 6 3.7 6 2 6 C2 5.34 2 4.68 2 4 C1.34 3.67 0.68 3.34 0 3 C0 2.01 0 1.02 0 0 Z " fill="#C2401E" transform="translate(326,731)"/>
<path d="M0 0 C1.98 0 3.96 0 6 0 C5.5359375 0.8353125 5.5359375 0.8353125 5.0625 1.6875 C3.94238179 4.12540433 3.43962636 6.36224186 3 9 C2.01 9.33 1.02 9.66 0 10 C-0.66 9.01 -1.32 8.02 -2 7 C-1.01 7 -0.02 7 1 7 C1.33 5.35 1.66 3.7 2 2 C1.34 2 0.68 2 0 2 C0 1.34 0 0.68 0 0 Z " fill="#C93A20" transform="translate(328,780)"/>
<path d="M0 0 C1.65 1.65 3.3 3.3 5 5 C4.67 5.66 4.34 6.32 4 7 C1.525 6.01 1.525 6.01 -1 5 C-1.33 5.99 -1.66 6.98 -2 8 C-2.66 6.35 -3.32 4.7 -4 3 C-3.01 2.67 -2.02 2.34 -1 2 C-0.67 1.34 -0.34 0.68 0 0 Z " fill="#C0351E" transform="translate(228,784)"/>
<path d="M0 0 C1.85776765 3.13498292 2.20140476 5.37471432 2 9 C1.01 9.495 1.01 9.495 0 10 C-0.66 10.99 -1.32 11.98 -2 13 C-2.33 11.35 -2.66 9.7 -3 8 C-2.34 7.67 -1.68 7.34 -1 7 C-0.59270772 4.67843403 -0.25561323 2.3431213 0 0 Z " fill="#D74C30" transform="translate(366,768)"/>
<path d="M0 0 C1.5 1.3125 1.5 1.3125 3 3 C3 3.99 3 4.98 3 6 C0.69 6.33 -1.62 6.66 -4 7 C-3.01 6.67 -2.02 6.34 -1 6 C-1.66 4.35 -2.32 2.7 -3 1 C-2.01 0.67 -1.02 0.34 0 0 Z " fill="#C0451C" transform="translate(4,735)"/>
<path d="M0 0 C2.475 0.495 2.475 0.495 5 1 C5.33 2.65 5.66 4.3 6 6 C4.35 6.33 2.7 6.66 1 7 C1 6.34 1 5.68 1 5 C1.66 5 2.32 5 3 5 C3 4.34 3 3.68 3 3 C2.01 3 1.02 3 0 3 C0 2.01 0 1.02 0 0 Z " fill="#C34619" transform="translate(44,681)"/>
<path d="M0 0 C1.20628008 2.33214148 2.1654738 4.49642139 3 7 C0.69 7 -1.62 7 -4 7 C-3.43628586 3.73045798 -2.50037734 2.17424117 0 0 Z " fill="#BB3612" transform="translate(16,805)"/>
<path d="M0 0 C1.32 0 2.64 0 4 0 C4.66 2.31 5.32 4.62 6 7 C5.01 7 4.02 7 3 7 C2.566875 6.0409375 2.566875 6.0409375 2.125 5.0625 C1.17176549 2.84793921 1.17176549 2.84793921 -1 2 C-0.67 1.34 -0.34 0.68 0 0 Z " fill="#C9391E" transform="translate(126,786)"/>
<path d="M0 0 C-0.33 1.98 -0.66 3.96 -1 6 C-1.99 6.33 -2.98 6.66 -4 7 C-4 5.68 -4 4.36 -4 3 C-5.32 2.67 -6.64 2.34 -8 2 C-4.91190305 0.23537317 -3.76687864 0 0 0 Z " fill="#D84A31" transform="translate(100,772)"/>
<path d="M0 0 C0.99 0 1.98 0 3 0 C3 1.65 3 3.3 3 5 C1.35 5.33 -0.3 5.66 -2 6 C-2 5.34 -2 4.68 -2 4 C-2.99 3.67 -3.98 3.34 -5 3 C-3.35 3 -1.7 3 0 3 C0 2.01 0 1.02 0 0 Z " fill="#D2432A" transform="translate(271,783)"/>
<path d="M0 0 C1.32 0.33 2.64 0.66 4 1 C3.67 2.65 3.34 4.3 3 6 C2.67 5.34 2.34 4.68 2 4 C-0.31 4.33 -2.62 4.66 -5 5 C-4.34 4.01 -3.68 3.02 -3 2 C-2.01 2.33 -1.02 2.66 0 3 C0 2.01 0 1.02 0 0 Z " fill="#D24A2F" transform="translate(155,776)"/>
<path d="M0 0 C1.4540625 0.0309375 1.4540625 0.0309375 2.9375 0.0625 C2.9375 1.7125 2.9375 3.3625 2.9375 5.0625 C0.02232708 3.98848892 -1.84060176 3.28439824 -4.0625 1.0625 C-3.0625 0.0625 -3.0625 0.0625 0 0 Z " fill="#C73E1D" transform="translate(120.0625,727.9375)"/>
<path d="M0 0 C2.6875 1.4375 2.6875 1.4375 5 3 C4.01 3.495 4.01 3.495 3 4 C3 4.66 3 5.32 3 6 C1.35 5.67 -0.3 5.34 -2 5 C-1.67 4.34 -1.34 3.68 -1 3 C-1.66 2.34 -2.32 1.68 -3 1 C-2.01 0.67 -1.02 0.34 0 0 Z " fill="#C14122" transform="translate(189,676)"/>
<path d="M0 0 C2.31 0.33 4.62 0.66 7 1 C4.44008376 3.01136276 1.95409701 4.62845496 -1 6 C-1.66 5.34 -2.32 4.68 -3 4 C-2.34 3.67 -1.68 3.34 -1 3 C-0.67 2.01 -0.34 1.02 0 0 Z " fill="#CD4C2F" transform="translate(245,673)"/>
<path d="M0 0 C0.33 0.66 0.66 1.32 1 2 C1.99 2.66 2.98 3.32 4 4 C2.35 5.32 0.7 6.64 -1 8 C-1.66 7.34 -2.32 6.68 -3 6 C-1.125 1.125 -1.125 1.125 0 0 Z " fill="#D6492E" transform="translate(321,781)"/>
<path d="M0 0 C1.35439668 2.70879335 1.06501451 5.00933268 1 8 C0.01 8.33 -0.98 8.66 -2 9 C-2 8.34 -2 7.68 -2 7 C-2.66 6.67 -3.32 6.34 -4 6 C-3.0022242 3.00667261 -2.2477975 2.05233685 0 0 Z " fill="#C2401F" transform="translate(74,728)"/>
<path d="M0 0 C0.99 0 1.98 0 3 0 C3.33 1.32 3.66 2.64 4 4 C-0.625 6.125 -0.625 6.125 -4 5 C-3.34 5 -2.68 5 -2 5 C-1.34 3.35 -0.68 1.7 0 0 Z " fill="#C0421B" transform="translate(48,707)"/>
<path d="M0 0 C0.33 1.32 0.66 2.64 1 4 C1.99 3.67 2.98 3.34 4 3 C4 3.99 4 4.98 4 6 C1.69 6.33 -0.62 6.66 -3 7 C-2.67 5.68 -2.34 4.36 -2 3 C-1.34 3 -0.68 3 0 3 C0 2.01 0 1.02 0 0 Z " fill="#C64322" transform="translate(36,805)"/>
<path d="M0 0 C0.2475 0.61875 0.495 1.2375 0.75 1.875 C2.20628639 4.35068687 3.37812506 4.95125002 6 6 C4.68 6 3.36 6 2 6 C1.67 7.98 1.34 9.96 1 12 C0.34 11.34 -0.32 10.68 -1 10 C-0.71202981 8.65613912 -0.36784131 7.3242287 0 6 C0.03845443 4.00036972 0.04544281 1.99948367 0 0 Z " fill="#C83519" transform="translate(118,785)"/>
<path d="M0 0 C-0.66 1.32 -1.32 2.64 -2 4 C-3.65 4 -5.3 4 -7 4 C-7.33 3.01 -7.66 2.02 -8 1 C-5.29120665 -0.35439668 -2.99066732 -0.06501451 0 0 Z " fill="#C93D23" transform="translate(71,783)"/>
<path d="M0 0 C1.98 0.495 1.98 0.495 4 1 C4 2.98 4 4.96 4 7 C3.34 6.67 2.68 6.34 2 6 C2.33 5.34 2.66 4.68 3 4 C1.68 4 0.36 4 -1 4 C-0.67 2.68 -0.34 1.36 0 0 Z " fill="#D6462D" transform="translate(273,778)"/>
<path d="M0 0 C2.64 0.33 5.28 0.66 8 1 C8 1.99 8 2.98 8 4 C2.25 4.125 2.25 4.125 0 3 C0 2.01 0 1.02 0 0 Z " fill="#CA3C23" transform="translate(273,775)"/>
<path d="M0 0 C0.66 0.66 1.32 1.32 2 2 C1.1875 3.9375 1.1875 3.9375 0 6 C-0.99 6.33 -1.98 6.66 -3 7 C-3.66 5.68 -4.32 4.36 -5 3 C-4.360625 2.87625 -3.72125 2.7525 -3.0625 2.625 C-2.0415625 2.315625 -2.0415625 2.315625 -1 2 C-0.67 1.34 -0.34 0.68 0 0 Z " fill="#D5482E" transform="translate(127,769)"/>
<path d="M0 0 C-0.33 1.65 -0.66 3.3 -1 5 C-0.34 5.33 0.32 5.66 1 6 C-1.31 5.67 -3.62 5.34 -6 5 C-6 4.34 -6 3.68 -6 3 C-2.53846154 0 -2.53846154 0 0 0 Z " fill="#D24930" transform="translate(251,763)"/>
<path d="M0 0 C0.66 0.33 1.32 0.66 2 1 C1.67 2.32 1.34 3.64 1 5 C2.32 5 3.64 5 5 5 C5 5.66 5 6.32 5 7 C3.02 7 1.04 7 -1 7 C-1 4.37886292 -0.68707555 2.49064888 0 0 Z " fill="#D2411E" transform="translate(149,723)"/>
<path d="M0 0 C1.98 0 3.96 0 6 0 C6.33 0.66 6.66 1.32 7 2 C6.01 2 5.02 2 4 2 C3.01 3.485 3.01 3.485 2 5 C1.01 4.01 0.02 3.02 -1 2 C-0.67 1.34 -0.34 0.68 0 0 Z " fill="#D2432B" transform="translate(175,795)"/>
<path d="M0 0 C1.98 0.495 1.98 0.495 4 1 C4 3.31 4 5.62 4 8 C0 3.375 0 3.375 0 0 Z " fill="#DB472D" transform="translate(85,786)"/>
<path d="M0 0 C1.2065625 0.0309375 1.2065625 0.0309375 2.4375 0.0625 C1.4475 0.3925 0.4575 0.7225 -0.5625 1.0625 C-0.8925 2.0525 -1.2225 3.0425 -1.5625 4.0625 C-2.5525 4.0625 -3.5425 4.0625 -4.5625 4.0625 C-4.5625 4.7225 -4.5625 5.3825 -4.5625 6.0625 C-5.2225 6.0625 -5.8825 6.0625 -6.5625 6.0625 C-6.5625 5.0725 -6.5625 4.0825 -6.5625 3.0625 C-5.5725 2.4025 -4.5825 1.7425 -3.5625 1.0625 C-2.5625 0.0625 -2.5625 0.0625 0 0 Z " fill="#CA4229" transform="translate(228.5625,782.9375)"/>
<path d="M0 0 C2.475 0.495 2.475 0.495 5 1 C5.33 2.32 5.66 3.64 6 5 C4.35 5.66 2.7 6.32 1 7 C1 6.34 1 5.68 1 5 C1.66 5 2.32 5 3 5 C2.67 4.67 2.34 4.34 2 4 C1.31731862 2.67479497 0.6492959 1.34187818 0 0 Z " fill="#D14933" transform="translate(178,767)"/>
<path d="M0 0 C0.99 0.33 1.98 0.66 3 1 C2.67 1.66 2.34 2.32 2 3 C2 3.33 2 3.66 2 4 C2 4.99 2 5.98 2 7 C1.01 7 0.02 7 -1 7 C-1.04254356 5.00045254 -1.04080783 2.99958364 -1 1 C-0.67 0.67 -0.34 0.34 0 0 Z " fill="#CB5025" transform="translate(1,734)"/>
<path d="M0 0 C0.66 1.32 1.32 2.64 2 4 C1.34 4.66 0.68 5.32 0 6 C-0.33 5.34 -0.66 4.68 -1 4 C-1.99 4 -2.98 4 -4 4 C-4.33 3.01 -4.66 2.02 -5 1 C-3 0 -3 0 0 0 Z " fill="#BE431B" transform="translate(12,726)"/>
<path d="M0 0 C3 0 3 0 5 1 C5 1.99 5 2.98 5 4 C3.02 4 1.04 4 -1 4 C-0.67 2.68 -0.34 1.36 0 0 Z " fill="#BF3115" transform="translate(233,805)"/>
<path d="M0 0 C0.99 0.33 1.98 0.66 3 1 C3 1.66 3 2.32 3 3 C3.66 3.33 4.32 3.66 5 4 C4.34 4 3.68 4 3 4 C2.67 4.66 2.34 5.32 2 6 C0 3 0 3 0 0 Z M0 5 C0.99 5.495 0.99 5.495 2 6 C1.67 6.66 1.34 7.32 1 8 C0.67 7.01 0.34 6.02 0 5 Z " fill="#CB4225" transform="translate(52,796)"/>
<path d="M0 0 C1.98 0 3.96 0 6 0 C6 1.65 6 3.3 6 5 C4.68 5 3.36 5 2 5 C2 4.01 2 3.02 2 2 C1.34 1.34 0.68 0.68 0 0 Z " fill="#D1442B" transform="translate(162,795)"/>
<path d="M0 0 C0.33 0.66 0.66 1.32 1 2 C1.66 2 2.32 2 3 2 C2.67 2.66 2.34 3.32 2 4 C0.35 3.67 -1.3 3.34 -3 3 C-3.33 3.99 -3.66 4.98 -4 6 C-4.33 5.01 -4.66 4.02 -5 3 C-3 1 -3 1 0 0 Z " fill="#CF4229" transform="translate(176,789)"/>
<path d="M0 0 C3 3.75 3 3.75 3 6 C1.35 6 -0.3 6 -2 6 C-2 3 -2 3 0 0 Z " fill="#C4401B" transform="translate(26,772)"/>
<path d="M0 0 C2.64 0.33 5.28 0.66 8 1 C8 1.66 8 2.32 8 3 C5.69 3.33 3.38 3.66 1 4 C0.67 2.68 0.34 1.36 0 0 Z " fill="#CA462F" transform="translate(216,771)"/>
<path d="M0 0 C1.32 0 2.64 0 4 0 C4 0.66 4 1.32 4 2 C5.32 2.33 6.64 2.66 8 3 C4.71023192 4.09658936 3.28696233 3.79953138 0 3 C0 2.01 0 1.02 0 0 Z " fill="#C33A23" transform="translate(176,761)"/>
<path d="M0 0 C1.32 0 2.64 0 4 0 C3.625 1.9375 3.625 1.9375 3 4 C2.01 4.495 2.01 4.495 1 5 C-1.125 4.0625 -1.125 4.0625 -3 3 C-2.01 2.67 -1.02 2.34 0 2 C0 1.34 0 0.68 0 0 Z " fill="#D04F2B" transform="translate(25,738)"/>
<path d="M0 0 C2.97 0.495 2.97 0.495 6 1 C6 1.66 6 2.32 6 3 C5.34 3 4.68 3 4 3 C4.33 3.99 4.66 4.98 5 6 C4.34 6 3.68 6 3 6 C0 2.53846154 0 2.53846154 0 0 Z " fill="#DB4A2B" transform="translate(159,732)"/>
<path d="M0 0 C0.66 0 1.32 0 2 0 C2 0.66 2 1.32 2 2 C1.34 2 0.68 2 0 2 C0 2.66 0 3.32 0 4 C0.66 4 1.32 4 2 4 C2 4.66 2 5.32 2 6 C1.01 6.33 0.02 6.66 -1 7 C-1.99 6.34 -2.98 5.68 -4 5 C-3.01 5 -2.02 5 -1 5 C-1.33 4.01 -1.66 3.02 -2 2 C-1.34 1.34 -0.68 0.68 0 0 Z " fill="#D94B29" transform="translate(161,705)"/>
<path d="M0 0 C0.66 0.33 1.32 0.66 2 1 C1.6875 2.875 1.6875 2.875 1 5 C0.01 5.66 -0.98 6.32 -2 7 C-2.33 5.02 -2.66 3.04 -3 1 C-2.01 0.67 -1.02 0.34 0 0 Z " fill="#BC421B" transform="translate(14,689)"/>
<path d="M0 0 C2.50357861 0.8345262 4.66785852 1.79371992 7 3 C6.34 3.66 5.68 4.32 5 5 C2.875 4.625 2.875 4.625 1 4 C0.67 2.68 0.34 1.36 0 0 Z " fill="#C3421E" transform="translate(17,646)"/>
<path d="M0 0 C1.32 0.33 2.64 0.66 4 1 C4 1.66 4 2.32 4 3 C1.69 3.33 -0.62 3.66 -3 4 C-3.33 3.34 -3.66 2.68 -4 2 C-2.68 2 -1.36 2 0 2 C0 1.34 0 0.68 0 0 Z " fill="#D14726" transform="translate(350,806)"/>
<path d="M0 0 C1.5 1.3125 1.5 1.3125 3 3 C3 3.99 3 4.98 3 6 C2.01 6.33 1.02 6.66 0 7 C-0.93423645 3.98968256 -1.04449911 3.13349732 0 0 Z " fill="#DB4123" transform="translate(293,804)"/>
<path d="M0 0 C0.66 0.66 1.32 1.32 2 2 C2.99 2.33 3.98 2.66 5 3 C5 3.66 5 4.32 5 5 C3.1875 5.6875 3.1875 5.6875 1 6 C-0.75 4.5625 -0.75 4.5625 -2 3 C-1.34 2.67 -0.68 2.34 0 2 C0 1.34 0 0.68 0 0 Z " fill="#DF4A2D" transform="translate(93,795)"/>
<path d="M0 0 C0.66 0.33 1.32 0.66 2 1 C2.99 0.67 3.98 0.34 5 0 C4.34 1.98 3.68 3.96 3 6 C2.67 5.34 2.34 4.68 2 4 C1.01 3.67 0.02 3.34 -1 3 C-0.67 2.01 -0.34 1.02 0 0 Z " fill="#C94625" transform="translate(43,796)"/>
<path d="M0 0 C0.33 0.66 0.66 1.32 1 2 C3.01669827 3.13350534 3.01669827 3.13350534 5 4 C3.1875 5.0625 3.1875 5.0625 1 6 C0.01 5.67 -0.98 5.34 -2 5 C-2 4.34 -2 3.68 -2 3 C-1.34 3 -0.68 3 0 3 C0 2.01 0 1.02 0 0 Z " fill="#CB4127" transform="translate(199,793)"/>
<path d="M0 0 C0.99 0.33 1.98 0.66 3 1 C2.67 2.65 2.34 4.3 2 6 C0.68 5.34 -0.64 4.68 -2 4 C-2 3.34 -2 2.68 -2 2 C-1.34 2 -0.68 2 0 2 C0 1.34 0 0.68 0 0 Z " fill="#DC4026" transform="translate(82,789)"/>
<path d="M0 0 C1.65 0 3.3 0 5 0 C5 0.99 5 1.98 5 3 C3.02 3.99 3.02 3.99 1 5 C0.67 3.35 0.34 1.7 0 0 Z " fill="#C4401D" transform="translate(31,774)"/>
<path d="M0 0 C0.99 0 1.98 0 3 0 C4.33333333 1.33333333 5.66666667 2.66666667 7 4 C5.35 4.33 3.7 4.66 2 5 C1.67 4.34 1.34 3.68 1 3 C1.33 2.34 1.66 1.68 2 1 C1.34 0.67 0.68 0.34 0 0 Z " fill="#D35728" transform="translate(1,748)"/>
<path d="M0 0 C2.05078125 0.03255208 4.1015625 0.06510417 6.15234375 0.09765625 C5.16234375 0.42765625 4.17234375 0.75765625 3.15234375 1.09765625 C3.48234375 2.08765625 3.81234375 3.07765625 4.15234375 4.09765625 C3.16234375 4.59265625 3.16234375 4.59265625 2.15234375 5.09765625 C1.82234375 4.43765625 1.49234375 3.77765625 1.15234375 3.09765625 C-0.86435452 1.96415091 -0.86435452 1.96415091 -2.84765625 1.09765625 C-1.84765625 0.09765625 -1.84765625 0.09765625 0 0 Z " fill="#D74C2E" transform="translate(258.84765625,740.90234375)"/>
<path d="M0 0 C0.99 0.33 1.98 0.66 3 1 C1.84826645 3.46800047 0.95216435 5.04783565 -1 7 C-1 6.34 -1 5.68 -1 5 C-1.66 4.67 -2.32 4.34 -3 4 C-2.34 4 -1.68 4 -1 4 C-0.67 2.68 -0.34 1.36 0 0 Z " fill="#C44517" transform="translate(332,656)"/>
</svg>
