<svg width="24" height="24" viewBox="0 0 24 24" fill="none" xmlns="http://www.w3.org/2000/svg">
<path d="M23.6129 9.41943H8.12903V14.5807H23.6129V9.41943Z" fill="white"/>
<path d="M8.12903 9.41957H23.6129V5.90989C23.6129 4.99775 22.8735 4.2583 21.9613 4.2583H8.12903V9.41957Z" fill="#259245"/>
<path d="M8.12903 19.7418H21.9613C22.8734 19.7418 23.6129 19.0024 23.6129 18.0902V14.5806H8.12903V19.7418Z" fill="#333333"/>
<path d="M8.12901 4.2583V19.7422H2.03868C1.12654 19.7422 0.387085 19.0027 0.387085 18.0906V5.90989C0.387085 4.99775 1.12654 4.2583 2.03868 4.2583H8.12901Z" fill="#ED1F34"/>
<path d="M21.9527 3.87109H2.04727C0.918422 3.87109 0 4.78947 0 5.91836V18.0818C0 19.2108 0.918422 20.1291 2.04727 20.1291H21.9526C23.0816 20.1291 24 19.2107 24 18.0818V5.91836C24 4.78947 23.0816 3.87109 21.9527 3.87109ZM23.2258 5.91836V9.03236H11.2676C11.0538 9.03236 10.8805 9.20566 10.8805 9.41945C10.8805 9.63325 11.0538 9.80655 11.2676 9.80655H23.2258V14.1936H8.51611V9.80655H9.7192C9.933 9.80655 10.1063 9.63325 10.1063 9.41945C10.1063 9.20566 9.933 9.03236 9.7192 9.03236H8.51611V4.64528H21.9526C22.6547 4.64528 23.2258 5.21636 23.2258 5.91836ZM0.774188 18.0818V5.91836C0.774188 5.21636 1.34527 4.64528 2.04727 4.64528H7.74192V19.3549H2.04727C1.34531 19.3549 0.774188 18.7839 0.774188 18.0818ZM21.9527 19.3549H8.51611V14.9679H23.2258V18.0818C23.2258 18.7839 22.6547 19.3549 21.9527 19.3549Z" fill="#111A21"/>
</svg>
