<svg width="57" height="48" viewBox="0 0 57 48" fill="none" xmlns="http://www.w3.org/2000/svg">
<path d="M14.2973 47.9999C11.5889 47.9999 9.19604 47.513 7.124 46.5338C5.05196 45.56 3.42587 44.1595 2.25661 42.3432C1.08735 40.5269 0.5 38.3386 0.5 35.7838C0.5 35.0015 1.13086 34.3724 1.90311 34.3724H5.61755C6.39525 34.3724 7.02067 35.007 7.02067 35.7838C7.02067 37.9065 7.67328 39.493 8.9785 40.5543C10.2837 41.6156 12.0566 42.1463 14.2973 42.1463C16.5379 42.1463 18.2673 41.6922 19.3931 40.7841C20.5134 39.8759 21.0735 38.7161 21.0735 37.2992C21.0735 36.3254 20.7962 35.5322 20.2469 34.9249C19.6976 34.3177 18.8927 33.8253 17.8377 33.4369C16.7826 33.0485 15.5046 32.6874 13.9982 32.3537L12.8452 32.102C10.436 31.5659 8.3694 30.8821 6.64542 30.056C4.92144 29.2299 3.5999 28.1467 2.68081 26.8009C1.76171 25.4551 1.29945 23.7045 1.29945 21.549C1.29945 19.3936 1.81066 17.5554 2.82764 16.0236C3.85007 14.4918 5.28581 13.3156 7.14575 12.4896C9.00025 11.6635 11.1865 11.2532 13.6936 11.2532C16.2007 11.2532 18.4359 11.6799 20.3937 12.5388C22.3516 13.3977 23.8906 14.6778 25.011 16.3738C26.1313 18.0751 26.6914 20.2032 26.6914 22.7581V22.8565C26.6914 23.6389 26.0606 24.268 25.2883 24.268H21.5739C20.7962 24.268 20.1708 23.6334 20.1708 22.8565V22.7581C20.1708 21.4123 19.9097 20.3291 19.3931 19.503C18.8764 18.6769 18.1314 18.0751 17.1579 17.6867C16.1898 17.2983 15.0315 17.1068 13.6936 17.1068C11.6868 17.1068 10.2076 17.4843 9.25042 18.2447C8.2987 18.9997 7.82012 20.0337 7.82012 21.3466C7.82012 22.2219 8.04853 22.9605 8.49992 23.5677C8.95131 24.175 9.63111 24.6783 10.5339 25.0831C11.4367 25.488 12.5896 25.8381 13.9982 26.1444L15.1511 26.3961C17.6582 26.9322 19.8445 27.627 21.699 28.464C23.5535 29.3065 25.0001 30.4171 26.0388 31.7957C27.0776 33.1743 27.5942 34.9413 27.5942 37.0968C27.5942 39.2523 27.0504 41.1451 25.9627 42.7754C24.875 44.4057 23.3359 45.6858 21.3455 46.6104C19.355 47.5349 17.0056 47.9999 14.2973 47.9999Z" fill="#231F20"/>
<path d="M54.884 31.8332C51.8875 37.9932 41.7666 39.99 37.6442 34.2895C37.3451 33.8081 36.5511 34.0488 36.5674 34.6178V40.5371C36.5674 41.5492 37.0351 42.0525 37.9705 42.0525H51.8331C52.1594 42.0525 52.4204 42.3151 52.4204 42.6433V47.0144C52.4204 47.3426 52.1594 47.6052 51.8331 47.6052C48.7332 47.0035 33.8591 49.0604 31.749 46.068C30.7429 45.0395 30.2426 43.6718 30.2426 41.954V13.0687C30.2426 12.7404 30.5036 12.4778 30.8299 12.4778H35.8768C36.8502 12.4286 36.3499 14.398 36.4641 14.9178C36.4641 15.246 36.7251 15.5086 37.0515 15.5086C40.3961 11.5642 45.791 10.5029 50.74 13.2601C56.8419 16.5316 57.8752 26.1054 54.8786 31.8387L54.884 31.8332ZM48.1622 30.192C49.5816 28.9009 50.2124 26.7454 50.12 24.4368C50.6366 17.9595 42.6041 15.153 38.4002 19.163C37.0025 20.4322 36.3717 22.615 36.4696 24.9456C35.9801 31.3627 43.9528 34.2677 48.1622 30.1974V30.192Z" fill="#CE4927"/>
<path d="M20.5248 7.70276H17.7729C17.2998 7.70276 16.8647 7.40187 16.7396 6.94233C16.4079 5.76065 15.3256 4.89081 14.0476 4.89081C12.7696 4.89081 11.6873 5.76065 11.3556 6.94233C11.2305 7.40187 10.79 7.70276 10.3223 7.70276H7.57045C6.90696 7.70276 6.38487 7.10645 6.49364 6.44996C7.09187 2.79553 10.2516 0 14.0476 0C17.8436 0 21.0088 2.79553 21.6016 6.44996C21.7103 7.10645 21.1883 7.70276 20.5248 7.70276Z" fill="#CE4927"/>
</svg>
