<svg width="66" height="65" viewBox="0 0 66 65" fill="none" xmlns="http://www.w3.org/2000/svg">
<g clip-path="url(#clip0_1851_9537)">
<path d="M33.0001 65.0001C50.9494 65.0001 65.5001 50.4494 65.5001 32.5001C65.5001 14.5508 50.9494 0 33.0001 0C15.0508 0 0.5 14.5508 0.5 32.5001C0.5 50.4494 15.0508 65.0001 33.0001 65.0001Z" fill="#E0622F"/>
<path d="M65.5001 32.4999C65.5001 50.375 50.8751 65 33 65C22.6407 65 13.5001 60.3281 7.60938 52.8125C13.0938 57.2813 20.2032 59.9219 27.9218 59.9219C45.7969 59.9219 60.4219 45.2969 60.4219 27.4219C60.4219 19.7032 57.7813 12.5938 53.3125 7.10938C60.8282 12.9998 65.5001 22.1404 65.5001 32.4999Z" fill="#CC4924"/>
<path d="M33.522 42.1758C35.1761 42.1758 36.544 43.5437 36.544 45.1978C36.544 46.8519 35.1761 48.2198 33.522 48.2198C31.8679 48.2198 30.5 46.8519 30.5 45.1978C30.5 43.5437 31.8679 42.1758 33.522 42.1758Z" fill="white"/>
<path d="M33.522 18C31.8679 18 30.5 19.3679 30.5 21.022L31.5498 37.309C31.6134 38.327 32.4722 39.1541 33.522 39.1541C34.5718 39.1541 35.4306 38.327 35.4942 37.309L36.544 21.022C36.544 19.3679 35.1761 18 33.522 18Z" fill="white"/>
</g>
<defs>
<clipPath id="clip0_1851_9537">
<rect width="65" height="65" fill="white" transform="translate(0.5)"/>
</clipPath>
</defs>
</svg>
