<svg width="25" height="24" viewBox="0 0 25 24" fill="none" xmlns="http://www.w3.org/2000/svg">
<path d="M2.5 20H18.5" stroke="#CC4924" stroke-width="1.5" stroke-linecap="round" stroke-linejoin="round"/>
<path d="M4.32496 12.1661C4.04996 11.9661 3.79996 11.7161 3.49997 10.8411C3.4186 10.6241 3.11108 9.53619 2.84997 8.54109C2.62972 7.7017 2.43346 6.93555 2.52497 6.74109C2.59998 6.54109 2.69996 6.39109 3.02496 6.19109C3.22496 6.06802 4.24996 5.81609 4.44996 5.76609C4.64996 5.71609 4.92495 5.69109 5.14996 5.76609C5.57496 5.84109 6.44996 7.11609 6.67496 7.26609C6.77495 7.36609 7.09996 7.657 7.47496 7.69109C7.74996 7.71609 8.02497 7.64109 8.32498 7.51609C8.59997 7.40151 14.025 4.76609 14.525 4.54109C18.6 2.84109 21.56 5.63609 22.01 6.23609C22.475 6.81609 22.575 6.99109 22.45 7.49109C22.2884 8.01609 21.85 8.11609 21.6 8.19109C21.35 8.26609 17.9 9.19109 16.55 9.56609C16.2551 9.6621 16.1111 9.85492 16.075 9.89109C15.9 10.1411 15.105 11.8411 14.88 12.2161C14.725 12.6161 14.3 13.1161 13.75 13.3161C13.175 13.5161 12.175 13.7411 11.95 13.8161C11.725 13.8911 11.2 14.0411 11.025 13.9911C10.8 13.9411 10.585 13.7161 10.685 13.3661C10.785 13.0161 10.975 12.0411 11 11.8911C11.025 11.7411 11.275 11.1161 11 11.0911C10.95 11.0161 10.425 11.2411 9.64997 11.4161C9.07419 11.5782 8.47119 11.7386 8.04996 11.8411C6.42496 12.3161 5.5449 12.4411 5.34996 12.4411C4.97496 12.4411 4.69996 12.3911 4.32496 12.1661Z" stroke="black" stroke-width="1.5"/>
</svg>
