<svg width="19" height="18" viewBox="0 0 19 18" fill="none" xmlns="http://www.w3.org/2000/svg">
<g clip-path="url(#clip0_776_3382)">
<path d="M13.584 4.5C15.3432 4.5 15.8478 4.5 16.4537 4.96495C16.6097 5.08465 16.7494 5.22429 16.8691 5.38029C17.334 5.98623 17.334 6.86581 17.334 8.625V12C17.334 14.1213 17.334 15.1819 16.675 15.841C16.0159 16.5 14.9553 16.5 12.834 16.5H6.83398C4.71266 16.5 3.652 16.5 2.99299 15.841C2.33398 15.1819 2.33398 14.1213 2.33398 12V8.625C2.33398 6.86581 2.33398 5.98623 2.79894 5.38029C2.91864 5.22429 3.05827 5.08465 3.21427 4.96495C3.82021 4.5 4.3248 4.5 6.08398 4.5" stroke="black" stroke-width="1.5" stroke-linecap="round"/>
<path d="M13.584 5.25L12.9196 3.58907C12.633 2.87247 12.3835 2.05958 11.6464 1.69466C11.2533 1.5 10.7802 1.5 9.83398 1.5C8.88778 1.5 8.41468 1.5 8.0215 1.69466C7.28443 2.05958 7.03499 2.87247 6.74836 3.58907L6.08398 5.25" stroke="black" stroke-width="1.5" stroke-linecap="round" stroke-linejoin="round"/>
<path d="M12.459 10.5C12.459 11.9497 11.2837 13.125 9.83398 13.125C8.38423 13.125 7.20898 11.9497 7.20898 10.5C7.20898 9.05025 8.38423 7.875 9.83398 7.875C11.2837 7.875 12.459 9.05025 12.459 10.5Z" stroke="#CC4924" stroke-width="1.5"/>
<path d="M9.83398 4.5H9.83998" stroke="#CC4924" stroke-width="1.5" stroke-linecap="round" stroke-linejoin="round"/>
</g>
<defs>
<clipPath id="clip0_776_3382">
<rect width="18" height="18" fill="white" transform="translate(0.833984)"/>
</clipPath>
</defs>
</svg>
