<svg width="33" height="32" viewBox="0 0 33 32" fill="none" xmlns="http://www.w3.org/2000/svg">
<g clip-path="url(#clip0_2250_22975)">
<path d="M11.8573 17.2139C11.4913 16.8478 10.8976 16.8478 10.5315 17.2139L10.1295 17.6158C10.2667 14.3775 12.9438 11.7851 16.2152 11.7851C17.841 11.7851 19.3705 12.419 20.5221 13.5702C20.8882 13.9362 21.4818 13.9361 21.8479 13.57C22.2139 13.2038 22.2138 12.6102 21.8476 12.2442C20.342 10.739 18.3416 9.91016 16.2152 9.91016C11.9063 9.91016 8.38577 13.3489 8.25289 17.6262L7.84064 17.2139C7.47458 16.8478 6.88095 16.8478 6.51483 17.2139C6.1487 17.58 6.1487 18.1736 6.51483 18.5397L8.52314 20.548C8.7062 20.7311 8.94614 20.8227 9.18602 20.8227C9.42589 20.8227 9.66589 20.7312 9.84889 20.548L11.8572 18.5397C12.2235 18.1736 12.2235 17.58 11.8573 17.2139Z" fill="white"/>
<path d="M26.2565 6.89748H24.4852C24.077 6.89748 23.7098 6.67061 23.528 6.30711L23.1843 5.6193C22.3397 3.93017 20.6419 2.88086 18.7533 2.88086H13.6763C11.7878 2.88086 10.09 3.93017 9.24516 5.61992L8.90259 6.30548C8.71991 6.67067 8.35278 6.89755 7.94459 6.89755H6.17316C2.87747 6.89748 0.214844 9.56498 0.214844 12.8559V23.9017C0.214844 27.1979 2.88278 29.86 6.17316 29.86H26.2565C29.5522 29.86 32.2148 27.1925 32.2148 23.9017V12.8559C32.2148 9.55967 29.5469 6.89748 26.2565 6.89748ZM30.3398 23.9017C30.3398 26.1923 28.4749 27.985 26.2565 27.985H6.17316C3.95472 27.985 2.08984 26.1923 2.08984 23.9017V12.8559C2.08984 10.5652 3.95478 8.77255 6.17316 8.77255H7.94453C9.06734 8.77255 10.0769 8.14873 10.5802 7.14273L10.9225 6.45786C11.4473 5.40805 12.5026 4.75592 13.6764 4.75592H18.7534C19.9272 4.75592 20.9824 5.40811 21.507 6.4573L21.8503 7.14448C22.3528 8.14873 23.3624 8.77255 24.4852 8.77255H26.2566C28.475 8.77255 30.3399 10.5653 30.3399 12.8559V23.9017H30.3398Z" fill="white"/>
<path d="M23.9076 15.2063C23.7246 15.0232 23.4846 14.9316 23.2448 14.9316C23.0049 14.9316 22.7649 15.0231 22.5819 15.2063L20.5736 17.2146C20.2075 17.5807 20.2075 18.1743 20.5736 18.5404C20.9396 18.9065 21.5333 18.9065 21.8994 18.5404L22.3014 18.1385C22.1642 21.3768 19.4871 23.9692 16.2157 23.9692C14.59 23.9692 13.0605 23.3352 11.9088 22.1841C11.5426 21.818 10.949 21.8181 10.583 22.1843C10.217 22.5505 10.2171 23.1441 10.5833 23.5101C12.089 25.0153 14.0893 25.8441 16.2157 25.8441C20.5246 25.8441 24.0451 22.4054 24.178 18.1281L24.5903 18.5404C24.9563 18.9065 25.55 18.9065 25.9161 18.5404C26.2822 18.1743 26.2822 17.5807 25.9161 17.2146L23.9076 15.2063Z" fill="white"/>
</g>
<defs>
<clipPath id="clip0_2250_22975">
<rect width="32" height="32" fill="white" transform="translate(0.333984)"/>
</clipPath>
</defs>
</svg>
