<svg width="32" height="32" viewBox="0 0 32 32" fill="none" xmlns="http://www.w3.org/2000/svg">
<g clip-path="url(#clip0_1383_5464)">
<path d="M16 1.875C19.2591 1.87631 22.4175 3.00429 24.9401 5.0678C27.4627 7.13132 29.1943 10.0035 29.8416 13.1976C30.4889 16.3918 30.012 19.7115 28.4918 22.5943C26.9715 25.477 24.5014 27.7456 21.5 29.0156C18.048 30.4743 14.158 30.502 10.6857 29.0925C7.2133 27.6831 4.44307 24.952 2.98438 21.5C1.52568 18.048 1.49802 14.158 2.90748 10.6857C4.31693 7.2133 7.04804 4.44307 10.5 2.98438C12.2399 2.24806 14.1107 1.87073 16 1.875ZM16 0C7.16375 0 0 7.16375 0 16C0 24.8363 7.16375 32 16 32C24.8363 32 32 24.8363 32 16C32 7.16375 24.8363 0 16 0Z" fill="#CC4924"/>
<path d="M20.6683 24.617C19.7389 24.5545 18.4289 24.2339 17.1502 23.7764C12.6414 22.1627 8.24204 17.8633 7.30704 11.8495C7.14079 10.7789 7.31579 9.80079 8.12704 9.00454C8.39892 8.73829 8.64079 8.44204 8.90642 8.16954C9.90642 7.14017 11.3677 7.11392 12.4033 8.10267C12.7314 8.41517 13.0652 8.72329 13.3852 9.04579C13.8234 9.47792 14.0771 10.063 14.093 10.6782C14.109 11.2934 13.886 11.8909 13.4708 12.3452C13.2208 12.6227 12.9583 12.8864 12.6945 13.1495C12.4064 13.437 12.0483 13.602 11.6639 13.722C11.1895 13.8708 11.1014 14.0695 11.317 14.5227C12.6795 17.3764 14.8122 19.4312 17.7152 20.687C18.1033 20.8545 18.2827 20.7789 18.4389 20.3939C18.7814 19.5495 19.4095 18.9339 20.1314 18.4364C20.9483 17.8739 22.1183 17.9989 22.892 18.6639C23.3162 19.0284 23.7215 19.4144 24.1064 19.8202C24.5205 20.2632 24.7506 20.8472 24.75 21.4536C24.7495 22.06 24.5182 22.6435 24.1033 23.0858C23.9827 23.217 23.8583 23.3452 23.7427 23.4802C23.0464 24.2895 22.1633 24.6683 20.6683 24.617Z" fill="#CC4924"/>
</g>
<defs>
<clipPath id="clip0_1383_5464">
<rect width="32" height="32" fill="white"/>
</clipPath>
</defs>
</svg>
