<svg width="21" height="20" viewBox="0 0 21 20" fill="none" xmlns="http://www.w3.org/2000/svg">
<path d="M16.75 4.58301L16.2336 12.9373C16.1016 15.0717 16.0357 16.1389 15.5007 16.9063C15.2361 17.2856 14.8956 17.6058 14.5006 17.8463C13.7017 18.333 12.6325 18.333 10.4939 18.333C8.3526 18.333 7.28192 18.333 6.48254 17.8454C6.08733 17.6044 5.74667 17.2837 5.48223 16.9037C4.9474 16.1352 4.88287 15.0664 4.75384 12.929L4.25 4.58301" stroke="black" stroke-width="1.5" stroke-linecap="round"/>
<path d="M8 9.77832H13" stroke="#CC4924" stroke-width="1.5" stroke-linecap="round"/>
<path d="M9.25 13.0449H11.75" stroke="#CC4924" stroke-width="1.5" stroke-linecap="round"/>
<path d="M3 4.58366H18M13.8796 4.58366L13.3107 3.4101C12.9328 2.63054 12.7438 2.24076 12.4179 1.99767C12.3457 1.94374 12.2691 1.89578 12.189 1.85424C11.8281 1.66699 11.3949 1.66699 10.5286 1.66699C9.6405 1.66699 9.1965 1.66699 8.82957 1.86209C8.74826 1.90533 8.67066 1.95524 8.59758 2.0113C8.26787 2.26424 8.0837 2.66828 7.71535 3.47638L7.21061 4.58366" stroke="black" stroke-width="1.5" stroke-linecap="round"/>
</svg>
