<svg width="16" height="16" viewBox="0 0 16 16" fill="none" xmlns="http://www.w3.org/2000/svg">
<path d="M2.66675 8.00004V9.69617C2.66675 11.8595 2.66675 12.9412 3.25746 13.6738C3.3768 13.8218 3.51162 13.9566 3.65963 14.076C4.39229 14.6667 5.47396 14.6667 7.63728 14.6667C8.10768 14.6667 8.34281 14.6667 8.55821 14.5907C8.60301 14.5749 8.64688 14.5567 8.68975 14.5362C8.89581 14.4376 9.06208 14.2714 9.39468 13.9388L12.5523 10.7811C12.9377 10.3957 13.1304 10.203 13.2319 9.95797C13.3334 9.71297 13.3334 9.44044 13.3334 8.89544V6.66671C13.3334 4.15255 13.3334 2.89547 12.5523 2.11442C11.7713 1.33337 10.5142 1.33337 8.00008 1.33337M8.66675 14.3334V14C8.66675 12.1144 8.66675 11.1716 9.25255 10.5858C9.83835 10 10.7811 10 12.6667 10H13.0001" stroke="#CC4924" stroke-linecap="round" stroke-linejoin="round"/>
<path d="M6.66675 3.33337C6.27352 2.92881 5.22693 1.33337 4.66675 1.33337C4.10657 1.33337 3.05997 2.92881 2.66675 3.33337M4.66675 2.00004V6.66671" stroke="#CC4924" stroke-linecap="round" stroke-linejoin="round"/>
</svg>
