<svg width="24" height="25" viewBox="0 0 24 25" fill="none" xmlns="http://www.w3.org/2000/svg">
<path d="M2.00825 16.3092C2.23114 12.8161 2.88737 10.2599 3.44345 8.77511C3.72419 8.0255 4.32818 7.46728 5.10145 7.28021C9.40147 6.23993 14.5986 6.23993 18.8986 7.28021C19.6719 7.46728 20.2759 8.0255 20.5566 8.77511C21.1127 10.2599 21.7689 12.8161 21.9918 16.3092C22.1251 18.3989 20.6148 19.5503 18.9429 20.3925C17.878 20.9289 17.0591 19.3457 16.5155 18.1203C16.2185 17.4508 15.5667 17.0356 14.8281 17.0356H9.17196C8.43331 17.0356 7.78158 17.4508 7.48456 18.1203C6.94089 19.3457 6.122 20.9289 5.05711 20.3925C3.40215 19.5588 1.87384 18.4157 2.00825 16.3092Z" fill="#CC4924" stroke="#CC4924" stroke-width="1.5" stroke-linecap="round" stroke-linejoin="round"/>
<path d="M5 5L6.96285 4.5M19 5L17 4.5" stroke="#CC4924" stroke-width="1.5" stroke-linecap="round" stroke-linejoin="round"/>
<path d="M9 13.5L7.5 12M7.5 12L6 10.5M7.5 12L6 13.5M7.5 12L9 10.5" stroke="white" stroke-width="1.5" stroke-linecap="round"/>
<path d="M15.9881 10.5H15.9971" stroke="white" stroke-width="1.5" stroke-linecap="round" stroke-linejoin="round"/>
<path d="M17.9881 13.5H17.9971" stroke="white" stroke-width="1.5" stroke-linecap="round" stroke-linejoin="round"/>
</svg>
