<svg width="88" height="106" viewBox="0 0 88 106" fill="none" xmlns="http://www.w3.org/2000/svg">
    <g clip-path="url(#clip0_1851_9537)" filter="url(#filter0_dddd_1851_9537)">
        <path
            d="M44.0001 67.0001C61.9494 67.0001 76.5001 52.4494 76.5001 34.5001C76.5001 16.5508 61.9494 2 44.0001 2C26.0508 2 11.5 16.5508 11.5 34.5001C11.5 52.4494 26.0508 67.0001 44.0001 67.0001Z"
            fill="#E0622F" />
        <path
            d="M76.5001 34.4999C76.5001 52.375 61.8751 67 44 67C33.6407 67 24.5001 62.3281 18.6094 54.8125C24.0938 59.2813 31.2032 61.9219 38.9218 61.9219C56.7969 61.9219 71.4219 47.2969 71.4219 29.4219C71.4219 21.7032 68.7813 14.5938 64.3125 9.10938C71.8282 14.9998 76.5001 24.1404 76.5001 34.4999Z"
            fill="#CC4924" />
        <path
            d="M44.522 44.1758C46.1761 44.1758 47.544 45.5437 47.544 47.1978C47.544 48.8519 46.1761 50.2198 44.522 50.2198C42.8679 50.2198 41.5 48.8519 41.5 47.1978C41.5 45.5437 42.8679 44.1758 44.522 44.1758Z"
            fill="white" />
        <path
            d="M44.522 20C42.8679 20 41.5 21.3679 41.5 23.022L42.5498 39.309C42.6134 40.327 43.4722 41.1541 44.522 41.1541C45.5718 41.1541 46.4306 40.327 46.4942 39.309L47.544 23.022C47.544 21.3679 46.1761 20 44.522 20Z"
            fill="white" />
    </g>
    <defs>
        <filter id="filter0_dddd_1851_9537" x="0.5" y="0" width="87" height="106"
            filterUnits="userSpaceOnUse" color-interpolation-filters="sRGB">
            <feFlood flood-opacity="0" result="BackgroundImageFix" />
            <feColorMatrix in="SourceAlpha" type="matrix"
                values="0 0 0 0 0 0 0 0 0 0 0 0 0 0 0 0 0 0 127 0" result="hardAlpha" />
            <feOffset dy="2" />
            <feGaussianBlur stdDeviation="2" />
            <feColorMatrix type="matrix" values="0 0 0 0 0 0 0 0 0 0 0 0 0 0 0 0 0 0 0.1 0" />
            <feBlend mode="normal" in2="BackgroundImageFix" result="effect1_dropShadow_1851_9537" />
            <feColorMatrix in="SourceAlpha" type="matrix"
                values="0 0 0 0 0 0 0 0 0 0 0 0 0 0 0 0 0 0 127 0" result="hardAlpha" />
            <feOffset dy="7" />
            <feGaussianBlur stdDeviation="3.5" />
            <feColorMatrix type="matrix" values="0 0 0 0 0 0 0 0 0 0 0 0 0 0 0 0 0 0 0.09 0" />
            <feBlend mode="normal" in2="effect1_dropShadow_1851_9537"
                result="effect2_dropShadow_1851_9537" />
            <feColorMatrix in="SourceAlpha" type="matrix"
                values="0 0 0 0 0 0 0 0 0 0 0 0 0 0 0 0 0 0 127 0" result="hardAlpha" />
            <feOffset dy="16" />
            <feGaussianBlur stdDeviation="4.5" />
            <feColorMatrix type="matrix" values="0 0 0 0 0 0 0 0 0 0 0 0 0 0 0 0 0 0 0.05 0" />
            <feBlend mode="normal" in2="effect2_dropShadow_1851_9537"
                result="effect3_dropShadow_1851_9537" />
            <feColorMatrix in="SourceAlpha" type="matrix"
                values="0 0 0 0 0 0 0 0 0 0 0 0 0 0 0 0 0 0 127 0" result="hardAlpha" />
            <feOffset dy="28" />
            <feGaussianBlur stdDeviation="5.5" />
            <feColorMatrix type="matrix" values="0 0 0 0 0 0 0 0 0 0 0 0 0 0 0 0 0 0 0.01 0" />
            <feBlend mode="normal" in2="effect3_dropShadow_1851_9537"
                result="effect4_dropShadow_1851_9537" />
            <feBlend mode="normal" in="SourceGraphic" in2="effect4_dropShadow_1851_9537"
                result="shape" />
        </filter>
        <clipPath id="clip0_1851_9537">
            <rect width="65" height="65" fill="white" transform="translate(11.5 2)" />
        </clipPath>
    </defs>
</svg>
