<svg width="21" height="20" viewBox="0 0 21 20" fill="none" xmlns="http://www.w3.org/2000/svg">
<path d="M10.5003 18.3327C15.1027 18.3327 18.8337 14.6017 18.8337 9.99935C18.8337 5.39698 15.1027 1.66602 10.5003 1.66602C5.89795 1.66602 2.16699 5.39698 2.16699 9.99935C2.16699 14.6017 5.89795 18.3327 10.5003 18.3327Z" stroke="black" stroke-width="1.5"/>
<path d="M6.33301 6.98341H10.083M10.083 6.98341H12.583M10.083 6.98341V5.83398M14.6663 6.98341H12.583M12.583 6.98341C12.1434 8.55532 11.2229 10.0412 10.1723 11.3472M10.1723 11.3472C9.30226 12.4285 8.34305 13.3863 7.49372 14.1673M10.1723 11.3472C9.63659 10.7191 8.88659 9.70282 8.67229 9.24307M10.1723 11.3472L11.7794 13.0179" stroke="#CC4924" stroke-width="1.5" stroke-linecap="round" stroke-linejoin="round"/>
</svg>
