<svg width="20" height="21" viewBox="0 0 20 21" fill="none" xmlns="http://www.w3.org/2000/svg">
<path d="M11.3481 18.3059C10.9867 18.6442 10.5037 18.8334 10.0009 18.8334C9.49817 18.8334 9.01517 18.6442 8.65375 18.3059C5.34418 15.1884 0.908967 11.7058 3.07189 6.64974C4.24136 3.91599 7.04862 2.16669 10.0009 2.16669C12.9532 2.16669 15.7605 3.91599 16.93 6.64974C19.0902 11.6994 14.6658 15.1991 11.3481 18.3059Z" stroke="black" stroke-width="1.5"/>
<path d="M12.9167 9.66667C12.9167 11.2775 11.6109 12.5833 10 12.5833C8.38921 12.5833 7.08337 11.2775 7.08337 9.66667C7.08337 8.05583 8.38921 6.75 10 6.75C11.6109 6.75 12.9167 8.05583 12.9167 9.66667Z" stroke="#CC4924" stroke-width="1.5"/>
</svg>
