<svg width="49" height="50" viewBox="0 0 49 50" fill="none" xmlns="http://www.w3.org/2000/svg">
<path fill-rule="evenodd" clip-rule="evenodd" d="M12.9648 18.5605C12.9648 12.0464 18.2456 6.76562 24.7598 6.76562C31.2739 6.76562 36.5547 12.0464 36.5547 18.5605C36.5547 20.7442 35.9286 22.8821 34.7507 24.7208L25.6018 39.0019C25.2084 39.616 24.3111 39.616 23.9177 39.0019L14.7688 24.7208C13.5909 22.882 12.9648 20.7441 12.9648 18.5605Z" fill="#CC4924"/>
<path d="M25.7697 23.45C28.4653 22.8972 30.2023 20.2638 29.6494 17.5681C29.0966 14.8725 26.4632 13.1355 23.7675 13.6884C21.0719 14.2413 19.3349 16.8747 19.8878 19.5703C20.4407 22.2659 23.0741 24.0029 25.7697 23.45Z" fill="#FDF5EF"/>
</svg>
