<svg width="24" height="25" viewBox="0 0 24 25" fill="none" xmlns="http://www.w3.org/2000/svg">
<path d="M2.00037 18.5C2.00037 16.9596 2.00037 16.1893 2.3471 15.6235C2.54111 15.3069 2.8073 15.0407 3.1239 14.8467C3.68971 14.5 4.45993 14.5 6.00037 14.5C7.54081 14.5 8.31103 14.5 8.87684 14.8467C9.19344 15.0407 9.45963 15.3069 9.65364 15.6235C10.0004 16.1893 10.0004 16.9596 10.0004 18.5C10.0004 20.0404 10.0004 20.8107 9.65364 21.3765C9.45963 21.6931 9.19344 21.9593 8.87684 22.1533C8.31103 22.5 7.54081 22.5 6.00037 22.5C4.45993 22.5 3.68971 22.5 3.1239 22.1533C2.8073 21.9593 2.54111 21.6931 2.3471 21.3765C2.00037 20.8107 2.00037 20.0404 2.00037 18.5Z" stroke="#231F20" stroke-width="1.5"/>
<path d="M14.0004 18.5C14.0004 16.9596 14.0004 16.1893 14.3471 15.6235C14.5411 15.3069 14.8073 15.0407 15.1239 14.8467C15.6897 14.5 16.46 14.5 18.0004 14.5C19.5408 14.5 20.3111 14.5 20.8769 14.8467C21.1935 15.0407 21.4597 15.3069 21.6537 15.6235C22.0004 16.1893 22.0004 16.9596 22.0004 18.5C22.0004 20.0404 22.0004 20.8107 21.6537 21.3765C21.4597 21.6931 21.1935 21.9593 20.8769 22.1533C20.3111 22.5 19.5408 22.5 18.0004 22.5C16.46 22.5 15.6897 22.5 15.1239 22.1533C14.8073 21.9593 14.5411 21.6931 14.3471 21.3765C14.0004 20.8107 14.0004 20.0404 14.0004 18.5Z" stroke="#231F20" stroke-width="1.5"/>
<path d="M2.00037 6.5C2.00037 4.95956 2.00037 4.18934 2.3471 3.62353C2.54111 3.30693 2.8073 3.04074 3.1239 2.84673C3.68971 2.5 4.45993 2.5 6.00037 2.5C7.54081 2.5 8.31103 2.5 8.87684 2.84673C9.19344 3.04074 9.45963 3.30693 9.65364 3.62353C10.0004 4.18934 10.0004 4.95956 10.0004 6.5C10.0004 8.04044 10.0004 8.81066 9.65364 9.37647C9.45963 9.69307 9.19344 9.95926 8.87684 10.1533C8.31103 10.5 7.54081 10.5 6.00037 10.5C4.45993 10.5 3.68971 10.5 3.1239 10.1533C2.8073 9.95926 2.54111 9.69307 2.3471 9.37647C2.00037 8.81066 2.00037 8.04044 2.00037 6.5Z" stroke="#231F20" stroke-width="1.5"/>
<path d="M14.0004 6.5C14.0004 4.95956 14.0004 4.18934 14.3471 3.62353C14.5411 3.30693 14.8073 3.04074 15.1239 2.84673C15.6897 2.5 16.46 2.5 18.0004 2.5C19.5408 2.5 20.3111 2.5 20.8769 2.84673C21.1935 3.04074 21.4597 3.30693 21.6537 3.62353C22.0004 4.18934 22.0004 4.95956 22.0004 6.5C22.0004 8.04044 22.0004 8.81066 21.6537 9.37647C21.4597 9.69307 21.1935 9.95926 20.8769 10.1533C20.3111 10.5 19.5408 10.5 18.0004 10.5C16.46 10.5 15.6897 10.5 15.1239 10.1533C14.8073 9.95926 14.5411 9.69307 14.3471 9.37647C14.0004 8.81066 14.0004 8.04044 14.0004 6.5Z" stroke="#231F20" stroke-width="1.5"/>
</svg>
