<svg width="14" height="14" viewBox="0 0 14 14" fill="none" xmlns="http://www.w3.org/2000/svg">
<path d="M8.45816 7.00058C8.45816 7.80599 7.80523 8.45891 6.99983 8.45891C6.19442 8.45891 5.5415 7.80599 5.5415 7.00058C5.5415 6.19517 6.19442 5.54224 6.99983 5.54224C7.80523 5.54224 8.45816 6.19517 8.45816 7.00058Z" stroke="#CC4924" stroke-linecap="round" stroke-linejoin="round"/>
<path d="M9.33329 2.91724C10.7796 2.91724 11.7776 3.14135 12.3275 3.31176C12.6441 3.40987 12.8333 3.70992 12.8333 4.04135V9.73192C12.8333 10.3824 12.1169 10.8718 11.4777 10.7511C10.9294 10.6476 10.2145 10.5644 9.33329 10.5644C6.56193 10.5644 5.89723 11.6177 1.83443 10.7218C1.44234 10.6353 1.16663 10.2827 1.16663 9.8812V4.03791C1.16663 3.46866 1.70375 3.05354 2.26211 3.16434C5.94803 3.89575 6.66215 2.91724 9.33329 2.91724Z" stroke="black" stroke-linecap="round" stroke-linejoin="round"/>
<path d="M1.16663 5.25053C2.3049 5.25053 3.32778 4.32015 3.45855 3.35712M10.7919 3.20886C10.7919 4.39865 11.8215 5.52411 12.8333 5.52411M12.8333 8.75054C11.7255 8.75054 10.6517 9.51482 10.5595 10.5579M3.50025 10.7899C3.50025 9.50123 2.45558 8.4566 1.16691 8.4566" stroke="black" stroke-linecap="round" stroke-linejoin="round"/>
</svg>
