<svg width="33" height="32" viewBox="0 0 33 32" fill="none" xmlns="http://www.w3.org/2000/svg">
<path d="M23.3333 9.33268V14.666C23.3333 18.3479 20.3485 21.3327 16.6667 21.3327C12.9848 21.3327 10 18.3479 10 14.666V9.33268C10 5.65079 12.9848 2.66602 16.6667 2.66602C20.3485 2.66602 23.3333 5.65079 23.3333 9.33268Z" stroke="white" stroke-width="2"/>
<path d="M23.332 9.33398H19.332M23.332 14.6673H19.332" stroke="white" stroke-width="2" stroke-linecap="round"/>
<path d="M27.3333 14.666C27.3333 20.5571 22.5577 25.3327 16.6667 25.3327M16.6667 25.3327C10.7756 25.3327 6 20.5571 6 14.666M16.6667 25.3327V29.3327M16.6667 29.3327H20.6667M16.6667 29.3327H12.6667" stroke="white" stroke-width="2" stroke-linecap="round"/>
</svg>
