<svg width="40" height="40" viewBox="0 0 40 40" fill="none" xmlns="http://www.w3.org/2000/svg">
<path d="M31.7969 20C26.3823 20 21.9601 15.884 21.3684 10.625H3.51562C1.57703 10.625 0 12.202 0 14.1406V35.2344C0 37.173 1.57703 38.75 3.51562 38.75H34.1406C36.0792 38.75 37.6562 37.173 37.6562 35.2344V18.2146C35.9788 19.34 33.9642 20 31.7969 20ZM27.1094 22.3438C27.7566 22.3438 28.2812 22.8684 28.2812 23.5156C28.2812 24.1628 27.7566 24.6875 27.1094 24.6875C26.4622 24.6875 25.9375 24.1628 25.9375 23.5156C25.9375 22.8684 26.4622 22.3438 27.1094 22.3438ZM22.4219 22.3438C23.0691 22.3438 23.5938 22.8684 23.5938 23.5156C23.5938 24.1628 23.0691 24.6875 22.4219 24.6875C21.7747 24.6875 21.25 24.1628 21.25 23.5156C21.25 22.8684 21.7747 22.3438 22.4219 22.3438ZM16.4062 32.8906C16.4062 33.5384 15.8821 34.0625 15.2344 34.0625H5.85938C5.21164 34.0625 4.6875 33.5384 4.6875 32.8906V30.5469C4.6875 28.5277 5.71414 26.7437 7.27313 25.6896C6.40313 24.8381 5.85938 23.6548 5.85938 22.3438C5.85938 19.7585 7.96164 17.6562 10.5469 17.6562C13.1321 17.6562 15.2344 19.7585 15.2344 22.3438C15.2344 23.6548 14.6906 24.8381 13.8206 25.6896C15.3796 26.7437 16.4062 28.5277 16.4062 30.5469V32.8906ZM31.7969 34.0625H22.4219C21.7741 34.0625 21.25 33.5384 21.25 32.8906C21.25 32.2429 21.7741 31.7188 22.4219 31.7188H31.7969C32.4446 31.7188 32.9688 32.2429 32.9688 32.8906C32.9688 33.5384 32.4446 34.0625 31.7969 34.0625ZM31.7969 29.375H22.4219C21.7741 29.375 21.25 28.8509 21.25 28.2031C21.25 27.5554 21.7741 27.0312 22.4219 27.0312H31.7969C32.4446 27.0312 32.9688 27.5554 32.9688 28.2031C32.9688 28.8509 32.4446 29.375 31.7969 29.375ZM31.7969 24.6875C31.1497 24.6875 30.625 24.1628 30.625 23.5156C30.625 22.8684 31.1497 22.3438 31.7969 22.3438C32.4441 22.3438 32.9688 22.8684 32.9688 23.5156C32.9688 24.1628 32.4441 24.6875 31.7969 24.6875Z" fill="#E68251"/>
<path d="M10.5469 20C9.25484 20 8.20312 21.0517 8.20312 22.3438C8.20312 23.6358 9.25484 24.6875 10.5469 24.6875C11.8389 24.6875 12.8906 23.6358 12.8906 22.3438C12.8906 21.0517 11.8389 20 10.5469 20Z" fill="#E68251"/>
<path d="M10.5469 27.0312C8.60828 27.0312 7.03125 28.6083 7.03125 30.5469V31.7188H14.0625V30.5469C14.0625 28.6083 12.4855 27.0312 10.5469 27.0312Z" fill="#E68251"/>
<path d="M31.7188 1.25C27.196 1.25 23.5938 4.93039 23.5938 9.45312C23.5938 13.9759 27.2741 17.6562 31.7969 17.6562C36.3196 17.6562 40 13.9759 40 9.45312C40 4.93039 36.2415 1.25 31.7188 1.25ZM36.141 7.93789L31.4535 12.6254C30.9958 13.0831 30.2541 13.0831 29.7964 12.6254L27.4527 10.2816C26.9949 9.82391 26.9949 9.08227 27.4527 8.62453C27.9104 8.1668 28.652 8.1668 29.1098 8.62453L30.625 10.1398L34.484 6.28078C34.9417 5.82305 35.6834 5.82305 36.1411 6.28078C36.5988 6.73852 36.5988 7.48016 36.141 7.93789Z" fill="#CC4924"/>
</svg>
