<svg width="24" height="24" viewBox="0 0 24 24" fill="none" xmlns="http://www.w3.org/2000/svg">
<path d="M11.9629 8.00195V2.00195" stroke="#CC4924" stroke-width="1.5" stroke-linecap="round"/>
<path d="M15.5259 15.9763H18.7652C20.0444 15.9547 21.9986 16.628 21.9986 19.0562C21.9986 21.5757 19.5871 21.9981 18.7652 21.9981C17.9433 21.9981 10.1816 21.9981 7.94429 21.9981C5.4383 21.9981 1.99999 21.4905 2 17.1672V8.00195H21.9986V12.5189M15.5259 15.9763C15.5313 15.7624 15.6223 15.5503 15.7991 15.3962L17.5009 13.9759M15.5259 15.9763C15.5202 16.2045 15.612 16.4348 15.8013 16.5987L17.5009 17.9823" stroke="black" stroke-width="1.5" stroke-linecap="round" stroke-linejoin="round"/>
<path d="M2.00391 7.99193L2.92544 5.69101C3.67321 3.90284 4.04711 3.00876 4.80496 2.50536C5.56282 2.00195 6.53494 2.00195 8.47917 2.00195H15.4985C17.4427 2.00195 18.4148 2.00195 19.1727 2.50536C19.9306 3.00876 20.3044 3.90284 21.0522 5.69101L21.9981 7.99549" stroke="black" stroke-width="1.5" stroke-linecap="round"/>
<path d="M9.96289 12.002H13.9629" stroke="#CC4924" stroke-width="1.5" stroke-linecap="round"/>
</svg>
