<svg width="20" height="20" viewBox="0 0 20 20" fill="none" xmlns="http://www.w3.org/2000/svg">
<path d="M16.2487 14.5833C16.2487 15.7339 15.3159 16.6667 14.1654 16.6667C13.0148 16.6667 12.082 15.7339 12.082 14.5833C12.082 13.4327 13.0148 12.5 14.1654 12.5C15.3159 12.5 16.2487 13.4327 16.2487 14.5833Z" stroke="black" stroke-width="1.5"/>
<path d="M7.91667 14.5833C7.91667 15.7339 6.98392 16.6667 5.83333 16.6667C4.68274 16.6667 3.75 15.7339 3.75 14.5833C3.75 13.4327 4.68274 12.5 5.83333 12.5C6.98392 12.5 7.91667 13.4327 7.91667 14.5833Z" stroke="black" stroke-width="1.5"/>
<path d="M12.0846 14.584H7.91797M16.2513 14.584H16.8873C17.0706 14.584 17.1622 14.584 17.2392 14.5744C17.8071 14.5037 18.2543 14.0564 18.3251 13.4886C18.3346 13.4116 18.3346 13.3199 18.3346 13.1367V10.834C18.3346 7.84244 15.9096 5.41732 12.918 5.41732M1.66797 3.33398H10.0013C11.1798 3.33398 11.7691 3.33398 12.1352 3.7001C12.5013 4.06622 12.5013 4.65548 12.5013 5.83398V12.9173M1.66797 10.6257V12.5007C1.66797 13.2795 1.66797 13.6689 1.83544 13.959C1.94514 14.149 2.10294 14.3068 2.29297 14.4165C2.58304 14.584 2.97245 14.584 3.7513 14.584" stroke="black" stroke-width="1.5" stroke-linecap="round" stroke-linejoin="round"/>
<path d="M1.66797 5.83398H6.66797M1.66797 8.33398H5.0013" stroke="#CC4924" stroke-width="1.5" stroke-linecap="round" stroke-linejoin="round"/>
</svg>
