<svg width="21" height="20" viewBox="0 0 21 20" fill="none" xmlns="http://www.w3.org/2000/svg">
<path d="M12.5836 10.0013C12.5836 11.1519 11.6509 12.0847 10.5003 12.0847C9.34973 12.0847 8.41699 11.1519 8.41699 10.0013C8.41699 8.85074 9.34973 7.91797 10.5003 7.91797C11.6509 7.91797 12.5836 8.85074 12.5836 10.0013Z" stroke="#CC4924" stroke-width="1.5" stroke-linecap="round" stroke-linejoin="round"/>
<path d="M13.8337 4.16797C15.8998 4.16797 17.3256 4.48814 18.1111 4.73157C18.5633 4.87173 18.8337 5.30038 18.8337 5.77384V13.9032C18.8337 14.8325 17.8102 15.5317 16.8972 15.3592C16.1137 15.2113 15.0926 15.0925 13.8337 15.0925C9.87458 15.0925 8.92499 16.5972 3.12099 15.3173C2.56087 15.1938 2.16699 14.6901 2.16699 14.1165V5.76894C2.16699 4.95572 2.93432 4.36269 3.73198 4.52097C8.99758 5.56585 10.0177 4.16797 13.8337 4.16797Z" stroke="black" stroke-width="1.5" stroke-linecap="round" stroke-linejoin="round"/>
<path d="M2.16699 7.50065C3.7931 7.50065 5.25435 6.17154 5.44117 4.79578M15.9174 4.58398C15.9174 6.28368 17.3882 7.89148 18.8337 7.89148M18.8337 12.5007C17.2511 12.5007 15.7171 13.5925 15.5853 15.0826M5.50073 15.4141C5.50073 13.5731 4.00835 12.0808 2.1674 12.0808" stroke="black" stroke-width="1.5" stroke-linecap="round" stroke-linejoin="round"/>
</svg>
