<svg width="40" height="40" viewBox="0 0 40 40" fill="none" xmlns="http://www.w3.org/2000/svg">
<g clip-path="url(#clip0_2931_15624)">
<path d="M38.4489 8.01297L30.3773 5.67578V36.843C30.3773 36.9988 30.3682 37.1522 30.3516 37.3036C31.3411 37.4012 32.2907 36.7851 32.5772 35.7953L39.8852 10.6196C40.2085 9.5033 39.5655 8.33598 38.4489 8.01297Z" fill="#CC4924"/>
<path d="M11.8967 9.14258C11.0343 9.51885 10.2629 10.0646 9.62305 10.7373H11.1815C11.3835 10.1421 11.6241 9.60728 11.8967 9.14258Z" fill="#E68251"/>
<path d="M10.8006 12.1426H8.58614C8.13052 12.9559 7.83189 13.8683 7.73438 14.8397H10.4785C10.515 13.8783 10.6255 12.9721 10.8006 12.1426Z" fill="#E68251"/>
<path d="M19.7325 10.7372C19.0927 10.0646 18.3214 9.51885 17.459 9.14258C17.7316 9.60715 17.9722 10.142 18.1741 10.7372H19.7325Z" fill="#E68251"/>
<path d="M9.62305 20.3457C10.2629 21.0184 11.0343 21.5642 11.8967 21.9405C11.6241 21.4758 11.3835 20.9409 11.1815 20.3457H9.62305Z" fill="#E68251"/>
<path d="M17.4714 14.8397C17.4279 13.8571 17.2953 12.9472 17.0999 12.1426H12.2562C12.0608 12.9472 11.9281 13.8572 11.8848 14.8397H17.4714Z" fill="#E68251"/>
<path d="M14.6781 8.5625C13.9836 8.5625 13.2462 9.38263 12.7012 10.7368H16.6554C16.1102 9.38263 15.3729 8.5625 14.6781 8.5625Z" fill="#E68251"/>
<path d="M10.4784 16.2441H7.73438C7.83189 17.2155 8.13052 18.1281 8.58614 18.9413H10.8006C10.6256 18.1118 10.5151 17.2055 10.4784 16.2441Z" fill="#E68251"/>
<path d="M18.8768 14.8397H21.6208C21.5233 13.8683 21.2246 12.9558 20.769 12.1426H18.5547C18.7297 12.9721 18.8403 13.8783 18.8768 14.8397Z" fill="#E68251"/>
<path d="M14.6782 22.52C15.3728 22.52 16.1103 21.6999 16.6554 20.3457H12.7012C13.2463 21.6999 13.9837 22.52 14.6782 22.52Z" fill="#E68251"/>
<path d="M18.5547 18.9413H20.769C21.2246 18.1279 21.5233 17.2155 21.6208 16.2441H18.8768C18.8404 17.2055 18.7297 18.1118 18.5547 18.9413Z" fill="#E68251"/>
<path d="M7.3885 28.5703H6.18359V30.864H7.3885C8.34189 30.864 8.82523 30.4717 8.82523 29.6978C8.82523 28.9496 8.34196 28.5703 7.3885 28.5703Z" fill="#E68251"/>
<path d="M11.2695 31.0743H12.934L12.0936 29.2578L11.2695 31.0743Z" fill="#E68251"/>
<path d="M26.169 0H3.18629C1.44557 0 0.0292969 1.41621 0.0292969 3.15699V36.8431C0.0292969 38.5838 1.44557 40 3.18629 40H26.169C27.9098 40 29.3259 38.5838 29.3259 36.843V3.15699C29.3258 1.41621 27.9098 0 26.169 0ZM14.6775 7.15699C19.3007 7.15699 23.0619 10.9182 23.0619 15.5414C23.0619 20.1646 19.3007 23.926 14.6775 23.926C10.0544 23.926 6.29328 20.1648 6.29328 15.5414C6.29328 10.9184 10.0544 7.15699 14.6775 7.15699ZM6.18289 31.966V33.2963C6.18289 33.5868 5.94734 33.8224 5.65675 33.8224H5.60727C5.31675 33.8224 5.08113 33.5869 5.08113 33.2963V27.9948C5.08113 27.7043 5.31668 27.4687 5.60727 27.4687H7.38786C8.95368 27.4687 9.92642 28.3231 9.92642 29.6982C9.92642 31.0971 8.95368 31.9659 7.38786 31.9659H6.18289V31.966ZM15.0422 33.5794C14.9456 33.7308 14.7783 33.8224 14.5988 33.8224H14.5371C14.3317 33.8224 14.1451 33.7028 14.0592 33.5162L13.442 32.1747H10.7705L10.1607 33.5142C10.0752 33.7018 9.88806 33.8223 9.68185 33.8223H9.61198C9.43283 33.8223 9.26603 33.7312 9.16917 33.5805C9.07243 33.4297 9.05897 33.2401 9.13355 33.0771L11.5605 27.7757C11.6462 27.5886 11.8331 27.4686 12.0389 27.4686H12.0893C12.0896 27.4686 12.09 27.4686 12.0902 27.4686H12.1417C12.3467 27.4686 12.5329 27.5876 12.6191 27.7735L15.0763 33.075C15.1517 33.2378 15.1388 33.428 15.0422 33.5794ZM17.3809 33.8224C16.6064 33.8224 15.7866 33.4955 15.2415 32.9692C15.14 32.871 15.082 32.7362 15.0809 32.5951C15.0798 32.4539 15.1354 32.3181 15.2352 32.2184L15.2686 32.1851C15.4739 31.9803 15.8061 31.9801 16.0115 32.1847C16.3337 32.5054 16.884 32.7209 17.3809 32.7209C17.9368 32.7209 18.5858 32.5412 18.5858 32.0348C18.5901 31.5467 18.295 31.3797 17.3454 31.0916C16.504 30.8374 15.3528 30.4893 15.3528 29.1414C15.3528 28.141 16.2363 27.4689 17.5511 27.4689C18.117 27.4689 18.7446 27.6354 19.189 27.9035C19.3094 27.9762 19.3958 28.0942 19.4288 28.2311C19.4617 28.368 19.4383 28.5123 19.3639 28.6319L19.3424 28.6665C19.1908 28.9101 18.8718 28.9875 18.6255 28.84C18.3566 28.679 17.9249 28.571 17.5512 28.571C17.0454 28.571 16.4547 28.7204 16.4547 29.1414C16.4547 29.5973 16.7441 29.7578 17.6739 30.039C18.5289 30.2975 19.6983 30.6509 19.6878 32.0383C19.6879 33.1038 18.7607 33.8224 17.3809 33.8224ZM21.9675 33.8224C21.1929 33.8224 20.373 33.4955 19.8281 32.9691C19.7266 32.871 19.6686 32.7365 19.6675 32.5955C19.6662 32.4545 19.7216 32.3188 19.8211 32.219L19.8543 32.1858C20.0595 31.9802 20.3922 31.9798 20.5979 32.1846C20.9201 32.5052 21.4706 32.7207 21.9676 32.7207C22.5234 32.7207 23.1722 32.541 23.1722 32.0346C23.1762 31.5466 22.8813 31.3796 21.9318 31.0915C21.0904 30.8371 19.9392 30.4889 19.9392 29.1414C19.9392 28.1409 20.8228 27.4688 22.1377 27.4688C22.7035 27.4688 23.3311 27.6353 23.7756 27.9035C23.8966 27.9764 23.9832 28.095 24.0158 28.2324C24.0485 28.3699 24.0244 28.5146 23.9492 28.6341L23.9274 28.6687C23.775 28.9108 23.457 28.9867 23.2118 28.8399C22.9431 28.6791 22.5115 28.5709 22.1377 28.5709C21.6317 28.5709 21.0409 28.7203 21.0409 29.1414C21.0409 29.5973 21.3305 29.7577 22.2601 30.0389C23.1152 30.2974 24.2847 30.6509 24.2739 32.0382C24.2739 33.1038 23.3471 33.8224 21.9675 33.8224Z" fill="#E68251"/>
<path d="M11.8848 16.2441C11.9282 17.2268 12.0608 18.1368 12.2562 18.9413H17.0999C17.2952 18.1366 17.4279 17.2268 17.4714 16.2441H11.8848Z" fill="#E68251"/>
<path d="M17.459 21.9403C18.3214 21.5641 19.0928 21.0183 19.7325 20.3457H18.1741C17.9722 20.9409 17.7316 21.4756 17.459 21.9403Z" fill="#E68251"/>
</g>
<defs>
<clipPath id="clip0_2931_15624">
<rect width="40" height="40" fill="white"/>
</clipPath>
</defs>
</svg>
