<svg width="20" height="20" viewBox="0 0 20 20" fill="none" xmlns="http://www.w3.org/2000/svg">
<g clip-path="url(#clip0_1139_5226)">
<path d="M10 20C15.5229 20 20 15.5229 20 10C20 4.47716 15.5229 0 10 0C4.47716 0 0 4.47716 0 10C0 15.5229 4.47716 20 10 20Z" fill="#E0622F"/>
<path d="M20 9.99997C20 15.5 15.5 20 10 20C6.81253 20 4.00003 18.5625 2.1875 16.25C3.875 17.625 6.06251 18.4375 8.43749 18.4375C13.9375 18.4375 18.4375 13.9375 18.4375 8.43749C18.4375 6.06251 17.625 3.875 16.25 2.1875C18.5625 3.99994 20 6.81244 20 9.99997Z" fill="#CC4924"/>
<path d="M15.438 7.12472L8.93796 14.2498C8.50044 14.7498 7.75047 14.7498 7.31295 14.2498L4.56294 11.1872C4.18796 10.7497 4.18796 10.0622 4.62543 9.62473C5.06295 9.24974 5.75043 9.24974 6.18795 9.68722L8.12546 11.8747L13.8129 5.68722C14.2505 5.2497 14.938 5.18721 15.3755 5.62473C15.8129 5.99972 15.8129 6.74973 15.438 7.12472Z" fill="white"/>
</g>
<defs>
<clipPath id="clip0_1139_5226">
<rect width="20" height="20" fill="white"/>
</clipPath>
</defs>
</svg>
