<svg width="60" height="60" viewBox="0 0 60 60" fill="none" xmlns="http://www.w3.org/2000/svg">
<g clip-path="url(#clip0_1129_33386)">
<path d="M19.1992 -0.000976562H21.5992V7.19902H19.1992V-0.000976562Z" fill="black"/>
<path d="M24 -0.000976562H26.4V2.39995H24V-0.000976562Z" fill="black"/>
<path d="M28.8008 -0.000976562H38.4008V9.59903H40.8008V11.999H31.2008V9.59903H36.0008V4.79902H33.5999V2.39995H31.2008V4.79902H28.8008V-0.000976562Z" fill="black"/>
<path d="M-0.00195312 -0.000976562V16.799H16.798V-0.000976562H-0.00195312ZM14.399 14.3999H2.39897V2.39995H14.399V14.3999Z" fill="black"/>
<path d="M43.1992 -0.000976562V16.799H60.0001V-0.000976562H43.1992ZM57.6001 14.3999H45.5992V2.39995H57.6001V14.3999Z" fill="black"/>
<path d="M4.79883 4.79883H11.9988V11.9988H4.79883V4.79883Z" fill="black"/>
<path d="M26.4004 4.79883H28.8013V7.19883H26.4004V4.79883Z" fill="black"/>
<path d="M48 4.79883H55.2009V11.9988H48V4.79883Z" fill="black"/>
<path d="M21.5983 7.19824H26.3992V9.59824H23.9992V11.9982H26.3992V16.7982H28.7992V21.5982H26.3992V19.1992H23.9992V14.3992H21.5983V19.1992H23.9992V21.5982H19.1992V11.9982H21.5983V7.19824Z" fill="black"/>
<path d="M28.8008 14.4004H31.2008V16.8004H28.8008V14.4004Z" fill="black"/>
<path d="M33.5996 14.4004H36.0005V16.8004H33.5996V14.4004Z" fill="black"/>
<path d="M38.4004 14.4004H40.8013V16.8004H38.4004V14.4004Z" fill="black"/>
<path d="M4.79883 19.2002H11.9988V21.5993H14.3998V24.0002H11.9988V26.4002H9.59883V21.5993H4.79883V19.2002Z" fill="black"/>
<path d="M14.4004 19.2002H16.8004V21.6002H14.4004V19.2002Z" fill="black"/>
<path d="M31.1992 19.2002H33.5992V21.6002H31.1992V19.2002Z" fill="black"/>
<path d="M36 19.2002H38.4V24.0002H36V19.2002Z" fill="black"/>
<path d="M40.8008 19.2002H48.0008V24.0002H45.6008V21.5993H40.8008V19.2002Z" fill="black"/>
<path d="M52.8004 19.2002H60.0013V21.5993H55.2013V24.0002H60.0013V31.2002H52.8004V28.8002H55.2013V26.4002H50.4004V24.0002H52.8004V19.2002Z" fill="black"/>
<path d="M16.7992 21.5986H19.2001V26.3996H24.0001V21.5986H26.4001V23.9996H33.5992V26.3996H26.4001V28.7996H21.5992V31.1996H9.59922V33.5986H7.19922V26.3996H9.59922V28.7996H16.7992V26.3996H14.4001V23.9996H16.7992V21.5986Z" fill="black"/>
<path d="M4.79883 24H7.19883V26.4H4.79883V24Z" fill="black"/>
<path d="M38.4004 24H40.8013V26.4H38.4004V24Z" fill="black"/>
<path d="M0 26.4004H4.8V31.2004H2.40092V40.8004H0V26.4004Z" fill="black"/>
<path d="M33.5996 26.4004H36.0005V28.8013H33.5996V26.4004Z" fill="black"/>
<path d="M28.8008 28.7998H33.5999V33.5989H31.2008V31.1998H28.8008V28.7998Z" fill="black"/>
<path d="M38.4004 28.7998H40.8013V31.1998H38.4004V28.7998Z" fill="black"/>
<path d="M50.4004 31.2002H52.8013V33.6002H50.4004V31.2002Z" fill="black"/>
<path d="M4.79883 33.5986H7.19883V35.9996H11.9988V38.3996H9.59883V40.7996H7.19883V38.3996H4.79883V33.5986Z" fill="black"/>
<path d="M14.4004 33.5986H16.8004V35.9996H14.4004V33.5986Z" fill="black"/>
<path d="M52.8008 33.5986H60.0017V40.7996H57.6017V35.9996H52.8008V33.5986Z" fill="black"/>
<path d="M50.4009 38.4V33.6H48.0009V31.2H45.6009V28.8H48.0009V31.2H50.4009V26.4H45.6009V24H43.2009V26.4H40.8009V28.8H43.2009V33.5991H45.6009V38.3991H38.4009V36H43.2009V33.5991H38.4009V31.1991H36.0009V33.5991H33.6V38.3991H31.2V40.8H28.8V38.4L31.2 38.3991V33.6H28.8V36H26.4009V33.5991H28.8009V31.1991H21.6V33.5991H24.0009V36H16.8V38.4H12V40.8H19.2009V38.4H26.4009V40.8H19.2009V43.2H24.0009V45.6H21.6V48H19.2V55.2009H21.6V52.8H24.0009V48H26.4009V45.6H28.8009V43.2H33.6V40.8H36.0009V45.6H38.4009V50.4H36.0009V45.6H31.2009V48H26.4009V52.8H28.8009V50.4H33.6V52.8H38.4V55.2009H40.8009V52.8H43.2009V50.4H48.0009V52.8H52.8009V50.4H50.4009V48H52.8009V45.6H50.4009V43.2H52.8009V40.8H55.2018V38.4H50.4009ZM48.0009 48H40.8009V40.8H48.0009V48Z" fill="black"/>
<path d="M55.2012 40.7998H57.6012V43.1998H60.0012V45.5998H55.2012V40.7998Z" fill="black"/>
<path d="M43.1992 43.2002H45.6001V45.6011H43.1992V43.2002Z" fill="black"/>
<path d="M0 43.2002V60.0011H16.8V43.2002H0ZM14.4009 57.6011H2.40092V45.6002H14.4009V57.6011Z" fill="black"/>
<path d="M4.79883 47.999H11.9988V55.1999H4.79883V47.999Z" fill="black"/>
<path d="M52.8008 47.999H55.2017V50.399H52.8008V47.999Z" fill="black"/>
<path d="M57.6013 50.4004H60.0013V60.0013H50.4004V57.6013H57.6013V50.4004Z" fill="black"/>
<path d="M28.8008 52.7998H33.5999V55.2007H28.8008V52.7998Z" fill="black"/>
<path d="M43.2008 52.7998H48.0008V55.2007H50.4008V57.6007H45.6008V60.0007H40.8008V57.6007H43.2008V52.7998Z" fill="black"/>
<path d="M52.8008 52.7998H55.2017V55.2007H52.8008V52.7998Z" fill="black"/>
<path d="M26.4004 55.2012H28.8013V57.6021H26.4004V55.2012Z" fill="black"/>
<path d="M33.5996 57.6006H38.3996V60.0006H33.5996V57.6006Z" fill="black"/>
</g>
<defs>
<clipPath id="clip0_1129_33386">
<rect width="60" height="60" fill="white"/>
</clipPath>
</defs>
</svg>
