<svg width="16" height="17" viewBox="0 0 16 17" fill="none" xmlns="http://www.w3.org/2000/svg">
<path d="M2 4.03125C2 3.08844 2 2.61704 2.29289 2.32414C2.58579 2.03125 3.05719 2.03125 4 2.03125C4.94281 2.03125 5.41421 2.03125 5.70711 2.32414C6 2.61704 6 3.08844 6 4.03125C6 4.97406 6 5.44546 5.70711 5.73836C5.41421 6.03125 4.94281 6.03125 4 6.03125C3.05719 6.03125 2.58579 6.03125 2.29289 5.73836C2 5.44546 2 4.97406 2 4.03125Z" stroke="#CC4924" stroke-width="1.2"/>
<path d="M2 12.0313C2 11.0885 2 10.617 2.29289 10.3241C2.58579 10.0312 3.05719 10.0313 4 10.0313C4.94281 10.0313 5.41421 10.0312 5.70711 10.3241C6 10.617 6 11.0885 6 12.0313C6 12.9741 6 13.4454 5.70711 13.7384C5.41421 14.0312 4.94281 14.0313 4 14.0313C3.05719 14.0313 2.58579 14.0312 2.29289 13.7384C2 13.4454 2 12.9741 2 12.0313Z" stroke="#CC4924" stroke-width="1.2"/>
<path d="M2 8.03125H6" stroke="#CC4924" stroke-width="1.2" stroke-linecap="round" stroke-linejoin="round"/>
<path d="M8 2.03125V5.36458" stroke="#CC4924" stroke-width="1.2" stroke-linecap="round" stroke-linejoin="round"/>
<path d="M10 4.03125C10 3.08844 10 2.61704 10.2929 2.32414C10.5858 2.03125 11.0572 2.03125 12 2.03125C12.9428 2.03125 13.4142 2.03125 13.7071 2.32414C14 2.61704 14 3.08844 14 4.03125C14 4.97406 14 5.44546 13.7071 5.73836C13.4142 6.03125 12.9428 6.03125 12 6.03125C11.0572 6.03125 10.5858 6.03125 10.2929 5.73836C10 5.44546 10 4.97406 10 4.03125Z" stroke="#CC4924" stroke-width="1.2"/>
<path d="M14 8.03125H10C9.0572 8.03125 8.5858 8.03125 8.29287 8.32412C8 8.61705 8 9.08845 8 10.0313M8 11.8774V13.7236M10 10.0313V11.0313C10 11.9955 10.5225 12.0313 11.3333 12.0313C11.7015 12.0313 12 12.3297 12 12.6979M10.6667 14.0313H10M12 10.0313C12.9428 10.0313 13.4142 10.0312 13.7071 10.3246C14 10.6178 14 11.09 14 12.0341C14 12.9783 14 13.4504 13.7071 13.7437C13.4933 13.9578 13.1845 14.0157 12.6667 14.0313" stroke="#CC4924" stroke-width="1.2" stroke-linecap="round"/>
</svg>
