<svg width="24" height="25" viewBox="0 0 24 25" fill="none" xmlns="http://www.w3.org/2000/svg">
<path d="M11.9629 8.50098V2.50098" stroke="#CC4924" stroke-width="1.5" stroke-linecap="round"/>
<path d="M15.5259 16.4773H18.7652C20.0444 16.4557 21.9986 17.129 21.9986 19.5572C21.9986 22.0767 19.5871 22.4991 18.7652 22.4991C17.9433 22.4991 10.1816 22.4991 7.94429 22.4991C5.4383 22.4991 1.99999 21.9915 2 17.6682V8.50293H21.9986V13.0199M15.5259 16.4773C15.5313 16.2634 15.6223 16.0513 15.7991 15.8972L17.5009 14.4769M15.5259 16.4773C15.5202 16.7055 15.612 16.9358 15.8013 17.0997L17.5009 18.4833" stroke="black" stroke-width="1.5" stroke-linecap="round" stroke-linejoin="round"/>
<path d="M2.00391 8.49096L2.92544 6.19004C3.67321 4.40187 4.04711 3.50779 4.80496 3.00439C5.56282 2.50098 6.53494 2.50098 8.47917 2.50098H15.4985C17.4427 2.50098 18.4148 2.50098 19.1727 3.00439C19.9306 3.50779 20.3044 4.40187 21.0522 6.19004L21.9981 8.49452" stroke="black" stroke-width="1.5" stroke-linecap="round"/>
<path d="M9.96289 12.501H13.9629" stroke="#CC4924" stroke-width="1.5" stroke-linecap="round"/>
</svg>
