<svg width="87" height="106" viewBox="0 0 87 106" fill="none" xmlns="http://www.w3.org/2000/svg">
<g clip-path="url(#clip0_941_4576)" filter="url(#filter0_dddd_941_4576)">
<path d="M43.5001 67.0001C61.4494 67.0001 76.0001 52.4494 76.0001 34.5001C76.0001 16.5508 61.4494 2 43.5001 2C25.5508 2 11 16.5508 11 34.5001C11 52.4494 25.5508 67.0001 43.5001 67.0001Z" fill="#E0622F"/>
<path d="M76.0001 34.4999C76.0001 52.375 61.3751 67 43.5 67C33.1407 67 24.0001 62.3281 18.1094 54.8125C23.5938 59.2813 30.7032 61.9219 38.4218 61.9219C56.2969 61.9219 70.9219 47.2969 70.9219 29.4219C70.9219 21.7032 68.2813 14.5938 63.8125 9.10938C71.3282 14.9998 76.0001 24.1404 76.0001 34.4999Z" fill="#CC4924"/>
<path d="M61.1714 25.1558L40.0464 48.3122C38.6245 49.9372 36.1871 49.9372 34.7651 48.3122L25.8276 38.359C24.6089 36.9371 24.6089 34.7028 26.0307 33.2808C27.4526 32.0621 29.687 32.0621 31.1089 33.4839L37.4058 40.5933L55.8901 20.484C57.3121 19.062 59.5464 18.8589 60.9683 20.2809C62.3901 21.4996 62.3901 23.9371 61.1714 25.1558Z" fill="white"/>
</g>
<defs>
<filter id="filter0_dddd_941_4576" x="0" y="0" width="87" height="106" filterUnits="userSpaceOnUse" color-interpolation-filters="sRGB">
<feFlood flood-opacity="0" result="BackgroundImageFix"/>
<feColorMatrix in="SourceAlpha" type="matrix" values="0 0 0 0 0 0 0 0 0 0 0 0 0 0 0 0 0 0 127 0" result="hardAlpha"/>
<feOffset dy="2"/>
<feGaussianBlur stdDeviation="2"/>
<feColorMatrix type="matrix" values="0 0 0 0 0 0 0 0 0 0 0 0 0 0 0 0 0 0 0.1 0"/>
<feBlend mode="normal" in2="BackgroundImageFix" result="effect1_dropShadow_941_4576"/>
<feColorMatrix in="SourceAlpha" type="matrix" values="0 0 0 0 0 0 0 0 0 0 0 0 0 0 0 0 0 0 127 0" result="hardAlpha"/>
<feOffset dy="7"/>
<feGaussianBlur stdDeviation="3.5"/>
<feColorMatrix type="matrix" values="0 0 0 0 0 0 0 0 0 0 0 0 0 0 0 0 0 0 0.09 0"/>
<feBlend mode="normal" in2="effect1_dropShadow_941_4576" result="effect2_dropShadow_941_4576"/>
<feColorMatrix in="SourceAlpha" type="matrix" values="0 0 0 0 0 0 0 0 0 0 0 0 0 0 0 0 0 0 127 0" result="hardAlpha"/>
<feOffset dy="16"/>
<feGaussianBlur stdDeviation="4.5"/>
<feColorMatrix type="matrix" values="0 0 0 0 0 0 0 0 0 0 0 0 0 0 0 0 0 0 0.05 0"/>
<feBlend mode="normal" in2="effect2_dropShadow_941_4576" result="effect3_dropShadow_941_4576"/>
<feColorMatrix in="SourceAlpha" type="matrix" values="0 0 0 0 0 0 0 0 0 0 0 0 0 0 0 0 0 0 127 0" result="hardAlpha"/>
<feOffset dy="28"/>
<feGaussianBlur stdDeviation="5.5"/>
<feColorMatrix type="matrix" values="0 0 0 0 0 0 0 0 0 0 0 0 0 0 0 0 0 0 0.01 0"/>
<feBlend mode="normal" in2="effect3_dropShadow_941_4576" result="effect4_dropShadow_941_4576"/>
<feBlend mode="normal" in="SourceGraphic" in2="effect4_dropShadow_941_4576" result="shape"/>
</filter>
<clipPath id="clip0_941_4576">
<rect width="65" height="65" fill="white" transform="translate(11 2)"/>
</clipPath>
</defs>
</svg>
