<svg width="21" height="20" viewBox="0 0 21 20" fill="none" xmlns="http://www.w3.org/2000/svg">
<path d="M2.16699 9.16602C4.11008 7.13087 6.86968 7.03504 8.83366 9.16602M7.57957 3.74935C7.57957 4.89994 6.6455 5.83268 5.49327 5.83268C4.34103 5.83268 3.40697 4.89994 3.40697 3.74935C3.40697 2.59876 4.34103 1.66602 5.49327 1.66602C6.6455 1.66602 7.57957 2.59876 7.57957 3.74935Z" stroke="#CC4924" stroke-width="1.5" stroke-linecap="round"/>
<path d="M12.167 18.334C14.1101 16.2988 16.8697 16.203 18.8337 18.334M17.5796 12.9173C17.5796 14.0679 16.6455 15.0007 15.4932 15.0007C14.3411 15.0007 13.407 14.0679 13.407 12.9173C13.407 11.7667 14.3411 10.834 15.4932 10.834C16.6455 10.834 17.5796 11.7667 17.5796 12.9173Z" stroke="#CC4924" stroke-width="1.5" stroke-linecap="round"/>
<path d="M3 11.667C3 14.892 5.60833 17.5003 8.83333 17.5003L8 15.8337" stroke="#231F20" stroke-width="1.5" stroke-linecap="round" stroke-linejoin="round"/>
<path d="M18.334 7.83398C18.334 4.60898 15.7257 2.00065 12.5007 2.00065L13.334 3.66732" stroke="#231F20" stroke-width="1.5" stroke-linecap="round" stroke-linejoin="round"/>
</svg>
