<svg width="21" height="20" viewBox="0 0 21 20" fill="none" xmlns="http://www.w3.org/2000/svg">
<path d="M13 12.5L14.25 13.75" stroke="#888888" stroke-width="1.5" stroke-linecap="round" stroke-linejoin="round"/>
<path d="M14.6111 15.8543C14.1296 15.3729 14.1296 14.5924 14.6111 14.1111C15.0924 13.6296 15.8729 13.6296 16.3543 14.1111L18.0556 15.8123C18.537 16.2937 18.537 17.0742 18.0556 17.5556C17.5742 18.037 16.7937 18.037 16.3123 17.5556L14.6111 15.8543Z" stroke="#888888" stroke-width="1.5" stroke-linecap="round" stroke-linejoin="round"/>
<path d="M14.2487 7.91732C14.2487 4.69566 11.637 2.08398 8.41536 2.08398C5.19371 2.08398 2.58203 4.69566 2.58203 7.91732C2.58203 11.139 5.19371 13.7507 8.41536 13.7507C11.637 13.7507 14.2487 11.139 14.2487 7.91732Z" stroke="#888888" stroke-width="1.5" stroke-linecap="round" stroke-linejoin="round"/>
</svg>
