<svg width="21" height="20" viewBox="0 0 21 20" fill="none" xmlns="http://www.w3.org/2000/svg">
<path d="M6.33301 17.5V15" stroke="black" stroke-width="1.5" stroke-linecap="round" stroke-linejoin="round"/>
<path d="M14.667 17.5V12.5" stroke="black" stroke-width="1.5" stroke-linecap="round" stroke-linejoin="round"/>
<path d="M14.667 5V2.5" stroke="black" stroke-width="1.5" stroke-linecap="round" stroke-linejoin="round"/>
<path d="M6.33301 7.5V2.5" stroke="black" stroke-width="1.5" stroke-linecap="round" stroke-linejoin="round"/>
<path d="M6.33301 15C5.55644 15 5.16816 15 4.86187 14.8732C4.45349 14.704 4.12903 14.3795 3.95987 13.9712C3.83301 13.6648 3.83301 13.2766 3.83301 12.5C3.83301 11.7234 3.83301 11.3352 3.95987 11.0288C4.12903 10.6205 4.45349 10.296 4.86187 10.1268C5.16816 10 5.55644 10 6.33301 10C7.10957 10 7.49786 10 7.80415 10.1268C8.21252 10.296 8.53698 10.6205 8.70614 11.0288C8.83301 11.3352 8.83301 11.7234 8.83301 12.5C8.83301 13.2766 8.83301 13.6648 8.70614 13.9712C8.53698 14.3795 8.21252 14.704 7.80415 14.8732C7.49786 15 7.10957 15 6.33301 15Z" stroke="#CC4924" stroke-width="1.5"/>
<path d="M14.667 10C13.8904 10 13.5022 10 13.1958 9.87317C12.7875 9.704 12.463 9.3795 12.2938 8.97117C12.167 8.66483 12.167 8.27657 12.167 7.5C12.167 6.72343 12.167 6.33515 12.2938 6.02886C12.463 5.62048 12.7875 5.29602 13.1958 5.12687C13.5022 5 13.8904 5 14.667 5C15.4436 5 15.8318 5 16.1382 5.12687C16.5465 5.29602 16.871 5.62048 17.0402 6.02886C17.167 6.33515 17.167 6.72343 17.167 7.5C17.167 8.27657 17.167 8.66483 17.0402 8.97117C16.871 9.3795 16.5465 9.704 16.1382 9.87317C15.8318 10 15.4436 10 14.667 10Z" stroke="#CC4924" stroke-width="1.5"/>
</svg>
