<svg width="256" height="54" viewBox="0 0 256 54" fill="none" xmlns="http://www.w3.org/2000/svg">
<g clip-path="url(#clip0_13361_3383)">
<path d="M12.9894 45.0548C10.4397 45.0548 8.18688 44.5977 6.23616 43.6786C4.28544 42.7645 2.75456 41.45 1.65376 39.7451C0.55296 38.0403 0 35.9863 0 33.5882C0 32.8539 0.59392 32.2634 1.32096 32.2634H4.81792C5.55008 32.2634 6.13888 32.8591 6.13888 33.5882C6.13888 35.5806 6.75328 37.0698 7.98208 38.066C9.21088 39.0622 10.88 39.5603 12.9894 39.5603C15.0989 39.5603 16.727 39.1341 17.7869 38.2816C18.8416 37.4292 19.369 36.3406 19.369 35.0106C19.369 34.0966 19.1078 33.352 18.5907 32.782C18.0736 32.212 17.3158 31.7499 16.3226 31.3853C15.3293 31.0207 14.1261 30.6818 12.7078 30.3686L11.6224 30.1324C9.35424 29.6291 7.40864 28.9872 5.7856 28.2118C4.16256 27.4365 2.9184 26.4197 2.05312 25.1565C1.18784 23.8933 0.75264 22.2501 0.75264 20.2269C0.75264 18.2037 1.23392 16.4783 2.19136 15.0405C3.15392 13.6027 4.5056 12.4987 6.25664 11.7233C8.00256 10.9479 10.0608 10.5627 12.4211 10.5627C14.7814 10.5627 16.8858 10.9633 18.729 11.7695C20.5722 12.5757 22.0211 13.7773 23.0758 15.3691C24.1306 16.9661 24.6579 18.9637 24.6579 21.3617V21.4541C24.6579 22.1885 24.064 22.779 23.337 22.779H19.84C19.1078 22.779 18.519 22.1833 18.519 21.4541V21.3617C18.519 20.0985 18.2733 19.0818 17.7869 18.3064C17.3005 17.531 16.599 16.9661 15.6826 16.6015C14.7712 16.237 13.6806 16.0572 12.4211 16.0572C10.5318 16.0572 9.1392 16.4115 8.23808 17.1253C7.34208 17.8339 6.89152 18.8045 6.89152 20.0369C6.89152 20.8585 7.10656 21.5517 7.53152 22.1217C7.95648 22.6917 8.59648 23.1641 9.4464 23.5441C10.2963 23.9241 11.3818 24.2527 12.7078 24.5403L13.7933 24.7765C16.1536 25.2797 18.2118 25.9319 19.9578 26.7176C21.7037 27.5083 23.0656 28.5508 24.0435 29.8448C25.0214 31.1388 25.5078 32.7974 25.5078 34.8206C25.5078 36.8438 24.9958 38.6206 23.9718 40.1508C22.9478 41.681 21.4989 42.8826 19.625 43.7505C17.751 44.6183 15.5392 45.0548 12.9894 45.0548Z" fill="#231F20"/>
<path d="M27.0233 43.8532V11.7644C27.0233 11.4666 27.264 11.2252 27.5609 11.2252H32.4403C32.7372 11.2252 32.9779 11.4666 32.9779 11.7644V23.2463C32.9779 23.5442 33.2185 23.7855 33.5155 23.7855C33.71 23.7855 33.8841 23.6777 33.9814 23.5082C34.2272 23.0974 34.5702 22.6815 35.0105 22.2655C35.5481 21.7623 36.2649 21.3412 37.1609 21.0075C38.0569 20.6737 39.1987 20.5094 40.5862 20.5094C42.414 20.5094 44.0115 20.9304 45.3836 21.7674C46.7558 22.6045 47.8156 23.7598 48.5734 25.2285C49.3312 26.6971 49.7049 28.4122 49.7049 30.3686V43.8584C49.7049 44.1562 49.4643 44.3975 49.1673 44.3975H44.288C43.991 44.3975 43.7504 44.1562 43.7504 43.8584V30.8462C43.7504 29.0797 43.3152 27.7498 42.4499 26.8665C41.5846 25.9833 40.3456 25.5417 38.743 25.5417C36.9152 25.5417 35.4969 26.1528 34.4934 27.3646C33.4848 28.5816 32.983 30.2762 32.983 32.4586V43.8635C32.983 44.1613 32.7424 44.4027 32.4454 44.4027H27.566C27.2691 44.4027 27.0284 44.1613 27.0284 43.8635L27.0233 43.8532Z" fill="#231F20"/>
<path d="M63.9642 45.0548C61.6346 45.0548 59.5405 44.5824 57.6819 43.6324C55.8234 42.6824 54.359 41.3114 53.289 39.509C52.2189 37.7066 51.6813 35.5447 51.6813 33.0183V32.2583C51.6813 29.7319 52.2189 27.57 53.289 25.7676C54.359 23.9652 55.8234 22.5942 57.6819 21.6442C59.5405 20.6942 61.6346 20.2218 63.9642 20.2218C66.2938 20.2218 68.3878 20.6942 70.2464 21.6442C72.105 22.5942 73.5693 23.9652 74.6394 25.7676C75.7094 27.57 76.247 29.7319 76.247 32.2583V33.0183C76.247 35.5447 75.7094 37.7117 74.6394 39.509C73.5693 41.3114 72.105 42.6824 70.2464 43.6324C68.3878 44.5824 66.2938 45.0548 63.9642 45.0548ZM63.9642 39.7503C65.792 39.7503 67.3024 39.1598 68.5005 37.9736C69.6986 36.7874 70.2976 35.0929 70.2976 32.8797V32.4072C70.2976 30.1992 69.7088 28.4995 68.5261 27.3133C67.3434 26.1271 65.8227 25.5366 63.9693 25.5366C62.1158 25.5366 60.631 26.1271 59.433 27.3133C58.2349 28.4995 57.6358 30.194 57.6358 32.4072V32.8797C57.6358 35.0929 58.2349 36.7874 59.433 37.9736C60.631 39.1598 62.1414 39.7503 63.9693 39.7503H63.9642Z" fill="#231F20"/>
<path d="M78.4231 53.3171V21.4439C78.4231 21.141 78.6688 20.8945 78.9709 20.8945H83.7325C84.0346 20.8945 84.2804 21.141 84.2804 21.4439V23.1847C84.2804 23.4877 84.5261 23.7342 84.8282 23.7342C85.0176 23.7342 85.1866 23.6366 85.289 23.4774C85.8266 22.6661 86.6048 21.9369 87.634 21.295C88.7655 20.5864 90.3885 20.2269 92.498 20.2269C94.3872 20.2269 96.1332 20.6942 97.7408 21.6237C99.3485 22.5582 100.639 23.9242 101.617 25.7214C102.595 27.5238 103.081 29.7011 103.081 32.2583V33.0183C103.081 35.5755 102.595 37.7579 101.617 39.5552C100.639 41.3576 99.3485 42.7235 97.7408 43.6529C96.1332 44.5824 94.3872 45.0497 92.498 45.0497C91.0797 45.0497 89.8919 44.8854 88.9293 44.5516C87.9668 44.2178 87.1988 43.7916 86.6151 43.273C86.1184 42.8262 85.7088 42.3795 85.3812 41.9224C85.2788 41.7735 85.1149 41.6862 84.9306 41.6862H84.9152C84.6132 41.6862 84.3674 41.9327 84.3674 42.2357V53.3119C84.3674 53.6149 84.1216 53.8614 83.8196 53.8614H78.9658C78.6637 53.8614 78.418 53.6149 78.418 53.3119L78.4231 53.3171ZM90.706 39.8427C92.5645 39.8427 94.1005 39.2522 95.314 38.066C96.5274 36.8798 97.1316 35.1493 97.1316 32.8796V32.4072C97.1316 30.1324 96.5172 28.4019 95.2884 27.2208C94.0596 26.0346 92.5338 25.4441 90.706 25.4441C88.8781 25.4441 87.3524 26.0346 86.1236 27.2208C84.8948 28.407 84.2804 30.1324 84.2804 32.4072V32.8796C84.2804 35.1545 84.8948 36.885 86.1236 38.066C87.3524 39.2471 88.8781 39.8427 90.706 39.8427Z" fill="#231F20"/>
<path d="M105.252 53.3171V21.4439C105.252 21.141 105.498 20.8945 105.8 20.8945H110.561C110.863 20.8945 111.109 21.141 111.109 21.4439V23.1847C111.109 23.4877 111.355 23.7342 111.657 23.7342C111.846 23.7342 112.015 23.6366 112.118 23.4774C112.655 22.6661 113.434 21.9369 114.463 21.295C115.594 20.5864 117.217 20.2269 119.327 20.2269C121.216 20.2269 122.962 20.6942 124.57 21.6237C126.177 22.5582 127.468 23.9242 128.445 25.7214C129.423 27.5238 129.91 29.7011 129.91 32.2583V33.0183C129.91 35.5755 129.423 37.7579 128.445 39.5552C127.468 41.3576 126.177 42.7235 124.57 43.6529C122.962 44.5824 121.216 45.0497 119.327 45.0497C117.908 45.0497 116.721 44.8854 115.758 44.5516C114.796 44.2178 114.028 43.7916 113.444 43.273C112.947 42.8262 112.538 42.3795 112.21 41.9224C112.108 41.7735 111.944 41.6862 111.759 41.6862H111.744C111.442 41.6862 111.196 41.9327 111.196 42.2357V53.3119C111.196 53.6149 110.95 53.8614 110.648 53.8614H105.795C105.492 53.8614 105.247 53.6149 105.247 53.3119L105.252 53.3171ZM117.535 39.8427C119.393 39.8427 120.929 39.2522 122.143 38.066C123.356 36.8798 123.96 35.1493 123.96 32.8796V32.4072C123.96 30.1324 123.346 28.4019 122.117 27.2208C120.888 26.0346 119.363 25.4441 117.535 25.4441C115.707 25.4441 114.181 26.0346 112.952 27.2208C111.724 28.407 111.109 30.1324 111.109 32.4072V32.8796C111.109 35.1545 111.724 36.885 112.952 38.066C114.181 39.2471 115.707 39.8427 117.535 39.8427Z" fill="#231F20"/>
<path d="M135.06 18.1421C133.99 18.1421 133.084 17.7929 132.342 17.0996C131.599 16.4064 131.231 15.4872 131.231 14.3524C131.231 13.2176 131.599 12.2984 132.342 11.6052C133.079 10.9119 133.985 10.5627 135.06 10.5627C136.136 10.5627 137.078 10.9119 137.8 11.6052C138.522 12.2984 138.885 13.2176 138.885 14.3524C138.885 15.4872 138.522 16.4064 137.8 17.0996C137.073 17.7929 136.161 18.1421 135.06 18.1421ZM132.086 43.047V22.2347C132.086 21.4901 132.685 20.8893 133.427 20.8893H136.699C137.441 20.8893 138.04 21.4901 138.04 22.2347V43.047C138.04 43.7915 137.441 44.3923 136.699 44.3923H133.427C132.685 44.3923 132.086 43.7915 132.086 43.047Z" fill="#231F20"/>
<path d="M141.348 43.8634V21.4233C141.348 21.1306 141.583 20.8944 141.875 20.8944H146.678C146.97 20.8944 147.205 21.1306 147.205 21.4233V23.4414C147.205 23.7341 147.441 23.9703 147.733 23.9703C147.932 23.9703 148.106 23.8573 148.204 23.6827C148.608 22.9638 149.263 22.2809 150.185 21.6236C151.224 20.8841 152.801 20.5093 154.911 20.5093C156.739 20.5093 158.336 20.9304 159.708 21.7674C161.08 22.6044 162.14 23.7598 162.898 25.2284C163.656 26.697 164.029 28.4121 164.029 30.3685V43.8634C164.029 44.1561 163.794 44.3923 163.502 44.3923H158.607C158.316 44.3923 158.08 44.1561 158.08 43.8634V30.841C158.08 29.0745 157.645 27.7445 156.78 26.8613C155.914 25.9781 154.675 25.5365 153.073 25.5365C151.245 25.5365 149.827 26.1475 148.823 27.3594C147.814 28.5764 147.313 30.271 147.313 32.4534V43.8634C147.313 44.1561 147.077 44.3923 146.785 44.3923H141.891C141.599 44.3923 141.363 44.1561 141.363 43.8634H141.348Z" fill="#231F20"/>
<path d="M189.199 39.0622C186.378 44.8442 176.85 46.7185 172.969 41.3678C172.687 40.9159 171.94 41.1419 171.955 41.6759V47.232C171.955 48.182 172.395 48.6544 173.276 48.6544H186.327C186.634 48.6544 186.88 48.9009 186.88 49.209V53.3119C186.88 53.62 186.634 53.8665 186.327 53.8665C183.409 53.3016 169.405 55.2324 167.419 52.4235C166.472 51.4582 166.001 50.1744 166.001 48.562V21.449C166.001 21.1409 166.246 20.8944 166.554 20.8944H171.305C172.221 20.8482 171.75 22.6968 171.858 23.1847C171.858 23.4928 172.104 23.7392 172.411 23.7392C175.56 20.0369 180.639 19.0407 185.298 21.6287C191.043 24.6995 192.015 33.6858 189.194 39.0673L189.199 39.0622ZM182.871 37.5217C184.207 36.3098 184.801 34.2866 184.714 32.1196C185.201 26.0397 177.638 23.4055 173.681 27.1694C172.365 28.3608 171.771 30.4097 171.863 32.5972C171.402 38.6206 178.908 41.3473 182.871 37.5268V37.5217Z" fill="#CE4927"/>
<path d="M201.626 45.0548C199.957 45.0548 198.461 44.7621 197.141 44.1767C195.82 43.5913 194.77 42.7389 193.997 41.6195C193.224 40.5 192.84 39.1341 192.84 37.5217C192.84 35.9093 193.224 34.5588 193.997 33.4702C194.77 32.3816 195.84 31.56 197.207 31.0054C198.579 30.4508 200.141 30.1786 201.907 30.1786H208.333V28.8538C208.333 27.7498 207.985 26.8409 207.293 26.1271C206.602 25.4185 205.496 25.059 203.986 25.059C202.476 25.059 201.405 25.3979 200.678 26.0757C199.951 26.7536 199.48 27.6317 199.26 28.7049L193.782 26.8563C194.161 25.6547 194.765 24.5558 195.599 23.5647C196.434 22.5685 197.55 21.7623 198.953 21.1461C200.356 20.5299 202.061 20.2218 204.078 20.2218C207.165 20.2218 209.608 20.9972 211.4 22.5428C213.197 24.0885 214.093 26.3325 214.093 29.2697V38.0352C214.093 38.9852 214.533 39.4576 215.414 39.4576H217.303V44.3873H213.335C212.004 44.3873 210.939 44.0175 210.14 43.273C209.592 42.7646 209.316 42.02 209.316 41.2703V41.2087H208.42C208.292 41.5887 208.01 42.0868 207.57 42.703C207.13 43.3192 206.438 43.8635 205.491 44.3359C204.544 44.8083 203.254 45.0445 201.615 45.0445L201.626 45.0548ZM202.665 40.2228C204.334 40.2228 205.696 39.7555 206.751 38.826C207.805 37.8966 208.333 36.6539 208.333 35.1083V34.6358H202.332C201.231 34.6358 200.361 34.872 199.736 35.3445C199.117 35.8118 198.805 36.4588 198.789 37.2906C198.784 37.6809 198.861 38.0763 199.025 38.4306C199.573 39.6271 200.786 40.2228 202.665 40.2228Z" fill="#231F20"/>
<path d="M225.623 44.3923C224.082 44.3923 222.828 43.9096 221.87 42.9494C220.908 41.984 220.431 40.7002 220.431 39.0878V26.3632C220.431 26.0654 220.191 25.8189 219.889 25.8189H215.117C214.82 25.8189 214.574 25.5776 214.574 25.2746V21.4336C214.574 21.1358 214.815 20.8893 215.117 20.8893H219.889C220.186 20.8893 220.431 20.6479 220.431 20.345V14.1367C220.431 13.8389 220.672 13.5924 220.974 13.5924H225.843C226.14 13.5924 226.386 13.8338 226.386 14.1367V20.345C226.386 20.6428 226.627 20.8893 226.929 20.8893H232.269C232.566 20.8893 232.812 21.1306 232.812 21.4336V25.2746C232.812 25.5724 232.571 25.8189 232.269 25.8189H226.929C226.632 25.8189 226.386 26.0603 226.386 26.3632V38.0454C226.386 38.9954 226.826 39.4678 227.707 39.4678H231.701C231.997 39.4678 232.243 39.7092 232.243 40.0121V43.8532C232.243 44.151 232.003 44.3975 231.701 44.3975H225.628L225.623 44.3923Z" fill="#231F20"/>
<path d="M244.71 45.0548C242.381 45.0548 240.323 44.5567 238.546 43.5605C236.764 42.5643 235.382 41.1625 234.388 39.3447C233.395 37.5269 232.899 35.3907 232.899 32.9259V32.3559C232.899 29.8911 233.385 27.7549 234.363 25.9371C235.341 24.1193 236.708 22.7174 238.474 21.7212C240.236 20.725 242.284 20.2269 244.613 20.2269C246.943 20.2269 248.914 20.7404 250.614 21.7674C252.314 22.7944 253.64 24.2168 254.582 26.0295C255.529 27.8473 256 29.9527 256 32.3559V33.655C256 34.0607 255.672 34.3945 255.263 34.3945H239.759C239.299 34.3945 238.956 34.8156 239.037 35.2726C239.252 36.4896 239.821 37.5063 240.742 38.3279C241.874 39.3395 243.261 39.8427 244.9 39.8427C246.538 39.8427 247.798 39.4782 248.586 38.7541C249.185 38.1995 249.677 37.5987 250.056 36.9517C250.255 36.6128 250.68 36.4947 251.023 36.6744L254.556 38.5333C254.935 38.7336 255.073 39.2111 254.843 39.5757C254.444 40.2022 253.937 40.8698 253.327 41.5733C252.493 42.5386 251.382 43.3602 249.999 44.0381C248.612 44.7159 246.851 45.0548 244.71 45.0548ZM239.928 29.9424H249.078C249.564 29.9424 249.917 29.4803 249.789 29.0078C249.544 28.0733 249.052 27.2979 248.325 26.6714C247.363 25.8498 246.113 25.439 244.572 25.439C243.031 25.439 241.69 25.8498 240.748 26.6714C240.041 27.2825 239.539 28.0476 239.237 28.9565C239.078 29.4392 239.427 29.9424 239.933 29.9424H239.928Z" fill="#231F20"/>
<path d="M18.8518 7.23012H16.2611C15.8157 7.23012 15.4061 6.9477 15.2883 6.51636C14.976 5.40719 13.9571 4.59072 12.7539 4.59072C11.5507 4.59072 10.5318 5.40719 10.2195 6.51636C10.1017 6.9477 9.68701 7.23012 9.24669 7.23012H6.65597C6.03133 7.23012 5.53981 6.67041 5.64221 6.0542C6.20541 2.624 9.18013 0 12.7539 0C16.3277 0 19.3075 2.624 19.8656 6.0542C19.968 6.67041 19.4765 7.23012 18.8518 7.23012Z" fill="#CE4927"/>
</g>
<defs>
<clipPath id="clip0_13361_3383">
<rect width="256" height="54" fill="white"/>
</clipPath>
</defs>
</svg>
