<svg width="16" height="17" viewBox="0 0 16 17" fill="none" xmlns="http://www.w3.org/2000/svg">
<path d="M9.66667 5.03121C9.66667 3.19026 8.17427 1.69788 6.33333 1.69788C4.49239 1.69788 3 3.19026 3 5.03121C3 6.87214 4.49239 8.36454 6.33333 8.36454C8.17427 8.36454 9.66667 6.87214 9.66667 5.03121Z" stroke="#CC4924" stroke-linecap="round" stroke-linejoin="round"/>
<path d="M1.66669 13.0313C1.66669 10.454 3.75603 8.36462 6.33335 8.36462C7.04909 8.36462 7.72715 8.52576 8.33335 8.81369" stroke="#CC4924" stroke-linecap="round" stroke-linejoin="round"/>
<path d="M14.3334 11.3646V9.69792C13 9.69792 12 9.03125 12 9.03125C12 9.03125 11 9.69792 9.66669 9.69792V11.3646C9.66669 13.6979 12 14.3646 12 14.3646C12 14.3646 14.3334 13.6979 14.3334 11.3646Z" stroke="#CC4924" stroke-linecap="round" stroke-linejoin="round"/>
</svg>
