<svg width="65" height="65" viewBox="0 0 65 65" fill="none" xmlns="http://www.w3.org/2000/svg">
<path d="M32.5001 65.0001C50.4494 65.0001 65.0001 50.4494 65.0001 32.5001C65.0001 14.5508 50.4494 0 32.5001 0C14.5508 0 0 14.5508 0 32.5001C0 50.4494 14.5508 65.0001 32.5001 65.0001Z" fill="#E68251"/>
<path d="M65.0001 32.4999C65.0001 50.375 50.3751 65 32.5 65C22.1407 65 13.0001 60.3281 7.10938 52.8125C12.5938 57.2813 19.7032 59.9219 27.4218 59.9219C45.2969 59.9219 59.9219 45.2969 59.9219 27.4219C59.9219 19.7032 57.2813 12.5938 52.8125 7.10938C60.3282 12.9998 65.0001 22.1404 65.0001 32.4999Z" fill="#E0622F"/>
<path d="M50.1714 23.1563L29.0464 46.3127C27.6245 47.9377 25.1871 47.9377 23.7651 46.3127L14.8276 36.3595C13.6089 34.9376 13.6089 32.7033 15.0307 31.2813C16.4526 30.0626 18.687 30.0626 20.1089 31.4844L26.4058 38.5938L44.8901 18.4845C46.3121 17.0625 48.5464 16.8594 49.9683 18.2814C51.3901 19.5001 51.3901 21.9376 50.1714 23.1563Z" fill="white"/>
</svg>
