<svg width="20" height="20" viewBox="0 0 20 20" fill="none" xmlns="http://www.w3.org/2000/svg">
<path d="M16.2507 14.5833C16.2507 15.7339 15.3179 16.6667 14.1673 16.6667C13.0167 16.6667 12.084 15.7339 12.084 14.5833C12.084 13.4327 13.0167 12.5 14.1673 12.5C15.3179 12.5 16.2507 13.4327 16.2507 14.5833Z" stroke="black" stroke-width="1.5"/>
<path d="M7.91667 14.5833C7.91667 15.7339 6.98392 16.6667 5.83333 16.6667C4.68274 16.6667 3.75 15.7339 3.75 14.5833C3.75 13.4327 4.68274 12.5 5.83333 12.5C6.98392 12.5 7.91667 13.4327 7.91667 14.5833Z" stroke="black" stroke-width="1.5"/>
<path d="M12.0827 14.5835H7.91602M16.2493 14.5835H16.8853C17.0686 14.5835 17.1603 14.5835 17.2373 14.5739C17.8051 14.5032 18.2523 14.0559 18.3231 13.4881C18.3327 13.4111 18.3327 13.3194 18.3327 13.1362V10.8335C18.3327 7.84195 15.9076 5.41683 12.916 5.41683M1.66602 3.3335H9.99935C11.1778 3.3335 11.7671 3.3335 12.1333 3.69961C12.4993 4.06573 12.4993 4.65499 12.4993 5.8335V12.9168M1.66602 10.6252V12.5002C1.66602 13.279 1.66602 13.6684 1.83348 13.9585C1.94319 14.1485 2.10099 14.3063 2.29102 14.416C2.58108 14.5835 2.9705 14.5835 3.74935 14.5835" stroke="black" stroke-width="1.5" stroke-linecap="round" stroke-linejoin="round"/>
<path d="M1.66602 5.8335H6.66602M1.66602 8.3335H4.99935" stroke="#CC4924" stroke-width="1.5" stroke-linecap="round" stroke-linejoin="round"/>
</svg>
