<svg width="21" height="20" viewBox="0 0 21 20" fill="none" xmlns="http://www.w3.org/2000/svg">
<path d="M2.58301 10.834L4.24967 11.6673" stroke="#CC4924" stroke-width="1.5" stroke-linecap="round" stroke-linejoin="round"/>
<path d="M18.4167 11.25L16.75 11.6667" stroke="#CC4924" stroke-width="1.5" stroke-linecap="round" stroke-linejoin="round"/>
<path d="M7.16699 15.4173L7.37172 14.9055C7.67617 14.1444 7.82839 13.7638 8.14583 13.5489C8.46327 13.334 8.87316 13.334 9.69291 13.334H11.3077C12.1275 13.334 12.5374 13.334 12.8548 13.5489C13.1722 13.7638 13.3245 14.1444 13.6289 14.9055L13.8337 15.4173" stroke="black" stroke-width="1.5" stroke-linecap="round" stroke-linejoin="round"/>
<path d="M2.16699 15V17.4017C2.16699 17.7172 2.36762 18.0058 2.68523 18.147C2.89131 18.2386 3.08814 18.3333 3.32581 18.3333H4.75818C4.99584 18.3333 5.19268 18.2386 5.39876 18.147C5.71637 18.0058 5.91699 17.7172 5.91699 17.4017V15.8333" stroke="black" stroke-width="1.5" stroke-linecap="round" stroke-linejoin="round"/>
<path d="M15.083 15.8333V17.4017C15.083 17.7172 15.2837 18.0058 15.6013 18.147C15.8073 18.2386 16.0042 18.3333 16.2418 18.3333H17.6742C17.9118 18.3333 18.1087 18.2386 18.3148 18.147C18.6323 18.0058 18.833 17.7172 18.833 17.4017V15" stroke="black" stroke-width="1.5" stroke-linecap="round" stroke-linejoin="round"/>
<path d="M17.167 7.91667L18.0003 7.5" stroke="#CC4924" stroke-width="1.5" stroke-linecap="round" stroke-linejoin="round"/>
<path d="M3.83333 7.91667L3 7.5" stroke="#CC4924" stroke-width="1.5" stroke-linecap="round" stroke-linejoin="round"/>
<path d="M13.4163 3.74935C13.2162 2.74387 13.1161 2.24112 12.8778 1.95357C12.6396 1.66602 12.3231 1.66602 11.6901 1.66602H9.30926C8.67626 1.66602 8.35977 1.66602 8.12152 1.95357C7.88325 2.24112 7.78317 2.74387 7.58301 3.74935" stroke="#CC4924" stroke-width="1.5" stroke-linejoin="round"/>
<path d="M4.25033 8.75H16.7503C17.548 9.54767 18.8337 10.6585 18.8337 11.8978V14.6293C18.8337 15.0783 18.5174 15.4562 18.0977 15.5087L15.5003 15.8333H5.50033L2.90296 15.5087C2.48328 15.4562 2.16699 15.0783 2.16699 14.6293V11.8978C2.16699 10.6585 3.45265 9.54767 4.25033 8.75Z" stroke="black" stroke-width="1.5" stroke-linejoin="round"/>
<path d="M4.25 8.75L5.15692 6.02924C5.5236 4.92921 5.70693 4.37919 6.14342 4.0646C6.57989 3.75 7.15966 3.75 8.3192 3.75H12.6808C13.8403 3.75 14.4201 3.75 14.8566 4.0646C15.2931 4.37919 15.4764 4.92921 15.8431 6.02924L16.75 8.75" stroke="black" stroke-width="1.5" stroke-linejoin="round"/>
</svg>
