<svg width="20" height="20" viewBox="0 0 20 20" fill="none" xmlns="http://www.w3.org/2000/svg">
<g clip-path="url(#clip0_3116_13092)">
<path d="M4.16602 17.5006C7.67433 13.5412 11.617 8.2902 17.4993 12.2285" stroke="black" stroke-width="1.5"/>
<path d="M14.166 3.74935C14.5756 3.32793 15.6658 1.66602 16.2493 1.66602M16.2493 1.66602C16.8328 1.66602 17.9231 3.32793 18.3327 3.74935M16.2493 1.66602V8.33267" stroke="#CC4924" stroke-width="1.5" stroke-linecap="round" stroke-linejoin="round"/>
<path d="M17.4993 10.8333C17.4977 14.2892 17.4554 16.0586 16.34 17.174C15.1806 18.3333 13.3146 18.3333 9.58268 18.3333C5.85073 18.3333 3.98476 18.3333 2.82538 17.174C1.66602 16.0146 1.66602 14.1486 1.66602 10.4167C1.66602 6.68472 1.66602 4.81874 2.82538 3.65937C3.98476 2.5 5.85073 2.5 9.58268 2.5C9.72427 2.5 11.666 2.50007 11.666 2.50007" stroke="black" stroke-width="1.5" stroke-linecap="round"/>
</g>
<defs>
<clipPath id="clip0_3116_13092">
<rect width="20" height="20" fill="white"/>
</clipPath>
</defs>
</svg>
