<svg width="33" height="11" viewBox="0 0 33 11" fill="none" xmlns="http://www.w3.org/2000/svg">
<path fill-rule="evenodd" clip-rule="evenodd" d="M8.43367 10.3436H5.68735L3.62794 2.25573C3.53019 1.88369 3.32264 1.55478 3.01735 1.39977C2.25545 1.0102 1.41589 0.700168 0.5 0.543803V0.232422H4.92411C5.5347 0.232422 5.99264 0.700168 6.06897 1.2434L7.1375 7.07742L9.88248 0.232422H12.5525L8.43367 10.3436ZM14.079 10.3436H11.4853L13.621 0.232422H16.2147L14.079 10.3436ZM19.5703 3.03428C19.6466 2.4897 20.1045 2.17832 20.6388 2.17832C21.4784 2.10014 22.3929 2.25651 23.1562 2.64472L23.6141 0.467746C22.8509 0.156365 22.0113 0 21.2494 0C18.732 0 16.9003 1.40054 16.9003 3.34432C16.9003 4.82304 18.1978 5.59948 19.1137 6.06722C20.1045 6.53362 20.4862 6.845 20.4098 7.3114C20.4098 8.011 19.6466 8.32238 18.8847 8.32238C17.9688 8.32238 17.0529 8.08918 16.2147 7.69962L15.7568 9.87794C16.6726 10.2662 17.6635 10.4225 18.5794 10.4225C21.402 10.4994 23.1562 9.10016 23.1562 7.00002C23.1562 4.3553 19.5703 4.20028 19.5703 3.03428ZM32.2333 10.3436L30.1739 0.232422H27.9619C27.5039 0.232422 27.046 0.543803 26.8934 1.0102L23.0798 10.3436H25.7498L26.2828 8.86618H29.5634L29.8686 10.3436H32.2333ZM28.3435 2.95703L29.1054 6.76775H26.9697L28.3435 2.95703Z" fill="#172B85"/>
</svg>
