<svg width="200" height="200" viewBox="0 0 200 200" fill="none" xmlns="http://www.w3.org/2000/svg">
<path d="M120.683 7.26498C123.789 7.17498 171.776 6.45598 174.751 6.58598C177.726 6.71598 187.539 5.35698 187.839 22.043C188.139 38.729 188.267 118.78 188.203 122.158C188.139 125.536 187.427 134.252 173.002 136.001C158.577 137.75 130.059 136.713 123.915 136.583C117.771 136.453 111.174 134.449 111.174 121.838C111.174 109.227 110.322 22.638 110.463 18.747C110.604 14.856 113.51 7.47098 120.683 7.26498Z" fill="white"/>
<path d="M125.375 72.1334C125.249 70.4834 124.567 66.1834 129.546 66.0864C134.525 65.9894 157.809 66.3124 158.779 66.0864C159.749 65.8604 160.849 64.3724 161.625 62.3994C162.401 60.4264 166.6 54.7134 172.134 54.2504C175.902 53.9354 174.634 58.2284 173.557 58.3574C172.757 58.4574 167.057 59.7384 166.184 63.1704C165.311 66.6024 160.105 85.5534 159.62 86.9114C159.135 88.2694 158.229 91.1114 152.829 91.3734C147.429 91.6354 135.755 91.0254 133.686 90.9404C131.617 90.8554 128.35 90.0154 127.574 86.6524C126.798 83.2894 125.466 73.3324 125.375 72.1334Z" fill="#FCCAC2"/>
<path d="M155.163 100.347C157.05 100.347 158.58 98.845 158.58 96.992C158.58 95.139 157.05 93.637 155.163 93.637C153.276 93.637 151.746 95.139 151.746 96.992C151.746 98.845 153.276 100.347 155.163 100.347Z" fill="#FCCAC2"/>
<path d="M132.173 37.0141C131.682 37.0046 131.199 37.1411 130.786 37.4065C130.373 37.6718 130.048 38.0539 129.853 38.5042C129.658 38.9546 129.601 39.4528 129.689 39.9357C129.777 40.4186 130.007 40.8643 130.35 41.2161C130.693 41.5672 131.133 41.8081 131.614 41.9082C132.095 42.0083 132.595 41.9631 133.05 41.7784C133.505 41.5937 133.895 41.2777 134.17 40.8708C134.445 40.4638 134.592 39.9843 134.594 39.4931C134.601 38.8435 134.35 38.2176 133.896 37.7528C133.442 37.288 132.822 37.0223 132.173 37.0141ZM132.173 41.1541C131.925 41.163 131.679 41.1165 131.452 41.0181C131.225 40.9197 131.022 40.7718 130.86 40.5853C130.697 40.3987 130.578 40.1782 130.511 39.9398C130.444 39.7014 130.432 39.4511 130.474 39.2071C130.54 38.7928 130.761 38.419 131.091 38.1608C131.422 37.9026 131.838 37.7792 132.256 37.8155C132.674 37.8517 133.063 38.0449 133.344 38.3561C133.626 38.6674 133.779 39.0736 133.773 39.4931C133.777 39.7073 133.739 39.9201 133.661 40.1195C133.582 40.3189 133.466 40.501 133.317 40.6552C133.168 40.8095 132.991 40.933 132.795 41.0186C132.598 41.1042 132.387 41.1502 132.173 41.1541Z" fill="#501200"/>
<path d="M145.282 36.7687C144.791 36.7578 144.307 36.8935 143.893 37.1587C143.478 37.4239 143.152 37.8064 142.957 38.2575C142.761 38.7086 142.703 39.2079 142.792 39.6917C142.881 40.1754 143.112 40.6217 143.456 40.9737C143.799 41.3256 144.24 41.5673 144.721 41.6678C145.203 41.7683 145.703 41.7232 146.159 41.5381C146.615 41.3531 147.005 41.0365 147.28 40.6287C147.555 40.221 147.703 39.7405 147.703 39.2487C147.709 38.5994 147.458 37.9743 147.004 37.5097C146.551 37.0451 145.932 36.7787 145.282 36.7687ZM145.282 40.8977C144.953 40.9086 144.627 40.8208 144.347 40.6455C144.067 40.4702 143.846 40.2153 143.712 39.9137C143.612 39.688 143.563 39.4428 143.57 39.1959C143.577 38.949 143.639 38.7068 143.751 38.4869C143.864 38.2671 144.024 38.0753 144.221 37.9256C144.417 37.7758 144.645 37.672 144.886 37.6217C145.128 37.571 145.378 37.575 145.618 37.6333C145.858 37.6916 146.081 37.8028 146.273 37.9588C146.464 38.1148 146.618 38.3115 146.724 38.5347C146.829 38.7579 146.883 39.0018 146.882 39.2487C146.889 39.6798 146.724 40.0958 146.424 40.4056C146.124 40.7154 145.714 40.8938 145.282 40.9017V40.8977Z" fill="#501200"/>
<path d="M157.457 36.8746C156.966 36.8666 156.484 37.0051 156.072 37.2722C155.66 37.5393 155.336 37.9231 155.143 38.3746C154.95 38.826 154.896 39.3248 154.987 39.8073C155.078 40.2898 155.311 40.7341 155.656 41.0838C156.001 41.4334 156.442 41.6725 156.923 41.7705C157.404 41.8685 157.904 41.8211 158.358 41.6342C158.812 41.4473 159.2 41.1295 159.473 40.7212C159.746 40.3129 159.891 39.8326 159.89 39.3416C159.893 39.0195 159.833 38.6999 159.713 38.4012C159.592 38.1025 159.413 37.8306 159.187 37.6013C158.961 37.3719 158.692 37.1896 158.395 37.0649C158.098 36.9402 157.779 36.8755 157.457 36.8746ZM157.457 41.0026C157.126 41.0124 156.8 40.9233 156.521 40.7466C156.241 40.5699 156.021 40.3138 155.888 40.011C155.755 39.7082 155.715 39.3726 155.774 39.0472C155.833 38.7218 155.988 38.4214 156.219 38.1846C156.449 37.9471 156.745 37.7838 157.068 37.7156C157.392 37.6474 157.728 37.6774 158.035 37.8017C158.341 37.926 158.604 38.139 158.788 38.4133C158.973 38.6877 159.071 39.0109 159.071 39.3416C159.075 39.7752 158.908 40.193 158.606 40.5039C158.303 40.8148 157.89 40.9937 157.457 41.0016V41.0026Z" fill="#501200"/>
<path d="M173.41 53.8213C171.51 53.4003 164.11 55.8983 161.282 62.1833C160.62 63.6523 159.656 65.4233 158.919 65.6453C158.065 65.8913 130.71 65.5633 129.307 65.6453C126.175 65.8203 124.949 67.6453 124.968 70.7673C124.991 74.7093 126.161 81.3673 127.108 86.2523C127.88 90.2403 131.08 90.9524 133.408 91.2463C137.022 91.7053 152.693 91.7374 153.488 91.7024C157.734 91.4804 159.041 89.4464 159.816 87.4683C162.15 81.5103 166.093 64.4363 166.786 62.8383C168.135 59.7303 173.312 58.8153 173.616 58.6983C175.658 57.9093 175.46 54.2743 173.41 53.8213ZM173.328 57.9383C173.035 58.0383 167.799 58.9543 166.053 62.4753C165.245 64.1063 161.394 81.1303 159.083 87.0943C158.365 88.9473 157.223 90.6843 153.446 90.8834C149.411 91.0944 135.746 90.6614 133.494 90.4273C131.242 90.1933 128.57 89.5153 127.903 86.1003C127.237 82.6153 125.81 72.2883 125.786 70.7563C125.751 67.9253 126.851 66.6043 129.354 66.4643C129.81 66.4403 158.254 66.6983 159.154 66.4283C160.23 66.1013 161.188 64.4283 162.019 62.5573C164.744 56.4323 171.878 54.3243 173.235 54.6283C174.475 54.8863 174.615 57.4363 173.328 57.9383Z" fill="#501200"/>
<path d="M155.072 93.1171C154.325 93.1337 153.599 93.3704 152.985 93.7977C152.372 94.2251 151.898 94.8239 151.623 95.5194C151.348 96.2148 151.285 96.9758 151.441 97.7071C151.597 98.4384 151.965 99.1074 152.499 99.6304C153.034 100.153 153.711 100.507 154.445 100.647C155.18 100.787 155.939 100.707 156.628 100.417C157.318 100.128 157.906 99.6411 158.32 99.0185C158.734 98.3958 158.955 97.6648 158.955 96.9171C158.944 95.8986 158.528 94.9264 157.8 94.2139C157.072 93.5015 156.091 93.107 155.072 93.1171ZM155.072 99.8891C154.487 99.8722 153.919 99.683 153.441 99.3452C152.962 99.0074 152.594 98.536 152.382 97.99C152.169 97.4439 152.123 96.8474 152.248 96.2751C152.373 95.7028 152.664 95.1801 153.085 94.7724C153.506 94.3646 154.037 94.09 154.613 93.9827C155.189 93.8755 155.784 93.9404 156.323 94.1694C156.862 94.3984 157.322 94.7813 157.645 95.2702C157.967 95.7591 158.139 96.3323 158.137 96.9181C158.125 97.7185 157.796 98.4813 157.221 99.0391C156.937 99.315 156.6 99.5321 156.231 99.6779C155.863 99.8237 155.469 99.8955 155.072 99.8891Z" fill="#501200"/>
<path d="M187.917 18.6762C187.145 6.99217 179.672 5.95117 172.003 6.03317C171.336 5.98717 130.789 6.26717 120.673 6.92217C113.737 7.36717 109.973 11.9402 110.042 19.7752C110.073 21.6852 110.48 111.606 110.849 124.798C111.071 132.786 115.597 137.16 124.298 137.16C148.566 137.16 173.278 136.388 173.29 136.388C186.938 135.207 188.517 126.003 188.563 122.097C188.603 117.045 188.97 34.6632 187.917 18.6762ZM132.342 11.2142C134.136 11.1862 135.219 14.0332 137.37 14.0332C141.361 14.0332 155.463 13.9512 155.463 13.9512C157.742 13.9512 158.195 10.7702 161.112 10.7702C165.007 10.7702 167.38 10.7002 168.035 10.7112C171.462 10.7822 178.62 10.9222 179.31 21.9862C180.269 36.9792 179.941 114.46 179.894 119.196C179.836 124.939 178.655 131.558 170.047 131.862C162.492 132.131 135.09 132.762 126.482 132.541C123.722 132.471 114.982 132.26 114.699 121.688V22.9102C114.653 18.0332 115.793 12.1152 123.231 11.6242C125.465 11.4722 128.282 11.2792 132.342 11.2142ZM187.742 122.085C187.79 124.6 187.085 127.071 185.718 129.182C184.351 131.292 182.384 132.947 180.07 133.932C183.461 131.126 184.105 126.424 184.151 122.144C184.198 117.091 184.561 34.7102 183.508 18.7232C183.04 11.5302 179.953 8.42317 176.702 7.05117C182.202 7.67117 186.526 10.0922 187.102 18.7342C188.151 34.7012 187.789 117.045 187.742 122.085Z" fill="#501200"/>
<path d="M133.148 99.9637C135.035 99.9637 136.565 98.4617 136.565 96.6087C136.565 94.7557 135.035 93.2537 133.148 93.2537C131.261 93.2537 129.731 94.7557 129.731 96.6087C129.731 98.4617 131.261 99.9637 133.148 99.9637Z" fill="#FCCAC2"/>
<path d="M133.154 92.8143C132.406 92.8285 131.678 93.0633 131.063 93.4894C130.448 93.9155 129.972 94.5138 129.695 95.2093C129.419 95.9048 129.354 96.6664 129.508 97.3988C129.663 98.1311 130.03 98.8014 130.565 99.3257C131.099 99.85 131.776 100.205 132.511 100.346C133.246 100.487 134.006 100.407 134.697 100.118C135.387 99.828 135.976 99.341 136.391 98.7178C136.805 98.0945 137.026 97.3627 137.026 96.6143C137.013 95.5981 136.599 94.6283 135.873 93.9164C135.148 93.2046 134.171 92.8084 133.154 92.8143ZM133.154 99.5853C132.569 99.5707 132 99.3834 131.521 99.047C131.041 98.7106 130.671 98.24 130.458 97.6943C130.244 97.1489 130.196 96.5523 130.32 95.9795C130.443 95.4068 130.734 94.8834 131.154 94.4753C131.574 94.0672 132.105 93.7921 132.681 93.6842C133.257 93.5764 133.851 93.6407 134.391 93.8691C134.93 94.0975 135.39 94.4799 135.713 94.9683C136.036 95.4567 136.208 96.0296 136.207 96.6153C136.194 97.4131 135.865 98.1731 135.293 98.7295C134.721 99.286 133.952 99.5936 133.154 99.5853Z" fill="#501200"/>
<path d="M136.113 50.6852C85.2433 46.8132 69.4033 49.2492 69.4033 49.2492C65.1033 60.9012 62.8673 75.3012 60.5453 87.2712C54.7943 116.913 51.4453 140.639 51.4453 140.639L58.5453 139.216C59.1113 139.377 64.4793 144.228 64.4793 144.228C68.1953 145.514 90.7793 145.704 110.526 145.307C130.993 144.895 148.587 143.872 148.587 143.872C149.103 140.639 140.029 72.1252 136.113 50.6852Z" fill="#FFB949"/>
<path d="M76.2214 71.0321C84.7028 70.6748 93.1991 70.956 101.638 71.8731C101.638 71.8731 102.638 87.1041 102.09 88.4941C102.09 88.4941 77.4504 88.3651 76.2214 87.7181C76.2214 87.7181 75.4454 73.3281 76.2214 71.0321Z" fill="white"/>
<path d="M102.569 79.9583C102.415 71.6293 102.181 71.5193 101.882 71.3803C101.682 71.2863 76.493 69.6413 75.806 70.6973C75.47 70.6473 75.419 87.5113 75.773 88.0163C76.196 88.6163 101.973 89.2413 102.353 88.8403C102.746 88.4223 102.576 80.2883 102.569 79.9583ZM101.763 88.1054C100.122 88.2774 77.185 87.3233 76.445 87.3233C76.445 87.3233 76.406 73.2463 76.52 71.3733C78.89 71.0193 99.207 71.8063 101.403 72.1013C101.744 73.8563 101.877 86.3603 101.763 88.1054Z" fill="#501200"/>
<path d="M136.494 50.6237C136.123 50.1567 131.402 49.6927 124.611 49.2957C123.639 34.3957 118.08 20.7057 103.155 20.2887C101.681 19.9476 100.174 19.7712 98.6614 19.7627C79.2474 19.7627 75.8454 46.8017 75.6754 48.2787C70.0484 48.6657 69.4604 48.7177 69.4174 48.7377C66.1714 49.2377 50.3874 139.757 51.1524 140.859C51.1968 140.922 51.2575 140.971 51.328 141.002C51.3984 141.033 51.476 141.044 51.5524 141.035C53.3084 140.783 57.3264 139.81 58.5774 139.644C60.6028 141.17 62.5356 142.815 64.3654 144.571C65.7934 145.871 91.6924 145.863 93.5434 145.863C111.899 145.863 134.652 145.298 148.602 144.332C148.68 144.323 148.753 144.295 148.816 144.25C148.879 144.205 148.93 144.144 148.962 144.074C149.582 142.671 137.462 51.8407 136.494 50.6237ZM123.794 49.2487C122.19 49.159 120.585 49.077 118.979 49.0027C119 47.2027 118.919 32.9487 111.304 24.9707C109.913 23.5065 108.264 22.3109 106.44 21.4437C118.744 23.7527 122.962 36.6917 123.792 49.2487H123.794ZM103.039 21.1007C105.973 21.7991 108.638 23.3388 110.708 25.5307C117.968 33.1307 118.164 47.1607 118.157 48.9607C107.465 48.4787 94.1414 48.1607 84.0024 48.1677C85.0094 34.4947 89.3294 20.7547 103.039 21.1007ZM98.6654 20.5777C95.6652 21.3717 92.9436 22.9812 90.8024 25.2277C85.3404 31.0277 83.6664 40.8817 83.1504 48.1727C80.7044 48.1797 78.4614 48.2067 76.5074 48.2557C76.7854 45.9407 80.3214 20.5817 98.6654 20.5817V20.5777ZM58.2194 138.872C57.0634 139.037 53.3594 139.929 51.9064 140.154C52.1944 137.048 63.3384 68.6077 68.2564 53.8007C65.5024 73.3527 58.7494 134.091 58.2194 138.872ZM64.2364 143.343C62.6212 141.751 60.8802 140.292 59.0304 138.98C59.4714 135.012 64.4804 89.9397 67.6464 64.7307C66.2574 88.1627 64.5784 137.068 64.2364 143.343ZM65.0164 143.989C65.1074 142.827 68.5684 52.6427 69.8414 49.4817C74.2434 49.0137 78.6714 48.8237 83.0964 48.9117C82.9629 51.0903 82.9205 53.2735 82.9694 55.4557C82.4434 55.5869 81.9851 55.9094 81.6841 56.3602C81.383 56.811 81.2607 57.3579 81.341 57.894C81.4214 58.4301 81.6986 58.9171 82.1186 59.2599C82.5386 59.6026 83.0713 59.7766 83.6126 59.7478C84.154 59.7191 84.6652 59.4896 85.0465 59.1043C85.4278 58.7189 85.6519 58.2053 85.675 57.6637C85.698 57.1221 85.5185 56.5913 85.1713 56.1749C84.8242 55.7585 84.3343 55.4864 83.7974 55.4117C83.7606 53.2439 83.8113 51.0754 83.9494 48.9117C96.1164 48.9117 112.699 49.5117 123.849 50.1417C123.993 52.8677 123.954 55.1417 123.896 56.5647C123.363 56.6758 122.891 56.9818 122.571 57.4228C122.251 57.8639 122.108 58.4083 122.168 58.9496C122.229 59.4909 122.489 59.9902 122.898 60.3499C123.307 60.7095 123.835 60.9037 124.38 60.8944C124.925 60.8851 125.446 60.673 125.843 60.2995C126.239 59.9261 126.482 59.4182 126.524 58.8751C126.566 58.3321 126.404 57.7929 126.069 57.363C125.735 56.9331 125.252 56.6435 124.715 56.5507C124.795 54.43 124.779 52.3069 124.666 50.1877C128.411 50.2997 132.147 50.6277 135.855 51.1697C137.111 55.0887 148.143 137.682 148.209 143.539C119.929 145.467 68.4224 145.485 65.0164 143.989Z" fill="#501200"/>
<path d="M22.1509 123.047C22.1419 123.882 22.2129 124.716 22.3619 125.537C22.5229 125.57 41.5209 123.128 49.4759 122.772C57.4309 122.417 68.0569 122.743 68.4579 122.772C68.4579 122.772 57.6299 69.3535 57.2579 68.8795C48.0039 68.0365 16.6089 68.7795 14.3789 69.0445C14.3789 69.0445 14.6949 70.5975 14.6459 70.5975L13.1459 70.6695L13.5339 72.9495L12.2039 73.4375C12.2039 73.4375 14.1359 103.855 11.7129 120.945C13.2419 121.159 14.7926 121.168 16.3239 120.97C16.3239 120.97 16.2679 122.975 16.2239 123.436C18.2079 123.581 20.2029 123.45 22.1509 123.047Z" fill="white"/>
<path d="M24.7871 66.068C24.8391 65.868 43.3811 64.268 47.2611 64.98C47.2611 64.98 48.4901 69.286 47.8111 71.339C47.8111 71.339 30.1871 72.633 25.0781 72.471C24.4112 70.4009 24.3108 68.19 24.7871 66.068Z" fill="#CC4924"/>
<path d="M22.4709 82.5074C22.3699 82.5041 22.2735 82.4636 22.2005 82.3936C22.1275 82.3237 22.0829 82.2292 22.0754 82.1283C22.0678 82.0275 22.0978 81.9274 22.1595 81.8473C22.2213 81.7672 22.3105 81.7127 22.4099 81.6944C23.5239 81.5244 40.3919 80.4624 42.9099 80.3184C43.0158 80.3166 43.1183 80.3558 43.196 80.4278C43.2736 80.4998 43.3204 80.5991 43.3265 80.7048C43.3325 80.8106 43.2975 80.9146 43.2286 80.995C43.1597 81.0755 43.0624 81.1261 42.9569 81.1364C40.5019 81.2754 22.4919 82.5074 22.4709 82.5074Z" fill="#501200"/>
<path d="M23.5583 91.5809C23.5046 91.5823 23.4511 91.573 23.401 91.5538C23.3508 91.5345 23.305 91.5055 23.266 91.4685C23.2271 91.4315 23.1958 91.3872 23.174 91.3381C23.1521 91.289 23.1402 91.2361 23.1388 91.1824C23.1374 91.1287 23.1466 91.0752 23.1659 91.0251C23.1852 90.9749 23.2142 90.9291 23.2512 90.8901C23.2882 90.8511 23.3325 90.8199 23.3816 90.798C23.4307 90.7762 23.4836 90.7643 23.5373 90.7629C23.7303 90.7529 42.8173 89.7479 44.9093 89.5739C45.0141 89.5711 45.116 89.6085 45.194 89.6785C45.272 89.7485 45.3203 89.8457 45.3288 89.9502C45.3374 90.0546 45.3057 90.1584 45.2401 90.2402C45.1745 90.322 45.0801 90.3755 44.9763 90.3899C42.8733 90.5649 23.5583 91.5809 23.5583 91.5809Z" fill="#501200"/>
<path d="M26.9368 110.932C26.8323 110.929 26.733 110.887 26.6591 110.813C26.5853 110.739 26.5425 110.64 26.5398 110.535C26.5365 110.431 26.573 110.329 26.6419 110.251C26.7109 110.173 26.807 110.124 26.9108 110.114C27.7838 110.056 46.3008 108.666 47.0028 108.652C47.1111 108.651 47.2157 108.692 47.2948 108.766C47.3532 108.822 47.3936 108.894 47.411 108.973C47.4284 109.053 47.4219 109.135 47.3923 109.21C47.3628 109.286 47.3115 109.351 47.245 109.397C47.1785 109.443 47.0997 109.469 47.0188 109.47C46.4728 109.481 26.9368 110.932 26.9368 110.932Z" fill="#501200"/>
<path d="M52.0869 82.5205C51.4949 82.5205 49.4349 79.5415 49.4219 79.5105C49.3856 79.4132 49.3875 79.3057 49.4274 79.2098C49.4672 79.1138 49.542 79.0366 49.6366 78.9937C49.7312 78.9507 49.8386 78.9453 49.937 78.9785C50.0355 79.0117 50.1177 79.0811 50.1669 79.1725C50.3169 79.4175 51.5449 80.9985 52.0669 81.5665C53.0344 79.9477 53.9026 78.2716 54.6669 76.5475C54.682 76.4935 54.7079 76.443 54.7433 76.3994C54.7786 76.3557 54.8225 76.3198 54.8722 76.2938C54.922 76.2679 54.9766 76.2524 55.0326 76.2484C55.0886 76.2443 55.1448 76.2519 55.1978 76.2705C55.2507 76.2891 55.2993 76.3183 55.3405 76.3565C55.3817 76.3946 55.4146 76.4408 55.4372 76.4922C55.4599 76.5436 55.4717 76.5991 55.472 76.6552C55.4723 76.7113 55.461 76.7669 55.4389 76.8185C55.2819 77.3005 52.8859 82.5205 52.0869 82.5205Z" fill="#501200"/>
<path d="M52.2002 90.8338C51.5142 90.8338 49.5202 87.8588 49.5072 87.8268C49.4709 87.7293 49.473 87.6217 49.5131 87.5257C49.5532 87.4297 49.6282 87.3526 49.7231 87.3099C49.8179 87.2672 49.9254 87.2621 50.0239 87.2957C50.1223 87.3293 50.2043 87.399 50.2532 87.4908C50.8522 88.3308 51.4932 89.1408 52.1732 89.9168C53.1274 88.2828 53.9897 86.5968 54.7562 84.8668C54.7945 84.7679 54.8697 84.6877 54.966 84.6432C55.0623 84.5987 55.1721 84.5933 55.2722 84.6282C55.3724 84.6631 55.455 84.7356 55.5028 84.8303C55.5506 84.925 55.5597 85.0345 55.5282 85.1358C55.3892 85.5518 52.9802 90.8338 52.2002 90.8338Z" fill="#501200"/>
<path d="M57.7261 68.7906C57.4961 67.8556 48.3841 68.1566 48.3841 68.1566C48.3493 66.9451 48.1075 65.7485 47.6691 64.6186C47.5826 64.5238 47.4622 64.4671 47.3341 64.4606C45.8767 64.4486 44.4193 64.4543 42.9621 64.4776C42.7431 63.7156 40.9701 58.2146 35.6161 58.6566C30.4291 59.0566 29.5311 64.0496 29.4041 65.0416C26.5391 65.2616 24.5691 65.5246 24.4651 65.8006C24.2095 66.5586 24.0808 67.3536 24.0841 68.1536C22.6371 68.2686 17.5141 68.4626 14.2281 68.5696C14.1622 68.5732 14.0981 68.5924 14.0411 68.6256C13.9841 68.6589 13.9358 68.7052 13.9002 68.7608C13.8647 68.8164 13.8429 68.8796 13.8366 68.9453C13.8303 69.011 13.8397 69.0773 13.8641 69.1386C13.8991 69.2286 13.9931 69.5916 14.1321 70.1816L13.1771 70.2016C13.1181 70.202 13.06 70.2151 13.0066 70.2401C12.9532 70.2651 12.9059 70.3014 12.8679 70.3464C12.8299 70.3915 12.8021 70.4442 12.7864 70.5011C12.7707 70.5579 12.7675 70.6174 12.7771 70.6756C12.7841 70.7166 12.8921 71.4006 13.0651 72.6166C12.8121 72.6926 12.3651 72.8226 12.1131 72.8866C11.6941 72.9916 11.6941 72.9916 11.9361 77.4916C13.9191 114.263 10.6551 120.241 11.4671 121.133C11.9271 121.633 15.1671 121.499 15.9031 121.474C15.8791 122.074 15.8551 122.674 15.8261 123.28C15.8245 123.354 15.8384 123.428 15.867 123.497C15.8955 123.566 15.9382 123.628 15.9921 123.68C16.7151 124.131 20.3561 123.809 21.7641 123.645C21.9171 125.58 21.8751 125.637 22.0641 125.792C22.8821 126.464 43.6021 122.579 68.4561 123.197C68.5215 123.2 68.5868 123.188 68.6464 123.161C68.706 123.134 68.7581 123.092 68.7981 123.041C69.2411 122.49 57.7511 68.8916 57.7261 68.7906ZM35.6791 59.4726C40.1351 59.1196 41.7601 63.3606 42.1131 64.4906C38.0471 64.5646 33.6321 64.7426 30.2341 64.9806C30.4011 63.8226 31.2931 59.8126 35.6791 59.4726ZM25.1621 66.2886C32.4462 65.5434 39.7663 65.2055 47.0881 65.2766C47.5521 67.1466 47.7251 69.0776 47.6011 71.0006C45.5731 71.2576 32.4211 72.1196 25.3801 72.0376C24.8477 70.1664 24.773 68.1947 25.1621 66.2886ZM12.1951 120.582C14.6951 100.89 12.5551 76.6006 12.5861 73.6086C12.7861 73.5536 13.0071 73.4896 13.1861 73.4366C14.1861 80.6366 16.6301 100.81 15.9411 120.654C14.6921 120.72 13.4411 120.696 12.1951 120.582ZM16.6581 123.095C17.7921 99.4946 14.2191 74.6886 13.6581 71.0106L14.3181 71.0006C17.8817 88.1011 20.3478 105.412 21.7011 122.828C20.0311 123.065 18.3441 123.154 16.6581 123.095ZM22.7021 125.079C20.4491 95.1846 15.7301 73.1446 14.7731 69.3696C16.6411 69.3076 22.2621 69.1126 24.0921 68.9696C24.1001 70.2216 24.3261 71.4616 24.7581 72.6366C24.8031 72.6965 24.8598 72.7466 24.9248 72.7839C24.9898 72.8212 25.0617 72.8449 25.1361 72.8536C26.8891 72.9466 36.8851 72.5536 39.4311 72.4076C48.3091 71.9076 48.3231 71.8006 48.3771 71.3976C48.4671 70.5926 48.4881 69.7806 48.4391 68.9716C48.4391 68.9716 56.4531 68.6586 56.9731 69.1656C57.6281 72.1776 67.2011 117.387 68.0221 122.355C46.1011 121.324 25.9111 124.843 22.7011 125.079H22.7021Z" fill="#501200"/>
<path d="M24.8298 100.326C24.7269 100.326 24.6278 100.287 24.5525 100.217C24.4771 100.147 24.4312 100.051 24.4238 99.948C24.4163 99.8456 24.4474 99.7441 24.5111 99.6636C24.5748 99.583 24.6664 99.5293 24.7678 99.513C25.8828 99.343 42.7508 98.28 45.2728 98.136C45.3787 98.1342 45.4812 98.1734 45.5589 98.2454C45.6365 98.3174 45.6833 98.4167 45.6894 98.5225C45.6954 98.6282 45.6604 98.7322 45.5915 98.8126C45.5226 98.8931 45.4253 98.9438 45.3198 98.9541C42.8608 99.0941 24.8498 100.326 24.8298 100.326Z" fill="#501200"/>
<path d="M60.7944 10.3526C64.2754 16.3736 62.2374 27.1856 64.2864 30.7246C66.3354 34.2636 68.7014 35.7936 71.0014 36.1336C71.0014 36.1336 46.4664 38.1456 38.0584 38.0486C29.6504 37.9516 19.0504 38.1226 16.4254 34.2976C13.4724 29.9976 11.4774 12.8266 16.2634 8.58964C21.0224 4.38064 56.7834 3.41464 60.7944 10.3526Z" fill="#FCCAC2"/>
<path d="M17.8184 36.08C12.2034 33.015 11.2264 11.793 16.1774 8.27196C21.9954 4.13197 47.4774 4.24396 56.0634 6.80696C62.9684 8.86596 63.3944 14.281 63.5944 24.473C63.7944 34.923 70.6094 35.65 71.3854 35.698C71.4911 35.6988 71.5924 35.7406 71.6679 35.8145C71.7435 35.8884 71.7876 35.9888 71.7908 36.0944C71.794 36.2001 71.7562 36.3029 71.6853 36.3813C71.6144 36.4597 71.5158 36.5076 71.4104 36.515C61.8034 37.531 26.2444 40.675 17.8184 36.08ZM16.6514 8.93896C12.1804 12.12 13.1664 32.609 18.2104 35.361C24.4844 38.783 47.6034 37.951 68.9224 35.916C66.4224 34.882 62.9224 32.08 62.7754 24.489C62.5754 14.417 62.2004 9.48896 55.8294 7.58896C47.6154 5.14296 22.4224 4.83396 16.6514 8.93896Z" fill="#501200"/>
<path d="M37.3228 28.1273C36.5228 28.1273 34.4508 25.7123 31.1778 20.9483C31.1371 20.898 31.1072 20.8398 31.09 20.7774C31.0729 20.715 31.0688 20.6497 31.0781 20.5856C31.0874 20.5216 31.1099 20.4601 31.1441 20.4052C31.1783 20.3502 31.2235 20.303 31.2769 20.2663C31.3303 20.2297 31.3907 20.2045 31.4542 20.1924C31.5178 20.1803 31.5832 20.1814 31.6464 20.1958C31.7095 20.2101 31.7689 20.2374 31.821 20.2759C31.873 20.3144 31.9166 20.3632 31.9488 20.4193C33.9898 23.3883 36.5388 26.7073 37.2868 27.1573C38.5028 26.2003 44.4028 16.6763 45.4198 14.4003C45.4419 14.3397 45.4762 14.2843 45.5207 14.2376C45.5652 14.1908 45.6188 14.1538 45.6782 14.1287C45.7376 14.1036 45.8016 14.0911 45.8661 14.0918C45.9306 14.0926 45.9942 14.1067 46.0531 14.1331C46.1119 14.1596 46.1646 14.1979 46.2079 14.2457C46.2513 14.2935 46.2843 14.3497 46.3049 14.4108C46.3255 14.4719 46.3333 14.5366 46.3278 14.6009C46.3223 14.6652 46.3036 14.7276 46.2728 14.7843C45.9368 15.5353 38.7458 28.1273 37.3228 28.1273Z" fill="#501200"/>
<path d="M141.511 126.588C127.491 127.833 132.277 144.588 133.698 148.201C134.977 151.456 140.103 162.223 142.283 161.79C143.883 161.473 151.019 149.464 151.206 138.26C151.393 127.056 143.246 126.434 141.511 126.588ZM141.768 141.838C140.796 141.873 139.836 141.618 139.01 141.103C138.185 140.589 137.532 139.84 137.135 138.952C136.738 138.064 136.615 137.078 136.782 136.12C136.95 135.162 137.4 134.276 138.074 133.575C138.75 132.875 139.619 132.393 140.57 132.191C141.521 131.989 142.511 132.075 143.413 132.438C144.314 132.802 145.087 133.427 145.631 134.233C146.176 135.039 146.467 135.988 146.468 136.961C146.487 137.908 146.224 138.84 145.713 139.638C145.201 140.436 144.464 141.063 143.594 141.441C143.018 141.692 142.397 141.827 141.768 141.838Z" fill="#E0622F"/>
<path d="M142.385 162.222C139.447 162.157 131.246 147.842 131.332 137.722C131.397 130.122 136.312 126.481 141.154 126.24C150.035 125.786 151.417 134.14 151.628 136.712C152.48 147.056 145.128 159.72 143.139 161.787C142.792 162.147 142.592 162.227 142.385 162.222ZM141.727 127.044C136.508 127.044 132.21 130.79 132.151 137.729C132.062 148.07 140.394 161.04 142.359 161.397C143.603 160.583 151.679 147.304 150.813 136.778C150.103 128.181 144.589 127.044 141.727 127.044Z" fill="#501200"/>
<path d="M141.769 142.102C140.748 142.114 139.746 141.822 138.891 141.264C138.036 140.706 137.366 139.906 136.966 138.967C136.668 138.264 136.531 137.504 136.563 136.741C136.595 135.979 136.795 135.233 137.151 134.557C137.506 133.882 138.007 133.294 138.617 132.835C139.227 132.377 139.931 132.059 140.679 131.906C141.427 131.753 142.199 131.769 142.941 131.952C143.682 132.135 144.373 132.481 144.964 132.964C145.556 133.447 146.032 134.056 146.359 134.745C146.686 135.435 146.856 136.189 146.856 136.953C146.862 138.31 146.33 139.614 145.377 140.579C144.423 141.545 143.126 142.092 141.769 142.102ZM141.769 132.62C140.909 132.608 140.066 132.851 139.346 133.32C138.625 133.788 138.061 134.46 137.723 135.25C137.386 136.041 137.291 136.913 137.45 137.758C137.61 138.602 138.017 139.38 138.62 139.992C139.223 140.604 139.994 141.023 140.836 141.196C141.678 141.368 142.552 141.286 143.348 140.96C144.143 140.634 144.823 140.079 145.302 139.366C145.781 138.652 146.037 137.812 146.038 136.953C146.044 135.813 145.598 134.718 144.798 133.907C143.997 133.095 142.908 132.634 141.769 132.625V132.62Z" fill="#501200"/>
<path d="M69.407 158.478C69.4615 158.474 69.5146 158.459 69.5632 158.434C69.6118 158.409 69.6549 158.375 69.69 158.333C70.3961 157.476 71.2571 156.76 72.228 156.221C72.3217 156.168 72.3906 156.08 72.4198 155.977C72.4491 155.873 72.4362 155.762 72.384 155.668C72.332 155.574 72.2454 155.504 72.1427 155.473C72.04 155.442 71.9292 155.453 71.834 155.502C70.7738 156.091 69.8335 156.873 69.062 157.809C69.0108 157.871 68.9788 157.946 68.9702 158.026C68.9615 158.106 68.9765 158.186 69.0133 158.258C69.05 158.329 69.107 158.388 69.177 158.427C69.247 158.466 69.327 158.484 69.407 158.478Z" fill="#501200"/>
<path d="M39.2969 190.657C38.1907 190.366 37.1016 190.013 36.0349 189.601C35.9848 189.581 35.9312 189.571 35.8773 189.572C35.8234 189.573 35.7702 189.585 35.7209 189.607C35.6715 189.628 35.6267 189.659 35.5893 189.697C35.5518 189.736 35.5224 189.782 35.5027 189.832C35.483 189.882 35.4734 189.936 35.4744 189.989C35.4755 190.043 35.4872 190.096 35.5089 190.146C35.5304 190.195 35.5614 190.24 35.6002 190.277C35.639 190.315 35.6848 190.344 35.7349 190.364C36.8679 190.813 38.0329 191.179 39.2199 191.458C39.3145 191.448 39.403 191.406 39.4701 191.339C39.5373 191.272 39.5789 191.183 39.588 191.089C39.5971 190.994 39.5731 190.899 39.52 190.821C39.4669 190.742 39.388 190.684 39.2969 190.657Z" fill="#501200"/>
<path d="M46.0742 191.786C44.9307 191.694 43.7914 191.556 42.6592 191.371C42.5531 191.355 42.445 191.382 42.3583 191.445C42.2717 191.508 42.2133 191.603 42.1959 191.709C42.1784 191.815 42.2033 191.923 42.2651 192.011C42.3269 192.099 42.4206 192.159 42.5262 192.178C43.5802 192.352 45.7732 192.625 46.0732 192.602C46.1766 192.595 46.2734 192.549 46.344 192.473C46.4146 192.397 46.4537 192.297 46.4532 192.194C46.453 192.091 46.4139 191.991 46.3436 191.916C46.2733 191.84 46.1771 191.794 46.0742 191.786Z" fill="#501200"/>
<path d="M32.9351 188.167C31.9378 187.621 30.9846 186.997 30.0841 186.303C29.9977 186.244 29.8922 186.221 29.7891 186.237C29.686 186.254 29.593 186.309 29.5292 186.392C29.4655 186.474 29.4356 186.578 29.4458 186.682C29.456 186.786 29.5054 186.882 29.5841 186.951C30.5181 187.671 31.5071 188.318 32.5421 188.885C32.6366 188.929 32.7445 188.936 32.8439 188.904C32.9432 188.872 33.0265 188.803 33.0766 188.711C33.1268 188.619 33.1401 188.512 33.1138 188.411C33.0874 188.31 33.0235 188.223 32.9351 188.167Z" fill="#501200"/>
<path d="M52.9671 191.845C51.8201 191.916 50.6601 191.945 49.5191 191.938C49.4407 191.941 49.3651 191.967 49.3009 192.012C49.2368 192.058 49.187 192.12 49.1572 192.193C49.1275 192.265 49.1191 192.345 49.133 192.422C49.147 192.499 49.1828 192.57 49.2361 192.628C49.3081 192.705 49.4069 192.751 49.5121 192.757C50.8481 192.767 52.3551 192.712 53.0231 192.657C53.1228 192.639 53.2126 192.586 53.2753 192.506C53.338 192.427 53.3692 192.327 53.3631 192.226C53.3559 192.125 53.3115 192.03 53.2383 191.959C53.1652 191.889 53.0685 191.848 52.9671 191.845Z" fill="#501200"/>
<path d="M67.7107 174.518C67.6967 174.465 67.6717 174.414 67.6373 174.371C67.6028 174.327 67.5597 174.291 67.5107 174.265C67.4619 174.239 67.4084 174.223 67.3533 174.218C67.2982 174.212 67.2426 174.218 67.1897 174.234C67.137 174.252 67.0882 174.279 67.0463 174.316C67.0044 174.352 66.9702 174.397 66.9457 174.446C66.9216 174.496 66.9078 174.55 66.9052 174.606C66.9027 174.661 66.9113 174.716 66.9307 174.768C67.2907 175.89 67.7307 176.985 68.2487 178.043C68.3007 178.133 68.3847 178.2 68.484 178.23C68.5833 178.26 68.6903 178.252 68.7835 178.206C68.8768 178.161 68.9493 178.082 68.9864 177.985C69.0236 177.888 69.0226 177.78 68.9837 177.684C68.4832 176.661 68.0578 175.603 67.7107 174.518Z" fill="#501200"/>
<path d="M25.5801 181.269C25.522 181.182 25.4322 181.12 25.3296 181.098C25.227 181.075 25.1196 181.093 25.0301 181.148C24.9404 181.202 24.8747 181.288 24.8468 181.389C24.8189 181.49 24.8308 181.598 24.8801 181.69C25.491 182.705 26.1972 183.66 26.9891 184.541C27.0615 184.622 27.163 184.671 27.2713 184.677C27.3796 184.683 27.4859 184.645 27.5666 184.573C27.6474 184.5 27.6961 184.399 27.702 184.291C27.7079 184.182 27.6705 184.076 27.5981 183.995C26.8401 183.153 26.1643 182.24 25.5801 181.269Z" fill="#501200"/>
<path d="M59.8039 190.969C58.6749 191.188 57.5394 191.371 56.3989 191.519C56.3209 191.53 56.2477 191.564 56.1883 191.615C56.1288 191.667 56.0855 191.735 56.0638 191.81C56.042 191.886 56.0426 191.967 56.0655 192.042C56.0884 192.117 56.1327 192.184 56.1929 192.235C56.2729 192.303 56.3769 192.338 56.4819 192.332C56.6659 192.318 58.3519 192.087 59.9599 191.773C60.0129 191.763 60.0633 191.743 60.1083 191.713C60.1533 191.683 60.1919 191.645 60.222 191.6C60.252 191.556 60.2729 191.505 60.2834 191.452C60.2938 191.4 60.2937 191.345 60.2829 191.292C60.2739 191.239 60.2541 191.188 60.2249 191.143C60.1956 191.097 60.1574 191.058 60.1126 191.028C60.0678 190.998 60.0174 190.977 59.9643 190.967C59.9113 190.957 59.8567 190.958 59.8039 190.969Z" fill="#501200"/>
<path d="M66.4362 189.143C65.4032 189.522 64.3002 189.873 63.1582 190.184C63.0641 190.214 62.9842 190.278 62.9331 190.362C62.882 190.447 62.8632 190.547 62.8801 190.644C62.897 190.742 62.9485 190.83 63.0252 190.892C63.1018 190.955 63.1984 190.987 63.2972 190.984C63.5732 190.963 65.9102 190.205 66.7192 189.908C66.8102 189.863 66.8814 189.786 66.919 189.692C66.9566 189.598 66.9579 189.493 66.9227 189.398C66.8875 189.303 66.8183 189.224 66.7284 189.177C66.6386 189.13 66.5344 189.118 66.4362 189.143Z" fill="#501200"/>
<path d="M66.9224 171.201C66.7435 170.078 66.6553 168.943 66.6584 167.806C66.6585 167.725 66.6348 167.646 66.5904 167.579C66.5459 167.511 66.4827 167.459 66.4084 167.427C66.3341 167.395 66.2517 167.386 66.1723 167.402C66.0929 167.418 66.0201 167.457 65.9634 167.515C65.8865 167.591 65.8423 167.694 65.8404 167.802C65.8367 168.983 65.9283 170.163 66.1144 171.33C66.1319 171.437 66.191 171.533 66.2789 171.596C66.3668 171.66 66.4763 171.686 66.5834 171.669C66.6902 171.651 66.7856 171.592 66.8491 171.505C66.9125 171.417 66.9389 171.308 66.9224 171.201Z" fill="#501200"/>
<path d="M66.6052 164.759C67.2392 164.71 66.7932 163.874 67.9552 161.194C67.9929 161.095 67.9909 160.986 67.9499 160.888C67.9088 160.791 67.8318 160.713 67.7348 160.671C67.6378 160.629 67.5284 160.627 67.4293 160.663C67.3303 160.7 67.2493 160.774 67.2032 160.869C66.7352 161.963 66.3894 163.105 66.1722 164.275C66.1605 164.337 66.1632 164.4 66.18 164.461C66.1968 164.521 66.2273 164.577 66.2692 164.624C66.3111 164.671 66.3632 164.707 66.4214 164.73C66.4797 164.754 66.5426 164.764 66.6052 164.759Z" fill="#501200"/>
<path d="M81.7781 156.723C82.7101 157.298 83.4811 158.1 84.0191 159.053C84.0725 159.148 84.1611 159.218 84.2656 159.247C84.3701 159.277 84.482 159.264 84.5771 159.211C84.6717 159.158 84.7413 159.069 84.7709 158.965C84.8005 158.86 84.7876 158.749 84.7351 158.653C84.13 157.58 83.2627 156.677 82.2141 156.028C82.1572 155.989 82.0912 155.965 82.0224 155.958C81.9536 155.951 81.8842 155.962 81.8207 155.99C81.7573 156.017 81.7019 156.061 81.6598 156.116C81.6177 156.17 81.5903 156.235 81.5801 156.303C81.5674 156.385 81.5795 156.469 81.6148 156.543C81.6501 156.618 81.707 156.68 81.7781 156.722V156.723Z" fill="#501200"/>
<path d="M39.3365 152.783C40.4667 152.496 41.614 152.282 42.7715 152.141C42.8517 152.131 42.9271 152.097 42.9882 152.044C43.0494 151.991 43.0935 151.922 43.1151 151.844C43.1367 151.766 43.1348 151.683 43.1096 151.606C43.0844 151.53 43.037 151.462 42.9735 151.412C42.8879 151.345 42.7793 151.315 42.6715 151.328C41.503 151.472 40.3448 151.689 39.2035 151.978C39.1027 152.001 39.0146 152.063 38.9574 152.149C38.9001 152.235 38.878 152.34 38.8955 152.442C38.912 152.544 38.9668 152.636 39.0487 152.7C39.1306 152.763 39.2334 152.793 39.3365 152.783Z" fill="#501200"/>
<path d="M23.2045 174.938C23.176 174.84 23.1118 174.756 23.0245 174.703C22.9596 174.664 22.8852 174.643 22.8094 174.644C22.7336 174.645 22.6596 174.666 22.5953 174.706C22.5311 174.747 22.4793 174.804 22.4456 174.872C22.4119 174.94 22.3977 175.015 22.4045 175.091C22.6235 176.251 22.9385 177.391 23.3465 178.499C23.3869 178.597 23.464 178.676 23.5615 178.719C23.659 178.761 23.7689 178.763 23.8683 178.726C23.9677 178.689 24.0491 178.615 24.0955 178.52C24.1414 178.424 24.1482 178.314 24.1145 178.213C23.7212 177.148 23.4168 176.053 23.2045 174.938Z" fill="#501200"/>
<path d="M23.5396 165.164C24.0936 165.121 23.8066 164.377 25.4266 161.893C25.4775 161.802 25.4919 161.695 25.467 161.594C25.4421 161.493 25.3797 161.405 25.2924 161.348C25.2051 161.292 25.0996 161.27 24.9971 161.289C24.8946 161.307 24.8029 161.363 24.7406 161.447C24.0914 162.441 23.55 163.501 23.1256 164.61C23.0883 164.707 23.0898 164.815 23.1295 164.911C23.1693 165.008 23.2445 165.085 23.3396 165.128C23.4021 165.156 23.4709 165.169 23.5396 165.164Z" fill="#501200"/>
<path d="M32.8568 155.266C33.1178 155.245 33.7568 154.711 36.1358 153.805C36.2337 153.764 36.3118 153.687 36.3534 153.589C36.3951 153.492 36.397 153.382 36.3588 153.282C36.3212 153.183 36.2466 153.103 36.1508 153.057C36.0549 153.012 35.9453 153.006 35.8448 153.039C34.7448 153.457 33.6718 153.944 32.6328 154.497C32.5494 154.541 32.4838 154.613 32.4471 154.699C32.4104 154.786 32.405 154.883 32.4318 154.973C32.4587 155.063 32.5155 155.141 32.5927 155.195C32.67 155.248 32.7632 155.273 32.8568 155.266Z" fill="#501200"/>
<path d="M22.8275 171.553C22.7892 170.421 22.8561 169.288 23.0275 168.169C23.0382 168.102 23.0323 168.034 23.0102 167.97C22.9881 167.907 22.9506 167.849 22.901 167.804C22.8513 167.758 22.7911 167.725 22.7258 167.709C22.6604 167.692 22.5919 167.692 22.5265 167.708C22.4478 167.727 22.3765 167.769 22.3217 167.829C22.2669 167.888 22.231 167.963 22.2185 168.043C22.0378 169.212 21.9664 170.396 22.0055 171.579C22.0153 171.683 22.0645 171.78 22.1432 171.849C22.2218 171.919 22.3239 171.955 22.4287 171.952C22.5335 171.949 22.6331 171.906 22.7072 171.831C22.7813 171.757 22.8243 171.658 22.8275 171.553Z" fill="#501200"/>
<path d="M27.5496 159.252C28.3442 158.441 29.2049 157.697 30.1226 157.028C30.2061 156.962 30.2608 156.867 30.2753 156.762C30.2899 156.657 30.263 156.55 30.2004 156.464C30.1378 156.378 30.0444 156.32 29.9398 156.302C29.8352 156.283 29.7276 156.307 29.6396 156.366C28.6844 157.062 27.789 157.836 26.9626 158.681C26.8933 158.76 26.857 158.863 26.8612 158.968C26.8653 159.073 26.9096 159.172 26.985 159.245C27.0603 159.318 27.1609 159.36 27.2659 159.361C27.371 159.363 27.4725 159.323 27.5496 159.252Z" fill="#501200"/>
<path d="M84.1344 190.875C83.0726 190.442 82.0306 189.962 81.0114 189.436C80.9154 189.391 80.8058 189.385 80.7055 189.419C80.6052 189.454 80.5221 189.525 80.4735 189.619C80.4248 189.713 80.4145 189.823 80.4447 189.924C80.4749 190.026 80.5433 190.112 80.6354 190.164C81.7227 190.745 82.8507 191.246 84.0104 191.664C84.1033 191.658 84.1915 191.621 84.2604 191.558C84.3293 191.496 84.3747 191.411 84.3892 191.319C84.4036 191.227 84.3863 191.133 84.3399 191.052C84.2936 190.972 84.2211 190.909 84.1344 190.875Z" fill="#501200"/>
<path d="M117.739 191.066C116.693 191.495 115.605 191.886 114.505 192.23C114.407 192.258 114.323 192.322 114.269 192.409C114.216 192.496 114.197 192.6 114.217 192.7C114.236 192.8 114.292 192.889 114.374 192.95C114.455 193.011 114.557 193.04 114.658 193.03C114.949 193.008 117.303 192.13 118.05 191.83C118.1 191.81 118.146 191.78 118.185 191.741C118.223 191.703 118.254 191.658 118.275 191.608C118.296 191.558 118.307 191.505 118.307 191.451C118.308 191.396 118.297 191.343 118.277 191.293C118.256 191.242 118.226 191.197 118.188 191.158C118.15 191.12 118.105 191.089 118.055 191.068C118.005 191.047 117.951 191.036 117.897 191.036C117.843 191.035 117.789 191.046 117.739 191.066Z" fill="#501200"/>
<path d="M111.183 193.118C110.064 193.368 108.935 193.574 107.799 193.735C107.693 193.749 107.597 193.804 107.532 193.888C107.466 193.972 107.435 194.078 107.447 194.184C107.458 194.29 107.511 194.388 107.593 194.456C107.675 194.524 107.781 194.557 107.887 194.548C108.216 194.522 110.037 194.213 111.362 193.917C111.468 193.892 111.56 193.827 111.618 193.736C111.676 193.644 111.695 193.534 111.672 193.428C111.648 193.322 111.583 193.23 111.491 193.172C111.4 193.114 111.289 193.095 111.183 193.118Z" fill="#501200"/>
<path d="M104.374 194.086C103.237 194.159 102.074 194.186 100.931 194.179C100.826 194.183 100.726 194.227 100.652 194.303C100.579 194.379 100.538 194.48 100.537 194.585C100.536 194.691 100.576 194.792 100.648 194.869C100.72 194.946 100.818 194.992 100.923 194.998C102.094 195.011 103.264 194.977 104.431 194.898C104.53 194.879 104.618 194.825 104.679 194.746C104.74 194.666 104.769 194.567 104.762 194.467C104.755 194.367 104.712 194.273 104.641 194.203C104.569 194.133 104.474 194.092 104.374 194.086Z" fill="#501200"/>
<path d="M123.835 187.908C122.869 188.524 121.875 189.097 120.857 189.624C120.774 189.668 120.708 189.739 120.671 189.825C120.634 189.912 120.628 190.008 120.653 190.099C120.679 190.189 120.735 190.268 120.812 190.322C120.889 190.376 120.982 190.402 121.076 190.396C122.18 189.866 123.249 189.265 124.276 188.596C124.358 188.534 124.414 188.443 124.432 188.341C124.449 188.24 124.428 188.135 124.372 188.049C124.316 187.962 124.23 187.9 124.131 187.874C124.031 187.848 123.926 187.86 123.835 187.908Z" fill="#501200"/>
<path d="M137.43 172.717C136.904 173.738 136.34 174.739 135.739 175.717C135.697 175.787 135.676 175.867 135.68 175.948C135.683 176.029 135.71 176.107 135.757 176.172C135.805 176.238 135.871 176.288 135.947 176.317C136.022 176.345 136.105 176.351 136.184 176.332C136.29 176.307 136.382 176.24 136.439 176.147C137.039 175.174 137.62 174.147 138.162 173.095C138.187 173.047 138.202 172.995 138.206 172.941C138.211 172.887 138.206 172.833 138.19 172.781C138.174 172.729 138.148 172.681 138.113 172.639C138.078 172.598 138.035 172.564 137.986 172.539C137.938 172.515 137.885 172.5 137.831 172.496C137.75 172.488 137.668 172.505 137.596 172.545C137.525 172.584 137.467 172.644 137.43 172.717Z" fill="#501200"/>
<path d="M72.2301 185.643C71.3649 186.386 70.4476 187.066 69.4851 187.678C69.4275 187.714 69.38 187.765 69.3468 187.824C69.3136 187.884 69.2957 187.951 69.2949 188.019C69.2942 188.087 69.3104 188.155 69.3422 188.215C69.374 188.275 69.4204 188.327 69.4771 188.365C69.5532 188.415 69.6441 188.439 69.7351 188.432C70.8155 187.816 71.8296 187.09 72.7611 186.266C72.802 186.231 72.8357 186.188 72.8601 186.14C72.8846 186.093 72.8994 186.04 72.9036 185.987C72.9079 185.933 72.9016 185.879 72.885 185.828C72.8685 185.777 72.842 185.73 72.8071 185.689C72.7723 185.648 72.7297 185.614 72.6818 185.59C72.6339 185.565 72.5817 185.55 72.5281 185.546C72.4746 185.542 72.4207 185.548 72.3695 185.565C72.3184 185.581 72.271 185.608 72.2301 185.643Z" fill="#501200"/>
<path d="M97.4925 194.021C96.3488 193.924 95.2087 193.788 94.0745 193.611C93.9672 193.595 93.8577 193.621 93.7699 193.685C93.6821 193.749 93.6234 193.845 93.6065 193.952C93.5897 194.06 93.6161 194.169 93.6801 194.257C93.744 194.345 93.8402 194.404 93.9475 194.42C95.2285 194.62 97.2585 194.855 97.4905 194.837C97.5936 194.83 97.69 194.784 97.7606 194.708C97.8312 194.633 97.8708 194.534 97.8715 194.43C97.872 194.327 97.8332 194.227 97.7628 194.151C97.6924 194.075 97.5958 194.029 97.4925 194.021Z" fill="#501200"/>
<path d="M133.805 178.561C133.124 179.482 132.402 180.372 131.641 181.229C131.569 181.311 131.533 181.417 131.539 181.525C131.546 181.633 131.594 181.735 131.675 181.807C131.756 181.879 131.863 181.915 131.971 181.909C132.079 181.902 132.18 181.854 132.253 181.773C133.029 180.898 133.767 179.989 134.464 179.049C134.511 178.984 134.539 178.906 134.542 178.825C134.546 178.744 134.525 178.665 134.484 178.595C134.442 178.526 134.381 178.471 134.308 178.436C134.235 178.401 134.154 178.388 134.074 178.399C133.966 178.416 133.87 178.474 133.805 178.561Z" fill="#501200"/>
<path d="M129.251 183.695C128.416 184.479 127.545 185.224 126.641 185.927C126.563 185.996 126.515 186.092 126.506 186.195C126.497 186.298 126.527 186.4 126.591 186.482C126.654 186.564 126.745 186.619 126.847 186.636C126.95 186.653 127.054 186.631 127.141 186.574C128.065 185.855 128.955 185.092 129.809 184.29C129.861 184.233 129.897 184.163 129.911 184.087C129.925 184.011 129.917 183.933 129.889 183.861C129.86 183.789 129.812 183.727 129.749 183.682C129.687 183.637 129.613 183.61 129.536 183.605C129.433 183.598 129.331 183.63 129.251 183.695Z" fill="#501200"/>
<path d="M78.0453 187.714C77.0873 187.091 76.167 186.411 75.2893 185.679C75.2276 185.627 75.1515 185.593 75.0708 185.584C74.99 185.575 74.9084 185.59 74.8363 185.627C74.7642 185.665 74.705 185.723 74.6664 185.795C74.6277 185.866 74.6113 185.948 74.6193 186.028C74.6286 186.137 74.6804 186.237 74.7633 186.306C75.6658 187.059 76.6121 187.758 77.5973 188.399C77.6884 188.457 77.7991 188.478 77.9052 188.455C78.0114 188.433 78.1045 188.37 78.1643 188.279C78.1941 188.235 78.2145 188.185 78.2245 188.132C78.2345 188.079 78.2337 188.025 78.2223 187.972C78.2115 187.92 78.1903 187.87 78.16 187.825C78.1296 187.781 78.0906 187.743 78.0453 187.714Z" fill="#501200"/>
<path d="M78.8707 154.701C77.7003 154.419 76.4915 154.332 75.2927 154.443C74.8267 154.485 74.7457 155.175 75.3687 155.257C76.5229 155.174 77.683 155.259 78.8127 155.509C78.8852 155.502 78.9547 155.477 79.014 155.434C79.0734 155.392 79.1205 155.335 79.1505 155.269C79.1805 155.202 79.1923 155.129 79.1848 155.057C79.1773 154.985 79.1507 154.915 79.1077 154.857C79.0499 154.778 78.9659 154.723 78.8707 154.701Z" fill="#501200"/>
<path d="M75.3192 183.853C76.1307 183.01 76.9073 182.133 77.6472 181.226C77.7086 181.142 77.7354 181.037 77.722 180.933C77.7086 180.829 77.6562 180.735 77.5753 180.669C77.4945 180.602 77.3914 180.569 77.2871 180.577C77.1828 180.584 77.0852 180.631 77.0142 180.707C76.2876 181.597 75.5253 182.457 74.7292 183.285C74.6539 183.364 74.6128 183.469 74.6148 183.577C74.6169 183.686 74.662 183.789 74.7402 183.864C74.8185 183.94 74.9234 183.981 75.032 183.979C75.1406 183.977 75.2439 183.932 75.3192 183.853Z" fill="#501200"/>
<path d="M70.7047 180.634C70.6422 180.546 70.548 180.485 70.4418 180.465C70.3357 180.445 70.226 180.467 70.1357 180.527C70.0684 180.572 70.0162 180.636 69.9859 180.712C69.9556 180.787 69.9485 180.869 69.9657 180.949C69.9768 181.001 69.9982 181.051 70.0287 181.096C70.6927 182.069 71.4245 182.994 72.2187 183.865C72.2935 183.937 72.3931 183.978 72.4972 183.98C72.6013 183.981 72.702 183.943 72.7786 183.872C72.8553 183.802 72.9022 183.705 72.9096 183.601C72.9171 183.497 72.8846 183.394 72.8187 183.314C72.0523 182.471 71.3459 181.575 70.7047 180.634Z" fill="#501200"/>
<path d="M80.9584 175.059C80.3864 176.03 79.7584 177.005 79.0944 177.959C79.0426 178.048 79.026 178.153 79.0481 178.254C79.0703 178.354 79.1294 178.443 79.2138 178.502C79.2982 178.561 79.4017 178.586 79.5037 178.572C79.6057 178.558 79.6988 178.506 79.7644 178.427C80.4361 177.469 81.0699 176.484 81.6644 175.476C81.7184 175.383 81.7332 175.271 81.7057 175.167C81.6783 175.063 81.6107 174.973 81.5177 174.918C81.4247 174.863 81.3139 174.847 81.2091 174.874C81.1044 174.9 81.0143 174.967 80.9584 175.059Z" fill="#501200"/>
<path d="M90.6934 192.953C89.5751 192.692 88.467 192.389 87.3714 192.045C87.2697 192.017 87.1613 192.03 87.0688 192.081C86.9763 192.131 86.9069 192.215 86.8751 192.316C86.8432 192.416 86.8514 192.525 86.8978 192.62C86.9443 192.714 87.0255 192.787 87.1244 192.824C88.2764 193.196 89.4474 193.508 90.6314 193.76C90.7284 193.751 90.8193 193.709 90.8879 193.64C90.9565 193.571 90.9982 193.48 91.0057 193.383C91.0131 193.285 90.9858 193.189 90.9286 193.11C90.8714 193.031 90.788 192.976 90.6934 192.953Z" fill="#501200"/>
<path d="M84.9351 162.286C85.0062 163.379 84.9423 164.477 84.7451 165.555C84.7268 165.662 84.7517 165.772 84.8143 165.861C84.877 165.949 84.9722 166.009 85.0791 166.028C85.1861 166.046 85.296 166.021 85.3847 165.959C85.4733 165.896 85.5335 165.801 85.5521 165.694C85.7651 164.517 85.8291 163.318 85.7431 162.125C85.6951 161.633 84.8901 161.713 84.9351 162.286Z" fill="#501200"/>
<path d="M83.8809 168.85C83.5052 169.931 83.0696 170.99 82.5759 172.022C82.5354 172.12 82.534 172.229 82.5717 172.327C82.6095 172.425 82.6836 172.505 82.7787 172.55C82.8738 172.595 82.9827 172.602 83.0827 172.569C83.1827 172.536 83.2662 172.466 83.3159 172.373C83.8229 171.313 84.2699 170.225 84.6549 169.115C84.6725 169.064 84.6798 169.011 84.6765 168.957C84.6732 168.903 84.6593 168.851 84.6356 168.802C84.6119 168.754 84.5789 168.711 84.5384 168.675C84.498 168.64 84.4509 168.613 84.3999 168.595C84.2972 168.56 84.1849 168.568 84.0876 168.615C83.9903 168.663 83.9159 168.748 83.8809 168.85Z" fill="#501200"/>
<path d="M85.8583 85.6878C85.1812 85.6878 84.583 85.5661 84.065 85.3213C83.5469 85.0778 83.1404 84.7277 82.8481 84.2736C82.5558 83.8195 82.4089 83.2723 82.4089 82.6336C82.4089 82.438 82.5667 82.2807 82.7597 82.2807H83.6883C83.8828 82.2807 84.0391 82.4394 84.0391 82.6336C84.0391 83.1643 84.2023 83.5609 84.5286 83.8263C84.8549 84.0916 85.2982 84.2243 85.8583 84.2243C86.4185 84.2243 86.8509 84.1108 87.1323 83.8837C87.4124 83.6567 87.5524 83.3667 87.5524 83.0125C87.5524 82.769 87.4831 82.5707 87.3458 82.4189C87.2084 82.267 87.0072 82.1439 86.7434 82.0468C86.4797 81.9497 86.1602 81.8594 85.7835 81.776L85.4953 81.7131C84.893 81.579 84.3763 81.4081 83.9453 81.2015C83.5143 80.995 83.1839 80.7242 82.9541 80.3877C82.7244 80.0512 82.6088 79.6135 82.6088 79.0746C82.6088 78.5357 82.7366 78.0762 82.9909 77.6932C83.2465 77.3102 83.6054 77.0161 84.0704 76.8096C84.534 76.6031 85.0806 76.5005 85.7074 76.5005C86.3342 76.5005 86.893 76.6072 87.3825 76.8219C87.8719 77.0367 88.2567 77.3567 88.5368 77.7807C88.8169 78.2061 88.9569 78.7382 88.9569 79.3769V79.4015C88.9569 79.5971 88.7992 79.7544 88.6061 79.7544H87.6775C87.4831 79.7544 87.3267 79.5958 87.3267 79.4015V79.3769C87.3267 79.0404 87.2615 78.7696 87.1323 78.5631C87.0031 78.3566 86.8169 78.2061 86.5735 78.109C86.3315 78.0119 86.0419 77.964 85.7074 77.964C85.2057 77.964 84.8359 78.0584 84.5966 78.2485C84.3586 78.4373 84.239 78.6958 84.239 79.024C84.239 79.2429 84.2961 79.4275 84.409 79.5794C84.5218 79.7312 84.6918 79.857 84.9175 79.9582C85.1432 80.0594 85.4314 80.147 85.7835 80.2236L86.0718 80.2865C86.6986 80.4205 87.2451 80.5942 87.7088 80.8035C88.1724 81.0141 88.5341 81.2918 88.7938 81.6365C89.0535 81.9812 89.1826 82.423 89.1826 82.9619C89.1826 83.5008 89.0467 83.974 88.7747 84.3816C88.5028 84.7892 88.118 85.1093 87.6204 85.3404C87.1228 85.5716 86.5354 85.6878 85.8583 85.6878Z" fill="#231F20"/>
<path d="M96.005 81.6464C95.2558 83.1865 92.7255 83.6858 91.6949 82.2605C91.6202 82.1402 91.4217 82.2004 91.4257 82.3426V83.8225C91.4257 84.0756 91.5427 84.2014 91.7765 84.2014H95.2422C95.3238 84.2014 95.3891 84.2671 95.3891 84.3491V85.442C95.3891 85.5241 95.3238 85.5897 95.2422 85.5897C94.4672 85.4393 90.7486 85.9535 90.2211 85.2054C89.9696 84.9482 89.8445 84.6063 89.8445 84.1768V76.9549C89.8445 76.8729 89.9097 76.8072 89.9913 76.8072H91.2531C91.4964 76.7949 91.3713 77.2873 91.3999 77.4172C91.3999 77.4993 91.4652 77.565 91.5467 77.565C92.3829 76.5788 93.7317 76.3134 94.9689 77.0028C96.4944 77.8207 96.7528 80.2143 96.0036 81.6478L96.005 81.6464ZM94.3245 81.2361C94.6793 80.9133 94.837 80.3744 94.8139 79.7972C94.9431 78.1777 92.9349 77.4761 91.8839 78.4786C91.5345 78.796 91.3768 79.3417 91.4013 79.9244C91.2789 81.5288 93.2721 82.2551 94.3245 81.2374V81.2361Z" fill="#CE4927"/>
<path d="M87.4145 75.6137H86.7266C86.6083 75.6137 86.4995 75.5385 86.4682 75.4236C86.3853 75.1281 86.1147 74.9107 85.7952 74.9107C85.4757 74.9107 85.2051 75.1281 85.1222 75.4236C85.0909 75.5385 84.9808 75.6137 84.8639 75.6137H84.1759C84.01 75.6137 83.8795 75.4646 83.9067 75.3005C84.0562 74.3868 84.8462 73.6879 85.7952 73.6879C86.7442 73.6879 87.5355 74.3868 87.6837 75.3005C87.7109 75.4646 87.5804 75.6137 87.4145 75.6137Z" fill="#CE4927"/>
</svg>
