<svg width="185" height="10" viewBox="0 0 185 10" fill="none" xmlns="http://www.w3.org/2000/svg">
<path d="M1 4.25C0.585786 4.25 0.25 4.58579 0.25 5C0.25 5.41421 0.585786 5.75 1 5.75V4.25ZM184.33 5L180 0.669873L175.67 5L180 9.33013L184.33 5ZM1 5.75H1.99444V4.25H1V5.75ZM3.98333 5.75H5.97222V4.25H3.98333V5.75ZM7.96111 5.75H9.95V4.25H7.96111V5.75ZM11.9389 5.75H13.9278V4.25H11.9389V5.75ZM15.9167 5.75H17.9056V4.25H15.9167V5.75ZM19.8944 5.75H21.8833V4.25H19.8944V5.75ZM23.8722 5.75H25.8611V4.25H23.8722V5.75ZM27.85 5.75H29.8389V4.25H27.85V5.75ZM31.8278 5.75H33.8167V4.25H31.8278V5.75ZM35.8056 5.75H37.7944V4.25H35.8056V5.75ZM39.7833 5.75H41.7722V4.25H39.7833V5.75ZM43.7611 5.75H45.75V4.25H43.7611V5.75ZM47.7389 5.75H49.7278V4.25H47.7389V5.75ZM51.7167 5.75H53.7056V4.25H51.7167V5.75ZM55.6944 5.75H57.6833V4.25H55.6944V5.75ZM59.6722 5.75H61.6611V4.25H59.6722V5.75ZM63.65 5.75H65.6389V4.25H63.65V5.75ZM67.6278 5.75H69.6167V4.25H67.6278V5.75ZM71.6056 5.75H73.5944V4.25H71.6056V5.75ZM75.5833 5.75H77.5722V4.25H75.5833V5.75ZM79.5611 5.75H81.55V4.25H79.5611V5.75ZM83.5389 5.75H85.5278V4.25H83.5389V5.75ZM87.5167 5.75H89.5056V4.25H87.5167V5.75ZM91.4945 5.75H93.4834V4.25H91.4945V5.75ZM95.4723 5.75H97.4611V4.25H95.4723V5.75ZM99.45 5.75H101.439V4.25H99.45V5.75ZM103.428 5.75H105.417V4.25H103.428V5.75ZM107.406 5.75H109.394V4.25H107.406V5.75ZM111.383 5.75H113.372V4.25H111.383V5.75ZM115.361 5.75H117.35V4.25H115.361V5.75ZM119.339 5.75H121.328V4.25H119.339V5.75ZM123.317 5.75H125.306V4.25H123.317V5.75ZM127.295 5.75H129.283V4.25H127.295V5.75ZM131.272 5.75H133.261V4.25H131.272V5.75ZM135.25 5.75H137.239V4.25H135.25V5.75ZM139.228 5.75H141.217V4.25H139.228V5.75ZM143.206 5.75H145.195V4.25H143.206V5.75ZM147.183 5.75H149.172V4.25H147.183V5.75ZM151.161 5.75H153.15V4.25H151.161V5.75ZM155.139 5.75H157.128V4.25H155.139V5.75ZM159.117 5.75H161.106V4.25H159.117V5.75ZM163.095 5.75H165.083V4.25H163.095V5.75ZM167.072 5.75H169.061V4.25H167.072V5.75ZM171.05 5.75H173.039V4.25H171.05V5.75ZM175.028 5.75H177.017V4.25H175.028V5.75ZM179.006 5.75H180V4.25H179.006V5.75Z" fill="url(#paint0_linear_5527_4686)"/>
<defs>
<linearGradient id="paint0_linear_5527_4686" x1="1" y1="5.5" x2="180" y2="5.5" gradientUnits="userSpaceOnUse">
<stop stop-color="white" stop-opacity="0"/>
<stop offset="1" stop-color="white"/>
</linearGradient>
</defs>
</svg>
