<svg width="24" height="24" viewBox="0 0 24 24" fill="none" xmlns="http://www.w3.org/2000/svg">
<path d="M7 9.00171C4.82497 9.01483 3.64706 9.11932 2.87868 9.95173C2 10.9037 2 12.4357 2 15.4998C2 18.564 2 20.096 2.87868 21.0479C3.75736 21.9998 5.17157 21.9998 8 21.9998H16C18.8284 21.9998 20.2426 21.9998 21.1213 21.0479C22 20.096 22 18.564 22 15.4998C22 12.4357 22 10.9037 21.1213 9.95173C20.3529 9.11932 19.175 9.01483 17 9.00171" stroke="black" stroke-width="1.5" stroke-linecap="round" stroke-linejoin="round"/>
<path d="M6 12L10.5 14.625M10.5 14.625L13.8 16.55M10.5 14.625L6 17.6M18 19L13.8 16.55M13.8 16.55L18 13.75" stroke="#CC4924" stroke-width="1.5" stroke-linecap="round" stroke-linejoin="round"/>
<path d="M12 7C13.3807 7 14.5 5.88071 14.5 4.5C14.5 3.11929 13.3807 2 12 2C10.6193 2 9.5 3.11929 9.5 4.5C9.5 5.88071 10.6193 7 12 7ZM12 7V11" stroke="#CC4924" stroke-width="1.5" stroke-linecap="round"/>
</svg>
