<svg width="34" height="15" viewBox="0 0 34 15" fill="none" xmlns="http://www.w3.org/2000/svg">
<path fill-rule="evenodd" clip-rule="evenodd" d="M6.19644 2.12291C5.80968 2.59211 5.19086 2.96218 4.57204 2.90931C4.49469 2.2749 4.79765 1.60084 5.15219 1.18452C5.53895 0.702102 6.21578 0.358465 6.7637 0.332031C6.82816 0.992872 6.57676 1.6405 6.19644 2.12291ZM6.7572 3.03486C6.21203 3.0027 5.71459 3.20295 5.31279 3.3647C5.05423 3.46878 4.83527 3.55693 4.66869 3.55693C4.48175 3.55693 4.25375 3.46407 3.99776 3.35981C3.66233 3.2232 3.27884 3.06702 2.87669 3.07451C1.9549 3.08773 1.09758 3.62301 0.627021 4.47549C-0.339885 6.18046 0.375625 8.70487 1.3103 10.0926C1.76797 10.7799 2.31588 11.5333 3.03784 11.5068C3.35546 11.4945 3.58393 11.3952 3.82038 11.2923C4.0926 11.1739 4.37539 11.0509 4.81695 11.0509C5.24319 11.0509 5.51361 11.1707 5.7732 11.2857C6.02003 11.395 6.25706 11.5001 6.60894 11.4936C7.35668 11.4804 7.82724 10.8063 8.28491 10.1191C8.77881 9.38144 8.99586 8.66154 9.02879 8.5523L9.03265 8.53966C9.03187 8.53885 9.02577 8.53599 9.01502 8.53095L9.015 8.53093C8.84989 8.45344 7.58795 7.86118 7.57585 6.27298C7.5637 4.93991 8.57679 4.2645 8.73627 4.15818L8.73629 4.15816C8.74599 4.1517 8.75252 4.14735 8.75547 4.14507C8.11087 3.16703 7.10529 3.0613 6.7572 3.03486ZM11.9334 11.4216V1.11914H15.7043C17.651 1.11914 19.0112 2.49369 19.0112 4.50264C19.0112 6.51159 17.6253 7.89936 15.6528 7.89936H13.4934V11.4216H11.9334ZM13.4932 2.4668H15.2917C16.6453 2.4668 17.4189 3.20694 17.4189 4.50879C17.4189 5.81065 16.6453 6.55739 15.2852 6.55739H13.4932V2.4668ZM24.1616 10.1852C23.7491 10.9914 22.8402 11.5002 21.8604 11.5002C20.41 11.5002 19.398 10.6147 19.398 9.2798C19.398 7.95812 20.3778 7.19816 22.1891 7.08582L24.1358 6.96686V6.39854C24.1358 5.55928 23.6008 5.1033 22.6468 5.1033C21.8604 5.1033 21.2867 5.51963 21.1707 6.15403H19.7654C19.8105 4.81914 21.0353 3.8477 22.6919 3.8477C24.4775 3.8477 25.6378 4.80592 25.6378 6.29281V11.4209H24.1939V10.1852H24.1616ZM22.2793 10.2786C21.4478 10.2786 20.9192 9.86884 20.9192 9.24104C20.9192 8.59342 21.4284 8.21674 22.4018 8.15726L24.1358 8.04492V8.62646C24.1358 9.59129 23.3365 10.2786 22.2793 10.2786ZM30.4271 11.8245C29.8019 13.6286 29.0864 14.2233 27.5651 14.2233C27.4491 14.2233 27.0623 14.2101 26.9721 14.1837V12.9479C27.0687 12.9611 27.3072 12.9743 27.4297 12.9743C28.1195 12.9743 28.5062 12.677 28.7447 11.9038L28.8865 11.4478L26.2437 3.94727H27.8745L29.7116 10.0336H29.7439L31.581 3.94727H33.1667L30.4271 11.8245Z" fill="black"/>
</svg>
