<svg width="57" height="48" viewBox="0 0 144 141" fill="none" xmlns="http://www.w3.org/2000/svg">
<g clip-path="url(#clip0_1_37)">
<path d="M141.533 102.645C141.533 110.577 139.118 117.976 134.981 124.09C130.847 130.211 125.002 135.071 118.109 137.984C113.522 139.923 108.47 141 103.184 141C93.6132 141 84.8357 137.486 78.1212 131.678C76.3 130.102 74.6261 128.348 73.1222 126.455C72.8313 126.089 72.835 125.571 73.1109 125.197C73.3149 124.921 73.5114 124.641 73.7041 124.362C77.5658 118.773 79.7271 109.617 80.1541 102.452L80.3846 104.946L80.9098 107.992C82.0093 113.021 85.1833 116.868 89.045 120.016C92.9066 123.16 97.8074 125.042 103.18 125.042C107.832 125.042 112.12 123.632 115.695 121.218C119.277 118.803 122.115 115.379 123.811 111.359C124.949 108.683 125.572 105.743 125.572 102.641C125.572 96.8782 123.407 91.6483 119.836 87.673C116.783 84.2871 112.729 81.8384 108.134 80.803C107.344 80.6216 106.536 80.4856 105.712 80.3949L103.177 80.1115C108.44 80.1002 113.477 79.0307 118.049 77.096C120.83 75.9208 123.437 74.4281 125.833 72.6634C126.211 72.3838 126.732 72.3838 127.095 72.6823H127.102C128.606 73.8802 130.008 75.1877 131.312 76.5934C137.644 83.4218 141.525 92.5968 141.525 102.649L141.533 102.645Z" fill="url(#paint0_linear_1_37)"/>
<path d="M67.2806 76.7067C66.0979 75.3842 64.8246 74.1485 63.4681 73.0035C60.978 70.8458 58.2121 69.0092 55.2498 67.5582C52.6615 66.2923 49.9447 65.3211 47.141 64.6636C44.19 63.9758 41.3939 63.5753 38.8056 63.186C36.8558 62.8951 35.0308 62.6117 33.3342 62.2338C32.0609 61.9541 30.8631 61.6216 29.7295 61.2059C28.033 60.5786 26.4951 59.7775 25.029 58.6401C23.5667 57.4951 22.1649 56.0025 20.8008 53.9317C18.341 50.1944 17.0639 45.724 17.1394 41.2499C17.1394 41.042 17.1546 40.8342 17.1583 40.6301C17.2906 37.7544 17.9669 35.0185 19.1043 32.5132C20.8008 28.7532 23.5289 25.5185 26.9032 23.1945C30.2774 20.8706 34.2827 19.4497 38.594 19.2721C39.0398 19.257 39.4857 19.2532 39.9202 19.2608C45.7316 19.3628 50.9573 21.6528 54.8757 25.3371C58.7978 29.0291 61.3785 34.0927 61.8509 39.7459L62.0662 42.3382C62.0662 42.0661 62.0813 41.1327 62.0889 40.8569C62.2174 32.9251 64.749 26.229 68.9885 20.1866C69.1774 19.9145 69.3739 19.65 69.5704 19.3855C69.9218 18.9169 69.9294 18.2707 69.5666 17.8135C68.52 16.4909 67.3826 15.2401 66.1697 14.0686C59.4439 7.55769 50.2961 3.48031 40.1961 3.30649C39.7313 3.29893 39.2665 3.29893 38.798 3.30649C33.7914 3.39718 28.9927 4.47037 24.6134 6.33712C18.0387 9.14102 12.3898 13.7248 8.27877 19.4837C4.17151 25.2465 1.60966 32.2033 1.22803 39.7081C1.20913 40.12 1.1978 40.5357 1.19024 40.9475C1.00131 52.1367 5.76227 62.9971 14.1808 70.4301C16.8258 72.7692 19.6559 74.3828 22.505 75.524C24.6436 76.3855 26.7898 76.9826 28.9096 77.455C32.0911 78.1654 35.2084 78.5999 38.2274 79.1592C41.2465 79.7147 44.1446 80.3836 46.9256 81.4983C50.9536 83.1005 54.4903 85.8742 56.9048 89.4226C59.4288 93.1183 60.8571 97.5811 60.7815 102.403C60.7777 102.618 60.7664 102.841 60.7589 103.064C60.6266 105.936 59.9427 108.676 58.8054 111.177C57.1012 114.93 54.3769 118.157 51.0065 120.481C47.6322 122.805 43.6232 124.218 39.3157 124.392C38.8736 124.411 38.439 124.415 38.0045 124.407C32.741 124.313 27.9574 122.423 24.1826 119.328C24.0882 119.253 23.9975 119.17 23.903 119.09C23.6083 118.845 23.3249 118.588 23.0453 118.327C22.9886 118.274 22.9357 118.221 22.8828 118.168L22.8072 118.1C19.0212 114.431 16.5349 109.454 16.0701 103.911L15.9303 102.233C15.8736 101.572 15.3295 101.061 14.6645 101.05L1.30738 100.82C0.559226 100.808 -0.0453399 101.432 -0.00377602 102.184L0.10958 104.194C0.665025 114.129 5.0179 123.096 11.755 129.603C12.2009 130.038 12.6581 130.461 13.1266 130.869L13.138 130.88C19.7504 136.802 28.4675 140.467 38.0347 140.63C43.3209 140.72 48.3879 139.734 53.0129 137.871C59.9503 135.079 65.8826 130.317 70.1221 124.275C74.3616 118.229 76.9045 110.868 77.0406 102.943C77.2144 92.8915 73.4925 83.6523 67.2768 76.7143L67.2806 76.7067ZM60.9516 104.818L60.9365 104.7H60.9629C60.9629 104.738 60.9553 104.78 60.9516 104.818Z" fill="url(#paint1_linear_1_37)"/>
<path d="M144 15.9543V0.517699C144 0.219171 143.747 -0.0188963 143.445 0.00377675L140.493 0.219171C132.702 0.789776 125.538 3.61635 119.644 8.03382C119.492 8.14718 119.296 8.16608 119.126 8.0905C114.255 5.84587 108.833 4.59129 103.128 4.59129C97.8527 4.59129 92.8159 5.66448 88.2363 7.60303C81.367 10.509 75.5253 15.3572 71.403 21.4638C67.2768 27.5704 64.8661 34.9505 64.8661 42.8634C64.8661 48.1425 65.9354 53.1834 67.8776 57.7634C70.7833 64.6333 75.6311 70.4679 81.7335 74.5982C87.8396 78.7246 95.2191 81.1356 103.131 81.1356C104.828 81.1356 106.498 81.026 108.138 80.8068C107.348 80.6254 106.54 80.4894 105.716 80.3987L103.18 80.1153C108.444 80.1039 113.481 79.0345 118.053 77.0997C120.958 75.8716 123.675 74.2996 126.158 72.4291C126.343 72.2893 126.596 72.2893 126.777 72.4291H126.785C126.974 72.584 127.246 72.5802 127.431 72.4253C130.28 70.0787 132.785 67.3277 134.856 64.263C138.982 58.1602 141.4 50.7763 141.393 42.8634C141.393 37.5882 140.323 32.5434 138.381 27.9634C137.104 24.9479 135.453 22.1251 133.481 19.5593C133.28 19.2986 133.363 18.9169 133.662 18.7771C135.944 17.7039 138.43 16.9897 141.053 16.7214L143.528 16.4682C143.792 16.4417 143.992 16.2188 143.992 15.9543H144ZM123.724 51.5623C122.032 55.5679 119.194 58.9802 115.623 61.3911C112.056 63.802 107.771 65.2039 103.131 65.2077C100.04 65.2077 97.1083 64.5842 94.4331 63.4543C90.4279 61.7614 87.0121 58.9235 84.6014 55.3563C82.1907 51.7815 80.7888 47.5001 80.7888 42.8596C80.7888 39.7648 81.4123 36.8362 82.5421 34.1607C84.2349 30.1514 87.0725 26.7391 90.6395 24.3282C94.2102 21.9173 98.4951 20.5153 103.131 20.5078C106.226 20.5116 109.154 21.1351 111.833 22.2687C115.839 23.9579 119.254 26.7996 121.665 30.3668C124.076 33.9378 125.478 38.223 125.478 42.8596C125.478 45.9545 124.85 48.8907 123.724 51.5623Z" fill="url(#paint2_linear_1_37)"/>
</g>
<defs>
<linearGradient id="paint0_linear_1_37" x1="76.9603" y1="99.6988" x2="145.586" y2="99.6988" gradientUnits="userSpaceOnUse">
<stop stop-color="#712200"/>
<stop offset="0.22" stop-color="#712200"/>
<stop offset="0.85" stop-color="#D64B05"/>
<stop offset="1" stop-color="#D64B05"/>
</linearGradient>
<linearGradient id="paint1_linear_1_37" x1="85.3607" y1="96.2608" x2="15.083" y2="-72.0595" gradientUnits="userSpaceOnUse">
<stop stop-color="#712200"/>
<stop offset="0.22" stop-color="#712200"/>
<stop offset="0.85" stop-color="#D64B05"/>
<stop offset="1" stop-color="#D64B05"/>
</linearGradient>
<linearGradient id="paint2_linear_1_37" x1="61.3734" y1="46.7523" x2="140.507" y2="46.7523" gradientUnits="userSpaceOnUse">
<stop stop-color="#712200"/>
<stop offset="0.22" stop-color="#712200"/>
<stop offset="0.85" stop-color="#D64B05"/>
<stop offset="1" stop-color="#D64B05"/>
</linearGradient>
<clipPath id="clip0_1_37">
<rect width="144" height="141" fill="white"/>
</clipPath>
</defs>
</svg>
