<svg width="29" height="28" viewBox="0 0 29 28" fill="none" xmlns="http://www.w3.org/2000/svg">
<g clip-path="url(#clip0_1777_945)">
<path d="M8.55783 19.1343H6.18683V21.4662H8.55783V19.1343Z" fill="white"/>
<path d="M28.9762 4.8985V10.9676H26.6048V9.88758C26.5972 9.83415 26.5933 9.77904 26.5933 9.72394V4.8985C26.5933 4.11283 26.2266 3.36725 25.6124 2.90428C25.1973 2.5916 24.6816 2.40291 24.0793 2.34363H4.91603C4.80906 2.35449 4.17026 2.43213 3.57475 2.77069C2.77338 3.22573 2.39137 3.95754 2.40708 5.00787V9.81745C2.40708 10.371 2.58747 10.9158 2.91472 11.3512C3.54589 12.1911 4.38291 12.617 5.40245 12.617H6.16265L6.25051 7.46046C6.25645 7.0981 6.43048 6.7633 6.72717 6.54205C6.93006 6.39134 7.18983 6.30827 7.45893 6.30827H21.9035V8.65232H8.61387L8.52601 13.8084C8.52092 14.1181 8.39443 14.4079 8.1699 14.6241C7.94578 14.8412 7.64909 14.9606 7.33457 14.9606H5.40245C4.38716 14.9606 3.45505 14.7134 2.63204 14.2267C2.01021 13.8581 1.46097 13.3596 0.998737 12.7447C0.37012 11.9094 0.0241895 10.8695 0.0241895 9.81745V5.03209C0.00975806 3.94168 0.269949 2.9861 0.79797 2.19418C1.20078 1.58844 1.75214 1.08916 2.43636 0.710938C3.58961 0.0738908 4.74794 0.00459208 4.79676 0.00208731C4.81798 0.000417462 4.84217 0 4.86552 0H24.1349C24.1714 0 24.2045 0.00125239 24.2355 0.00417462C25.3183 0.0964337 26.2695 0.446684 27.0624 1.04449C27.6587 1.4941 28.149 2.08689 28.4792 2.75817C28.8043 3.41901 28.9762 4.15917 28.9762 4.8985Z" fill="white"/>
<path d="M28.9525 23.6928V23.7011C28.9503 23.7471 28.9461 23.7926 28.9393 23.8368V23.8994L28.9253 23.9136C28.8748 24.1704 28.68 24.9564 28.0794 25.7989C27.4452 26.6868 26.2347 27.7885 24.0661 27.9947C24.0318 27.9981 23.9923 28.0002 23.9503 28.0002H4.89566C4.84939 28.0002 4.80313 27.9977 4.75813 27.9922C4.71272 27.9872 3.59937 27.8586 2.47414 27.2575C1.67659 26.8313 1.05901 26.2748 0.638379 25.6035C0.214349 24.9272 0 24.1491 0 23.2912C0.000424454 20.3894 0 18.3806 0 18.1422V18.1184C0 18.1051 0 18.0913 0.000848909 18.0779V16.8928H2.38246V18.1026C2.38289 18.1076 2.38289 18.1126 2.38289 18.1176V18.1414C2.38289 18.3802 2.38331 20.3894 2.38289 23.2916C2.38289 24.1236 2.77636 24.7427 3.58579 25.184C4.17409 25.505 4.78615 25.6244 4.98225 25.6565H23.8896C24.8153 25.5576 25.5373 25.194 26.036 24.5766C26.3955 24.1307 26.5339 23.6761 26.5734 23.5212C26.5853 23.0879 26.6663 20.0087 26.57 17.3144C26.5403 16.4678 26.1748 15.8407 25.4524 15.3966C24.9987 15.1173 24.5322 14.9966 24.3722 14.9607H23.0725V20.3084C23.0725 20.9547 22.5381 21.4802 21.8811 21.4802H10.6211V19.1366H20.6896V14.9607H15.2553C15.2328 14.9607 15.2107 14.9603 15.1887 14.9587H13.7549V12.6138H18.1785V12.6171H24.4872C24.5479 12.6171 24.6086 12.6217 24.668 12.6305C24.8454 12.6589 25.7695 12.8271 26.7152 13.4086C27.4108 13.8365 27.9567 14.3826 28.3362 15.0325C28.716 15.6817 28.9232 16.4219 28.952 17.2322C29.0543 20.0959 28.9635 23.3204 28.952 23.6928H28.9525Z" fill="black"/>
</g>
<defs>
<clipPath id="clip0_1777_945">
<rect width="29" height="28" fill="white"/>
</clipPath>
</defs>
</svg>
