<svg width="19" height="19" viewBox="0 0 19 19" fill="none" xmlns="http://www.w3.org/2000/svg">
<path d="M6.62552 12.5901H12.0729C15.4386 12.5901 15.9505 10.4757 16.5713 7.3919C16.7504 6.50242 16.8399 6.05769 16.6246 5.76139C16.4093 5.46509 15.9965 5.46509 15.1711 5.46509H5.12552" stroke="white" stroke-linecap="round"/>
<path d="M6.62552 12.5901L4.65957 3.22629C4.49263 2.55853 3.89265 2.09009 3.20436 2.09009H2.50052" stroke="white" stroke-linecap="round"/>
<path d="M7.28552 12.5901H6.97695C5.95443 12.5901 5.12552 13.4536 5.12552 14.5186C5.12552 14.6962 5.26367 14.8401 5.43409 14.8401H13.7505" stroke="white" stroke-linecap="round" stroke-linejoin="round"/>
<path d="M8.50052 17.0901C9.12184 17.0901 9.62552 16.5864 9.62552 15.9651C9.62552 15.3438 9.12184 14.8401 8.50052 14.8401C7.8792 14.8401 7.37552 15.3438 7.37552 15.9651C7.37552 16.5864 7.8792 17.0901 8.50052 17.0901Z" stroke="white"/>
<path d="M13.7505 17.0901C14.3718 17.0901 14.8755 16.5864 14.8755 15.9651C14.8755 15.3438 14.3718 14.8401 13.7505 14.8401C13.1292 14.8401 12.6255 15.3438 12.6255 15.9651C12.6255 16.5864 13.1292 17.0901 13.7505 17.0901Z" stroke="white"/>
</svg>
