<svg width="24" height="24" viewBox="0 0 24 24" fill="none" xmlns="http://www.w3.org/2000/svg">
<path d="M5.00195 9C5.00195 5.68629 8.13596 3 12.002 3C15.868 3 19.002 5.68629 19.002 9" stroke="black" stroke-width="1.5" stroke-linecap="square" stroke-linejoin="round"/>
<path d="M18.998 16.999V17.799C18.998 19.5663 17.2071 20.999 14.998 20.999H12.998" stroke="black" stroke-width="1.5" stroke-linecap="round" stroke-linejoin="round"/>
<path d="M17.002 10.8045C17.002 10.4588 17.002 10.286 17.054 10.132C17.2052 9.68444 17.6038 9.51076 18.0031 9.32888C18.452 9.12442 18.6764 9.02219 18.8988 9.0042C19.1513 8.98378 19.4042 9.03818 19.62 9.15929C19.9061 9.31984 20.1056 9.62493 20.3099 9.87302C21.2533 11.0188 21.7249 11.5918 21.8975 12.2236C22.0368 12.7334 22.0368 13.2666 21.8975 13.7764C21.6458 14.6979 20.8505 15.4704 20.2618 16.1854C19.9607 16.5511 19.8101 16.734 19.62 16.8407C19.4042 16.9618 19.1513 17.0162 18.8988 16.9958C18.6764 16.9778 18.452 16.8756 18.0031 16.6711C17.6038 16.4892 17.2052 16.3156 17.054 15.868C17.002 15.714 17.002 15.5412 17.002 15.1955V10.8045Z" stroke="#CC4924" stroke-width="1.5"/>
<path d="M7.00195 10.8046C7.00195 10.3694 6.98973 9.97821 6.63786 9.6722C6.50988 9.5609 6.3402 9.48361 6.00086 9.32905C5.55196 9.12458 5.32751 9.02235 5.10511 9.00436C4.43786 8.9504 4.07887 9.40581 3.69408 9.87318C2.7507 11.019 2.27901 11.5919 2.10641 12.2237C1.96713 12.7336 1.96713 13.2668 2.10641 13.7766C2.35815 14.6981 3.15347 15.4705 3.74216 16.1856C4.11324 16.6363 4.46772 17.0475 5.10511 16.996C5.32751 16.978 5.55196 16.8757 6.00086 16.6713C6.3402 16.5167 6.50988 16.4394 6.63786 16.3281C6.98973 16.0221 7.00195 15.631 7.00195 15.1957V10.8046Z" stroke="#CC4924" stroke-width="1.5"/>
</svg>
