<svg width="16" height="17" viewBox="0 0 16 17" fill="none" xmlns="http://www.w3.org/2000/svg">
<g clip-path="url(#clip0_2_1990)">
<path d="M14.6666 8.03129C14.6666 4.34939 11.6818 1.36462 7.99998 1.36462C4.31808 1.36462 1.33331 4.34939 1.33331 8.03129C1.33331 11.7132 4.31808 14.698 7.99998 14.698C11.6818 14.698 14.6666 11.7132 14.6666 8.03129Z" stroke="#CC4924" stroke-width="1.2"/>
<path d="M13.3334 3.83062C12.7102 3.87553 11.9121 4.11678 11.3586 4.83314C10.359 6.12703 9.35935 6.235 8.69295 5.8037C7.69328 5.15676 8.53335 4.10886 7.36008 3.53939C6.59544 3.16824 6.48883 2.15826 6.91442 1.36462" stroke="#CC4924" stroke-width="1.2" stroke-linejoin="round"/>
<path d="M1.33331 7.36462C1.84165 7.80602 2.55362 8.21009 3.39247 8.21009C5.1256 8.21009 5.47223 8.54122 5.47223 9.86582C5.47223 11.1904 5.47223 11.1904 5.81885 12.1838C6.04432 12.83 6.12313 13.4762 5.67371 14.0313" stroke="#CC4924" stroke-width="1.2" stroke-linejoin="round"/>
<path d="M14.6666 8.9994C14.0752 8.6586 13.3333 8.5184 12.5822 9.0582C11.1451 10.0911 10.1542 9.2352 9.70791 10.0905C9.05098 11.3495 11.3971 11.7453 9.33331 14.6979" stroke="#CC4924" stroke-width="1.2" stroke-linejoin="round"/>
</g>
<defs>
<clipPath id="clip0_2_1990">
<rect width="16" height="16" fill="white" transform="translate(0 0.03125)"/>
</clipPath>
</defs>
</svg>
