<svg width="22" height="16" viewBox="0 0 22 16" fill="none" xmlns="http://www.w3.org/2000/svg">
<g clip-path="url(#clip0_5_260)">
<path d="M0 7.6802V7.15643L0.15806 6.73843C1.17557 5.13188 2.48451 3.78218 4.04041 2.68429L2.80063 1.41517C2.47463 1.08278 2.50427 0.548944 2.82039 0.241736C3.13651 -0.0654723 3.63538 -0.085617 3.96138 0.241736L18.0238 14.5748C18.3646 14.9223 18.3399 15.4561 18.0189 15.7734C17.6978 16.0906 17.2039 16.0906 16.8779 15.7583L14.8922 13.7387C9.18725 15.7381 3.35384 13.074 0.15806 8.10324L0.00493938 7.68524L0 7.6802ZM11.6224 10.4098C10.595 10.6213 9.57746 10.299 8.87113 9.56877C8.16479 8.83852 7.85855 7.82121 8.07095 6.78879L6.78671 5.47938C5.98159 7.28234 6.38168 9.3774 7.72025 10.7472C9.06376 12.1221 11.1087 12.5452 12.9017 11.7243L11.6224 10.4098Z" fill="white"/>
<path d="M17.9596 12.1574L15.2182 9.36733C16.0085 7.57444 15.6331 5.47435 14.2847 4.08939C12.9362 2.70947 10.8716 2.29651 9.08846 3.11741L7.11765 1.10293C10.1603 0.0251809 13.4697 0.266918 16.3444 1.72238C18.5079 2.8102 20.3305 4.47214 21.6888 6.4967C22.0691 7.02046 22.1087 7.65502 21.7777 8.21404C20.7701 9.76015 19.5056 11.0696 17.9645 12.1624L17.9596 12.1574Z" fill="white"/>
<path d="M13.9241 8.04281L10.3875 4.43689C11.3902 4.20523 12.4127 4.54265 13.1091 5.24772C13.8105 5.95782 14.1563 6.99024 13.9241 8.03777V8.04281Z" fill="white"/>
</g>
<defs>
<clipPath id="clip0_5_260">
<rect width="22" height="16" fill="white"/>
</clipPath>
</defs>
</svg>
