<svg width="146" height="20" viewBox="0 0 146 20" fill="none" xmlns="http://www.w3.org/2000/svg">
<path d="M3 9L142.047 8.99999" stroke="#F5CEB3" stroke-linecap="round" stroke-dasharray="4 4"/>
<path fill-rule="evenodd" clip-rule="evenodd" d="M0.975795 5.61374L2.28091 9.0489C2.28126 9.04987 2.28158 9.05069 2.28201 9.05163C2.76997 10.2025 8.69997 10.4246 10.0008 10.4528H10.0031C10.0514 10.4526 10.0989 10.4652 10.1408 10.4894C10.1826 10.5135 10.2173 10.5483 10.2413 10.5903C10.2653 10.6322 10.2777 10.6797 10.2774 10.7281C10.277 10.7764 10.2638 10.8237 10.2392 10.8653L7.06384 16.1688C7.05675 16.1806 7.05292 16.1942 7.05276 16.208C7.0526 16.2218 7.0561 16.2354 7.06291 16.2474C7.06972 16.2594 7.07959 16.2694 7.09152 16.2764C7.10346 16.2833 7.11702 16.287 7.13083 16.287H8.1547C8.16475 16.2872 8.17472 16.2853 8.18404 16.2815C8.19336 16.2778 8.20183 16.2722 8.20896 16.2651L14.1086 10.5719C14.1099 10.5707 14.1109 10.5696 14.112 10.5683C14.1376 10.5402 14.1688 10.5177 14.2036 10.5024C14.2384 10.487 14.276 10.4791 14.3141 10.4792H17.1802C18.1956 10.4792 18.7326 10.2849 18.9378 10.0061C19.1401 9.73124 18.9639 9.36651 18.7897 9.12659C18.3628 8.53839 17.4866 8.01562 16.6641 8.01562H4.12892C4.08922 8.01554 4.05002 8.00681 4.01405 7.99002C3.97807 7.97324 3.9462 7.9488 3.92064 7.91843L1.86853 5.48851C1.86079 5.47903 1.85087 5.47157 1.83962 5.46677C1.82837 5.46196 1.81612 5.45996 1.80392 5.46093L1.04376 5.50804C1.03157 5.50883 1.01972 5.51247 1.00919 5.51868C0.998658 5.52488 0.989727 5.53346 0.983116 5.54374C0.976505 5.55403 0.972398 5.56571 0.971127 5.57787C0.969855 5.59003 0.971454 5.60231 0.975795 5.61374ZM12.0756 7.46874H9.28587C9.27233 7.46892 9.25899 7.4655 9.24721 7.45882C9.23543 7.45214 9.22564 7.44245 9.21884 7.43073L7.06372 3.8312C7.05663 3.81935 7.05281 3.80583 7.05264 3.79201C7.05248 3.7782 7.05598 3.76459 7.06279 3.75257C7.0696 3.74055 7.07947 3.73056 7.09141 3.7236C7.10334 3.71664 7.1169 3.71297 7.13072 3.71296H8.15458C8.16463 3.71281 8.17461 3.71467 8.18393 3.71844C8.19324 3.7222 8.20171 3.72779 8.20884 3.73487L12.0756 7.46874Z" fill="#CC4924"/>
<circle cx="142.5" cy="9.5" r="3.5" fill="#EEAD83"/>
</svg>
