<svg width="19" height="18" viewBox="0 0 19 18" fill="none" xmlns="http://www.w3.org/2000/svg">
<path d="M11.043 3.75H9.54297C7.42165 3.75 6.36099 3.75 5.70198 4.40901C5.04297 5.06802 5.04297 6.12868 5.04297 8.25V12C5.04297 14.1213 5.04297 15.1819 5.70198 15.841C6.36099 16.5 7.42165 16.5 9.54297 16.5H10.5503C11.1634 16.5 11.47 16.5 11.7456 16.3858C12.0213 16.2716 12.2381 16.0549 12.6717 15.6213L14.6643 13.6287C15.0978 13.1951 15.3146 12.9784 15.4288 12.7027C15.543 12.427 15.543 12.1204 15.543 11.5073V8.25C15.543 6.12868 15.543 5.06802 14.8839 4.40901C14.2249 3.75 13.1643 3.75 11.043 3.75Z" stroke="black" stroke-width="1.5" stroke-linecap="round" stroke-linejoin="round"/>
<path d="M11.418 16.125V15.375C11.418 13.9608 11.418 13.2537 11.8573 12.8144C12.2967 12.375 13.0038 12.375 14.418 12.375H15.168" stroke="black" stroke-width="1.5" stroke-linecap="round" stroke-linejoin="round"/>
<path d="M5.04297 14.25C3.80033 14.25 2.79297 13.2427 2.79297 12V6C2.79297 3.87868 2.79297 2.81802 3.45198 2.15901C4.11099 1.5 5.17165 1.5 7.29297 1.5H11.0433C12.2859 1.50001 13.2933 2.50739 13.2933 3.75002" stroke="black" stroke-width="1.5" stroke-linecap="round" stroke-linejoin="round"/>
<path d="M7.66797 9.75H10.668M7.66797 6.75H12.918" stroke="#CC4924" stroke-width="1.5" stroke-linecap="round" stroke-linejoin="round"/>
</svg>
