<svg width="25" height="24" viewBox="0 0 25 24" fill="none" xmlns="http://www.w3.org/2000/svg">
<path d="M7.98214 14.0357C8.93304 14.1785 10.0938 13.9598 11.3616 13.8839C11.5982 13.9375 11.8348 13.9732 12.0804 13.9732C12.3304 13.9732 12.5759 13.9375 12.8214 13.8795C16.1205 14.0402 18.692 14.9732 18.692 8.25893C18.692 3.70089 15.7321 0 12.0804 0C8.42857 0 5.46875 3.70089 5.46875 8.25893C5.46875 11.9241 6.16964 13.3482 7.30804 13.8438C7.51786 13.942 7.74554 14 7.98214 14.0357ZM6.92857 5.68304C7.62054 6.64286 9.41518 6.4375 10.9643 5.22321C11.3571 4.91518 11.7009 4.5625 11.9777 4.20536C12.0134 4.20982 12.0491 4.21429 12.0848 4.22321C12.2366 4.25 12.375 4.30357 12.5313 4.35268C12.6697 4.41964 12.8214 4.47321 12.9554 4.55804C13.0938 4.62946 13.2188 4.72768 13.3438 4.8125C13.4554 4.91071 13.5804 5.00446 13.6741 5.11161C13.7723 5.20982 13.8661 5.31696 13.9375 5.41964C14.0178 5.51786 14.0759 5.62054 14.1339 5.70982C14.1919 5.79911 14.241 5.87946 14.2678 5.95089C14.3348 6.08929 14.3749 6.16964 14.3749 6.16964C14.3749 6.16964 14.3615 6.08482 14.3348 5.92857C14.3258 5.84821 14.3035 5.75893 14.2767 5.65179C14.2499 5.54464 14.2187 5.41964 14.1651 5.29464C14.1205 5.16518 14.058 5.03125 13.9866 4.88839C13.9196 4.74554 13.8214 4.60714 13.7276 4.45536C13.616 4.31696 13.5133 4.16518 13.3794 4.03125C13.2544 3.88839 13.1026 3.76786 12.9553 3.63839C12.8169 3.54018 12.6696 3.43304 12.5133 3.34821C12.5803 3.20982 12.6338 3.06696 12.6785 2.93304C13.2321 3.18304 13.7991 3.5 14.2499 3.95089C15.9062 5.60714 15.2544 7.53125 16.5312 6.25893C16.7321 6.05804 16.8972 5.84821 17.0267 5.63839C17.0714 5.63839 17.116 5.63393 17.1517 5.64286C17.3258 5.6875 17.4375 5.82143 17.5 5.92857C17.6741 6.21875 17.7143 6.63839 17.6071 7.05804C17.4464 7.68304 17.0357 8.05357 16.7053 8.09375L16.4375 8.12947L16.3661 8.39286C15.7321 10.692 14.0223 13.1384 12.0893 13.1384C10.1563 13.1384 8.45089 10.692 7.8125 8.39286L7.74107 8.12947L7.47321 8.09375C7.14732 8.04911 6.73214 7.67857 6.57143 7.05804C6.46429 6.63839 6.50446 6.21875 6.67857 5.92857C6.71875 5.84821 6.80804 5.74554 6.92857 5.68304Z" fill="black"/>
<path d="M17.0499 14.6387C16.5321 15.5226 15.9294 16.2681 15.1348 16.6788C13.4919 17.5181 12.2687 18.2056 12.2687 18.2056L12.2642 18.2011V18.1877L12.2508 18.1966L12.2374 18.1877V18.2011L12.233 18.2056C12.233 18.2056 11.0142 17.527 9.36691 16.6788C8.57227 16.2681 7.97405 15.5226 7.45173 14.6387C5.01869 15.6297 3.32227 17.8976 3.32227 19.8842C3.32227 21.9735 3.32227 24.0002 3.32227 24.0002H12.233H12.2687H21.1794C21.1794 24.0002 21.1794 21.9735 21.1794 19.8842C21.1794 17.9021 19.4785 15.6297 17.0499 14.6387Z" fill="black"/>
</svg>
