<svg width="19" height="18" viewBox="0 0 19 18" fill="none" xmlns="http://www.w3.org/2000/svg">
<path d="M5 13.4809C5.09653 14.4622 5.31467 15.1227 5.80768 15.6157C6.69197 16.5 8.1152 16.5 10.9617 16.5C13.8082 16.5 15.2314 16.5 16.1157 15.6157C17 14.7314 17 13.3082 17 10.4617C17 7.6152 17 6.19197 16.1157 5.30768C15.6227 4.81467 14.9622 4.59653 13.9809 4.5" stroke="black" stroke-width="1.5"/>
<path d="M2 8.3389C2.46426 8.27988 2.93363 8.25078 3.40378 8.25175C5.39274 8.215 7.33298 8.75725 8.87832 9.78183C10.3115 10.7321 11.3185 12.0398 11.75 13.5" stroke="#CC4924" stroke-width="1.5" stroke-linejoin="round"/>
<path d="M10.25 5.25H10.256" stroke="#CC4924" stroke-width="1.5" stroke-linecap="round" stroke-linejoin="round"/>
<path d="M2 7.5C2 4.67157 2 3.25736 2.87868 2.37868C3.75736 1.5 5.17157 1.5 8 1.5C10.8284 1.5 12.2427 1.5 13.1213 2.37868C14 3.25736 14 4.67157 14 7.5C14 10.3284 14 11.7427 13.1213 12.6213C12.2427 13.5 10.8284 13.5 8 13.5C5.17157 13.5 3.75736 13.5 2.87868 12.6213C2 11.7427 2 10.3284 2 7.5Z" stroke="black" stroke-width="1.5"/>
</svg>
