<svg width="29" height="26" viewBox="0 0 29 26" fill="none" xmlns="http://www.w3.org/2000/svg">
<path d="M29 9.31252V11.4877C28.8313 11.7923 28.6236 12.1333 28.1953 12.1333H0.863153C0.373168 12.1333 0.00648987 11.7394 0.00648987 11.2725L0 9.52772C0.0194696 9.05427 0.373168 8.67021 0.850173 8.6669L3.84525 8.66028L13.3237 0.416297C13.6287 0.0289288 14.1966 0.0521046 14.5146 0.336837C14.8618 0.644744 14.9105 1.15792 14.6087 1.55191L6.01936 8.67021H22.9839L17.2825 1.39299C16.997 0.989071 17.0781 0.475892 17.4318 0.187849C17.779 -0.0935722 18.3144 -0.0670855 18.6194 0.323593L25.158 8.66359L28.2082 8.67352C28.6139 8.67352 28.8378 9.00461 29 9.31252Z" fill="#606060"/>
<path d="M23.0715 26.0026H5.95771C5.52938 25.9828 5.24058 25.7444 5.12051 25.3338L1.91127 13.8684H27.0887L23.8698 25.3769C23.7367 25.7411 23.5031 25.9662 23.0715 26.0026ZM10.6629 21.5198L9.81918 16.3416C9.73806 15.8516 9.30973 15.5503 8.86517 15.6099C8.42061 15.6695 8.05718 16.09 8.1383 16.5899L8.98523 21.7946C9.06636 22.2846 9.49469 22.5858 9.936 22.5229C10.3741 22.4633 10.7472 22.0462 10.6596 21.5164L10.6629 21.5198ZM15.3518 21.6423V16.4674C15.3518 15.9575 14.9332 15.59 14.4757 15.6033C14.0441 15.6165 13.6547 15.9741 13.6547 16.4674V21.6687C13.6547 22.1786 14.0733 22.5461 14.5308 22.5329C14.9884 22.5196 15.355 22.1654 15.355 21.6456L15.3518 21.6423ZM20.0764 21.7714L20.9201 16.5899C21.0012 16.0933 20.6281 15.6695 20.19 15.6099C19.7844 15.5536 19.3268 15.8251 19.249 16.2953L18.3923 21.5462C18.3112 22.0429 18.6843 22.4667 19.1192 22.5229C19.554 22.5792 19.9921 22.2912 20.0764 21.7714Z" fill="#606060"/>
</svg>
