<svg width="21" height="20" viewBox="0 0 21 20" fill="none" xmlns="http://www.w3.org/2000/svg">
<path d="M7.16669 5.83301H13.8334" stroke="#CC4924" stroke-width="1.5" stroke-linecap="round" stroke-linejoin="round"/>
<path d="M7.16669 9.16699H10.5" stroke="#CC4924" stroke-width="1.5" stroke-linecap="round" stroke-linejoin="round"/>
<path d="M11.3333 17.917V17.5003C11.3333 15.1433 11.3333 13.9648 12.0656 13.2326C12.7978 12.5003 13.9763 12.5003 16.3333 12.5003H16.75M17.1666 11.1196V8.33366C17.1666 5.19096 17.1666 3.61962 16.1903 2.6433C15.2141 1.66699 13.6426 1.66699 10.5 1.66699C7.35729 1.66699 5.78594 1.66699 4.80962 2.6433C3.83331 3.61961 3.83331 5.19096 3.83331 8.33366V12.1205C3.83331 14.8247 3.83331 16.1767 4.5717 17.0926C4.72088 17.2776 4.8894 17.4461 5.07442 17.5952C5.99024 18.3337 7.34233 18.3337 10.0465 18.3337C10.6345 18.3337 10.9284 18.3337 11.1976 18.2387C11.2536 18.2189 11.3085 18.1962 11.3621 18.1706C11.6196 18.0473 11.8275 17.8395 12.2432 17.4237L16.1903 13.4767C16.6721 12.9949 16.9129 12.7541 17.0398 12.4477C17.1666 12.1415 17.1666 11.8008 17.1666 11.1196Z" stroke="black" stroke-width="1.5" stroke-linecap="round" stroke-linejoin="round"/>
</svg>
