<svg width="27" height="27" viewBox="0 0 27 27" fill="none" xmlns="http://www.w3.org/2000/svg">
<g clip-path="url(#clip0_3019_13)">
<path d="M20.0853 23.5655C18.5671 24.0592 16.1965 23.495 14.6642 22.9625C11.1734 21.746 7.95382 19.8877 5.15695 17.4758C3.93816 16.425 2.22622 14.6337 1.89511 13.0504C1.7683 12.4509 2.07476 11.9397 2.64892 11.7528C4.39609 11.1851 7.22466 12.0031 8.94716 12.6766C11.8145 13.798 14.4493 15.3142 16.8481 17.236C18.2959 18.3926 20.3883 20.3954 20.8215 22.2044C20.9695 22.825 20.6841 23.3715 20.0818 23.5655H20.0853Z" fill="#606060"/>
<path d="M10.4372 24.0345L9.36282 23.428L8.75343 24.4541L6.78435 23.3187L7.37261 22.2749L6.31233 21.6508L5.72055 22.617L3.89589 21.2629L4.52642 20.1204L3.47319 19.4998L2.92016 20.4025C2.32133 19.8242 1.82114 19.2988 1.28572 18.6888L1.96908 17.4758L0.912332 16.8658L0.496677 17.4934C-0.422697 15.8608 0.0352287 15.6563 0.891197 14.1718C1.77535 16.0195 3.35695 17.6309 4.91038 18.9004C7.53464 21.0443 10.4478 22.7228 13.6251 23.9111C15.5202 24.6198 17.6161 25.1347 19.6027 24.9901C18.7186 26.5099 18.8172 26.9506 16.9186 26.9965L17.2603 26.323L16.207 25.7094L15.4955 26.9013L13.2094 26.3406L13.7025 25.4273L12.6388 24.8103L11.9906 25.9175L9.88063 25.0254L10.4301 24.0345H10.4372Z" fill="#606060"/>
<path d="M24.6329 0.81456C24.58 1.89357 23.6536 3.25468 22.9491 4.09744C21.3428 6.01216 19.3984 7.60247 17.2074 8.79079C16.2528 9.30914 14.71 9.96148 13.6321 9.79223C13.2235 9.72876 12.9734 9.4114 12.9945 9.00236C13.0544 7.76115 14.252 6.17084 15.0904 5.24345C16.4853 3.69898 18.074 2.39782 19.8634 1.34349C20.9413 0.708774 22.7061 -0.133984 23.953 0.0246943C24.3792 0.0775871 24.654 0.391418 24.6329 0.818086V0.81456Z" fill="#606060"/>
<path d="M22.6145 7.02413L21.9734 7.55659L22.4736 8.18777L21.2865 9.161L20.7687 8.54039L20.1205 9.05874L20.589 9.66524L19.2963 10.4939L18.7256 9.8204L18.081 10.3352L18.5178 10.8994C18.0106 11.1392 17.5597 11.3296 17.0454 11.52L16.4431 10.7971L15.8055 11.319L16.1014 11.7316C14.8509 11.922 14.8333 11.5835 14.1006 10.6843C15.4779 10.5679 16.8728 9.95439 18.0493 9.27736C20.0325 8.13488 21.7902 6.6962 23.3014 4.97189C24.2031 3.94225 25.0309 2.73982 25.4149 1.45276C26.1616 2.37662 26.4646 2.42246 26.0384 3.63194L25.6932 3.25464L25.0521 3.77299L25.6333 4.50996L24.7315 5.8217L24.2736 5.28925L23.629 5.81112L24.1714 6.48815L23.1006 7.60948L22.6074 7.02413H22.6145Z" fill="#606060"/>
<path d="M25.2493 18.9251L24.0094 18.9039L23.9988 17.1726L22.2763 17.1655L22.2622 15.9384L23.9953 15.9172L24.02 14.1753H25.2458L25.2564 15.9172L27 15.9313L26.9859 17.1655L25.2599 17.1726L25.2493 18.9251Z" fill="#606060"/>
<path d="M4.63914 8.98116L3.39922 8.99174L3.3957 7.24981L1.66262 7.2357L1.64501 6.00154L3.38865 5.98743L3.39922 4.24902H4.6321L4.64619 5.98391L6.37926 6.00154V7.23218L4.64619 7.24628L4.63914 8.98116Z" fill="#606060"/>
</g>
<defs>
<clipPath id="clip0_3019_13">
<rect width="27" height="27" fill="white"/>
</clipPath>
</defs>
</svg>
