<svg width="22" height="29" viewBox="0 0 22 29" fill="none" xmlns="http://www.w3.org/2000/svg">
<g clip-path="url(#clip0_5_471)">
<path d="M19.0089 28.9902L3.09241 29C1.34352 29 -0.11116 27.5865 0.00652182 25.8042L1.082 9.59049C1.18988 7.98446 2.49746 6.76035 4.09597 6.74729L5.25645 6.7375V5.71577C5.27279 2.5135 7.89122 -0.019595 11.0327 -9.25789e-06C14.2068 0.0195765 16.7304 2.61796 16.7435 5.84308V6.7375L17.9105 6.74729C19.4633 6.76035 20.8035 7.95508 20.9082 9.53826L21.9934 25.8075C22.1079 27.5017 20.7447 28.9902 19.0122 28.9902H19.0089ZM14.7135 6.74076V5.64722C14.707 3.60051 12.981 2.0108 10.9706 2.02712C8.98631 2.04344 7.33876 3.62336 7.28973 5.64722C7.27992 6.02914 7.28973 6.37842 7.30281 6.74402H14.7135V6.74076ZM14.3376 12.7536C13.6903 14.0691 12.3827 14.8427 10.9706 14.8329C9.56492 14.8232 8.28022 14.0201 7.64931 12.7307C7.40087 12.2215 6.83862 12.0126 6.32539 12.2248C5.90043 12.401 5.55719 12.9658 5.77294 13.4685C6.6719 15.5413 8.74768 16.8438 10.9673 16.8568C13.1869 16.8699 15.2758 15.5805 16.2074 13.5142C16.4395 13.0017 16.129 12.4174 15.6713 12.2248C15.1581 12.0126 14.5991 12.215 14.3343 12.7536H14.3376Z" fill="#606060"/>
</g>
<defs>
<clipPath id="clip0_5_471">
<rect width="22" height="29" fill="white"/>
</clipPath>
</defs>
</svg>
