<svg width="28" height="25" viewBox="0 0 28 25" fill="none" xmlns="http://www.w3.org/2000/svg">
<path d="M27.9942 12.4768C27.9942 13.3545 27.265 14.0432 26.4374 14.0432H24.8805L24.9153 21.8641C24.9153 21.9949 24.9066 22.1286 24.8921 22.2594V23.0441C24.8921 24.1223 24.0211 24.9971 22.9475 24.9971H22.1691C22.117 24.9971 22.062 24.9971 22.0099 24.9913C21.9405 24.9971 21.8739 24.9971 21.8045 24.9971H19.0583C17.9847 24.9971 17.1137 24.1223 17.1137 23.0441V18.7485C17.1137 17.8854 16.4192 17.185 15.5568 17.185H12.4461C11.5866 17.185 10.8892 17.8825 10.8892 18.7485V23.0441C10.8892 24.1223 10.0182 24.9971 8.94461 24.9971H6.22737C6.15502 24.9971 6.08268 24.9913 6.00744 24.9884C5.94957 24.9942 5.89169 24.9971 5.83382 24.9971H5.05539C3.98181 24.9971 3.11079 24.1223 3.11079 23.0441V17.5744C3.11079 17.5308 3.11079 17.4814 3.11658 17.4378V14.0403H1.55684C0.682927 14.0403 0 13.3574 0 12.4738C0 12.035 0.144688 11.6426 0.486151 11.3026L12.9525 0.389444C13.2939 0.0465008 13.6817 0 14.0232 0C14.3646 0 14.7524 0.0988142 15.0446 0.342944L27.4618 11.3055C27.8495 11.6485 28.0463 12.0379 27.9971 12.4768H27.9942Z" fill="#606060"/>
</svg>
