<svg width="21" height="25" viewBox="0 0 21 25" fill="none" xmlns="http://www.w3.org/2000/svg">
<g clip-path="url(#clip0_5_457)">
<path d="M11.0147 0C14.4161 0.355861 16.9538 3.34819 16.7941 6.90989C16.6373 10.4159 13.8423 13.1978 10.4823 13.1823C7.10747 13.1699 4.32128 10.3478 4.20888 6.81706C4.09057 3.27392 6.64015 0.349672 9.98832 0H11.0147Z" fill="#606060"/>
<path d="M20.2931 25H0.706895C0.269148 25 -0.00296439 24.6442 -6.64776e-06 24.2171C0.0118243 21.5838 1.04112 19.1082 2.85422 17.2918C4.5283 15.6146 6.72295 14.6491 9.0507 14.6491H11.9493C14.2327 14.6491 16.3889 15.5743 18.0482 17.1958C19.9175 19.0185 20.9852 21.5342 20.997 24.2171C20.997 24.6442 20.7249 25 20.2901 25H20.2931Z" fill="#606060"/>
</g>
<defs>
<clipPath id="clip0_5_457">
<rect width="21" height="25" fill="white"/>
</clipPath>
</defs>
</svg>
