<svg width="65" height="65" viewBox="0 0 65 65" fill="none" xmlns="http://www.w3.org/2000/svg">
<path d="M0 19.043V45.957C0 56.4742 8.52583 65 19.043 65H45.957C56.4742 65 65 56.4742 65 45.957V19.043C65 8.52583 56.4742 0 45.957 0H19.043C8.52583 0 0 8.52583 0 19.043Z" fill="#E0622F"/>
<path d="M51.8949 30.2551L31.849 31.8141L17.615 17.5801L13.0879 47.4204L30.6671 64.9996H45.9586C56.4754 64.9996 65.0016 56.4734 65.0016 45.9566V43.3604L51.8962 30.2551H51.8949Z" fill="url(#paint0_linear_1851_9729)"/>
<path d="M35.9538 41.7082L41.9879 35.6741H25.5449C23.7917 35.6741 22.3711 34.2535 22.3711 32.5003C22.3711 30.7471 23.7917 29.3265 25.5449 29.3265H41.9866L35.9525 23.2924C34.7135 22.0533 34.7135 20.0437 35.9525 18.8033C37.1916 17.5643 39.2013 17.5643 40.4416 18.8033L51.894 30.2558C53.1331 31.4948 53.1331 33.5045 51.894 34.7448L40.4416 46.1973C39.2025 47.4363 37.1929 47.4363 35.9525 46.1973C34.7135 44.9582 34.7135 42.9485 35.9525 41.7082H35.9538Z" fill="white"/>
<path d="M18.5234 45.1953V19.8047C18.5234 18.0518 17.1025 16.6309 15.3496 16.6309C13.5968 16.6309 12.1758 18.0518 12.1758 19.8047V45.1953C12.1758 46.9482 13.5968 48.3691 15.3496 48.3691C17.1025 48.3691 18.5234 46.9482 18.5234 45.1953Z" fill="white"/>
<defs>
<linearGradient id="paint0_linear_1851_9729" x1="14.4247" y1="20.7717" x2="56.2494" y2="62.5964" gradientUnits="userSpaceOnUse">
<stop stop-color="#CC4924"/>
<stop offset="1" stop-opacity="0"/>
</linearGradient>
</defs>
</svg>
