<svg width="157" height="34" viewBox="0 0 157 34" fill="none" xmlns="http://www.w3.org/2000/svg">
<g clip-path="url(#clip0_2_817)">
<path d="M7.75654 27.3089C6.23397 27.3089 4.88873 27.037 3.72387 26.49C2.55902 25.9462 1.64486 25.164 0.98753 24.1495C0.330196 23.1351 0 21.9129 0 20.486C0 20.0491 0.354655 19.6977 0.788801 19.6977H2.87698C3.31419 19.6977 3.66578 20.0521 3.66578 20.486C3.66578 21.6715 4.03267 22.5576 4.76644 23.1504C5.50021 23.7431 6.49691 24.0395 7.75654 24.0395C9.01618 24.0395 9.98842 23.7859 10.6213 23.2787C11.2511 22.7715 11.566 22.1237 11.566 21.3324C11.566 20.7885 11.4101 20.3454 11.1013 20.0063C10.7925 19.6671 10.34 19.3921 9.74689 19.1752C9.15376 18.9582 8.43528 18.7566 7.58839 18.5702L6.94023 18.4296C5.58581 18.1302 4.42401 17.7483 3.45483 17.2869C2.48564 16.8255 1.7427 16.2205 1.226 15.4689C0.709309 14.7172 0.449433 13.7395 0.449433 12.5356C0.449433 11.3317 0.736826 10.3051 1.30855 9.44955C1.88334 8.59401 2.69048 7.93708 3.7361 7.4757C4.77867 7.01432 6.00773 6.78516 7.41718 6.78516C8.82662 6.78516 10.0832 7.02348 11.1839 7.5032C12.2845 7.98291 13.1497 8.6979 13.7796 9.6451C14.4094 10.5954 14.7243 11.7839 14.7243 13.2109V13.2659C14.7243 13.7028 14.3696 14.0542 13.9355 14.0542H11.8473C11.4101 14.0542 11.0585 13.6997 11.0585 13.2659V13.2109C11.0585 12.4592 10.9117 11.8542 10.6213 11.3928C10.3308 10.9315 9.91199 10.5954 9.36472 10.3784C8.82051 10.1615 8.16929 10.0545 7.41718 10.0545C6.28901 10.0545 5.4574 10.2654 4.91931 10.6901C4.38427 11.1117 4.11522 11.6892 4.11522 12.4225C4.11522 12.9114 4.24363 13.3239 4.49739 13.6631C4.75115 14.0022 5.13332 14.2833 5.64084 14.5094C6.14837 14.7356 6.79653 14.9311 7.58839 15.1022L8.23655 15.2428C9.646 15.5422 10.8751 15.9302 11.9176 16.3977C12.9602 16.8683 13.7734 17.4886 14.3574 18.2585C14.9414 19.0285 15.2318 20.0154 15.2318 21.2193C15.2318 22.4232 14.9261 23.4804 14.3146 24.3909C13.7031 25.3014 12.8379 26.0164 11.7189 26.5328C10.5999 27.0492 9.27911 27.3089 7.75654 27.3089Z" fill="#231F20"/>
<path d="M16.1368 26.5939V7.50015C16.1368 7.32293 16.2805 7.17932 16.4578 7.17932H19.3715C19.5488 7.17932 19.6925 7.32293 19.6925 7.50015V14.3322C19.6925 14.5095 19.8362 14.6531 20.0135 14.6531C20.1297 14.6531 20.2337 14.5889 20.2917 14.4881C20.4385 14.2436 20.6433 13.9961 20.9063 13.7486C21.2273 13.4492 21.6553 13.1986 22.1904 13C22.7254 12.8014 23.4072 12.7037 24.2357 12.7037C25.3272 12.7037 26.2811 12.9542 27.1005 13.4523C27.9199 13.9503 28.5528 14.6378 29.0052 15.5117C29.4577 16.3855 29.6809 17.4061 29.6809 18.5702V26.597C29.6809 26.7742 29.5372 26.9178 29.3599 26.9178H26.4462C26.2689 26.9178 26.1252 26.7742 26.1252 26.597V18.8544C26.1252 17.8033 25.8653 17.0119 25.3486 16.4864C24.8319 15.9608 24.0921 15.698 23.1351 15.698C22.0436 15.698 21.1967 16.0616 20.5975 16.7827C19.9952 17.5069 19.6956 18.5152 19.6956 19.8138V26.6C19.6956 26.7773 19.5519 26.9209 19.3745 26.9209H16.4609C16.2835 26.9209 16.1398 26.7773 16.1398 26.6L16.1368 26.5939Z" fill="#231F20"/>
<path d="M38.1957 27.309C36.8046 27.309 35.5541 27.0279 34.4443 26.4626C33.3345 25.8973 32.4601 25.0815 31.8211 24.009C31.1821 22.9366 30.8611 21.6502 30.8611 20.1469V19.6947C30.8611 18.1914 31.1821 16.905 31.8211 15.8325C32.4601 14.76 33.3345 13.9442 34.4443 13.379C35.5541 12.8137 36.8046 12.5326 38.1957 12.5326C39.5868 12.5326 40.8373 12.8137 41.9471 13.379C43.0569 13.9442 43.9313 14.76 44.5703 15.8325C45.2093 16.905 45.5303 18.1914 45.5303 19.6947V20.1469C45.5303 21.6502 45.2093 22.9396 44.5703 24.009C43.9313 25.0815 43.0569 25.8973 41.9471 26.4626C40.8373 27.0279 39.5868 27.309 38.1957 27.309ZM38.1957 24.1526C39.2872 24.1526 40.1891 23.8013 40.9045 23.0954C41.62 22.3896 41.9777 21.3813 41.9777 20.0644V19.7833C41.9777 18.4694 41.6261 17.458 40.9198 16.7522C40.2136 16.0464 39.3055 15.695 38.1988 15.695C37.092 15.695 36.2054 16.0464 35.4899 16.7522C34.7745 17.458 34.4168 18.4664 34.4168 19.7833V20.0644C34.4168 21.3813 34.7745 22.3896 35.4899 23.0954C36.2054 23.8013 37.1073 24.1526 38.1988 24.1526H38.1957Z" fill="#231F20"/>
<path d="M46.8297 32.2252V13.2597C46.8297 13.0795 46.9765 12.9328 47.1569 12.9328H50.0002C50.1806 12.9328 50.3273 13.0795 50.3273 13.2597V14.2955C50.3273 14.4758 50.4741 14.6225 50.6545 14.6225C50.7676 14.6225 50.8685 14.5644 50.9296 14.4697C51.2507 13.9869 51.7154 13.5531 52.3299 13.1711C53.0056 12.7495 53.9748 12.5356 55.2344 12.5356C56.3626 12.5356 57.4052 12.8136 58.3652 13.3667C59.3252 13.9228 60.0956 14.7355 60.6796 15.805C61.2636 16.8774 61.554 18.173 61.554 19.6946V20.1468C61.554 21.6685 61.2636 22.967 60.6796 24.0365C60.0956 25.1089 59.3252 25.9217 58.3652 26.4747C57.4052 27.0278 56.3626 27.3058 55.2344 27.3058C54.3875 27.3058 53.6782 27.2081 53.1034 27.0095C52.5287 26.8109 52.07 26.5572 51.7215 26.2486C51.4249 25.9828 51.1803 25.717 50.9847 25.445C50.9235 25.3564 50.8257 25.3045 50.7156 25.3045H50.7065C50.5261 25.3045 50.3793 25.4512 50.3793 25.6314V32.2221C50.3793 32.4024 50.2326 32.5491 50.0522 32.5491H47.1538C46.9734 32.5491 46.8267 32.4024 46.8267 32.2221L46.8297 32.2252ZM54.1643 24.2076C55.2742 24.2076 56.1914 23.8562 56.916 23.1504C57.6406 22.4446 58.0013 21.4149 58.0013 20.0643V19.7832C58.0013 18.4296 57.6345 17.3999 56.9007 16.6972C56.1669 15.9913 55.2558 15.64 54.1643 15.64C53.0729 15.64 52.1618 15.9913 51.428 16.6972C50.6942 17.403 50.3273 18.4296 50.3273 19.7832V20.0643C50.3273 21.4179 50.6942 22.4476 51.428 23.1504C52.1618 23.8531 53.0729 24.2076 54.1643 24.2076Z" fill="#231F20"/>
<path d="M62.8503 32.2252V13.2597C62.8503 13.0795 62.9971 12.9328 63.1775 12.9328H66.0208C66.2012 12.9328 66.3479 13.0795 66.3479 13.2597V14.2955C66.3479 14.4758 66.4947 14.6225 66.6751 14.6225C66.7882 14.6225 66.8891 14.5644 66.9502 14.4697C67.2713 13.9869 67.736 13.5531 68.3505 13.1711C69.0262 12.7495 69.9954 12.5356 71.255 12.5356C72.3832 12.5356 73.4258 12.8136 74.3858 13.3667C75.3458 13.9228 76.1162 14.7355 76.7002 15.805C77.2842 16.8774 77.5746 18.173 77.5746 19.6946V20.1468C77.5746 21.6685 77.2842 22.967 76.7002 24.0365C76.1162 25.1089 75.3458 25.9217 74.3858 26.4747C73.4258 27.0278 72.3832 27.3058 71.255 27.3058C70.4081 27.3058 69.6988 27.2081 69.124 27.0095C68.5493 26.8109 68.0906 26.5572 67.7421 26.2486C67.4455 25.9828 67.201 25.717 67.0053 25.445C66.9441 25.3564 66.8463 25.3045 66.7362 25.3045H66.7271C66.5467 25.3045 66.3999 25.4512 66.3999 25.6314V32.2221C66.3999 32.4024 66.2532 32.5491 66.0728 32.5491H63.1744C62.994 32.5491 62.8473 32.4024 62.8473 32.2221L62.8503 32.2252ZM70.1849 24.2076C71.2948 24.2076 72.212 23.8562 72.9366 23.1504C73.6612 22.4446 74.0219 21.4149 74.0219 20.0643V19.7832C74.0219 18.4296 73.6551 17.3999 72.9213 16.6972C72.1875 15.9913 71.2764 15.64 70.1849 15.64C69.0935 15.64 68.1824 15.9913 67.4486 16.6972C66.7148 17.403 66.3479 18.4296 66.3479 19.7832V20.0643C66.3479 21.4179 66.7148 22.4476 67.4486 23.1504C68.1824 23.8531 69.0935 24.2076 70.1849 24.2076Z" fill="#231F20"/>
<path d="M80.6503 11.2951C80.0113 11.2951 79.4702 11.0873 79.0269 10.6748C78.5835 10.2623 78.3634 9.71538 78.3634 9.04011C78.3634 8.36485 78.5835 7.81791 79.0269 7.40542C79.4671 6.99293 80.0083 6.78516 80.6503 6.78516C81.2924 6.78516 81.8549 6.99293 82.286 7.40542C82.7171 7.81791 82.9342 8.36485 82.9342 9.04011C82.9342 9.71538 82.7171 10.2623 82.286 10.6748C81.8519 11.0873 81.3077 11.2951 80.6503 11.2951ZM78.874 26.1142V13.7303C78.874 13.2872 79.2317 12.9298 79.675 12.9298H81.6287C82.072 12.9298 82.4297 13.2872 82.4297 13.7303V26.1142C82.4297 26.5573 82.072 26.9148 81.6287 26.9148H79.675C79.2317 26.9148 78.874 26.5573 78.874 26.1142Z" fill="#231F20"/>
<path d="M84.4048 26.6V13.2475C84.4048 13.0733 84.5455 12.9328 84.7197 12.9328H87.5875C87.7618 12.9328 87.9024 13.0733 87.9024 13.2475V14.4483C87.9024 14.6225 88.0431 14.763 88.2174 14.763C88.3366 14.763 88.4405 14.6958 88.4986 14.5919C88.7402 14.1641 89.1315 13.7578 89.6818 13.3667C90.3025 12.9267 91.2441 12.7036 92.5038 12.7036C93.5953 12.7036 94.5492 12.9542 95.3685 13.4522C96.1879 13.9503 96.8208 14.6377 97.2733 15.5116C97.7258 16.3855 97.949 17.406 97.949 18.5702V26.6C97.949 26.7742 97.8083 26.9147 97.634 26.9147H94.7112C94.5369 26.9147 94.3963 26.7742 94.3963 26.6V18.8513C94.3963 17.8002 94.1364 17.0088 93.6197 16.4833C93.103 15.9577 92.3631 15.6949 91.4062 15.6949C90.3147 15.6949 89.4678 16.0585 88.8686 16.7796C88.2663 17.5038 87.9666 18.5121 87.9666 19.8107V26.6C87.9666 26.7742 87.826 26.9147 87.6517 26.9147H84.7289C84.5546 26.9147 84.414 26.7742 84.414 26.6H84.4048Z" fill="#231F20"/>
<path d="M112.979 23.7431C111.294 27.1836 105.605 28.2989 103.287 25.1151C103.119 24.8462 102.673 24.9806 102.682 25.2984V28.6044C102.682 29.1697 102.945 29.4508 103.47 29.4508H111.264C111.447 29.4508 111.594 29.5975 111.594 29.7808V32.2221C111.594 32.4055 111.447 32.5521 111.264 32.5521C109.521 32.216 101.159 33.3649 99.9729 31.6935C99.4073 31.1191 99.126 30.3552 99.126 29.3958V13.2628C99.126 13.0795 99.2727 12.9328 99.4562 12.9328H102.293C102.841 12.9053 102.559 14.0053 102.624 14.2956C102.624 14.4789 102.77 14.6256 102.954 14.6256C104.834 12.4225 107.867 11.8298 110.649 13.3697C114.08 15.1969 114.66 20.544 112.976 23.7462L112.979 23.7431ZM109.2 22.8265C109.998 22.1054 110.353 20.9015 110.301 19.6121C110.591 15.9944 106.075 14.4269 103.712 16.6666C102.926 17.3755 102.572 18.5946 102.627 19.8963C102.352 23.4804 106.834 25.1028 109.2 22.8296V22.8265Z" fill="#CE4927"/>
<path d="M120.399 27.309C119.402 27.309 118.51 27.1348 117.721 26.7865C116.932 26.4381 116.305 25.9309 115.844 25.2648C115.382 24.5987 115.153 23.786 115.153 22.8266C115.153 21.8671 115.382 21.0635 115.844 20.4158C116.305 19.768 116.944 19.2791 117.761 18.9491C118.58 18.6191 119.513 18.4572 120.567 18.4572H124.404V17.6689C124.404 17.0119 124.196 16.4711 123.784 16.0464C123.371 15.6248 122.711 15.4109 121.809 15.4109C120.907 15.4109 120.268 15.6125 119.834 16.0159C119.399 16.4192 119.118 16.9417 118.987 17.5803L115.715 16.4803C115.942 15.7653 116.302 15.1114 116.801 14.5217C117.299 13.929 117.966 13.4492 118.803 13.0826C119.641 12.7159 120.659 12.5326 121.864 12.5326C123.707 12.5326 125.166 12.994 126.236 13.9137C127.309 14.8334 127.844 16.1686 127.844 17.9164V23.1321C127.844 23.6974 128.107 23.9785 128.633 23.9785H129.761V26.9117H127.391C126.596 26.9117 125.961 26.6918 125.484 26.2487C125.156 25.9462 124.991 25.5032 124.991 25.0571V25.0204H124.456C124.38 25.2465 124.212 25.5429 123.949 25.9095C123.686 26.2762 123.273 26.6001 122.707 26.8812C122.142 27.1623 121.371 27.3029 120.393 27.3029L120.399 27.309ZM121.02 24.4337C122.017 24.4337 122.83 24.1557 123.46 23.6026C124.089 23.0496 124.404 22.3102 124.404 21.3905V21.1094H120.821C120.164 21.1094 119.644 21.2499 119.271 21.531C118.901 21.8091 118.715 22.1941 118.705 22.6891C118.702 22.9213 118.748 23.1565 118.846 23.3674C119.173 24.0793 119.898 24.4337 121.02 24.4337Z" fill="#231F20"/>
<path d="M134.729 26.9147C133.809 26.9147 133.06 26.6275 132.488 26.0562C131.913 25.4817 131.629 24.7178 131.629 23.7584V16.1869C131.629 16.0097 131.485 15.863 131.305 15.863H128.455C128.278 15.863 128.131 15.7194 128.131 15.5391V13.2536C128.131 13.0764 128.275 12.9297 128.455 12.9297H131.305C131.482 12.9297 131.629 12.7861 131.629 12.6059V8.91177C131.629 8.73455 131.773 8.58789 131.953 8.58789H134.861C135.038 8.58789 135.185 8.7315 135.185 8.91177V12.6059C135.185 12.7831 135.328 12.9297 135.509 12.9297H138.698C138.875 12.9297 139.022 13.0734 139.022 13.2536V15.5391C139.022 15.7164 138.878 15.863 138.698 15.863H135.509C135.331 15.863 135.185 16.0066 135.185 16.1869V23.1382C135.185 23.7034 135.448 23.9845 135.973 23.9845H138.358C138.536 23.9845 138.682 24.1281 138.682 24.3084V26.5939C138.682 26.7711 138.539 26.9178 138.358 26.9178H134.732L134.729 26.9147Z" fill="#231F20"/>
<path d="M146.127 27.3089C144.736 27.3089 143.507 27.0125 142.446 26.4197C141.382 25.827 140.556 24.9928 139.963 23.9112C139.37 22.8295 139.074 21.5585 139.074 20.0918V19.7527C139.074 18.286 139.364 17.0149 139.948 15.9333C140.532 14.8516 141.348 14.0175 142.403 13.4247C143.455 12.832 144.678 12.5356 146.069 12.5356C147.46 12.5356 148.637 12.8411 149.652 13.4522C150.667 14.0633 151.459 14.9097 152.022 15.9883C152.587 17.0699 152.868 18.3227 152.868 19.7527V20.5257C152.868 20.7671 152.673 20.9657 152.428 20.9657H143.17C142.895 20.9657 142.69 21.2162 142.739 21.4882C142.868 22.2123 143.207 22.8173 143.757 23.3062C144.433 23.9081 145.262 24.2076 146.24 24.2076C147.218 24.2076 147.971 23.9906 148.441 23.5598C148.799 23.2298 149.093 22.8723 149.319 22.4873C149.438 22.2857 149.692 22.2154 149.897 22.3223L152.006 23.4284C152.233 23.5476 152.315 23.8317 152.177 24.0487C151.939 24.4215 151.636 24.8187 151.273 25.2373C150.774 25.8117 150.111 26.3006 149.285 26.7039C148.457 27.1072 147.405 27.3089 146.127 27.3089ZM143.271 18.3166H148.735C149.025 18.3166 149.236 18.0416 149.16 17.7605C149.013 17.2044 148.72 16.743 148.285 16.3702C147.711 15.8813 146.965 15.6369 146.044 15.6369C145.124 15.6369 144.323 15.8813 143.761 16.3702C143.339 16.7338 143.039 17.1891 142.859 17.7299C142.764 18.0171 142.972 18.3166 143.274 18.3166H143.271Z" fill="#231F20"/>
<path d="M11.2572 4.80214H9.71019C9.4442 4.80214 9.19961 4.63408 9.12929 4.37742C8.94279 3.71744 8.33437 3.23161 7.61589 3.23161C6.89741 3.23161 6.28899 3.71744 6.10249 4.37742C6.03217 4.63408 5.78453 4.80214 5.52159 4.80214H3.97457C3.60157 4.80214 3.30806 4.46909 3.36921 4.10243C3.70552 2.06136 5.48185 0.5 7.61589 0.5C9.74993 0.5 11.5293 2.06136 11.8626 4.10243C11.9237 4.46909 11.6302 4.80214 11.2572 4.80214Z" fill="#CE4927"/>
</g>
<defs>
<clipPath id="clip0_2_817">
<rect width="157" height="33" fill="white" transform="translate(0 0.5)"/>
</clipPath>
</defs>
</svg>
