<svg width="60" height="60" viewBox="0 0 60 60" fill="none" xmlns="http://www.w3.org/2000/svg">
<path fill-rule="evenodd" clip-rule="evenodd" d="M27.8687 6.15684C22.5667 6.15684 18.2687 10.4549 18.2687 15.7568C18.2687 21.0588 22.5667 25.3568 27.8687 25.3568C33.1705 25.3568 37.4687 21.0588 37.4687 15.7568C37.4687 10.4549 33.1705 6.15684 27.8687 6.15684ZM15.8687 15.7568C15.8687 9.12943 21.2412 3.75684 27.8687 3.75684C34.4961 3.75684 39.8687 9.12943 39.8687 15.7568C39.8687 22.3842 34.4961 27.7568 27.8687 27.7568C21.2412 27.7568 15.8687 22.3842 15.8687 15.7568Z" fill="black"/>
<path fill-rule="evenodd" clip-rule="evenodd" d="M26.5858 35.3224C26.6206 35.9844 26.1125 36.5491 25.4506 36.5841C19.3682 36.9045 13.3394 38.5363 7.80059 41.4796C7.48108 41.6493 7.28135 41.9817 7.28135 42.3434V51.156C7.28135 51.8188 7.81861 52.356 8.48135 52.356H25.3875C26.0501 52.356 26.5875 52.8933 26.5875 53.556C26.5875 54.2188 26.0501 54.756 25.3875 54.756H8.48135C6.49314 54.756 4.88135 53.1444 4.88135 51.156V42.3434C4.88135 41.094 5.57101 39.9465 6.67436 39.3602C12.5268 36.2503 18.8975 34.5259 25.3244 34.1872C25.9863 34.1524 26.551 34.6608 26.5858 35.3224Z" fill="black"/>
<path fill-rule="evenodd" clip-rule="evenodd" d="M47.915 30.613C46.8578 29.4151 45.3071 28.6567 43.5808 28.6567H39.0016C35.8096 28.6567 33.2222 31.2444 33.2222 34.4362V50.4639C33.2222 53.6559 35.8096 56.2433 39.0016 56.2433H43.5808C45.3071 56.2433 46.8578 55.4849 47.915 54.2871C48.3537 53.7903 48.3064 53.0319 47.8094 52.5934C47.3126 52.1547 46.5542 52.2019 46.1157 52.699C45.4948 53.4024 44.59 53.8433 43.5808 53.8433H39.0016C37.1351 53.8433 35.6222 52.3303 35.6222 50.4639V34.4362C35.6222 32.5697 37.1351 31.0567 39.0016 31.0567H43.5808C44.59 31.0567 45.4948 31.4976 46.1157 32.2013C46.5542 32.6981 47.3126 32.7454 47.8094 32.3069C48.3064 31.8682 48.3537 31.11 47.915 30.613Z" fill="#CC4924"/>
<path fill-rule="evenodd" clip-rule="evenodd" d="M54.7673 41.6014C55.2361 42.0701 55.2361 42.8299 54.7673 43.2986L49.9673 48.0986C49.4989 48.5671 48.739 48.5671 48.2703 48.0986C47.8018 47.6299 47.8018 46.8701 48.2703 46.4014L53.0703 41.6014C53.539 41.1329 54.2989 41.1329 54.7673 41.6014Z" fill="#CC4924"/>
<path fill-rule="evenodd" clip-rule="evenodd" d="M54.7673 43.2983C55.2361 42.8296 55.2361 42.0698 54.7673 41.6011L49.9673 36.8011C49.4989 36.3326 48.739 36.3326 48.2703 36.8011C47.8018 37.2698 47.8018 38.0296 48.2703 38.4983L53.0703 43.2983C53.539 43.7668 54.2989 43.7668 54.7673 43.2983Z" fill="#CC4924"/>
<path fill-rule="evenodd" clip-rule="evenodd" d="M39.519 42.45C39.519 41.7874 40.0562 41.25 40.719 41.25H52.719C53.3817 41.25 53.919 41.7874 53.919 42.45C53.919 43.1126 53.3817 43.65 52.719 43.65H40.719C40.0562 43.65 39.519 43.1126 39.519 42.45Z" fill="#CC4924"/>
</svg>
