<svg width="24" height="25" viewBox="0 0 24 25" fill="none" xmlns="http://www.w3.org/2000/svg">
<path d="M2.00049 18.5C2.00049 16.9596 2.00049 16.1893 2.34722 15.6235C2.54123 15.3069 2.80742 15.0407 3.12402 14.8467C3.68983 14.5 4.46005 14.5 6.00049 14.5C7.54093 14.5 8.31115 14.5 8.87696 14.8467C9.19356 15.0407 9.45975 15.3069 9.65376 15.6235C10.0005 16.1893 10.0005 16.9596 10.0005 18.5C10.0005 20.0404 10.0005 20.8107 9.65376 21.3765C9.45975 21.6931 9.19356 21.9593 8.87696 22.1533C8.31115 22.5 7.54093 22.5 6.00049 22.5C4.46005 22.5 3.68983 22.5 3.12402 22.1533C2.80742 21.9593 2.54123 21.6931 2.34722 21.3765C2.00049 20.8107 2.00049 20.0404 2.00049 18.5Z" fill="#CC4924" stroke="#CC4924" stroke-width="1.5"/>
<path d="M14.0005 18.5C14.0005 16.9596 14.0005 16.1893 14.3472 15.6235C14.5412 15.3069 14.8074 15.0407 15.124 14.8467C15.6898 14.5 16.4601 14.5 18.0005 14.5C19.5409 14.5 20.3112 14.5 20.877 14.8467C21.1936 15.0407 21.4598 15.3069 21.6538 15.6235C22.0005 16.1893 22.0005 16.9596 22.0005 18.5C22.0005 20.0404 22.0005 20.8107 21.6538 21.3765C21.4598 21.6931 21.1936 21.9593 20.877 22.1533C20.3112 22.5 19.5409 22.5 18.0005 22.5C16.4601 22.5 15.6898 22.5 15.124 22.1533C14.8074 21.9593 14.5412 21.6931 14.3472 21.3765C14.0005 20.8107 14.0005 20.0404 14.0005 18.5Z" fill="#CC4924" stroke="#CC4924" stroke-width="1.5"/>
<path d="M2.00049 6.5C2.00049 4.95956 2.00049 4.18934 2.34722 3.62353C2.54123 3.30693 2.80742 3.04074 3.12402 2.84673C3.68983 2.5 4.46005 2.5 6.00049 2.5C7.54093 2.5 8.31115 2.5 8.87696 2.84673C9.19356 3.04074 9.45975 3.30693 9.65376 3.62353C10.0005 4.18934 10.0005 4.95956 10.0005 6.5C10.0005 8.04044 10.0005 8.81066 9.65376 9.37647C9.45975 9.69307 9.19356 9.95926 8.87696 10.1533C8.31115 10.5 7.54093 10.5 6.00049 10.5C4.46005 10.5 3.68983 10.5 3.12402 10.1533C2.80742 9.95926 2.54123 9.69307 2.34722 9.37647C2.00049 8.81066 2.00049 8.04044 2.00049 6.5Z" fill="#CC4924" stroke="#CC4924" stroke-width="1.5"/>
<path d="M14.0005 6.5C14.0005 4.95956 14.0005 4.18934 14.3472 3.62353C14.5412 3.30693 14.8074 3.04074 15.124 2.84673C15.6898 2.5 16.4601 2.5 18.0005 2.5C19.5409 2.5 20.3112 2.5 20.877 2.84673C21.1936 3.04074 21.4598 3.30693 21.6538 3.62353C22.0005 4.18934 22.0005 4.95956 22.0005 6.5C22.0005 8.04044 22.0005 8.81066 21.6538 9.37647C21.4598 9.69307 21.1936 9.95926 20.877 10.1533C20.3112 10.5 19.5409 10.5 18.0005 10.5C16.4601 10.5 15.6898 10.5 15.124 10.1533C14.8074 9.95926 14.5412 9.69307 14.3472 9.37647C14.0005 8.81066 14.0005 8.04044 14.0005 6.5Z" fill="#CC4924" stroke="#CC4924" stroke-width="1.5"/>
</svg>
