<svg width="20" height="20" viewBox="0 0 20 20" fill="none" xmlns="http://www.w3.org/2000/svg">
<g clip-path="url(#clip0_2_845)">
<path d="M1.66699 15C1.66699 13.7164 1.66699 13.0744 1.95593 12.6029C2.11761 12.3391 2.33943 12.1173 2.60327 11.9556C3.07478 11.6667 3.71663 11.6667 5.00033 11.6667C6.28403 11.6667 6.92588 11.6667 7.39738 11.9556C7.66122 12.1173 7.88304 12.3391 8.04472 12.6029C8.33366 13.0744 8.33366 13.7164 8.33366 15C8.33366 16.2837 8.33366 16.9256 8.04472 17.3971C7.88304 17.6609 7.66122 17.8828 7.39738 18.0444C6.92588 18.3334 6.28403 18.3334 5.00033 18.3334C3.71663 18.3334 3.07478 18.3334 2.60327 18.0444C2.33943 17.8828 2.11761 17.6609 1.95593 17.3971C1.66699 16.9256 1.66699 16.2837 1.66699 15Z" fill="#CC4924" stroke="#CC4924" stroke-width="1.5"/>
<path d="M11.667 15C11.667 13.7164 11.667 13.0744 11.9559 12.6029C12.1176 12.3391 12.3394 12.1173 12.6032 11.9556C13.0747 11.6667 13.7167 11.6667 15.0003 11.6667C16.284 11.6667 16.9259 11.6667 17.3974 11.9556C17.6612 12.1173 17.8831 12.3391 18.0447 12.6029C18.3337 13.0744 18.3337 13.7164 18.3337 15C18.3337 16.2837 18.3337 16.9256 18.0447 17.3971C17.8831 17.6609 17.6612 17.8828 17.3974 18.0444C16.9259 18.3334 16.284 18.3334 15.0003 18.3334C13.7167 18.3334 13.0747 18.3334 12.6032 18.0444C12.3394 17.8828 12.1176 17.6609 11.9559 17.3971C11.667 16.9256 11.667 16.2837 11.667 15Z" fill="#CC4924" stroke="#CC4924" stroke-width="1.5"/>
<path d="M1.66699 5.00002C1.66699 3.71632 1.66699 3.07447 1.95593 2.60296C2.11761 2.33913 2.33943 2.1173 2.60327 1.95563C3.07478 1.66669 3.71663 1.66669 5.00033 1.66669C6.28403 1.66669 6.92588 1.66669 7.39738 1.95563C7.66122 2.1173 7.88304 2.33913 8.04472 2.60296C8.33366 3.07447 8.33366 3.71632 8.33366 5.00002C8.33366 6.28372 8.33366 6.92557 8.04472 7.39708C7.88304 7.66091 7.66122 7.88274 7.39738 8.04441C6.92588 8.33335 6.28403 8.33335 5.00033 8.33335C3.71663 8.33335 3.07478 8.33335 2.60327 8.04441C2.33943 7.88274 2.11761 7.66091 1.95593 7.39708C1.66699 6.92557 1.66699 6.28372 1.66699 5.00002Z" fill="#CC4924" stroke="#CC4924" stroke-width="1.5"/>
<path d="M11.667 5.00002C11.667 3.71632 11.667 3.07447 11.9559 2.60296C12.1176 2.33913 12.3394 2.1173 12.6032 1.95563C13.0747 1.66669 13.7167 1.66669 15.0003 1.66669C16.284 1.66669 16.9259 1.66669 17.3974 1.95563C17.6612 2.1173 17.8831 2.33913 18.0447 2.60296C18.3337 3.07447 18.3337 3.71632 18.3337 5.00002C18.3337 6.28372 18.3337 6.92557 18.0447 7.39708C17.8831 7.66091 17.6612 7.88274 17.3974 8.04441C16.9259 8.33335 16.284 8.33335 15.0003 8.33335C13.7167 8.33335 13.0747 8.33335 12.6032 8.04441C12.3394 7.88274 12.1176 7.66091 11.9559 7.39708C11.667 6.92557 11.667 6.28372 11.667 5.00002Z" fill="#CC4924" stroke="#CC4924" stroke-width="1.5"/>
</g>
<defs>
<clipPath id="clip0_2_845">
<rect width="20" height="20" fill="white"/>
</clipPath>
</defs>
</svg>
