<svg width="21" height="20" viewBox="0 0 21 20" fill="none" xmlns="http://www.w3.org/2000/svg">
<path d="M4.66699 8.33268C4.66699 5.18998 4.66699 3.61864 5.6433 2.64232C6.61962 1.66602 8.19096 1.66602 11.3337 1.66602H12.5837C15.7263 1.66602 17.2977 1.66602 18.274 2.64232C19.2503 3.61864 19.2503 5.18998 19.2503 8.33268V11.666C19.2503 14.8087 19.2503 16.3801 18.274 17.3563C17.2977 18.3327 15.7263 18.3327 12.5837 18.3327H11.3337C8.19096 18.3327 6.61962 18.3327 5.6433 17.3563C4.66699 16.3801 4.66699 14.8087 4.66699 11.666V8.33268Z" stroke="black" stroke-width="1.5"/>
<path d="M4.25033 5H2.16699M4.25033 10H2.16699M4.25033 15H2.16699" stroke="black" stroke-width="1.5" stroke-linecap="round" stroke-linejoin="round"/>
<path d="M14.2872 8.71147C14.2872 7.5818 13.3714 6.66602 12.2417 6.66602C11.112 6.66602 10.1963 7.5818 10.1963 8.71147C10.1963 9.84117 11.112 10.7569 12.2417 10.7569C13.3714 10.7569 14.2872 9.84117 14.2872 8.71147Z" stroke="#CC4924" stroke-width="1.5" stroke-linecap="round" stroke-linejoin="round"/>
<path d="M15.6512 14.1659C15.6512 12.2832 14.1249 10.7568 12.2421 10.7568C10.3593 10.7568 8.83301 12.2832 8.83301 14.1659" stroke="#CC4924" stroke-width="1.5" stroke-linecap="round" stroke-linejoin="round"/>
</svg>
