<svg width="38" height="38" viewBox="0 0 38 38" fill="none" xmlns="http://www.w3.org/2000/svg">
<g clip-path="url(#clip0_4291_14254)">
<path d="M20.1875 18.9138V34.4374C20.1875 34.7523 20.0624 35.0544 19.8397 35.2771C19.617 35.4997 19.315 35.6249 19 35.6249C18.6851 35.6249 18.383 35.4997 18.1603 35.2771C17.9376 35.0544 17.8125 34.7523 17.8125 34.4374V18.9138C15.7325 18.6135 13.8434 17.5366 12.5254 15.8997C11.2074 14.2628 10.5584 12.1874 10.7089 10.0912C10.8594 7.99507 11.7982 6.03371 13.3366 4.60187C14.8749 3.17004 16.8984 2.37402 19 2.37402C21.1016 2.37402 23.1251 3.17004 24.6635 4.60187C26.2018 6.03371 27.1407 7.99507 27.2912 10.0912C27.4417 12.1874 26.7926 14.2628 25.4746 15.8997C24.1566 17.5366 22.2675 18.6135 20.1875 18.9138Z" fill="#CC4924"/>
<ellipse cx="19.0003" cy="34.607" rx="8.14286" ry="2.03571" fill="black"/>
</g>
<defs>
<clipPath id="clip0_4291_14254">
<rect width="38" height="38" fill="white"/>
</clipPath>
</defs>
</svg>
