<svg width="25" height="24" viewBox="0 0 25 24" fill="none" xmlns="http://www.w3.org/2000/svg">
<path d="M16.6781 15.3232H15.8827C15.5056 15.3083 15.2143 15.0058 15.2143 14.6287V13.8705L16.1142 12.9743C16.6855 12.3955 17.0665 12.0109 17.074 11.0699C17.2233 11.0624 17.3727 11.0064 17.5146 10.9056C17.8768 10.6479 18.1569 10.1326 18.2577 9.52762C18.366 8.92265 18.2801 8.34759 18.0262 7.98539C17.9178 7.82854 17.7797 7.72026 17.6415 7.66795V7.65675C18.1195 6.34228 18.59 4.45275 17.8992 3.36239C17.6079 2.90306 17.1523 2.63793 16.5437 2.56701C15.9797 1.09945 14.7475 0.221903 13.1343 0.147184C10.9124 0.0613094 8.69055 1.50647 7.71962 3.71339C7.34992 4.8075 7.31636 6.18543 7.61509 7.92187C7.33126 8.26542 7.22298 8.86664 7.33127 9.52757C7.49181 10.4126 7.981 11.0325 8.515 11.0698C8.52245 12.0146 8.90711 12.4029 9.48592 12.9817L10.3784 13.8742V14.6286C10.3784 15.0057 10.0834 15.3082 9.68383 15.3231H8.91086C5.69195 15.3231 3.07422 17.9408 3.07422 21.1597V22.4556C3.07422 23.2285 3.70155 23.8559 4.47456 23.8559H21.1181C21.8911 23.8559 22.5184 23.2285 22.5184 22.4556V21.1597C22.5184 17.9409 19.897 15.3232 16.6781 15.3232ZM9.88178 12.5897C9.32908 12.0333 9.07516 11.7794 9.07516 11.0438V10.7264C9.07516 10.5172 8.85109 10.3791 8.66064 10.4799C8.31334 10.6703 7.96234 9.87122 7.88392 9.43429C7.82045 9.06089 7.84661 8.74345 7.92128 8.52314C8.03331 8.60526 8.17145 8.65382 8.31709 8.65382H8.40297C8.76147 8.65382 9.0602 8.37 9.08261 8.019L9.16848 7.21617C9.19089 6.84276 9.48592 6.54023 9.84812 6.50667C11.6443 6.34612 13.4815 6.08845 14.7362 5.28933C14.908 5.18104 15.1171 5.15114 15.3225 5.2072C15.5428 5.27067 15.7258 5.42376 15.8266 5.63287C16.1851 6.36478 16.2635 6.95109 16.1216 7.84354C16.1104 7.89581 16.1104 7.94062 16.1104 7.97048C16.1104 8.34764 16.4129 8.65387 16.79 8.65387C17.0701 8.65387 17.3165 8.48583 17.4211 8.22815C17.4248 8.21695 17.4286 8.20575 17.4323 8.19829C17.4809 8.21325 17.5257 8.24686 17.5705 8.31033C17.7348 8.54184 17.7871 8.98247 17.7049 9.43429C17.6116 9.9795 17.3689 10.3193 17.1896 10.4463C17.1411 10.4836 17.0664 10.521 17.0029 10.5097C16.9805 10.506 16.9618 10.4985 16.9283 10.4799C16.8386 10.4313 16.7341 10.4351 16.6519 10.4873C16.566 10.5359 16.5137 10.6292 16.5137 10.7264V11.0438C16.5137 11.7719 16.2635 12.0259 15.7146 12.5786L14.74 13.5569C14.7362 13.5569 14.7362 13.5569 14.7362 13.5607L14.2284 14.0648C13.9856 14.3075 13.657 14.4419 13.3097 14.4419H12.2791C11.9393 14.4419 11.6107 14.3075 11.3605 14.0648L10.8564 13.5644C10.8564 13.5607 10.8564 13.5607 10.8526 13.5607L9.88178 12.5897ZM13.1717 20.9955C13.1717 21.2009 13.0036 21.3689 12.7982 21.3689C12.5891 21.3689 12.4248 21.2009 12.4248 20.9955V20.4391C12.4248 20.2337 12.5891 20.0657 12.7982 20.0657C13.0036 20.0657 13.1717 20.2337 13.1717 20.4391V20.9955ZM12.7945 18.0492C11.4576 18.0492 10.3187 17.1119 10.0423 15.8273C10.5614 15.6742 10.9385 15.1999 10.9385 14.6286V14.4344L10.9684 14.4643C11.3269 14.8116 11.7937 15.002 12.2791 15.002H13.3097C13.8101 15.002 14.2769 14.8116 14.6242 14.4606L14.654 14.4307V14.6286C14.654 15.1962 15.0274 15.6704 15.5503 15.8273C15.2777 17.1119 14.135 18.0492 12.7945 18.0492Z" fill="#CC4924"/>
</svg>
