<svg width="31" height="18" viewBox="0 0 31 18" fill="none" xmlns="http://www.w3.org/2000/svg">
<path d="M21.2695 0C26.2627 0 30.3105 3.99985 30.3105 8.93359C30.3104 13.8672 26.2626 17.8662 21.2695 17.8662C19.0311 17.8662 16.9842 17.061 15.4053 15.7295C13.8264 17.061 11.7795 17.8662 9.54102 17.8662C4.54794 17.8662 0.500143 13.8672 0.5 8.93359C0.5 3.99985 4.54785 0 9.54102 0C11.7794 2.32863e-05 13.8264 0.80536 15.4053 2.13672C16.9841 0.805355 19.0312 3.60719e-05 21.2695 0Z" fill="#ED0006"/>
<path d="M21.2695 0C26.2627 0 30.3105 3.99985 30.3105 8.93359C30.3104 13.8672 26.2626 17.8662 21.2695 17.8662C19.0311 17.8662 16.9842 17.061 15.4053 15.7295C17.3482 14.091 18.582 11.6554 18.582 8.93359C18.582 6.2116 17.3484 3.77525 15.4053 2.13672C16.9842 0.805358 19.0312 2.96795e-05 21.2695 0Z" fill="#F9A000"/>
<path d="M15.4046 2.13672C17.348 3.77525 18.5814 6.21141 18.5814 8.93359C18.5813 11.6556 17.3478 14.091 15.4046 15.7295C13.4619 14.091 12.2289 11.6552 12.2288 8.93359C12.2288 6.21181 13.4617 3.77524 15.4046 2.13672Z" fill="#FF5E00"/>
</svg>
