<svg width="20" height="20" viewBox="0 0 20 20" fill="none" xmlns="http://www.w3.org/2000/svg">
<path d="M12.0846 10.0013C12.0846 11.1519 11.1519 12.0847 10.0013 12.0847C8.8507 12.0847 7.91797 11.1519 7.91797 10.0013C7.91797 8.85074 8.8507 7.91797 10.0013 7.91797C11.1519 7.91797 12.0846 8.85074 12.0846 10.0013Z" stroke="#CC4924" stroke-width="1.5" stroke-linecap="round" stroke-linejoin="round"/>
<path d="M13.3346 4.16797C15.4008 4.16797 16.8266 4.48814 17.6121 4.73157C18.0643 4.87173 18.3346 5.30038 18.3346 5.77384V13.9032C18.3346 14.8325 17.3112 15.5317 16.3981 15.3592C15.6147 15.2113 14.5936 15.0925 13.3346 15.0925C9.37555 15.0925 8.42597 16.5972 2.62197 15.3173C2.06184 15.1938 1.66797 14.6901 1.66797 14.1165V5.76894C1.66797 4.95572 2.43529 4.36269 3.23295 4.52097C8.49855 5.56585 9.51872 4.16797 13.3346 4.16797Z" stroke="black" stroke-width="1.5" stroke-linecap="round" stroke-linejoin="round"/>
<path d="M1.66797 7.50065C3.29408 7.50065 4.75533 6.17154 4.94214 4.79578M15.4184 4.58398C15.4184 6.28368 16.8892 7.89148 18.3346 7.89148M18.3346 12.5007C16.7521 12.5007 15.2181 13.5925 15.0863 15.0826M5.00171 15.4141C5.00171 13.5731 3.50933 12.0808 1.66838 12.0808" stroke="black" stroke-width="1.5" stroke-linecap="round" stroke-linejoin="round"/>
</svg>
