<svg width="21" height="20" viewBox="0 0 21 20" fill="none" xmlns="http://www.w3.org/2000/svg">
<path d="M13.4167 15C13.4167 16.6108 12.1108 17.9167 10.5 17.9167C8.88918 17.9167 7.58334 16.6108 7.58334 15" stroke="#CC4924" stroke-width="1.5" stroke-linecap="round" stroke-linejoin="round"/>
<path d="M16.5259 14.9997H4.47406C3.65996 14.9997 3 14.3397 3 13.5256C3 13.1347 3.1553 12.7598 3.43174 12.4833L3.93443 11.9806C4.40327 11.5118 4.66667 10.8758 4.66667 10.2128V7.91634C4.66667 4.69468 7.27834 2.08301 10.5 2.08301C13.7217 2.08301 16.3333 4.69467 16.3333 7.91634V10.2128C16.3333 10.8758 16.5967 11.5118 17.0656 11.9806L17.5682 12.4833C17.8447 12.7598 18 13.1347 18 13.5256C18 14.3397 17.34 14.9997 16.5259 14.9997Z" stroke="black" stroke-width="1.5" stroke-linecap="round" stroke-linejoin="round"/>
</svg>
