<svg width="20" height="20" viewBox="0 0 20 20" fill="none" xmlns="http://www.w3.org/2000/svg">
<path fill-rule="evenodd" clip-rule="evenodd" d="M8.03286 10.8333H10.507L11.132 8.33331H8.65786L8.03286 10.8333ZM10.4154 13.3333C10.382 13.3333 10.3487 13.3291 10.3145 13.3208C10.0912 13.265 9.9562 13.0383 10.0112 12.8158L10.2987 11.6666H7.82453L7.48703 13.0175C7.4312 13.2408 7.20536 13.375 6.9812 13.3208C6.75786 13.265 6.62286 13.0383 6.67786 12.8158L6.96536 11.6666H6.2487C6.0187 11.6666 5.83203 11.48 5.83203 11.25C5.83203 11.02 6.0187 10.8333 6.2487 10.8333H7.1737L7.7987 8.33331H6.2487C6.0187 8.33331 5.83203 8.14665 5.83203 7.91665C5.83203 7.68665 6.0187 7.49998 6.2487 7.49998H8.00703L8.34453 6.14915C8.39953 5.92498 8.62536 5.79081 8.84953 5.84581C9.0737 5.90165 9.2087 6.12831 9.1537 6.35081L8.8662 7.49998H11.3404L11.6779 6.14915C11.7329 5.92498 11.9545 5.79081 12.1829 5.84581C12.407 5.90165 12.542 6.12831 12.487 6.35081L12.1995 7.49998H12.9154C13.1462 7.49998 13.332 7.68665 13.332 7.91665C13.332 8.14665 13.1462 8.33331 12.9154 8.33331H11.9912L11.3662 10.8333H12.9154C13.1462 10.8333 13.332 11.02 13.332 11.25C13.332 11.48 13.1462 11.6666 12.9154 11.6666H11.1579L10.8204 13.0175C10.7729 13.2075 10.6029 13.3333 10.4154 13.3333Z" fill="#5D5D5D" stroke="#5D5D5D" stroke-width="0.5"/>
<path fill-rule="evenodd" clip-rule="evenodd" d="M3.335 6.48025C3.3925 11.7103 5.43833 15.3019 9.58333 17.4494C13.7283 15.3019 15.7742 11.7103 15.8317 6.48025L9.58333 2.57442L3.335 6.48025ZM9.58333 18.3336C9.52 18.3336 9.45583 18.3186 9.39667 18.2894C4.82 16.0011 2.5 11.9494 2.5 6.25025C2.5 6.10609 2.57417 5.97275 2.69583 5.89692L9.3625 1.73025C9.49833 1.64525 9.66917 1.64525 9.80417 1.73025L16.4708 5.89692C16.5925 5.97275 16.6667 6.10609 16.6667 6.25025C16.6667 11.9494 14.3467 16.0011 9.77 18.2894C9.71083 18.3186 9.64667 18.3336 9.58333 18.3336Z" fill="#5D5D5D" stroke="#5D5D5D" stroke-width="0.5"/>
</svg>
