<svg width="21" height="20" viewBox="0 0 21 20" fill="none" xmlns="http://www.w3.org/2000/svg">
<path d="M10.5 18.333C9.81817 18.333 9.16683 18.0578 7.86411 17.5076C4.62137 16.1378 3 15.4528 3 14.3008C3 13.9782 3 8.38676 3 5.83301M10.5 18.333C11.1818 18.333 11.8332 18.0578 13.1359 17.5076C16.3787 16.1378 18 15.4528 18 14.3008V5.83301M10.5 18.333V9.46201" stroke="black" stroke-width="1.5" stroke-linecap="round" stroke-linejoin="round"/>
<path d="M5.5 10L7.16667 10.8333" stroke="#CC4924" stroke-width="1.5" stroke-linecap="round" stroke-linejoin="round"/>
<path d="M14.6663 3.33398L6.33301 7.50065" stroke="#CC4924" stroke-width="1.5" stroke-linecap="round" stroke-linejoin="round"/>
<path d="M7.43827 8.07647L5.00393 6.89853C3.66797 6.25208 3 5.92885 3 5.41699C3 4.90513 3.66797 4.58191 5.00393 3.93545L7.43827 2.75751C8.94067 2.0305 9.69192 1.66699 10.5 1.66699C11.3081 1.66699 12.0593 2.03049 13.5617 2.75751L15.9961 3.93545C17.332 4.58191 18 4.90513 18 5.41699C18 5.92885 17.332 6.25208 15.9961 6.89853L13.5617 8.07647C12.0593 8.80349 11.3081 9.16699 10.5 9.16699C9.69192 9.16699 8.94067 8.80349 7.43827 8.07647Z" stroke="black" stroke-width="1.5" stroke-linecap="round" stroke-linejoin="round"/>
</svg>
