<svg width="16" height="16" viewBox="0 0 16 16" fill="none" xmlns="http://www.w3.org/2000/svg">
<path d="M8.36244 3.42382C8.35778 3.42252 8.3525 3.42131 8.34688 3.42019C8.34472 3.41975 8.34256 3.41932 8.3404 3.41897C8.3385 3.41863 8.33686 3.41828 8.33496 3.41794C8.11047 3.38232 7.88226 3.36426 7.65657 3.36426C5.28065 3.36426 3.34766 5.29725 3.34766 7.67317C3.34766 7.92246 3.36953 8.17375 3.41266 8.42002C3.41292 8.42175 3.41335 8.42339 3.4137 8.42512C3.41422 8.42797 3.41491 8.43074 3.41551 8.43359C3.41569 8.43428 3.41586 8.43497 3.41603 8.43566C3.42943 8.49565 3.45951 8.5527 3.50662 8.59912C3.57119 8.66266 3.65521 8.69429 3.73915 8.69429C3.82481 8.69429 3.91056 8.66127 3.97539 8.59532L8.51925 3.97782C8.6477 3.84729 8.64597 3.6375 8.51553 3.50905C8.47145 3.46574 8.41837 3.43765 8.36244 3.42382ZM7.53857 4.02933L4.01135 7.6137C4.04264 5.66998 5.6023 4.09123 7.53857 4.02933Z" fill="#CC4924"/>
<path d="M7.37994 11.9728C7.38184 11.973 7.38349 11.9733 7.38547 11.9734C7.47805 11.9792 7.56933 11.9822 7.65681 11.9822C10.0327 11.9822 11.9657 10.0492 11.9657 7.67326C11.9657 7.59184 11.9634 7.50885 11.9587 7.42656C11.9587 7.42656 11.9585 7.42699 11.9584 7.42708C11.9541 7.34876 11.9225 7.27166 11.8629 7.21167C11.7337 7.08183 11.5239 7.08123 11.3941 7.21029L7.17248 11.4075C7.04265 11.5367 7.04204 11.7464 7.1711 11.8763C7.22928 11.9348 7.30379 11.9668 7.37994 11.9728ZM8.2504 11.2707L11.2508 8.28751C10.9908 9.81354 9.77928 11.0192 8.2504 11.2707Z" fill="#CC4924"/>
<path d="M2.61745 9.73096C2.65306 9.73096 2.68928 9.72516 2.72489 9.71298C2.89804 9.65368 2.99035 9.46515 2.93106 9.29201C2.75307 8.77241 2.66283 8.22775 2.66283 7.67314C2.66283 6.33918 3.18234 5.08519 4.12558 4.14194C5.06883 3.1987 6.32283 2.67927 7.65678 2.67927C8.20543 2.67927 8.74482 2.7677 9.26 2.94223C9.43332 3.00092 9.6215 2.90808 9.68028 2.73468C9.73906 2.56128 9.64614 2.3731 9.47274 2.31441C8.88891 2.11663 8.27795 2.01636 7.65678 2.01636C6.1458 2.01636 4.72522 2.60476 3.65681 3.67317C2.5884 4.74167 2 6.16215 2 7.67314C2 8.30105 2.10226 8.91798 2.30393 9.50681C2.35104 9.64443 2.47966 9.73096 2.61745 9.73096Z" fill="#CC4924"/>
<path d="M13.1023 6.13782C13.0526 5.96165 12.8696 5.85904 12.6934 5.90857C12.5172 5.95819 12.4145 6.14119 12.4641 6.31744C12.5879 6.75725 12.6507 7.2134 12.6507 7.67318C12.6507 9.00714 12.1312 10.2612 11.1879 11.2045C10.2448 12.1477 8.99069 12.6671 7.65673 12.6671C7.2171 12.6671 6.78074 12.6099 6.35977 12.497C6.18309 12.4496 6.00122 12.5545 5.95376 12.7313C5.90639 12.9081 6.01124 13.0899 6.1881 13.1373C6.665 13.2652 7.15918 13.3301 7.65673 13.3301C9.16772 13.3301 10.5883 12.7416 11.6568 11.6732C12.7252 10.6047 13.3136 9.18417 13.3136 7.67318C13.3136 7.15272 13.2425 6.63615 13.1023 6.13782Z" fill="#CC4924"/>
<path d="M3.59428 12.3966L3.82162 12.1692C4.1386 11.8523 4.23974 11.4571 3.85378 11.0713L3.84228 11.0598C3.45641 10.6739 3.07512 10.7704 2.77197 11.0736L2.29655 11.549C2.21616 11.6294 2.21382 11.7327 2.27122 11.7902L3.73207 13.2511C3.80555 13.3245 3.93184 13.2717 4.02148 13.1822C4.11103 13.0925 4.16384 12.9662 4.09037 12.8928L3.59428 12.3966ZM3.31862 12.121L2.83395 11.6363L3.06138 11.4089C3.19 11.2803 3.34162 11.2757 3.49782 11.4319L3.52306 11.4571C3.67926 11.6133 3.67467 11.765 3.54605 11.8936L3.31862 12.121Z" fill="#CC4924"/>
<path d="M4.95621 10.9197L5.10783 10.7681L6.03352 11.0644C6.107 11.0874 6.16898 11.0621 6.21496 11.0162C6.3206 10.9105 6.34359 10.6946 6.25404 10.605C6.24254 10.5935 6.22413 10.5797 6.20122 10.5751L5.4134 10.3477C5.51211 10.125 5.48229 9.86079 5.22504 9.60354C4.85058 9.22917 4.48312 9.36237 4.16839 9.6771L3.69296 10.1525C3.62632 10.2192 3.63323 10.3133 3.69063 10.3707L5.15148 11.8316C5.22496 11.9051 5.35125 11.8522 5.44089 11.7627C5.53044 11.673 5.58325 11.5467 5.50978 11.4733L4.95621 10.9197ZM4.68064 10.644L4.25336 10.2168L4.48079 9.98941C4.60941 9.86088 4.74037 9.83555 4.90106 9.99633C5.06184 10.1571 5.0366 10.2881 4.90798 10.4167L4.68064 10.644Z" fill="#CC4924"/>
<path d="M6.6054 10.3776C6.67887 10.4512 6.80516 10.3984 6.8948 10.3088C6.98435 10.2192 7.03726 10.0929 6.9637 10.0193L5.50284 8.55847C5.42703 8.48266 5.30533 8.54014 5.21577 8.62969C5.12613 8.71933 5.06874 8.84104 5.14454 8.91685L6.6054 10.3776Z" fill="#CC4924"/>
<path d="M7.99256 9.23837C8.30954 8.92139 8.41059 8.52635 8.01555 8.13123L7.40684 7.5226C7.0118 7.12748 6.61668 7.22853 6.2997 7.54551C5.98272 7.86249 5.884 8.25527 6.27904 8.65031L6.88776 9.25903C7.28279 9.65415 7.67558 9.55535 7.99256 9.23837ZM6.63742 8.2921C6.47889 8.13356 6.48347 7.98653 6.6121 7.8579C6.74072 7.72928 6.89 7.72236 7.04854 7.8809L7.65717 8.48961C7.8157 8.64806 7.80879 8.79734 7.68016 8.92597C7.55154 9.05459 7.4045 9.05917 7.24606 8.90073L6.63742 8.2921Z" fill="#CC4924"/>
<path d="M7.79295 6.05253L7.31744 6.52804C7.25088 6.5946 7.25771 6.68873 7.31511 6.74622L8.77596 8.20698C8.84952 8.28054 8.97581 8.22773 9.06536 8.13818C9.155 8.04854 9.20782 7.92225 9.13426 7.84868L8.58069 7.29512L8.73231 7.14359L9.658 7.4399C9.73148 7.46281 9.79346 7.43757 9.83944 7.39158C9.94507 7.28595 9.96807 7.07002 9.87851 6.98047C9.86702 6.96897 9.84869 6.95523 9.8257 6.95065L9.03788 6.72322C9.13659 6.50038 9.10677 6.2363 8.84952 5.97897C8.47515 5.60468 8.1076 5.73788 7.79295 6.05253ZM8.53254 6.79212L8.30512 7.01954L7.87792 6.59226L8.10535 6.36492C8.23389 6.2363 8.36485 6.21097 8.52563 6.37184C8.68641 6.53262 8.66117 6.66349 8.53254 6.79212Z" fill="#CC4924"/>
<path d="M10.5193 6.68423C10.6089 6.59459 10.6617 6.4683 10.5882 6.39474L9.12738 4.93397C9.05158 4.85816 8.92987 4.91556 8.84023 5.0052C8.75067 5.09475 8.69328 5.21646 8.769 5.29227L10.2299 6.75312C10.3034 6.8266 10.4297 6.77378 10.5193 6.68423Z" fill="#CC4924"/>
<path d="M9.4327 4.72953C9.52001 4.81684 9.63489 4.85358 9.70378 4.78468L10.0208 4.4677L11.268 5.71487C11.3415 5.78844 11.4678 5.73562 11.5574 5.64598C11.647 5.55643 11.6998 5.43014 11.6263 5.35658L10.3791 4.10941L10.6961 3.79234C10.765 3.72345 10.7282 3.60865 10.641 3.52135C10.5652 3.44554 10.4503 3.39506 10.3745 3.47087L9.38222 4.46312C9.30641 4.53893 9.35698 4.65372 9.4327 4.72953Z" fill="#CC4924"/>
<path d="M10.7995 3.39055L12.0629 3.70287C12.0744 3.7052 12.0904 3.71211 12.1042 3.72586L12.6807 4.30233C12.7542 4.37589 12.8806 4.32308 12.9701 4.23344C13.0598 4.14389 13.1126 4.0176 13.039 3.94404L12.4625 3.36756C12.4487 3.35373 12.4418 3.33765 12.4396 3.32624L12.1248 2.06515C12.1203 2.05141 12.1111 2.04216 12.1042 2.03533C12.0192 1.95036 11.8124 2.033 11.7137 2.1318C11.6562 2.1892 11.6562 2.23518 11.677 2.30174L11.9481 3.21136L11.0361 2.94262C10.9672 2.92421 10.9236 2.92196 10.8662 2.97935C10.7674 3.07816 10.6847 3.28484 10.7697 3.36981C10.7765 3.37672 10.7858 3.38589 10.7995 3.39055Z" fill="#CC4924"/>
</svg>
