<svg width="23" height="22" viewBox="0 0 23 22" fill="none" xmlns="http://www.w3.org/2000/svg">
<path d="M8.66781 5.50019C8.50524 5.49661 8.34559 5.54374 8.21105 5.6351C8.07652 5.72645 7.9738 5.85751 7.91716 6.00995C7.86052 6.16238 7.85279 6.32865 7.89503 6.48569C7.93727 6.64272 8.02739 6.78263 8.15286 6.88608L12.9402 10.9873L8.15286 15.0872C8.06607 15.151 7.99338 15.232 7.93935 15.3251C7.88532 15.4183 7.85112 15.5217 7.83887 15.6287C7.82663 15.7357 7.83661 15.8441 7.8682 15.9471C7.89979 16.05 7.9523 16.1454 8.02244 16.2272C8.09258 16.3089 8.17885 16.3752 8.27584 16.4221C8.37282 16.4689 8.47844 16.4953 8.58607 16.4994C8.69371 16.5036 8.80104 16.4855 8.90135 16.4463C9.00166 16.407 9.09278 16.3475 9.16901 16.2714L14.6501 11.5818C14.7362 11.5083 14.8053 11.4171 14.8527 11.3144C14.9001 11.2116 14.9246 11.0998 14.9246 10.9866C14.9246 10.8735 14.9001 10.7616 14.8527 10.6589C14.8053 10.5561 14.7362 10.4649 14.6501 10.3914L9.16901 5.69727C9.03055 5.57429 8.85296 5.50455 8.66781 5.50019Z" fill="#B0B0B0"/>
</svg>
