<svg width="16" height="17" viewBox="0 0 16 17" fill="none" xmlns="http://www.w3.org/2000/svg">
<g clip-path="url(#clip0_2_1997)">
<path d="M2 7.93689C2 4.88595 2 3.36046 2.92449 2.39392C2.95865 2.35821 2.99359 2.32327 3.02929 2.28912C3.99584 1.36462 5.52133 1.36462 8.57227 1.36462C9.29533 1.36462 9.64367 1.36713 9.9752 1.49086C10.2945 1.61002 10.5619 1.83288 11.0968 2.27862L12.5607 3.49857C13.2685 4.08836 13.6223 4.38326 13.8112 4.7864C14 5.18954 14 5.65018 14 6.57146V8.69796C14 11.1978 14 12.4477 13.3634 13.3239C13.1578 13.6069 12.9089 13.8558 12.6259 14.0614C11.7497 14.698 10.4998 14.698 8 14.698C5.50018 14.698 4.25027 14.698 3.37405 14.0614C3.09107 13.8558 2.84221 13.6069 2.63661 13.3239C2 12.4477 2 11.1978 2 8.69796V7.93689Z" stroke="#CC4924" stroke-width="1.2"/>
<path d="M4.66669 9.69796C4.66669 10.7979 4.66669 11.3479 4.95958 11.6896C5.25247 12.0313 5.72388 12.0313 6.66669 12.0313H9.33335C10.2762 12.0313 10.7476 12.0313 11.0405 11.6896C11.3334 11.3479 11.3334 10.7979 11.3334 9.69796M4.66669 9.69796C4.66669 8.59802 4.66669 8.04802 4.95958 7.70636C5.25247 7.36462 5.72388 7.36462 6.66669 7.36462H9.33335C10.2762 7.36462 10.7476 7.36462 11.0405 7.70636C11.3334 8.04802 11.3334 8.59802 11.3334 9.69796M4.66669 9.69796H6.00002M11.3334 9.69796H10" stroke="#CC4924" stroke-width="1.2" stroke-linecap="round" stroke-linejoin="round"/>
</g>
<defs>
<clipPath id="clip0_2_1997">
<rect width="16" height="16" fill="white" transform="translate(0 0.03125)"/>
</clipPath>
</defs>
</svg>
