<svg width="16" height="17" viewBox="0 0 16 17" fill="none" xmlns="http://www.w3.org/2000/svg">
<path d="M7.99998 10.698C7.99998 12.5389 6.50759 14.0313 4.66665 14.0313C2.8257 14.0313 1.33331 12.5389 1.33331 10.698C1.33331 8.85702 2.8257 7.36462 4.66665 7.36462C6.50759 7.36462 7.99998 8.85702 7.99998 10.698Z" stroke="#CC4924"/>
<path d="M12 13.0313C12 13.5835 11.5523 14.0313 11 14.0313C10.4477 14.0313 10 13.5835 10 13.0313C10 12.479 10.4477 12.0312 11 12.0312C11.5523 12.0312 12 12.479 12 13.0313Z" stroke="#CC4924"/>
<path d="M4.67201 10.6979H4.66602" stroke="#CC4924" stroke-linecap="round" stroke-linejoin="round"/>
<path d="M3.99998 7.36458L3.58138 4.0158C3.48485 3.24353 3.43658 2.85739 3.23363 2.57904C3.11924 2.42216 2.97197 2.29216 2.80211 2.19811C2.50075 2.03125 2.1116 2.03125 1.33331 2.03125" stroke="#CC4924" stroke-linecap="round"/>
<path d="M4 4.69788H7.66667C9.238 4.69788 10.0237 4.69788 10.5119 5.18603C11 5.67419 11 6.45986 11 8.03121V12.0312" stroke="#CC4924" stroke-linecap="round"/>
<path d="M8 9.36462H10.6827C11.2727 9.36462 11.5677 9.36462 11.8249 9.49042C11.8865 9.52056 11.9459 9.55576 12.0026 9.59582C12.2398 9.76316 12.4035 10.0351 12.7307 10.5789C12.9927 11.0143 13.1237 11.232 13.3199 11.3166C13.3661 11.3365 13.4141 11.3506 13.4631 11.3587C13.6714 11.3932 13.8826 11.2762 14.3051 11.0422L14.6667 10.8418" stroke="#CC4924" stroke-linecap="round"/>
</svg>
