<svg xmlns="http://www.w3.org/2000/svg" width="26" height="27" viewBox="0 0 26 27" fill="none"><path d="M1 13.5488C1 15.9681 2.82011 17.9408 5.15635 18.3292V22V24.0468L6.77095 22.7888L12.4058 18.3986H19.9999C22.7262 18.3986 25 16.253 25 13.5488V5.84978C25 3.14592 22.7263 1 20.0001 1H5.99988C3.27338 1 1 3.14596 1 5.84978V13.5488ZM7.06248 8.7744C7.64978 8.7744 8.06255 9.2272 8.06255 9.69929C8.06255 10.1714 7.64978 10.6242 7.06248 10.6242C6.47517 10.6242 6.0624 10.1714 6.0624 9.69929C6.0624 9.2272 6.47517 8.7744 7.06248 8.7744ZM13.0624 8.7744C13.6499 8.7744 14.0625 9.22712 14.0625 9.69929C14.0625 10.1715 13.6499 10.6242 13.0624 10.6242C12.4751 10.6242 12.0626 10.1716 12.0626 9.69929C12.0626 9.22694 12.4751 8.7744 13.0624 8.7744ZM19.0624 8.7744C19.65 8.7744 20.0625 9.22703 20.0625 9.69929C20.0625 10.1716 19.65 10.6242 19.0624 10.6242C18.4751 10.6242 18.0626 10.1716 18.0626 9.69929C18.0626 9.22694 18.4751 8.7744 19.0624 8.7744Z" stroke="#959595" stroke-width="2"></path></svg>