<svg width="16" height="17" viewBox="0 0 16 17" fill="none" xmlns="http://www.w3.org/2000/svg">
<path d="M3.33331 6.69788V12.6979" stroke="#CC4924" stroke-width="1.2" stroke-linecap="round"/>
<path d="M3.87227 6.2187C3.62354 6.5382 3.49918 6.69796 3.33331 6.69796C3.16745 6.69796 3.04309 6.5382 2.79435 6.2187L2.29717 5.58004C1.58168 4.66096 1.22394 4.20143 1.36284 3.82337C1.37699 3.78485 1.39438 3.74768 1.41481 3.71226C1.61531 3.36462 2.18798 3.36462 3.33331 3.36462C4.47865 3.36462 5.05131 3.36462 5.25182 3.71226C5.27225 3.74768 5.28963 3.78485 5.30379 3.82337C5.44269 4.20143 5.08495 4.66096 4.36946 5.58004L3.87227 6.2187Z" stroke="#CC4924" stroke-width="1.2" stroke-linecap="round"/>
<path d="M6 9.36462V12.698" stroke="#CC4924" stroke-width="1.2" stroke-linecap="round"/>
<path d="M8.66669 7.36462V12.698" stroke="#CC4924" stroke-width="1.2" stroke-linecap="round"/>
<path d="M11.3333 6.69788V12.6979" stroke="#CC4924" stroke-width="1.2" stroke-linecap="round"/>
<path d="M14 4.69788V12.6979" stroke="#CC4924" stroke-width="1.2" stroke-linecap="round"/>
</svg>
