<svg width="20" height="20" viewBox="0 0 20 20" fill="none" xmlns="http://www.w3.org/2000/svg">
<g clip-path="url(#clip0_713_3455)">
<path d="M19.5281 7.35382L13.05 6.753L10.4767 0.777665C10.2966 0.359268 9.70335 0.359268 9.5232 0.777665L6.94996 6.75304L0.471885 7.35382C0.0182922 7.39589 -0.165028 7.96007 0.177198 8.2607L5.06492 12.5545L3.63454 18.9012C3.53438 19.3456 4.0143 19.6943 4.40598 19.4617L9.99999 16.1401L15.594 19.4617C15.9857 19.6943 16.4656 19.3456 16.3655 18.9012L14.9351 12.5545L19.8228 8.2607C20.165 7.96007 19.9817 7.39589 19.5281 7.35382Z" fill="#FFD852"/>
<path d="M10.4767 0.777665C10.2966 0.359268 9.70335 0.359268 9.5232 0.777665L6.94996 6.75304L0.471885 7.35382C0.0182922 7.39589 -0.165028 7.96007 0.177198 8.2607L5.06492 12.5545L3.63454 18.9012C3.53438 19.3456 4.0143 19.6943 4.40598 19.4617L5.65453 18.7203C5.82734 11.607 9.13242 6.59777 11.7491 3.73219L10.4767 0.777665Z" fill="#FFC23C"/>
</g>
<defs>
<clipPath id="clip0_713_3455">
<rect width="20" height="20" fill="white"/>
</clipPath>
</defs>
</svg>
