<svg width="21" height="10" viewBox="0 0 21 10" fill="none" xmlns="http://www.w3.org/2000/svg">
<path fill-rule="evenodd" clip-rule="evenodd" d="M15.7244 10C18.3619 10 20.5 7.76137 20.5 4.99996C20.5 2.23856 18.3619 0 15.7244 0C13.0869 0 10.9488 2.23856 10.9488 4.99996C10.9488 7.76137 13.0869 10 15.7244 10ZM1.49518 1.68501C1.06323 2.15671 0.724968 2.71344 0.5 3.323L7.39729 9.31107C7.73668 9.09294 8.04827 8.83068 8.32459 8.53045L8.45925 8.38373C11.0725 5.52725 9.3559 2.43236 8.31473 1.39156C7.40976 0.485002 6.19808 -0.00838589 4.94589 0.0197714C3.69371 0.0479286 2.50339 0.595323 1.63641 1.54172L1.49518 1.68501Z" fill="black"/>
</svg>
