<svg width="24" height="24" viewBox="0 0 24 24" fill="none" xmlns="http://www.w3.org/2000/svg">
<g clip-path="url(#clip0_13361_45230)">
<path d="M21.9871 19.7421H2.0129C1.11501 19.7421 0.387085 19.0143 0.387085 18.1163V5.88411C0.387085 4.98622 1.11496 4.2583 2.0129 4.2583H21.987C22.8849 4.2583 23.6129 4.98618 23.6129 5.88411V18.1163C23.6129 19.0142 22.885 19.7421 21.9871 19.7421Z" fill="#103B9B"/>
<path d="M21.9355 4.2583H19.8445L12 9.48796L4.15545 4.2583H1.84081C1.03793 4.2583 0.387024 4.90921 0.387024 5.71208V6.77057L8.23155 12.0002L0.387118 17.2299V18.1163C0.387118 19.0142 1.11499 19.7421 2.01293 19.7421H4.15545L12 14.5124L19.8445 19.7421H22.0387C22.9081 19.7421 23.6129 19.0373 23.6129 18.1679V17.2298L15.7684 12.0002L23.6129 6.77057V5.93572C23.6128 5.00929 22.8619 4.2583 21.9355 4.2583Z" fill="white"/>
<path d="M0.975788 19.3492C1.26496 19.5938 1.63869 19.7417 2.04716 19.7417H2.8993L13.2561 12.8372L23.0241 19.3492L23.6123 18.1038C23.6123 18.1032 23.6123 18.1027 23.6123 18.1022L13.2416 11.172L23.0241 4.6503C22.7349 4.40566 22.3612 4.25781 21.9527 4.25781H21.1005L10.7444 11.1627L0.975788 4.6503C0.615835 4.9548 0.387085 5.40962 0.387085 5.91803V5.93383L10.7305 12.8461L0.975788 19.3492Z" fill="#ED1F34"/>
<path d="M10.7444 11.5502C10.6696 11.5502 10.5948 11.5285 10.5298 11.4852L0.761141 4.97274C0.583297 4.85419 0.535203 4.61382 0.653797 4.43597C0.772344 4.25813 1.01277 4.21008 1.19056 4.32863L10.7444 10.6979L20.8859 3.93615C21.0638 3.81755 21.3042 3.86565 21.4227 4.04349C21.5413 4.22133 21.4932 4.46171 21.3154 4.5803L10.9592 11.4851C10.8942 11.5285 10.8193 11.5502 10.7444 11.5502Z" fill="#121B21"/>
<path d="M23.6125 18.4902C23.5386 18.4902 23.4639 18.4691 23.3979 18.4249L13.0265 11.4943C12.9189 11.4224 12.8544 11.3016 12.8545 11.1722C12.8545 11.0428 12.9193 10.9221 13.0269 10.8504L22.8094 4.3287C22.9873 4.21016 23.2276 4.2582 23.3462 4.43605C23.4648 4.61389 23.4167 4.85427 23.2389 4.97286L13.9389 11.1728L23.828 17.7811C24.0057 17.9 24.0535 18.1403 23.9347 18.318C23.8601 18.4298 23.7375 18.4902 23.6125 18.4902Z" fill="#121B21"/>
<path d="M2.89973 20.129C2.77462 20.129 2.6519 20.0684 2.57732 19.9565C2.45873 19.7787 2.50682 19.5383 2.68466 19.4197L13.0414 12.5152C13.1714 12.4285 13.3408 12.4285 13.4708 12.5152L23.2389 19.0272C23.4167 19.1458 23.4648 19.3862 23.3462 19.564C23.2276 19.7419 22.9873 19.7899 22.8095 19.6714L13.2561 13.3026L3.11413 20.0639C3.04809 20.1079 2.97351 20.129 2.89973 20.129Z" fill="#121B21"/>
<path d="M0.976195 19.7365C0.851086 19.7365 0.728367 19.6759 0.653789 19.564C0.535195 19.3862 0.583289 19.1458 0.761133 19.0272L10.0333 12.8458L0.172055 6.25585C-0.00569517 6.13702 -0.0535077 5.89669 0.0653205 5.71894C0.184008 5.54119 0.424477 5.49338 0.60218 5.61216L10.9456 12.5244C11.0531 12.5963 11.1176 12.7171 11.1176 12.8465C11.1176 12.9758 11.0528 13.0966 10.9452 13.1683L1.19055 19.6715C1.1246 19.7154 1.04998 19.7365 0.976195 19.7365Z" fill="#121B21"/>
<path d="M23.6129 9.90988H14.0903V4.2583H9.90971V9.90988H0.387146V14.0905H9.90971V19.7421H14.0903V14.0905H23.6129V9.90988Z" fill="white"/>
<path d="M23.6129 10.8776H13.1226V4.2583H10.8774V10.8776H0.387146V13.1228H10.8774V19.7421H13.1226V13.1228H23.6129V10.8776Z" fill="#ED1F34"/>
<path d="M21.9527 3.87109H2.04737C0.918483 3.87109 6.10352e-05 4.78947 6.10352e-05 5.91841V18.0819C6.10352e-05 19.2107 0.91853 20.1292 2.04737 20.1292H21.9527C23.0815 20.1292 24 19.2108 24 18.0819V5.91836C24 4.78947 23.0815 3.87109 21.9527 3.87109ZM23.2258 5.91836V10.4904H13.5097V4.64528H21.9527C22.6547 4.64528 23.2258 5.21636 23.2258 5.91836ZM2.04737 4.64528H10.4904V10.4905H0.774248V5.91845C0.774248 5.21636 1.34533 4.64528 2.04737 4.64528ZM0.774248 18.0818V13.5098H10.4904V19.3549H2.04737C1.34533 19.3549 0.774248 18.7838 0.774248 18.0818ZM21.9527 19.3549H13.5097V13.5098H20.5161C20.73 13.5098 20.9032 13.3365 20.9032 13.1227C20.9032 12.9089 20.73 12.7356 20.5161 12.7356H13.1226C12.9087 12.7356 12.7355 12.9089 12.7355 13.1227V19.3549H11.2645V13.1227C11.2645 12.9089 11.0913 12.7356 10.8775 12.7356H0.774248V11.2646H10.8775C11.0913 11.2646 11.2645 11.0913 11.2645 10.8775V4.64528H12.7355V10.8775C12.7355 11.0913 12.9088 11.2646 13.1226 11.2646H23.2258V12.7356H22.0645C21.8507 12.7356 21.6775 12.9089 21.6775 13.1227C21.6775 13.3365 21.8507 13.5098 22.0645 13.5098H23.2258V18.0818C23.2258 18.7838 22.6547 19.3549 21.9527 19.3549Z" fill="#121B21"/>
</g>
<defs>
<clipPath id="clip0_13361_45230">
<rect width="24" height="24" fill="white"/>
</clipPath>
</defs>
</svg>
