<svg width="23" height="16" viewBox="0 0 23 16" fill="none" xmlns="http://www.w3.org/2000/svg">
<path d="M22.5217 0.492554H0V15.5072H22.5217V0.492554Z" fill="#F0F0F0"/>
<path d="M22.5217 2.36914H0V4.24579H22.5217V2.36914Z" fill="#D80027"/>
<path d="M22.5217 6.12292H0V7.99958H22.5217V6.12292Z" fill="#D80027"/>
<path d="M22.5217 9.87622H0V11.7529H22.5217V9.87622Z" fill="#D80027"/>
<path d="M22.5217 13.63H0V15.5067H22.5217V13.63Z" fill="#D80027"/>
<path d="M11.2609 0.492554H0V8.57737H11.2609V0.492554Z" fill="#2E52B2"/>
<path d="M4.39103 3.80457L4.20967 4.36251H3.62305L4.09772 4.70715L3.91636 5.26505L4.39103 4.9204L4.86539 5.26505L4.68408 4.70715L5.15875 4.36251H4.57208L4.39103 3.80457Z" fill="#F0F0F0"/>
<path d="M4.57208 6.37589L4.39103 5.81799L4.20967 6.37589H3.62305L4.09772 6.72058L3.91636 7.27848L4.39103 6.93379L4.86539 7.27848L4.68408 6.72058L5.15875 6.37589H4.57208Z" fill="#F0F0F0"/>
<path d="M2.09361 6.37589L1.91251 5.81799L1.73115 6.37589H1.14453L1.6192 6.72058L1.43784 7.27848L1.91251 6.93379L2.38692 7.27848L2.2056 6.72058L2.68019 6.37589H2.09361Z" fill="#F0F0F0"/>
<path d="M1.91251 3.80457L1.73115 4.36251H1.14453L1.6192 4.70715L1.43784 5.26505L1.91251 4.9204L2.38692 5.26505L2.2056 4.70715L2.68019 4.36251H2.09361L1.91251 3.80457Z" fill="#F0F0F0"/>
<path d="M4.39103 1.79102L4.20967 2.349H3.62305L4.09772 2.69369L3.91636 3.25159L4.39103 2.9069L4.86539 3.25159L4.68408 2.69369L5.15875 2.349H4.57208L4.39103 1.79102Z" fill="#F0F0F0"/>
<path d="M1.91251 1.79102L1.73115 2.349H1.14453L1.6192 2.69369L1.43784 3.25159L1.91251 2.9069L2.38692 3.25159L2.2056 2.69369L2.68019 2.349H2.09361L1.91251 1.79102Z" fill="#F0F0F0"/>
<path d="M6.87145 3.80457L6.69014 4.36251H6.10352L6.57814 4.70715L6.39687 5.26505L6.87145 4.9204L7.34591 5.26505L7.16454 4.70715L7.63922 4.36251H7.0526L6.87145 3.80457Z" fill="#F0F0F0"/>
<path d="M7.0526 6.37589L6.87145 5.81799L6.69014 6.37589H6.10352L6.57814 6.72058L6.39687 7.27848L6.87145 6.93379L7.34591 7.27848L7.16454 6.72058L7.63922 6.37589H7.0526Z" fill="#F0F0F0"/>
<path d="M9.53107 6.37589L9.34997 5.81799L9.16861 6.37589H8.58203L9.05662 6.72058L8.8753 7.27848L9.34997 6.93379L9.82438 7.27848L9.64302 6.72058L10.1177 6.37589H9.53107Z" fill="#F0F0F0"/>
<path d="M9.34997 3.80457L9.16861 4.36251H8.58203L9.05662 4.70715L8.8753 5.26505L9.34997 4.9204L9.82438 5.26505L9.64302 4.70715L10.1177 4.36251H9.53107L9.34997 3.80457Z" fill="#F0F0F0"/>
<path d="M6.87145 1.79102L6.69014 2.349H6.10352L6.57814 2.69369L6.39687 3.25159L6.87145 2.9069L7.34591 3.25159L7.16454 2.69369L7.63922 2.349H7.0526L6.87145 1.79102Z" fill="#F0F0F0"/>
<path d="M9.34997 1.79102L9.16861 2.349H8.58203L9.05662 2.69369L8.8753 3.25159L9.34997 2.9069L9.82438 3.25159L9.64302 2.69369L10.1177 2.349H9.53107L9.34997 1.79102Z" fill="#F0F0F0"/>
</svg>
