<svg width="25" height="24" viewBox="0 0 25 24" fill="none" xmlns="http://www.w3.org/2000/svg">
<path d="M22.5 12C22.5 17.5228 18.0228 22 12.5 22C6.97715 22 2.5 17.5228 2.5 12C2.5 6.47715 6.97715 2 12.5 2C18.0228 2 22.5 6.47715 22.5 12Z" stroke="#888888" stroke-width="1.5"/>
<path d="M15.25 9.5C15.25 11.0188 14.0188 12.25 12.5 12.25C10.9812 12.25 9.75 11.0188 9.75 9.5C9.75 7.98122 10.9812 6.75 12.5 6.75C14.0188 6.75 15.25 7.98122 15.25 9.5Z" stroke="#888888" stroke-width="1.5"/>
<path d="M6 19L6.5604 18.0193C7.45061 16.4615 9.10733 15.5 10.9017 15.5H14.0984C15.8927 15.5 17.5494 16.4615 18.4396 18.0193L19 19" stroke="#888888" stroke-width="1.5" stroke-linecap="round" stroke-linejoin="round"/>
</svg>
