<svg width="16" height="16" viewBox="0 0 16 16" fill="none" xmlns="http://www.w3.org/2000/svg">
<path d="M7.67628 1.39555C7.88442 1.31265 8.11575 1.31265 8.32388 1.39555C8.99482 1.66275 9.12588 2.69167 9.91755 2.74895C10.475 2.78928 11.0221 2.32455 11.5815 2.46387C11.8071 2.52006 12.0019 2.6639 12.1241 2.86442C12.4982 3.47887 12.0153 4.38199 12.6256 4.89183C13.0496 5.24589 13.7501 5.20007 14.1187 5.63411C14.2739 5.81693 14.3502 6.05539 14.3303 6.29584C14.2713 7.01111 13.3593 7.45844 13.5597 8.22931C13.6984 8.76291 14.2836 9.13804 14.3303 9.70424C14.3502 9.94471 14.2739 10.1832 14.1187 10.366C13.6555 10.9113 12.6539 10.7317 12.3651 11.4708C12.1623 11.9896 12.4227 12.6452 12.1241 13.1356C12.0019 13.3362 11.8071 13.48 11.5815 13.5362C10.8869 13.7092 10.1819 12.963 9.51348 13.3839C9.03628 13.6843 8.86528 14.389 8.32388 14.6045C8.11575 14.6874 7.88442 14.6874 7.67628 14.6045C7.13488 14.389 6.96388 13.6843 6.48668 13.3839C5.82656 12.9683 5.1015 13.7062 4.41869 13.5362C4.19306 13.48 3.99822 13.3362 3.87612 13.1356C3.50199 12.5212 3.98478 11.618 3.37455 11.1082C2.95063 10.7542 2.25004 10.8 1.88144 10.366C1.72622 10.1832 1.64998 9.94471 1.66985 9.70424C1.71665 9.13804 2.30168 8.76291 2.44042 8.22931C2.6388 7.46651 1.72811 7.00064 1.66985 6.29584C1.64998 6.05539 1.72622 5.81693 1.88144 5.63411C2.34459 5.0886 3.34608 5.26839 3.635 4.52926C3.83783 4.01044 3.57747 3.35489 3.87612 2.86442C3.99822 2.6639 4.19306 2.52006 4.41869 2.46387C4.97812 2.32455 5.52513 2.78929 6.0826 2.74895C6.87428 2.69168 7.00535 1.66275 7.67628 1.39555Z" stroke="#CC4924" stroke-linejoin="round"/>
<path d="M6 8.88883C6 8.88883 6.58333 8.88883 7.16667 9.99996C7.16667 9.99996 9.0196 7.22216 10.6667 6.66663" stroke="#CC4924" stroke-linecap="round" stroke-linejoin="round"/>
</svg>
