<svg width="32" height="32" viewBox="0 0 32 32" fill="none" xmlns="http://www.w3.org/2000/svg">
<path d="M2.66992 2.66602L29.3037 29.3327" stroke="white" stroke-width="2" stroke-linecap="round"/>
<path d="M22.4695 22.4911C22.2973 23.7423 21.9561 24.6232 21.2801 25.3C19.9149 26.6669 17.7177 26.6669 13.3234 26.6669H11.9917C7.59739 26.6669 5.40021 26.6669 4.03507 25.3C2.66992 23.9332 2.66992 21.7333 2.66992 17.3336V14.6669C2.66992 10.2671 2.66992 8.0672 4.03507 6.70035C4.49176 6.2431 5.04156 5.93882 5.73559 5.73633" stroke="white" stroke-width="2" stroke-linecap="round"/>
<path d="M10.9824 5.33468C11.3049 5.33398 11.6407 5.33398 11.9903 5.33398H13.322C17.7163 5.33398 19.9135 5.33398 21.2786 6.70082C22.6437 8.06765 22.6437 10.2675 22.6437 14.6673V17.0105M22.6437 12.3092L25.7365 10.0395C27.6979 8.72162 28.5993 9.56326 28.8906 10.1986C29.4929 11.9048 29.3031 15.1921 29.3031 19.3896C29.1611 22.074 28.7943 22.3632 28.419 22.6592L28.415 22.6623" stroke="white" stroke-width="2" stroke-linecap="round" stroke-linejoin="round"/>
</svg>
