<svg width="21" height="20" viewBox="0 0 21 20" fill="none" xmlns="http://www.w3.org/2000/svg">
<path d="M12.1667 2.5H4.66667C3.74619 2.5 3 3.24619 3 4.16667C3 5.08714 3.74619 5.83333 4.66667 5.83333H15.5C15.5 5.05836 15.5 4.67087 15.4148 4.35295C15.1837 3.49022 14.5097 2.81635 13.6471 2.58518C13.3292 2.5 12.9417 2.5 12.1667 2.5Z" stroke="#CC4924" stroke-width="1.5" stroke-linecap="round" stroke-linejoin="round"/>
<path d="M18.0003 10H16.3337C15.9462 10 15.7524 10 15.5935 10.0426C15.1621 10.1582 14.8252 10.4951 14.7096 10.9265C14.667 11.0854 14.667 11.2792 14.667 11.6667C14.667 12.0542 14.667 12.2479 14.7096 12.4068C14.8252 12.8382 15.1621 13.1752 15.5935 13.2908C15.7524 13.3333 15.9462 13.3333 16.3337 13.3333H18.0003" stroke="#CC4924" stroke-width="1.5" stroke-linecap="round" stroke-linejoin="round"/>
<path d="M3 4.16699V12.5003C3 14.8573 3 16.0358 3.73223 16.7681C4.46447 17.5003 5.64298 17.5003 8 17.5003H13C15.357 17.5003 16.5355 17.5003 17.2677 16.7681C18 16.0358 18 14.8573 18 12.5003V10.8337C18 8.47666 18 7.29813 17.2677 6.56589C16.5355 5.83366 15.357 5.83366 13 5.83366H3.33333" stroke="#231F20" stroke-width="1.5" stroke-linecap="round" stroke-linejoin="round"/>
</svg>
