<svg xmlns="http://www.w3.org/2000/svg" width="27" height="27" viewBox="0 0 27 27" fill="none"><path d="M19.8028 16.2135C19.5315 16.0787 17.7683 15.2697 17.497 15.1348C17.2257 15 16.9544 15 16.6832 15.2697C16.4119 15.5393 15.8694 16.3483 15.5981 16.618C15.4625 16.8876 15.1912 16.8876 14.9199 16.7528C13.9705 16.3483 13.021 15.809 12.2072 15.1348C11.529 14.4607 10.8508 13.6517 10.3083 12.8427C10.1727 12.573 10.3083 12.3034 10.4439 12.1685C10.5796 12.0337 10.7152 11.764 10.9865 11.6292C11.1221 11.4944 11.2578 11.2247 11.2578 11.0899C11.3934 10.9551 11.3934 10.6854 11.2578 10.5506C11.1221 10.4157 10.4439 8.79775 10.1727 8.1236C10.037 7.17978 9.76576 7.17978 9.49449 7.17978H8.81631C8.54504 7.17978 8.13813 7.44944 8.0025 7.58427C7.18868 8.39326 6.78178 9.33708 6.78178 10.4157C6.91741 11.6292 7.32432 12.8427 8.13813 13.9213C9.63012 16.0787 11.529 17.8315 13.8348 18.9101C14.513 19.1798 15.0555 19.4494 15.7337 19.5843C16.4119 19.8539 17.0901 19.8539 17.9039 19.7191C18.8533 19.5843 19.6672 18.9101 20.2097 18.1011C20.481 17.5618 20.481 17.0225 20.3453 16.4831L19.8028 16.2135ZM23.1937 3.94382C17.9039 -1.31461 9.35885 -1.31461 4.06907 3.94382C-0.271271 8.25843 -1.08508 14.8652 1.8989 20.1236L0 27L7.18868 25.1124C9.22322 26.191 11.3934 26.7303 13.5636 26.7303C21.0235 26.7303 26.9915 20.7978 26.9915 13.382C27.1271 9.8764 25.6351 6.50562 23.1937 3.94382ZM19.5315 22.8202C17.7683 23.8989 15.7337 24.573 13.5636 24.573C11.529 24.573 9.63012 24.0337 7.86686 23.0899L7.45995 22.8202L3.25525 23.8989L4.34034 19.8539L4.06907 19.4494C0.813813 14.0562 2.44144 7.31461 7.73123 3.94382C13.021 0.573034 19.8028 2.32584 23.058 7.44944C26.3133 12.7079 24.8213 19.5843 19.5315 22.8202Z" fill="#7AB3C5"></path></svg>