<svg width="39" height="39" viewBox="0 0 39 39" fill="none" xmlns="http://www.w3.org/2000/svg">
<g clip-path="url(#clip0_12_526)">
<path d="M15.0429 6.17846C13.6699 4.89363 12.4402 3.52422 10.3987 3.64505C6.71755 3.85851 3.76071 6.94371 3.65724 10.6774C3.61745 12.1958 4.04724 13.7062 4.8949 14.9628C6.98418 18.0601 9.74204 17.5687 12.874 18.2494C13.5983 18.4065 14.3027 18.6481 14.9712 18.9663C16.2845 19.5906 17.4545 20.5089 18.3817 21.6367C19.3169 22.7765 19.9974 24.1258 20.3556 25.5596C20.5864 26.482 20.6819 27.4365 20.6461 28.3871C20.4591 33.5828 16.2765 37.8078 11.1389 37.9891C5.77837 38.1784 1.33316 34.0339 0.951122 28.7496H3.66122C4.04326 32.5436 7.31051 35.4718 11.2065 35.2502C14.8877 35.0408 17.8445 31.9556 17.948 28.226C17.9957 26.5867 17.5022 25.0683 16.6387 23.8318C15.8348 22.6839 14.6887 21.8099 13.3913 21.3104C10.3032 20.1263 7.10755 20.7989 4.42133 18.487C2.145 16.5256 0.855611 13.5733 0.955101 10.5485C1.1302 5.33667 5.31275 1.08747 10.4623 0.902198C13.2321 0.801506 16.3084 1.15191 18.1549 2.92409" fill="white"/>
<path d="M21.5415 28.0007C21.5415 28.1376 21.5415 28.2786 21.5336 28.4196C21.458 30.5422 20.7655 32.5238 19.6393 34.1711C18.517 35.8184 16.957 37.1395 15.1264 37.9611C13.9087 38.5089 12.5755 38.8351 11.1747 38.8835C11.0473 38.8835 10.92 38.8915 10.7927 38.8915C7.95918 38.8915 5.37643 37.7759 3.45827 35.9634C1.5401 34.151 0.274592 31.6296 0.0716327 28.8143L0 27.8517H4.46112L4.54469 28.6572C4.70388 30.2602 5.45204 31.682 6.57031 32.7131C7.68857 33.7401 9.16102 34.3604 10.7927 34.3644C10.912 34.3644 11.0354 34.3644 11.1588 34.3523C12.3646 34.2839 13.4829 33.861 14.4181 33.1843C15.3533 32.5117 16.1014 31.5813 16.5591 30.5099C16.8655 29.793 17.0446 29.0116 17.0685 28.198V28.0087C17.0685 26.6393 16.6466 25.3827 15.9223 24.3436C15.2259 23.3527 14.2231 22.5794 13.0849 22.1444C12.3009 21.8464 11.4811 21.6692 10.6335 21.5282C9.78582 21.3832 8.91031 21.2745 8.0149 21.0892C7.41796 20.9643 6.81306 20.8032 6.21214 20.5737C5.40827 20.2635 4.60837 19.8165 3.85225 19.168C1.45653 17.1018 0.0716327 14.0448 0.0676531 10.867C0.0676531 10.7501 0.0716327 10.6333 0.0756122 10.5165C0.143265 8.3859 0.827755 6.40026 1.95398 4.74488C3.07622 3.08951 4.63622 1.7644 6.46684 0.934699C7.68857 0.382907 9.02571 0.0566652 10.4305 0.00430539C10.5618 0.00430539 10.6892 0.00430539 10.8205 0.00430539H10.8364C13.6659 0.000277711 16.8615 1.20858 18.7757 3.01701C17.4863 4.06018 16.7063 5.61083 16.6307 7.27829L16.6228 7.46759C15.5045 6.44053 12.4482 4.52739 10.8205 4.52739C10.6971 4.52739 10.5738 4.53141 10.4504 4.53947C9.24061 4.60794 8.12633 5.03085 7.19112 5.7075C6.25592 6.38415 5.50776 7.31454 5.0501 8.3859C4.74367 9.10283 4.56459 9.8842 4.54469 10.7018C4.54469 10.7985 4.54469 10.8951 4.54469 10.9918C4.56857 12.2323 4.94265 13.4326 5.63112 14.4556C6.0251 15.0356 6.42704 15.4545 6.84092 15.7686C7.25878 16.0868 7.69255 16.3043 8.1701 16.4735C8.48847 16.5863 8.82674 16.6749 9.1849 16.7474C9.66245 16.8481 10.1758 16.9205 10.721 16.993C11.4493 17.0897 12.2372 17.1904 13.069 17.3716C13.8569 17.5448 14.625 17.8066 15.3533 18.153C16.7859 18.8337 18.0594 19.8326 19.0702 21.061C20.089 22.3056 20.8292 23.7716 21.2192 25.3384C21.4341 26.2084 21.5455 27.1025 21.5455 28.0007H21.5415Z" fill="white"/>
<path d="M38.2916 3.79407L37.6867 3.7256C37.0182 3.6531 36.3655 3.7256 35.7566 3.91893C35.7248 3.84643 35.689 3.77393 35.6412 3.70143C35.4263 3.35505 34.0852 1.90509 33.8225 1.63121C34.5429 1.34122 35.3229 1.18414 36.1307 1.18816L37.3723 1.62718C36.3098 1.59496 35.2831 1.80843 34.3518 2.23939C34.3479 2.23939 34.3399 2.24341 34.3359 2.24744C33.938 1.92523 33.5121 1.64329 33.0704 1.38149C34.5986 0.48332 36.4212 0.0805522 38.2797 0.338324L38.996 0.439015L38.2876 3.79407H38.2916Z" fill="white"/>
<path d="M17.9599 10.8828C17.9599 16.3967 22.3772 20.8674 27.8253 20.8674C33.2734 20.8674 37.6907 16.3967 37.6907 10.8828C37.6907 5.3689 33.2734 0.894146 27.8253 0.894146C22.3772 0.894146 17.9599 5.36487 17.9599 10.8788V10.8828ZM34.9886 10.8828C34.9886 14.8863 31.781 18.1326 27.8253 18.1326C23.8696 18.1326 20.662 14.8863 20.662 10.8828C20.662 6.87927 23.8696 3.63297 27.8253 3.63297C31.781 3.63297 34.9886 6.87927 34.9886 10.8828Z" fill="white"/>
<path d="M36.1228 3.95921C35.4661 3.15367 34.6981 2.4448 33.8385 1.85676C32.1233 0.684705 30.0499 0 27.8253 0C26.3449 0 24.9282 0.306103 23.6388 0.853868C21.7087 1.67954 20.0691 3.06103 18.911 4.79696C17.753 6.53289 17.0724 8.63131 17.0724 10.8828H18.8434C18.8434 9.62615 19.0941 8.43396 19.5478 7.34648C20.2283 5.71527 21.3704 4.32573 22.8031 3.347C24.2357 2.36827 25.9589 1.79634 27.8253 1.79634C29.0669 1.79634 30.2449 2.05009 31.3194 2.50924C32.9311 3.19798 34.3041 4.35392 35.2711 5.80388C36.2382 7.25385 36.8033 8.99783 36.8033 10.8868C36.8033 12.1434 36.5525 13.3356 36.0989 14.4231C35.4184 16.0543 34.2762 17.4439 32.8436 18.4226C31.4109 19.4013 29.6878 19.9733 27.8213 19.9733C26.5797 19.9733 25.4017 19.7195 24.3272 19.2604C22.7155 18.5716 21.3426 17.4157 20.3755 15.9657C19.4085 14.5157 18.8434 12.7718 18.8434 10.8828H17.0724C17.0724 12.3811 17.3749 13.8149 17.9161 15.1199C18.7319 17.0733 20.0969 18.7327 21.8121 19.9048C23.5273 21.0768 25.6007 21.7656 27.8253 21.7656C29.3057 21.7656 30.7224 21.4595 32.0118 20.9117C33.9419 20.086 35.5815 18.7045 36.7396 16.9686C37.8977 15.2327 38.5782 13.1343 38.5782 10.8828C38.5782 9.38449 38.2757 7.95064 37.7345 6.64567C37.3246 5.66694 36.7794 4.76474 36.1228 3.95921ZM34.9886 10.8828H34.1051C34.1051 11.7608 33.93 12.5945 33.6116 13.3558C33.1341 14.4956 32.3382 15.4663 31.3353 16.151C30.3324 16.8357 29.1306 17.2344 27.8253 17.2344C26.9578 17.2344 26.134 17.0572 25.3818 16.735C24.2556 16.2517 23.2965 15.4461 22.62 14.4312C21.9435 13.4162 21.5495 12.1998 21.5495 10.8788C21.5495 10.0007 21.7246 9.16699 22.043 8.40576C22.5205 7.26593 23.3164 6.29526 24.3193 5.61055C25.3221 4.92585 26.524 4.52711 27.8293 4.52711C28.6968 4.52711 29.5206 4.70433 30.2728 5.02654C31.399 5.50986 32.3581 6.3154 33.0346 7.33037C33.7111 8.34535 34.1051 9.56171 34.1051 10.8828H35.876C35.876 9.75906 35.6492 8.6877 35.2433 7.713C34.6304 6.25096 33.6116 5.0064 32.3262 4.12837C31.0408 3.25034 29.4888 2.73479 27.8253 2.73479C26.715 2.73479 25.6564 2.96437 24.6934 3.37519C23.2488 3.99546 22.0191 5.02654 21.1515 6.32748C20.284 7.62842 19.7746 9.19922 19.7746 10.8828C19.7746 12.0065 20.0014 13.0779 20.4073 14.0526C21.0202 15.5146 22.039 16.7592 23.3244 17.6372C24.6098 18.5152 26.1618 19.0308 27.8253 19.0308C28.9356 19.0308 29.9942 18.8012 30.9572 18.3904C32.4018 17.7701 33.6315 16.739 34.4991 15.4381C35.3666 14.1371 35.876 12.5664 35.876 10.8828H34.9925H34.9886Z" fill="white"/>
<path d="M23.1533 33.6956C24.3949 34.7387 25.9907 35.367 27.7298 35.367C31.6855 35.367 34.8931 32.1207 34.8931 28.1172C34.8931 24.3916 32.1153 21.3225 28.5377 20.9157V18.1689C33.6077 18.5877 37.5952 22.8812 37.5952 28.1172C37.5952 33.6311 33.1779 38.1018 27.7298 38.1018C25.2823 38.1018 23.0458 37.1996 21.3227 35.7094" fill="white"/>
<path d="M20.2402 35.8463C22.1226 37.4936 25.0476 39 27.7298 39C29.2102 39 30.6269 38.6939 31.9163 38.1461C33.8464 37.3205 35.486 35.939 36.6441 34.203C37.8021 32.4671 38.4827 30.3687 38.4827 28.1172C38.4827 25.2656 37.3962 22.6637 35.6213 20.7264C33.8464 18.7891 31.3751 17.5043 28.6133 17.2747L27.6542 17.1942V21.7132L28.4421 21.8018C30.0061 21.979 31.399 22.7403 32.4018 23.868C33.4047 24.9958 34.0096 26.478 34.0096 28.1132C34.0096 28.9912 33.8345 29.825 33.5161 30.5862C33.0386 31.726 32.2427 32.6967 31.2398 33.3814C30.2369 34.0661 29.0351 34.4648 27.7298 34.4648C26.2215 34.4648 23.5273 32.8377 22.4449 31.9435L22.417 32.1368C22.1982 33.611 21.4182 34.9361 20.2442 35.8342L20.2402 35.8463Z" fill="white"/>
<path d="M22.6479 34.4366C24.0328 35.5805 25.8077 36.2652 27.7298 36.2652C28.8401 36.2652 29.8987 36.0356 30.8617 35.6248C32.3063 35.0045 33.536 33.9735 34.4036 32.6725C35.2711 31.3716 35.7805 29.8008 35.7805 28.1172C35.7805 26.0269 35.0005 24.1097 33.7151 22.6718C32.4337 21.2299 30.6468 20.2512 28.6371 20.0256L28.5377 20.9157H29.4211V18.1689H28.5377L28.466 19.063C30.7742 19.2523 32.8316 20.3237 34.316 21.9468C35.8004 23.57 36.7078 25.7328 36.7078 28.1212C36.7078 29.3779 36.457 30.5701 36.0034 31.6575C35.3229 33.2888 34.1807 34.6783 32.7481 35.657C31.3154 36.6358 29.5922 37.2077 27.7258 37.2077C25.4813 37.2077 23.4716 36.4626 21.8957 35.0891" fill="white"/>
</g>
<defs>
<clipPath id="clip0_12_526">
<rect width="39" height="39" fill="white"/>
</clipPath>
</defs>
</svg>
